<svg version="1.1" xmlns="http://www.w3.org/2000/svg" xmlns:xlink="http://www.w3.org/1999/xlink" width="932" height="626"><defs><linearGradient id="OdCeHiCGvxrZ" x1="0px" x2="32px" y1="0px" y2="0px" gradientUnits="userSpaceOnUse"><stop offset="0" stop-color="#44ba44"/><stop offset="1" stop-color="#639c63"/></linearGradient><linearGradient id="PSVdfSLDzGlg" x1="0px" x2="32px" y1="0px" y2="0px" gradientUnits="userSpaceOnUse"><stop offset="0" stop-color="#639c63"/><stop offset="1" stop-color="#807f7f"/></linearGradient><linearGradient id="fShrEormXzxB" x1="0px" x2="32px" y1="0px" y2="0px" gradientUnits="userSpaceOnUse"><stop offset="0" stop-color="#26d926"/><stop offset="1" stop-color="#44ba44"/></linearGradient><linearGradient id="SOJRNGQVymnd" x1="0px" x2="32px" y1="0px" y2="0px" gradientUnits="userSpaceOnUse"><stop offset="0" stop-color="#807f7f"/><stop offset="1" stop-color="#807f7f"/></linearGradient><linearGradient id="OPRUwaEPAmce" x1="0px" x2="32px" y1="0px" y2="0px" gradientUnits="userSpaceOnUse"><stop offset="0" stop-color="#26d926"/><stop offset="1" stop-color="#26d926"/></linearGradient><linearGradient id="rQafHHMKQnKl" x1="0px" x2="32px" y1="0px" y2="0px" gradientUnits="userSpaceOnUse"><stop offset="0" stop-color="#26d926"/><stop offset="1" stop-color="#26d926"/></linearGradient><linearGradient id="dXdftMCKEsiE" x1="0px" x2="32px" y1="0px" y2="0px" gradientUnits="userSpaceOnUse"><stop offset="0" stop-color="#44ba44"/><stop offset="1" stop-color="#807f7f"/></linearGradient></defs><g><rect fill="#000000" stroke="none" x="0" y="0" width="932" height="626"/><g transform="scale(1,1) translate(-330,195)"><path fill="none" stroke="#44ba44" paint-order="fill stroke markers" d=" M 888 -64 L 864 -64" stroke-linecap="round" stroke-miterlimit="10" stroke-width="3" stroke-dasharray=""/><path fill="none" stroke="#639c63" paint-order="fill stroke markers" d=" M 832 -64 L 808 -64" stroke-linecap="round" stroke-miterlimit="10" stroke-width="3" stroke-dasharray=""/><g transform="matrix(-1,0,0,-1,864,-64)"><path fill="none" stroke="url(#OdCeHiCGvxrZ)" paint-order="fill stroke markers" d=" M 0 0 L 2 6 L 6 -6 L 10 6 L 14 -6 L 18 6 L 22 -6 L 26 6 L 30 -6 L 32 0" stroke-linecap="round" stroke-miterlimit="10" stroke-width="3" stroke-dasharray=""/></g><text fill="#ffffff" stroke="none" font-family="sans-serif" font-size="12px" font-style="normal" font-weight="normal" text-decoration="normal" x="842" y="-74" text-anchor="start" dominant-baseline="alphabetic">5k</text><path fill="none" stroke="#ff0000" paint-order="fill stroke markers" d=" M 792 216 L 792 238" stroke-linecap="round" stroke-miterlimit="10" stroke-width="3" stroke-dasharray=""/><path fill="none" stroke="#26d926" paint-order="fill stroke markers" d=" M 808 216 L 808 238" stroke-linecap="round" stroke-miterlimit="10" stroke-width="3" stroke-dasharray=""/><path fill="none" stroke="#807f7f" paint-order="fill stroke markers" d=" M 800 274 L 800 288" stroke-linecap="round" stroke-miterlimit="10" stroke-width="3" stroke-dasharray=""/><path fill="none" stroke="#c0c0c0" paint-order="fill stroke markers" d=" M 814 237 L 814 246 C 811 258 811 258 800 266 C 789 258 789 258 786 246 L 786 237 C 800 240 800 240 814 237 Z" stroke-linecap="round" stroke-miterlimit="10" stroke-width="3" stroke-dasharray=""/><path fill="none" stroke="#c0c0c0" paint-order="fill stroke markers" d=" M 802.94 270 A 2.94 2.94 0 1 1 802.9399985300001 269.99706000049" stroke-linecap="round" stroke-miterlimit="10" stroke-width="3" stroke-dasharray=""/><path fill="none" stroke="#807f7f" paint-order="fill stroke markers" d=" M 608 -64 L 608 -32" stroke-linecap="round" stroke-miterlimit="10" stroke-width="3" stroke-dasharray=""/><path fill="none" stroke="#807f7f" paint-order="fill stroke markers" d=" M 618 -32 L 598 -32" stroke-linecap="round" stroke-miterlimit="10" stroke-width="3" stroke-dasharray=""/><path fill="none" stroke="#807f7f" paint-order="fill stroke markers" d=" M 614 -27 L 602 -27" stroke-linecap="round" stroke-miterlimit="10" stroke-width="3" stroke-dasharray=""/><path fill="none" stroke="#807f7f" paint-order="fill stroke markers" d=" M 610 -22 L 606 -22" stroke-linecap="round" stroke-miterlimit="10" stroke-width="3" stroke-dasharray=""/><path fill="none" stroke="#26d926" paint-order="fill stroke markers" d=" M 1168 -64 L 1168 -103" stroke-linecap="round" stroke-miterlimit="10" stroke-width="3" stroke-dasharray=""/><g><text fill="#ffffff" stroke="none" font-family="sans-serif" font-size="12px" font-style="normal" font-weight="normal" text-decoration="normal" x="1158" y="-115" text-anchor="start" dominant-baseline="central">+5V</text></g><g><text fill="#c0c0c0" stroke="none" font-family="sans-serif" font-size="18px" font-style="normal" font-weight="normal" text-decoration="normal" x="558" y="-76" text-anchor="start" dominant-baseline="alphabetic">Ground (1)</text></g><path fill="none" stroke="#807f7f" paint-order="fill stroke markers" d=" M 712 -64 L 608 -64" stroke-linecap="round" stroke-miterlimit="10" stroke-width="3" stroke-dasharray=""/><text fill="#ffffff" stroke="none" font-family="sans-serif" font-size="12px" font-style="normal" font-weight="normal" text-decoration="normal" x="660" y="-70" text-anchor="start" dominant-baseline="alphabetic"></text><g><text fill="#c0c0c0" stroke="none" font-family="sans-serif" font-size="18px" font-style="normal" font-weight="normal" text-decoration="normal" x="1041" y="-73" text-anchor="start" dominant-baseline="alphabetic">(8) +Vcc</text></g><path fill="none" stroke="#807f7f" paint-order="fill stroke markers" d=" M 744 -8 L 734 5" stroke-linecap="round" stroke-miterlimit="10" stroke-width="3" stroke-dasharray=""/><path fill="none" stroke="#807f7f" paint-order="fill stroke markers" d=" M 712 -8 L 722 5" stroke-linecap="round" stroke-miterlimit="10" stroke-width="3" stroke-dasharray=""/><path fill="#c0c0c0" stroke="none" paint-order="stroke fill markers" d=" M 712 -8 L 714 1 L 720 -4 Z"/><path fill="none" stroke="#807f7f" paint-order="fill stroke markers" d=" M 728 32 L 728 8" stroke-linecap="round" stroke-miterlimit="10" stroke-width="3" stroke-dasharray=""/><path fill="#807f7f" stroke="none" paint-order="stroke fill markers" d=" M 712 8 L 712 5 L 744 5 L 744 8 Z"/><path fill="none" stroke="#26d926" paint-order="fill stroke markers" d=" M 776 40 L 776 62" stroke-linecap="round" stroke-miterlimit="10" stroke-width="3" stroke-dasharray=""/><path fill="none" stroke="#639c63" paint-order="fill stroke markers" d=" M 808 40 L 808 62" stroke-linecap="round" stroke-miterlimit="10" stroke-width="3" stroke-dasharray=""/><path fill="none" stroke="#ff0000" paint-order="fill stroke markers" d=" M 792 114 L 792 136" stroke-linecap="round" stroke-miterlimit="10" stroke-width="3" stroke-dasharray=""/><path fill="none" stroke="#c0c0c0" paint-order="fill stroke markers" d=" M 760 62 L 824 62 L 792 114 Z" stroke-linecap="round" stroke-miterlimit="10" stroke-width="3" stroke-dasharray=""/><g><text fill="#c0c0c0" stroke="none" font-family="sans-serif" font-size="14px" font-style="normal" font-weight="normal" text-decoration="normal" x="776" y="70" text-anchor="middle" dominant-baseline="central">-</text></g><g><text fill="#c0c0c0" stroke="none" font-family="sans-serif" font-size="14px" font-style="normal" font-weight="normal" text-decoration="normal" x="808" y="72" text-anchor="middle" dominant-baseline="central">+</text></g><path fill="none" stroke="#639c63" paint-order="fill stroke markers" d=" M 808 40 L 808 -64" stroke-linecap="round" stroke-miterlimit="10" stroke-width="3" stroke-dasharray=""/><text fill="#ffffff" stroke="none" font-family="sans-serif" font-size="12px" font-style="normal" font-weight="normal" text-decoration="normal" x="814" y="-6" text-anchor="start" dominant-baseline="alphabetic"></text><path fill="none" stroke="#639c63" paint-order="fill stroke markers" d=" M 808 -64 L 784 -64" stroke-linecap="round" stroke-miterlimit="10" stroke-width="3" stroke-dasharray=""/><path fill="none" stroke="#807f7f" paint-order="fill stroke markers" d=" M 752 -64 L 728 -64" stroke-linecap="round" stroke-miterlimit="10" stroke-width="3" stroke-dasharray=""/><g transform="matrix(-1,0,0,-1,784,-64)"><path fill="none" stroke="url(#PSVdfSLDzGlg)" paint-order="fill stroke markers" d=" M 0 0 L 2 6 L 6 -6 L 10 6 L 14 -6 L 18 6 L 22 -6 L 26 6 L 30 -6 L 32 0" stroke-linecap="round" stroke-miterlimit="10" stroke-width="3" stroke-dasharray=""/></g><text fill="#ffffff" stroke="none" font-family="sans-serif" font-size="12px" font-style="normal" font-weight="normal" text-decoration="normal" x="762" y="-74" text-anchor="start" dominant-baseline="alphabetic">5k</text><path fill="none" stroke="#26d926" paint-order="fill stroke markers" d=" M 976 -64 L 948 -64" stroke-linecap="round" stroke-miterlimit="10" stroke-width="3" stroke-dasharray=""/><path fill="none" stroke="#44ba44" paint-order="fill stroke markers" d=" M 916 -64 L 888 -64" stroke-linecap="round" stroke-miterlimit="10" stroke-width="3" stroke-dasharray=""/><g transform="matrix(-1,0,0,-1,948,-64)"><path fill="none" stroke="url(#fShrEormXzxB)" paint-order="fill stroke markers" d=" M 0 0 L 2 6 L 6 -6 L 10 6 L 14 -6 L 18 6 L 22 -6 L 26 6 L 30 -6 L 32 0" stroke-linecap="round" stroke-miterlimit="10" stroke-width="3" stroke-dasharray=""/></g><text fill="#ffffff" stroke="none" font-family="sans-serif" font-size="12px" font-style="normal" font-weight="normal" text-decoration="normal" x="926" y="-74" text-anchor="start" dominant-baseline="alphabetic">5k</text><path fill="none" stroke="#44ba44" paint-order="fill stroke markers" d=" M 888 40 L 888 62" stroke-linecap="round" stroke-miterlimit="10" stroke-width="3" stroke-dasharray=""/><path fill="none" stroke="#807f7f" paint-order="fill stroke markers" d=" M 920 40 L 920 62" stroke-linecap="round" stroke-miterlimit="10" stroke-width="3" stroke-dasharray=""/><path fill="none" stroke="#ff0000" paint-order="fill stroke markers" d=" M 904 114 L 904 136" stroke-linecap="round" stroke-miterlimit="10" stroke-width="3" stroke-dasharray=""/><path fill="none" stroke="#c0c0c0" paint-order="fill stroke markers" d=" M 872 62 L 936 62 L 904 114 Z" stroke-linecap="round" stroke-miterlimit="10" stroke-width="3" stroke-dasharray=""/><g><text fill="#c0c0c0" stroke="none" font-family="sans-serif" font-size="14px" font-style="normal" font-weight="normal" text-decoration="normal" x="888" y="70" text-anchor="middle" dominant-baseline="central">-</text></g><g><text fill="#c0c0c0" stroke="none" font-family="sans-serif" font-size="14px" font-style="normal" font-weight="normal" text-decoration="normal" x="920" y="72" text-anchor="middle" dominant-baseline="central">+</text></g><path fill="none" stroke="#44ba44" paint-order="fill stroke markers" d=" M 888 -64 L 888 16" stroke-linecap="round" stroke-miterlimit="10" stroke-width="3" stroke-dasharray=""/><text fill="#ffffff" stroke="none" font-family="sans-serif" font-size="12px" font-style="normal" font-weight="normal" text-decoration="normal" x="894" y="-18" text-anchor="start" dominant-baseline="alphabetic"></text><path fill="none" stroke="#26d926" paint-order="fill stroke markers" d=" M 1168 -64 L 976 -64" stroke-linecap="round" stroke-miterlimit="10" stroke-width="3" stroke-dasharray=""/><text fill="#ffffff" stroke="none" font-family="sans-serif" font-size="12px" font-style="normal" font-weight="normal" text-decoration="normal" x="1072" y="-70" text-anchor="start" dominant-baseline="alphabetic"></text><path fill="none" stroke="#807f7f" paint-order="fill stroke markers" d=" M 712 -8 L 712 -64" stroke-linecap="round" stroke-miterlimit="10" stroke-width="3" stroke-dasharray=""/><text fill="#ffffff" stroke="none" font-family="sans-serif" font-size="12px" font-style="normal" font-weight="normal" text-decoration="normal" x="718" y="-30" text-anchor="start" dominant-baseline="alphabetic"></text><path fill="none" stroke="#807f7f" paint-order="fill stroke markers" d=" M 728 -64 L 712 -64" stroke-linecap="round" stroke-miterlimit="10" stroke-width="3" stroke-dasharray=""/><text fill="#ffffff" stroke="none" font-family="sans-serif" font-size="12px" font-style="normal" font-weight="normal" text-decoration="normal" x="720" y="-70" text-anchor="start" dominant-baseline="alphabetic"></text><path fill="none" stroke="#807f7f" paint-order="fill stroke markers" d=" M 744 -8 L 1168 -8" stroke-linecap="round" stroke-miterlimit="10" stroke-width="3" stroke-dasharray=""/><text fill="#ffffff" stroke="none" font-family="sans-serif" font-size="12px" font-style="normal" font-weight="normal" text-decoration="normal" x="956" y="-14" text-anchor="start" dominant-baseline="alphabetic"></text><g><text fill="#c0c0c0" stroke="none" font-family="sans-serif" font-size="18px" font-style="normal" font-weight="normal" text-decoration="normal" x="1040" y="-17" text-anchor="start" dominant-baseline="alphabetic">(7) Discharge</text></g><path fill="none" stroke="#807f7f" paint-order="fill stroke markers" d=" M 920 40 L 1000 40" stroke-linecap="round" stroke-miterlimit="10" stroke-width="3" stroke-dasharray=""/><text fill="#ffffff" stroke="none" font-family="sans-serif" font-size="12px" font-style="normal" font-weight="normal" text-decoration="normal" x="960" y="34" text-anchor="start" dominant-baseline="alphabetic"></text><path fill="none" stroke="#807f7f" paint-order="fill stroke markers" d=" M 1000 40 L 1000 160" stroke-linecap="round" stroke-miterlimit="10" stroke-width="3" stroke-dasharray=""/><text fill="#ffffff" stroke="none" font-family="sans-serif" font-size="12px" font-style="normal" font-weight="normal" text-decoration="normal" x="1006" y="106" text-anchor="start" dominant-baseline="alphabetic"></text><path fill="none" stroke="#807f7f" paint-order="fill stroke markers" d=" M 1000 160 L 1168 160" stroke-linecap="round" stroke-miterlimit="10" stroke-width="3" stroke-dasharray=""/><text fill="#ffffff" stroke="none" font-family="sans-serif" font-size="12px" font-style="normal" font-weight="normal" text-decoration="normal" x="1084" y="154" text-anchor="start" dominant-baseline="alphabetic"></text><g><text fill="#c0c0c0" stroke="none" font-family="sans-serif" font-size="18px" font-style="normal" font-weight="normal" text-decoration="normal" x="1039" y="151" text-anchor="start" dominant-baseline="alphabetic">(6) Threshold</text></g><path fill="none" stroke="#807f7f" paint-order="fill stroke markers" d=" M 896 216 L 896 238" stroke-linecap="round" stroke-miterlimit="10" stroke-width="3" stroke-dasharray=""/><path fill="none" stroke="#807f7f" paint-order="fill stroke markers" d=" M 912 216 L 912 238" stroke-linecap="round" stroke-miterlimit="10" stroke-width="3" stroke-dasharray=""/><path fill="none" stroke="#26d926" paint-order="fill stroke markers" d=" M 904 274 L 904 288" stroke-linecap="round" stroke-miterlimit="10" stroke-width="3" stroke-dasharray=""/><path fill="none" stroke="#c0c0c0" paint-order="fill stroke markers" d=" M 918 237 L 918 246 C 915 258 915 258 904 266 C 893 258 893 258 890 246 L 890 237 C 904 240 904 240 918 237 Z" stroke-linecap="round" stroke-miterlimit="10" stroke-width="3" stroke-dasharray=""/><path fill="none" stroke="#c0c0c0" paint-order="fill stroke markers" d=" M 906.94 270 A 2.94 2.94 0 1 1 906.9399985300001 269.99706000049" stroke-linecap="round" stroke-miterlimit="10" stroke-width="3" stroke-dasharray=""/><path fill="none" stroke="#26d926" paint-order="fill stroke markers" d=" M 808 216 L 832 216" stroke-linecap="round" stroke-miterlimit="10" stroke-width="3" stroke-dasharray=""/><text fill="#ffffff" stroke="none" font-family="sans-serif" font-size="12px" font-style="normal" font-weight="normal" text-decoration="normal" x="820" y="210" text-anchor="start" dominant-baseline="alphabetic"></text><path fill="none" stroke="#26d926" paint-order="fill stroke markers" d=" M 888 288 L 904 288" stroke-linecap="round" stroke-miterlimit="10" stroke-width="3" stroke-dasharray=""/><text fill="#ffffff" stroke="none" font-family="sans-serif" font-size="12px" font-style="normal" font-weight="normal" text-decoration="normal" x="896" y="282" text-anchor="start" dominant-baseline="alphabetic"></text><path fill="none" stroke="#807f7f" paint-order="fill stroke markers" d=" M 880 216 L 896 216" stroke-linecap="round" stroke-miterlimit="10" stroke-width="3" stroke-dasharray=""/><text fill="#ffffff" stroke="none" font-family="sans-serif" font-size="12px" font-style="normal" font-weight="normal" text-decoration="normal" x="888" y="210" text-anchor="start" dominant-baseline="alphabetic"></text><path fill="none" stroke="#807f7f" paint-order="fill stroke markers" d=" M 800 288 L 824 288" stroke-linecap="round" stroke-miterlimit="10" stroke-width="3" stroke-dasharray=""/><text fill="#ffffff" stroke="none" font-family="sans-serif" font-size="12px" font-style="normal" font-weight="normal" text-decoration="normal" x="812" y="282" text-anchor="start" dominant-baseline="alphabetic"></text><path fill="none" stroke="#26d926" paint-order="fill stroke markers" d=" M 888 288 L 832 216" stroke-linecap="round" stroke-miterlimit="10" stroke-width="3" stroke-dasharray=""/><text fill="#ffffff" stroke="none" font-family="sans-serif" font-size="12px" font-style="normal" font-weight="normal" text-decoration="normal" x="865" y="260" text-anchor="start" dominant-baseline="alphabetic"></text><path fill="none" stroke="#807f7f" paint-order="fill stroke markers" d=" M 824 288 L 880 216" stroke-linecap="round" stroke-miterlimit="10" stroke-width="3" stroke-dasharray=""/><text fill="#ffffff" stroke="none" font-family="sans-serif" font-size="12px" font-style="normal" font-weight="normal" text-decoration="normal" x="847" y="256" text-anchor="start" dominant-baseline="alphabetic"></text><path fill="none" stroke="#26d926" paint-order="fill stroke markers" d=" M 824 320 L 544 320" stroke-linecap="round" stroke-miterlimit="10" stroke-width="3" stroke-dasharray=""/><text fill="#ffffff" stroke="none" font-family="sans-serif" font-size="12px" font-style="normal" font-weight="normal" text-decoration="normal" x="684" y="314" text-anchor="start" dominant-baseline="alphabetic"></text><path fill="none" stroke="#807f7f" paint-order="fill stroke markers" d=" M 728 160 L 708 160" stroke-linecap="round" stroke-miterlimit="10" stroke-width="3" stroke-dasharray=""/><path fill="none" stroke="#26d926" paint-order="fill stroke markers" d=" M 674 160 L 656 160" stroke-linecap="round" stroke-miterlimit="10" stroke-width="3" stroke-dasharray=""/><path fill="none" stroke="#c0c0c0" paint-order="fill stroke markers" d=" M 708 176 L 708 144 L 681 160 Z" stroke-linecap="round" stroke-miterlimit="10" stroke-width="3" stroke-dasharray=""/><path fill="none" stroke="#c0c0c0" paint-order="fill stroke markers" d=" M 680.94 160 A 2.94 2.94 0 1 1 680.9399985300001 159.99706000049" stroke-linecap="round" stroke-miterlimit="10" stroke-width="3" stroke-dasharray=""/><path fill="none" stroke="#26d926" paint-order="fill stroke markers" d=" M 656 160 L 544 160" stroke-linecap="round" stroke-miterlimit="10" stroke-width="3" stroke-dasharray=""/><text fill="#ffffff" stroke="none" font-family="sans-serif" font-size="12px" font-style="normal" font-weight="normal" text-decoration="normal" x="600" y="154" text-anchor="start" dominant-baseline="alphabetic"></text><path fill="none" stroke="#807f7f" paint-order="fill stroke markers" d=" M 800 288 L 728 288" stroke-linecap="round" stroke-miterlimit="10" stroke-width="3" stroke-dasharray=""/><text fill="#ffffff" stroke="none" font-family="sans-serif" font-size="12px" font-style="normal" font-weight="normal" text-decoration="normal" x="764" y="282" text-anchor="start" dominant-baseline="alphabetic"></text><path fill="none" stroke="#807f7f" paint-order="fill stroke markers" d=" M 728 72 L 728 32" stroke-linecap="round" stroke-miterlimit="10" stroke-width="3" stroke-dasharray=""/><text fill="#ffffff" stroke="none" font-family="sans-serif" font-size="12px" font-style="normal" font-weight="normal" text-decoration="normal" x="734" y="58" text-anchor="start" dominant-baseline="alphabetic"></text><path fill="none" stroke="#807f7f" paint-order="fill stroke markers" d=" M 728 160 L 728 132" stroke-linecap="round" stroke-miterlimit="10" stroke-width="3" stroke-dasharray=""/><path fill="none" stroke="#807f7f" paint-order="fill stroke markers" d=" M 728 100 L 728 72" stroke-linecap="round" stroke-miterlimit="10" stroke-width="3" stroke-dasharray=""/><g transform="matrix(0,-1,1,0,728,132)"><path fill="none" stroke="url(#SOJRNGQVymnd)" paint-order="fill stroke markers" d=" M 0 0 L 2 6 L 6 -6 L 10 6 L 14 -6 L 18 6 L 22 -6 L 26 6 L 30 -6 L 32 0" stroke-linecap="round" stroke-miterlimit="10" stroke-width="3" stroke-dasharray=""/></g><text fill="#ffffff" stroke="none" font-family="sans-serif" font-size="12px" font-style="normal" font-weight="normal" text-decoration="normal" x="738" y="122" text-anchor="start" dominant-baseline="alphabetic">10k</text><path fill="none" stroke="#807f7f" paint-order="fill stroke markers" d=" M 728 160 L 728 288" stroke-linecap="round" stroke-miterlimit="10" stroke-width="3" stroke-dasharray=""/><text fill="#ffffff" stroke="none" font-family="sans-serif" font-size="12px" font-style="normal" font-weight="normal" text-decoration="normal" x="734" y="230" text-anchor="start" dominant-baseline="alphabetic"></text><path fill="none" stroke="#26d926" paint-order="fill stroke markers" d=" M 776 40 L 504 40" stroke-linecap="round" stroke-miterlimit="10" stroke-width="3" stroke-dasharray=""/><text fill="#ffffff" stroke="none" font-family="sans-serif" font-size="12px" font-style="normal" font-weight="normal" text-decoration="normal" x="640" y="34" text-anchor="start" dominant-baseline="alphabetic"></text><g><text fill="#c0c0c0" stroke="none" font-family="sans-serif" font-size="18px" font-style="normal" font-weight="normal" text-decoration="normal" x="563" y="29" text-anchor="start" dominant-baseline="alphabetic">Trigger (2)</text></g><g><text fill="#c0c0c0" stroke="none" font-family="sans-serif" font-size="18px" font-style="normal" font-weight="normal" text-decoration="normal" x="566" y="148" text-anchor="start" dominant-baseline="alphabetic">Output (3)</text></g><g><text fill="#c0c0c0" stroke="none" font-family="sans-serif" font-size="18px" font-style="normal" font-weight="normal" text-decoration="normal" x="576" y="310" text-anchor="start" dominant-baseline="alphabetic">Reset (4)</text></g><path fill="none" stroke="#44ba44" paint-order="fill stroke markers" d=" M 888 16 L 976 16" stroke-linecap="round" stroke-miterlimit="10" stroke-width="3" stroke-dasharray=""/><text fill="#ffffff" stroke="none" font-family="sans-serif" font-size="12px" font-style="normal" font-weight="normal" text-decoration="normal" x="932" y="10" text-anchor="start" dominant-baseline="alphabetic"></text><path fill="none" stroke="#44ba44" paint-order="fill stroke markers" d=" M 976 16 L 976 320" stroke-linecap="round" stroke-miterlimit="10" stroke-width="3" stroke-dasharray=""/><text fill="#ffffff" stroke="none" font-family="sans-serif" font-size="12px" font-style="normal" font-weight="normal" text-decoration="normal" x="982" y="174" text-anchor="start" dominant-baseline="alphabetic"></text><path fill="none" stroke="#44ba44" paint-order="fill stroke markers" d=" M 976 320 L 1168 320" stroke-linecap="round" stroke-miterlimit="10" stroke-width="3" stroke-dasharray=""/><text fill="#ffffff" stroke="none" font-family="sans-serif" font-size="12px" font-style="normal" font-weight="normal" text-decoration="normal" x="1072" y="314" text-anchor="start" dominant-baseline="alphabetic"></text><path fill="none" stroke="#44ba44" paint-order="fill stroke markers" d=" M 888 40 L 888 16" stroke-linecap="round" stroke-miterlimit="10" stroke-width="3" stroke-dasharray=""/><text fill="#ffffff" stroke="none" font-family="sans-serif" font-size="12px" font-style="normal" font-weight="normal" text-decoration="normal" x="894" y="34" text-anchor="start" dominant-baseline="alphabetic"></text><g><text fill="#c0c0c0" stroke="none" font-family="sans-serif" font-size="18px" font-style="normal" font-weight="normal" text-decoration="normal" x="1042" y="310" text-anchor="start" dominant-baseline="alphabetic">(5) Control Voltage</text></g><g><text fill="#c0c0c0" stroke="none" font-family="sans-serif" font-size="40px" font-style="normal" font-weight="normal" text-decoration="normal" x="768" y="-145" text-anchor="start" dominant-baseline="alphabetic">555 timer</text></g><g><text fill="#c0c0c0" stroke="none" font-family="sans-serif" font-size="18px" font-style="normal" font-weight="normal" text-decoration="normal" x="774" y="210" text-anchor="start" dominant-baseline="alphabetic">S</text></g><g><text fill="#c0c0c0" stroke="none" font-family="sans-serif" font-size="18px" font-style="normal" font-weight="normal" text-decoration="normal" x="916" y="211" text-anchor="start" dominant-baseline="alphabetic">R</text></g><rect fill="none" stroke="#808080" x="655" y="-130" width="379" height="511" stroke-linecap="round" stroke-miterlimit="10" stroke-dasharray="16,6"/><path fill="none" stroke="#ff0000" paint-order="fill stroke markers" d=" M 904 136 L 904 150" stroke-linecap="round" stroke-miterlimit="10" stroke-width="3"/><path fill="none" stroke="#807f7f" paint-order="fill stroke markers" d=" M 920 136 L 920 150" stroke-linecap="round" stroke-miterlimit="10" stroke-width="3"/><path fill="none" stroke="#807f7f" paint-order="fill stroke markers" d=" M 912 178 L 912 192" stroke-linecap="round" stroke-miterlimit="10" stroke-width="3"/><path fill="none" stroke="#c0c0c0" paint-order="fill stroke markers" d=" M 926 149 L 926 158 C 923 170 923 170 912 178 C 901 170 901 170 898 158 L 898 149 C 912 152 912 152 926 149 Z" stroke-linecap="round" stroke-miterlimit="10" stroke-width="3"/><path fill="none" stroke="#807f7f" paint-order="fill stroke markers" d=" M 920 136 L 952 136" stroke-linecap="round" stroke-miterlimit="10" stroke-width="3"/><text fill="#ffffff" stroke="none" font-family="sans-serif" font-size="12px" font-style="normal" font-weight="normal" text-decoration="normal" x="936" y="130" text-anchor="start" dominant-baseline="alphabetic"></text><path fill="none" stroke="#807f7f" paint-order="fill stroke markers" d=" M 952 136 L 952 320" stroke-linecap="round" stroke-miterlimit="10" stroke-width="3"/><text fill="#ffffff" stroke="none" font-family="sans-serif" font-size="12px" font-style="normal" font-weight="normal" text-decoration="normal" x="958" y="234" text-anchor="start" dominant-baseline="alphabetic"></text><path fill="none" stroke="#ff0000" paint-order="fill stroke markers" d=" M 792 136 L 792 216" stroke-linecap="round" stroke-miterlimit="10" stroke-width="3"/><text fill="#ffffff" stroke="none" font-family="sans-serif" font-size="12px" font-style="normal" font-weight="normal" text-decoration="normal" x="798" y="182" text-anchor="start" dominant-baseline="alphabetic"></text><path fill="none" stroke="#807f7f" paint-order="fill stroke markers" d=" M 912 216 L 912 192" stroke-linecap="round" stroke-miterlimit="10" stroke-width="3"/><text fill="#ffffff" stroke="none" font-family="sans-serif" font-size="12px" font-style="normal" font-weight="normal" text-decoration="normal" x="918" y="210" text-anchor="start" dominant-baseline="alphabetic"></text><path fill="none" stroke="#807f7f" paint-order="fill stroke markers" d=" M 1168 160 L 1168 184" stroke-linecap="round" stroke-miterlimit="10" stroke-width="3"/><path fill="none" stroke="#807f7f" paint-order="fill stroke markers" d=" M 1178 184 L 1158 184" stroke-linecap="round" stroke-miterlimit="10" stroke-width="3"/><path fill="none" stroke="#807f7f" paint-order="fill stroke markers" d=" M 1174 189 L 1162 189" stroke-linecap="round" stroke-miterlimit="10" stroke-width="3"/><path fill="none" stroke="#807f7f" paint-order="fill stroke markers" d=" M 1170 194 L 1166 194" stroke-linecap="round" stroke-miterlimit="10" stroke-width="3"/><path fill="none" stroke="#26d926" paint-order="fill stroke markers" d=" M 824 320 L 840 320" stroke-linecap="round" stroke-miterlimit="10" stroke-width="3"/><path fill="none" stroke="#807f7f" paint-order="fill stroke markers" d=" M 874 320 L 888 320" stroke-linecap="round" stroke-miterlimit="10" stroke-width="3"/><path fill="none" stroke="#c0c0c0" paint-order="fill stroke markers" d=" M 840 304 L 840 336 L 867 320 Z" stroke-linecap="round" stroke-miterlimit="10" stroke-width="3"/><path fill="none" stroke="#c0c0c0" paint-order="fill stroke markers" d=" M 872.94 320 A 2.94 2.94 0 1 1 872.9399985300001 319.99706000049" stroke-linecap="round" stroke-miterlimit="10" stroke-width="3"/><path fill="none" stroke="#807f7f" paint-order="fill stroke markers" d=" M 888 320 L 952 320" stroke-linecap="round" stroke-miterlimit="10" stroke-width="3"/><text fill="#ffffff" stroke="none" font-family="sans-serif" font-size="12px" font-style="normal" font-weight="normal" text-decoration="normal" x="920" y="314" text-anchor="start" dominant-baseline="alphabetic"></text><path fill="none" stroke="#807f7f" paint-order="fill stroke markers" d=" M 400 40 L 436 40" stroke-linecap="round" stroke-miterlimit="10" stroke-width="3"/><path fill="none" stroke="#26d926" paint-order="fill stroke markers" d=" M 468 40 L 504 40" stroke-linecap="round" stroke-miterlimit="10" stroke-width="3"/><path fill="none" stroke="#ffffff" paint-order="fill stroke markers" d=" M 436 40 L 468 24" stroke-linecap="round" stroke-miterlimit="10" stroke-width="3"/><path fill="none" stroke="#26d926" paint-order="fill stroke markers" d=" M 504 -24 L 504 -63" stroke-linecap="round" stroke-miterlimit="10" stroke-width="3"/><g><text fill="#ffffff" stroke="none" font-family="sans-serif" font-size="12px" font-style="normal" font-weight="normal" text-decoration="normal" x="494" y="-75" text-anchor="start" dominant-baseline="central">+5V</text></g><path fill="none" stroke="#807f7f" paint-order="fill stroke markers" d=" M 400 40 L 400 80" stroke-linecap="round" stroke-miterlimit="10" stroke-width="3"/><path fill="none" stroke="#807f7f" paint-order="fill stroke markers" d=" M 410 80 L 390 80" stroke-linecap="round" stroke-miterlimit="10" stroke-width="3"/><path fill="none" stroke="#807f7f" paint-order="fill stroke markers" d=" M 406 85 L 394 85" stroke-linecap="round" stroke-miterlimit="10" stroke-width="3"/><path fill="none" stroke="#807f7f" paint-order="fill stroke markers" d=" M 402 90 L 398 90" stroke-linecap="round" stroke-miterlimit="10" stroke-width="3"/><path fill="none" stroke="#26d926" paint-order="fill stroke markers" d=" M 504 40 L 504 24" stroke-linecap="round" stroke-miterlimit="10" stroke-width="3"/><path fill="none" stroke="#26d926" paint-order="fill stroke markers" d=" M 504 -8 L 504 -24" stroke-linecap="round" stroke-miterlimit="10" stroke-width="3"/><g transform="matrix(0,-1,1,0,504,24)"><path fill="none" stroke="url(#OPRUwaEPAmce)" paint-order="fill stroke markers" d=" M 0 0 L 2 6 L 6 -6 L 10 6 L 14 -6 L 18 6 L 22 -6 L 26 6 L 30 -6 L 32 0" stroke-linecap="round" stroke-miterlimit="10" stroke-width="3"/></g><text fill="#ffffff" stroke="none" font-family="sans-serif" font-size="12px" font-style="normal" font-weight="normal" text-decoration="normal" x="514" y="14" text-anchor="start" dominant-baseline="alphabetic">10k</text><path fill="none" stroke="#26d926" paint-order="fill stroke markers" d=" M 544 320 L 544 300" stroke-linecap="round" stroke-miterlimit="10" stroke-width="3"/><path fill="none" stroke="#26d926" paint-order="fill stroke markers" d=" M 544 268 L 544 248" stroke-linecap="round" stroke-miterlimit="10" stroke-width="3"/><g transform="matrix(0,-1,1,0,544,300)"><path fill="none" stroke="url(#rQafHHMKQnKl)" paint-order="fill stroke markers" d=" M 0 0 L 2 6 L 6 -6 L 10 6 L 14 -6 L 18 6 L 22 -6 L 26 6 L 30 -6 L 32 0" stroke-linecap="round" stroke-miterlimit="10" stroke-width="3"/></g><text fill="#ffffff" stroke="none" font-family="sans-serif" font-size="12px" font-style="normal" font-weight="normal" text-decoration="normal" x="554" y="290" text-anchor="start" dominant-baseline="alphabetic">10k</text><path fill="none" stroke="#807f7f" paint-order="fill stroke markers" d=" M 440 320 L 440 360" stroke-linecap="round" stroke-miterlimit="10" stroke-width="3"/><path fill="none" stroke="#807f7f" paint-order="fill stroke markers" d=" M 450 360 L 430 360" stroke-linecap="round" stroke-miterlimit="10" stroke-width="3"/><path fill="none" stroke="#807f7f" paint-order="fill stroke markers" d=" M 446 365 L 434 365" stroke-linecap="round" stroke-miterlimit="10" stroke-width="3"/><path fill="none" stroke="#807f7f" paint-order="fill stroke markers" d=" M 442 370 L 438 370" stroke-linecap="round" stroke-miterlimit="10" stroke-width="3"/><path fill="none" stroke="#26d926" paint-order="fill stroke markers" d=" M 544 248 L 544 233" stroke-linecap="round" stroke-miterlimit="10" stroke-width="3"/><g><text fill="#ffffff" stroke="none" font-family="sans-serif" font-size="12px" font-style="normal" font-weight="normal" text-decoration="normal" x="534" y="221" text-anchor="start" dominant-baseline="central">+5V</text></g><path fill="none" stroke="#807f7f" paint-order="fill stroke markers" d=" M 440 320 L 476 320" stroke-linecap="round" stroke-miterlimit="10" stroke-width="3"/><path fill="none" stroke="#26d926" paint-order="fill stroke markers" d=" M 508 320 L 544 320" stroke-linecap="round" stroke-miterlimit="10" stroke-width="3"/><path fill="none" stroke="#ffffff" paint-order="fill stroke markers" d=" M 476 320 L 508 304" stroke-linecap="round" stroke-miterlimit="10" stroke-width="3"/><path fill="none" stroke="#26d926" paint-order="fill stroke markers" d=" M 544 160 L 488 160" stroke-linecap="round" stroke-miterlimit="10" stroke-width="3"/><path fill="none" stroke="#44ba44" paint-order="fill stroke markers" d=" M 464 160 L 408 160" stroke-linecap="round" stroke-miterlimit="10" stroke-width="3"/><path fill="none" stroke="#808080" paint-order="fill stroke markers" d=" M 487.76 160 A 11.76 11.76 0 1 1 487.7599941200005 159.98824000195998" stroke-linecap="round" stroke-miterlimit="10" stroke-width="3"/><path fill="#c60000" stroke="none" paint-order="stroke fill markers" d=" M 484 160 A 8 8 0 1 1 483.99999999988734 159.9999575425633 Z"/><path fill="none" stroke="#44ba44" paint-order="fill stroke markers" d=" M 408 160 L 408 176" stroke-linecap="round" stroke-miterlimit="10" stroke-width="3"/><path fill="none" stroke="#807f7f" paint-order="fill stroke markers" d=" M 408 208 L 408 224" stroke-linecap="round" stroke-miterlimit="10" stroke-width="3"/><g transform="matrix(0,1,-1,0,408,176)"><path fill="none" stroke="url(#dXdftMCKEsiE)" paint-order="fill stroke markers" d=" M 0 0 L 2 6 L 6 -6 L 10 6 L 14 -6 L 18 6 L 22 -6 L 26 6 L 30 -6 L 32 0" stroke-linecap="round" stroke-miterlimit="10" stroke-width="3"/></g><text fill="#ffffff" stroke="none" font-family="sans-serif" font-size="12px" font-style="normal" font-weight="normal" text-decoration="normal" x="418" y="198" text-anchor="start" dominant-baseline="alphabetic">1k</text><path fill="none" stroke="#807f7f" paint-order="fill stroke markers" d=" M 408 224 L 408 256" stroke-linecap="round" stroke-miterlimit="10" stroke-width="3"/><path fill="none" stroke="#807f7f" paint-order="fill stroke markers" d=" M 418 256 L 398 256" stroke-linecap="round" stroke-miterlimit="10" stroke-width="3"/><path fill="none" stroke="#807f7f" paint-order="fill stroke markers" d=" M 414 261 L 402 261" stroke-linecap="round" stroke-miterlimit="10" stroke-width="3"/><path fill="none" stroke="#807f7f" paint-order="fill stroke markers" d=" M 410 266 L 406 266" stroke-linecap="round" stroke-miterlimit="10" stroke-width="3"/><path fill="#ffffff" stroke="none" paint-order="stroke fill markers" d=" M 891 -64 A 3 3 0 1 1 890.9999999999577 -64.00001592153876 Z"/><path fill="#ffffff" stroke="none" paint-order="stroke fill markers" d=" M 811 -64 A 3 3 0 1 1 810.9999999999577 -64.00001592153876 Z"/><path fill="#ffffff" stroke="none" paint-order="stroke fill markers" d=" M 803 288 A 3 3 0 1 1 802.9999999999577 287.99998407846124 Z"/><path fill="#ffffff" stroke="none" paint-order="stroke fill markers" d=" M 715 -64 A 3 3 0 1 1 714.9999999999577 -64.00001592153876 Z"/><path fill="#ffffff" stroke="none" paint-order="stroke fill markers" d=" M 891 16 A 3 3 0 1 1 890.9999999999577 15.99998407846124 Z"/><path fill="#ffffff" stroke="none" paint-order="stroke fill markers" d=" M 1171 -8 A 3 3 0 1 1 1170.9999999999577 -8.00001592153876 Z"/><path fill="#ffffff" stroke="none" paint-order="stroke fill markers" d=" M 547 320 A 3 3 0 1 1 546.9999999999577 319.99998407846124 Z"/><path fill="#ffffff" stroke="none" paint-order="stroke fill markers" d=" M 731 160 A 3 3 0 1 1 730.9999999999577 159.99998407846124 Z"/><path fill="#ffffff" stroke="none" paint-order="stroke fill markers" d=" M 507 40 A 3 3 0 1 1 506.99999999995777 39.99998407846124 Z"/><path fill="#ffffff" stroke="none" paint-order="stroke fill markers" d=" M 1171 320 A 3 3 0 1 1 1170.9999999999577 319.99998407846124 Z"/></g></g></svg>