<svg version="1.1" xmlns="http://www.w3.org/2000/svg" xmlns:xlink="http://www.w3.org/1999/xlink" width="604" height="324"><defs><linearGradient id="dhumTCHMpISL" x1="0px" x2="32px" y1="0px" y2="0px" gradientUnits="userSpaceOnUse"><stop offset="0" stop-color="#01fd01"/><stop offset="1" stop-color="#7f807f"/></linearGradient><linearGradient id="xuOSpLRCZTOe" x1="0px" x2="32px" y1="0px" y2="0px" gradientUnits="userSpaceOnUse"><stop offset="0" stop-color="#718e71"/><stop offset="1" stop-color="#01fd01"/></linearGradient><linearGradient id="ccPLbKAdchHy" x1="0px" x2="32px" y1="0px" y2="0px" gradientUnits="userSpaceOnUse"><stop offset="0" stop-color="#708f70"/><stop offset="1" stop-color="#01fd01"/></linearGradient></defs><g><rect fill="#000000" stroke="none" x="0" y="0" width="604" height="324"/><g transform="scale(1,1) translate(-714,-494)"><g><g><text fill="#c0c0c0" stroke="none" font-family="sans-serif" font-size="20px" font-style="normal" font-weight="bold" text-decoration="normal" x="1008" y="656" text-anchor="middle" dominant-baseline="central">L</text></g><path fill="none" stroke="#7f807f" paint-order="fill stroke markers" d=" M 944 656 L 996 656" stroke-linecap="round" stroke-miterlimit="10" stroke-width="3" stroke-dasharray=""/></g><path fill="none" stroke="#01fd01" paint-order="fill stroke markers" d=" M 944 592 L 944 561" stroke-linecap="round" stroke-miterlimit="10" stroke-width="3" stroke-dasharray=""/><g><text fill="#ffffff" stroke="none" font-family="sans-serif" font-size="10px" font-style="normal" font-weight="normal" text-decoration="normal" x="935" y="541" text-anchor="start" dominant-baseline="central">+5V</text></g><path fill="none" stroke="#807f7f" paint-order="fill stroke markers" d=" M 944 752 L 944 768" stroke-linecap="round" stroke-miterlimit="10" stroke-width="3" stroke-dasharray=""/><path fill="none" stroke="#807f7f" paint-order="fill stroke markers" d=" M 954 768 L 934 768" stroke-linecap="round" stroke-miterlimit="10" stroke-width="3" stroke-dasharray=""/><path fill="none" stroke="#807f7f" paint-order="fill stroke markers" d=" M 950 773 L 938 773" stroke-linecap="round" stroke-miterlimit="10" stroke-width="3" stroke-dasharray=""/><path fill="none" stroke="#807f7f" paint-order="fill stroke markers" d=" M 946 778 L 942 778" stroke-linecap="round" stroke-miterlimit="10" stroke-width="3" stroke-dasharray=""/><path fill="none" stroke="#01fd01" paint-order="fill stroke markers" d=" M 944 592 L 944 608" stroke-linecap="round" stroke-miterlimit="10" stroke-width="3" stroke-dasharray=""/><path fill="none" stroke="#7f807f" paint-order="fill stroke markers" d=" M 944 640 L 944 656" stroke-linecap="round" stroke-miterlimit="10" stroke-width="3" stroke-dasharray=""/><g transform="matrix(0,1,-1,0,944,608)"><path fill="none" stroke="url(#dhumTCHMpISL)" paint-order="fill stroke markers" d=" M 0 0 L 2 6 L 6 -6 L 10 6 L 14 -6 L 18 6 L 22 -6 L 26 6 L 30 -6 L 32 0" stroke-linecap="round" stroke-miterlimit="10" stroke-width="3" stroke-dasharray=""/></g><text fill="#ffffff" stroke="none" font-family="sans-serif" font-size="12px" font-style="normal" font-weight="normal" text-decoration="normal" x="954" y="630" text-anchor="start" dominant-baseline="alphabetic">4.7k</text><g><g><text fill="#ffffff" stroke="none" font-family="sans-serif" font-size="20px" font-style="normal" font-weight="bold" text-decoration="normal" x="784" y="736" text-anchor="middle" dominant-baseline="central">H</text></g><path fill="none" stroke="#01fd01" paint-order="fill stroke markers" d=" M 832 736 L 796 736" stroke-linecap="round" stroke-miterlimit="10" stroke-width="3" stroke-dasharray=""/></g><g><g><text fill="#ffffff" stroke="none" font-family="sans-serif" font-size="20px" font-style="normal" font-weight="bold" text-decoration="normal" x="784" y="672" text-anchor="middle" dominant-baseline="central">H</text></g><path fill="none" stroke="#01fd01" paint-order="fill stroke markers" d=" M 832 672 L 796 672" stroke-linecap="round" stroke-miterlimit="10" stroke-width="3" stroke-dasharray=""/></g><path fill="none" stroke="#718e71" paint-order="fill stroke markers" d=" M 896 736 L 880 736" stroke-linecap="round" stroke-miterlimit="10" stroke-width="3" stroke-dasharray=""/><path fill="none" stroke="#01fd01" paint-order="fill stroke markers" d=" M 848 736 L 832 736" stroke-linecap="round" stroke-miterlimit="10" stroke-width="3" stroke-dasharray=""/><g transform="matrix(-1,0,0,-1,880,736)"><path fill="none" stroke="url(#xuOSpLRCZTOe)" paint-order="fill stroke markers" d=" M 0 0 L 2 6 L 6 -6 L 10 6 L 14 -6 L 18 6 L 22 -6 L 26 6 L 30 -6 L 32 0" stroke-linecap="round" stroke-miterlimit="10" stroke-width="3" stroke-dasharray=""/></g><text fill="#ffffff" stroke="none" font-family="sans-serif" font-size="12px" font-style="normal" font-weight="normal" text-decoration="normal" x="855" y="726" text-anchor="start" dominant-baseline="alphabetic">10k</text><path fill="none" stroke="#708f70" paint-order="fill stroke markers" d=" M 896 672 L 880 672" stroke-linecap="round" stroke-miterlimit="10" stroke-width="3" stroke-dasharray=""/><path fill="none" stroke="#01fd01" paint-order="fill stroke markers" d=" M 848 672 L 832 672" stroke-linecap="round" stroke-miterlimit="10" stroke-width="3" stroke-dasharray=""/><g transform="matrix(-1,0,0,-1,880,672)"><path fill="none" stroke="url(#ccPLbKAdchHy)" paint-order="fill stroke markers" d=" M 0 0 L 2 6 L 6 -6 L 10 6 L 14 -6 L 18 6 L 22 -6 L 26 6 L 30 -6 L 32 0" stroke-linecap="round" stroke-miterlimit="10" stroke-width="3" stroke-dasharray=""/></g><text fill="#ffffff" stroke="none" font-family="sans-serif" font-size="12px" font-style="normal" font-weight="normal" text-decoration="normal" x="855" y="662" text-anchor="start" dominant-baseline="alphabetic">10k</text><path fill="none" stroke="#807f7f" paint-order="fill stroke markers" d=" M 944 688 L 944 720" stroke-linecap="round" stroke-miterlimit="10" stroke-width="3" stroke-dasharray=""/><text fill="#ffffff" stroke="none" font-family="sans-serif" font-size="12px" font-style="normal" font-weight="normal" text-decoration="normal" x="950" y="710" text-anchor="start" dominant-baseline="alphabetic"></text><path fill="none" stroke="#807f7f" paint-order="fill stroke markers" d=" M 944 720 L 931 730" stroke-linecap="round" stroke-miterlimit="10" stroke-width="3" stroke-dasharray=""/><path fill="none" stroke="#807f7f" paint-order="fill stroke markers" d=" M 944 752 L 931 742" stroke-linecap="round" stroke-miterlimit="10" stroke-width="3" stroke-dasharray=""/><path fill="#c0c0c0" stroke="none" paint-order="stroke fill markers" d=" M 944 752 L 940 744 L 935 750 Z"/><path fill="none" stroke="#718e71" paint-order="fill stroke markers" d=" M 896 736 L 928 736" stroke-linecap="round" stroke-miterlimit="10" stroke-width="3" stroke-dasharray=""/><path fill="#718e71" stroke="none" paint-order="stroke fill markers" d=" M 928 720 L 931 720 L 931 752 L 928 752 Z"/><path fill="none" stroke="#7f807f" paint-order="fill stroke markers" d=" M 944 656 L 931 666" stroke-linecap="round" stroke-miterlimit="10" stroke-width="3" stroke-dasharray=""/><path fill="none" stroke="#807f7f" paint-order="fill stroke markers" d=" M 944 688 L 931 678" stroke-linecap="round" stroke-miterlimit="10" stroke-width="3" stroke-dasharray=""/><path fill="#c0c0c0" stroke="none" paint-order="stroke fill markers" d=" M 944 688 L 940 680 L 935 686 Z"/><path fill="none" stroke="#708f70" paint-order="fill stroke markers" d=" M 896 672 L 928 672" stroke-linecap="round" stroke-miterlimit="10" stroke-width="3" stroke-dasharray=""/><path fill="#708f70" stroke="none" paint-order="stroke fill markers" d=" M 928 656 L 931 656 L 931 688 L 928 688 Z"/><rect fill="none" stroke="#808080" x="1076" y="628" width="172" height="121" stroke-linecap="round" stroke-miterlimit="10" stroke-dasharray="16,6"/><g><text fill="#c0c0c0" stroke="none" font-family="sans-serif" font-size="16px" font-style="normal" font-weight="normal" text-decoration="normal" x="1145" y="695" text-anchor="start" dominant-baseline="alphabetic">NAND</text></g><path fill="none" stroke="#01fd01" paint-order="fill stroke markers" d=" M 1104 704 L 1140 704" stroke-linecap="round" stroke-miterlimit="10" stroke-width="3"/><path fill="none" stroke="#01fd01" paint-order="fill stroke markers" d=" M 1104 672 L 1140 672" stroke-linecap="round" stroke-miterlimit="10" stroke-width="3"/><path fill="none" stroke="#807f7f" paint-order="fill stroke markers" d=" M 1204 688 L 1232 688" stroke-linecap="round" stroke-miterlimit="10" stroke-width="3"/><path fill="none" stroke="#c0c0c0" paint-order="fill stroke markers" d=" M 1140 660 L 1168 660 A 28 28 0 0 1 1168 716 L 1140 716 Z" stroke-linecap="round" stroke-miterlimit="10" stroke-width="3"/><path fill="none" stroke="#c0c0c0" paint-order="fill stroke markers" d=" M 1202.94 688 A 2.94 2.94 0 1 1 1202.9399985300001 687.99706000049" stroke-linecap="round" stroke-miterlimit="10" stroke-width="3"/><path fill="#ffffff" stroke="none" paint-order="stroke fill markers" d=" M 947 656 A 3 3 0 1 1 946.9999999999577 655.9999840784612 Z"/><path fill="#ffffff" stroke="none" paint-order="stroke fill markers" d=" M 1107 704 A 3 3 0 1 1 1106.9999999999577 703.9999840784612 Z"/><path fill="#ffffff" stroke="none" paint-order="stroke fill markers" d=" M 1107 672 A 3 3 0 1 1 1106.9999999999577 671.9999840784612 Z"/><path fill="#ffffff" stroke="none" paint-order="stroke fill markers" d=" M 1235 688 A 3 3 0 1 1 1234.9999999999577 687.9999840784612 Z"/></g></g></svg>