<svg version="1.1" xmlns="http://www.w3.org/2000/svg" xmlns:xlink="http://www.w3.org/1999/xlink" width="893" height="356"><defs><linearGradient id="SerAAtcSMwau" x1="0px" x2="32px" y1="0px" y2="0px" gradientUnits="userSpaceOnUse"><stop offset="0" stop-color="#0bf30b"/><stop offset="1" stop-color="#659965"/></linearGradient><linearGradient id="rzngdnbcwkaM" x1="0px" x2="32px" y1="0px" y2="0px" gradientUnits="userSpaceOnUse"><stop offset="0" stop-color="#738c73"/><stop offset="1" stop-color="#01fd01"/></linearGradient><linearGradient id="kGeINeFVgczQ" x1="0px" x2="32px" y1="0px" y2="0px" gradientUnits="userSpaceOnUse"><stop offset="0" stop-color="#738c73"/><stop offset="1" stop-color="#738c73"/></linearGradient><linearGradient id="ZXJyORrgXnss" x1="0px" x2="32px" y1="0px" y2="0px" gradientUnits="userSpaceOnUse"><stop offset="0" stop-color="#01fd01"/><stop offset="1" stop-color="#01fd01"/></linearGradient></defs><g><rect fill="#000000" stroke="none" x="0" y="0" width="893" height="356"/><g transform="scale(1,1) translate(-970,-670)"><g><g><text fill="#c0c0c0" stroke="none" font-family="sans-serif" font-size="20px" font-style="normal" font-weight="bold" text-decoration="normal" x="1536" y="848" text-anchor="middle" dominant-baseline="central">H</text></g><path fill="none" stroke="#01fd01" paint-order="fill stroke markers" d=" M 1472 848 L 1524 848" stroke-linecap="round" stroke-miterlimit="10" stroke-width="3" stroke-dasharray=""/></g><path fill="none" stroke="#01fd01" paint-order="fill stroke markers" d=" M 1344 768 L 1344 737" stroke-linecap="round" stroke-miterlimit="10" stroke-width="3" stroke-dasharray=""/><g><text fill="#ffffff" stroke="none" font-family="sans-serif" font-size="10px" font-style="normal" font-weight="normal" text-decoration="normal" x="1333" y="717" text-anchor="start" dominant-baseline="central">+12V</text></g><g><g><text fill="#ffffff" stroke="none" font-family="sans-serif" font-size="20px" font-style="normal" font-weight="bold" text-decoration="normal" x="1040" y="928" text-anchor="middle" dominant-baseline="central">L</text></g><path fill="none" stroke="#807f7f" paint-order="fill stroke markers" d=" M 1168 928 L 1052 928" stroke-linecap="round" stroke-miterlimit="10" stroke-width="3" stroke-dasharray=""/></g><g><g><text fill="#ffffff" stroke="none" font-family="sans-serif" font-size="20px" font-style="normal" font-weight="bold" text-decoration="normal" x="1040" y="832" text-anchor="middle" dominant-baseline="central">H</text></g><path fill="none" stroke="#01fd01" paint-order="fill stroke markers" d=" M 1168 832 L 1052 832" stroke-linecap="round" stroke-miterlimit="10" stroke-width="3" stroke-dasharray=""/></g><path fill="none" stroke="#738c73" paint-order="fill stroke markers" d=" M 1344 864 L 1331 874" stroke-linecap="round" stroke-miterlimit="10" stroke-width="3" stroke-dasharray=""/><path fill="none" stroke="#758a75" paint-order="fill stroke markers" d=" M 1344 896 L 1331 886" stroke-linecap="round" stroke-miterlimit="10" stroke-width="3" stroke-dasharray=""/><path fill="#c0c0c0" stroke="none" paint-order="stroke fill markers" d=" M 1344 896 L 1340 888 L 1335 894 Z"/><path fill="none" stroke="#659965" paint-order="fill stroke markers" d=" M 1296 880 L 1328 880" stroke-linecap="round" stroke-miterlimit="10" stroke-width="3" stroke-dasharray=""/><path fill="#659965" stroke="none" paint-order="stroke fill markers" d=" M 1328 864 L 1331 864 L 1331 896 L 1328 896 Z"/><path fill="none" stroke="#01fd01" paint-order="fill stroke markers" d=" M 1472 848 L 1459 858" stroke-linecap="round" stroke-miterlimit="10" stroke-width="3" stroke-dasharray=""/><path fill="none" stroke="#807f7f" paint-order="fill stroke markers" d=" M 1472 880 L 1459 870" stroke-linecap="round" stroke-miterlimit="10" stroke-width="3" stroke-dasharray=""/><path fill="#c0c0c0" stroke="none" paint-order="stroke fill markers" d=" M 1472 880 L 1468 872 L 1463 878 Z"/><path fill="none" stroke="#738c73" paint-order="fill stroke markers" d=" M 1424 864 L 1456 864" stroke-linecap="round" stroke-miterlimit="10" stroke-width="3" stroke-dasharray=""/><path fill="#738c73" stroke="none" paint-order="stroke fill markers" d=" M 1456 848 L 1459 848 L 1459 880 L 1456 880 Z"/><path fill="none" stroke="#01fd01" paint-order="fill stroke markers" d=" M 1168 832 L 1186 850" stroke-linecap="round" stroke-miterlimit="10" stroke-width="3" stroke-dasharray=""/><path fill="none" stroke="#0bf30b" paint-order="fill stroke markers" d=" M 1198 862 L 1216 880" stroke-linecap="round" stroke-miterlimit="10" stroke-width="3" stroke-dasharray=""/><path fill="#01fd01" stroke="none" paint-order="stroke fill markers" d=" M 1192 844 L 1180 856 L 1198 862 Z"/><path fill="none" stroke="#0bf30b" paint-order="fill stroke markers" d=" M 1204 856 L 1192 868" stroke-linecap="round" stroke-miterlimit="10" stroke-width="3" stroke-dasharray=""/><path fill="none" stroke="#758a75" paint-order="fill stroke markers" d=" M 1120 880 L 1138 862" stroke-linecap="round" stroke-miterlimit="10" stroke-width="3" stroke-dasharray=""/><path fill="none" stroke="#01fd01" paint-order="fill stroke markers" d=" M 1150 850 L 1168 832" stroke-linecap="round" stroke-miterlimit="10" stroke-width="3" stroke-dasharray=""/><path fill="#758a75" stroke="none" paint-order="stroke fill markers" d=" M 1132 856 L 1144 868 L 1150 850 Z"/><path fill="none" stroke="#01fd01" paint-order="fill stroke markers" d=" M 1144 844 L 1156 856" stroke-linecap="round" stroke-miterlimit="10" stroke-width="3" stroke-dasharray=""/><path fill="none" stroke="#758a75" paint-order="fill stroke markers" d=" M 1120 880 L 1138 898" stroke-linecap="round" stroke-miterlimit="10" stroke-width="3" stroke-dasharray=""/><path fill="none" stroke="#807f7f" paint-order="fill stroke markers" d=" M 1150 910 L 1168 928" stroke-linecap="round" stroke-miterlimit="10" stroke-width="3" stroke-dasharray=""/><path fill="#758a75" stroke="none" paint-order="stroke fill markers" d=" M 1144 892 L 1132 904 L 1150 910 Z"/><path fill="none" stroke="#807f7f" paint-order="fill stroke markers" d=" M 1156 904 L 1144 916" stroke-linecap="round" stroke-miterlimit="10" stroke-width="3" stroke-dasharray=""/><path fill="none" stroke="#807f7f" paint-order="fill stroke markers" d=" M 1168 928 L 1186 910" stroke-linecap="round" stroke-miterlimit="10" stroke-width="3" stroke-dasharray=""/><path fill="none" stroke="#0bf30b" paint-order="fill stroke markers" d=" M 1198 898 L 1216 880" stroke-linecap="round" stroke-miterlimit="10" stroke-width="3" stroke-dasharray=""/><path fill="#807f7f" stroke="none" paint-order="stroke fill markers" d=" M 1180 904 L 1192 916 L 1198 898 Z"/><path fill="none" stroke="#0bf30b" paint-order="fill stroke markers" d=" M 1192 892 L 1204 904" stroke-linecap="round" stroke-miterlimit="10" stroke-width="3" stroke-dasharray=""/><path fill="none" stroke="#0bf30b" paint-order="fill stroke markers" d=" M 1216 880 L 1240 880" stroke-linecap="round" stroke-miterlimit="10" stroke-width="3" stroke-dasharray=""/><path fill="none" stroke="#659965" paint-order="fill stroke markers" d=" M 1272 880 L 1296 880" stroke-linecap="round" stroke-miterlimit="10" stroke-width="3" stroke-dasharray=""/><g transform="matrix(1,0,0,1,1240,880)"><path fill="none" stroke="url(#SerAAtcSMwau)" paint-order="fill stroke markers" d=" M 0 0 L 2 6 L 6 -6 L 10 6 L 14 -6 L 18 6 L 22 -6 L 26 6 L 30 -6 L 32 0" stroke-linecap="round" stroke-miterlimit="10" stroke-width="3" stroke-dasharray=""/></g><text fill="#ffffff" stroke="none" font-family="sans-serif" font-size="12px" font-style="normal" font-weight="normal" text-decoration="normal" x="1247" y="870" text-anchor="start" dominant-baseline="alphabetic">10k</text><path fill="none" stroke="#758a75" paint-order="fill stroke markers" d=" M 1120 880 L 1088 880" stroke-linecap="round" stroke-miterlimit="10" stroke-width="3" stroke-dasharray=""/><text fill="#ffffff" stroke="none" font-family="sans-serif" font-size="12px" font-style="normal" font-weight="normal" text-decoration="normal" x="1104" y="874" text-anchor="start" dominant-baseline="alphabetic"></text><path fill="none" stroke="#758a75" paint-order="fill stroke markers" d=" M 1088 880 L 1088 976" stroke-linecap="round" stroke-miterlimit="10" stroke-width="3" stroke-dasharray=""/><text fill="#ffffff" stroke="none" font-family="sans-serif" font-size="12px" font-style="normal" font-weight="normal" text-decoration="normal" x="1094" y="934" text-anchor="start" dominant-baseline="alphabetic"></text><path fill="none" stroke="#758a75" paint-order="fill stroke markers" d=" M 1088 976 L 1344 976" stroke-linecap="round" stroke-miterlimit="10" stroke-width="3" stroke-dasharray=""/><text fill="#ffffff" stroke="none" font-family="sans-serif" font-size="12px" font-style="normal" font-weight="normal" text-decoration="normal" x="1216" y="970" text-anchor="start" dominant-baseline="alphabetic"></text><path fill="none" stroke="#758a75" paint-order="fill stroke markers" d=" M 1344 976 L 1344 896" stroke-linecap="round" stroke-miterlimit="10" stroke-width="3" stroke-dasharray=""/><text fill="#ffffff" stroke="none" font-family="sans-serif" font-size="12px" font-style="normal" font-weight="normal" text-decoration="normal" x="1350" y="942" text-anchor="start" dominant-baseline="alphabetic"></text><path fill="none" stroke="#738c73" paint-order="fill stroke markers" d=" M 1344 864 L 1344 832" stroke-linecap="round" stroke-miterlimit="10" stroke-width="3" stroke-dasharray=""/><path fill="none" stroke="#01fd01" paint-order="fill stroke markers" d=" M 1344 800 L 1344 768" stroke-linecap="round" stroke-miterlimit="10" stroke-width="3" stroke-dasharray=""/><g transform="matrix(0,-1,1,0,1344,832)"><path fill="none" stroke="url(#rzngdnbcwkaM)" paint-order="fill stroke markers" d=" M 0 0 L 2 6 L 6 -6 L 10 6 L 14 -6 L 18 6 L 22 -6 L 26 6 L 30 -6 L 32 0" stroke-linecap="round" stroke-miterlimit="10" stroke-width="3" stroke-dasharray=""/></g><text fill="#ffffff" stroke="none" font-family="sans-serif" font-size="12px" font-style="normal" font-weight="normal" text-decoration="normal" x="1354" y="822" text-anchor="start" dominant-baseline="alphabetic">10k</text><path fill="none" stroke="#738c73" paint-order="fill stroke markers" d=" M 1344 864 L 1368 864" stroke-linecap="round" stroke-miterlimit="10" stroke-width="3" stroke-dasharray=""/><path fill="none" stroke="#738c73" paint-order="fill stroke markers" d=" M 1400 864 L 1424 864" stroke-linecap="round" stroke-miterlimit="10" stroke-width="3" stroke-dasharray=""/><g transform="matrix(1,0,0,1,1368,864)"><path fill="none" stroke="url(#kGeINeFVgczQ)" paint-order="fill stroke markers" d=" M 0 0 L 2 6 L 6 -6 L 10 6 L 14 -6 L 18 6 L 22 -6 L 26 6 L 30 -6 L 32 0" stroke-linecap="round" stroke-miterlimit="10" stroke-width="3" stroke-dasharray=""/></g><text fill="#ffffff" stroke="none" font-family="sans-serif" font-size="12px" font-style="normal" font-weight="normal" text-decoration="normal" x="1375" y="854" text-anchor="start" dominant-baseline="alphabetic">10k</text><path fill="none" stroke="#01fd01" paint-order="fill stroke markers" d=" M 1472 848 L 1472 824" stroke-linecap="round" stroke-miterlimit="10" stroke-width="3" stroke-dasharray=""/><path fill="none" stroke="#01fd01" paint-order="fill stroke markers" d=" M 1472 792 L 1472 768" stroke-linecap="round" stroke-miterlimit="10" stroke-width="3" stroke-dasharray=""/><g transform="matrix(0,-1,1,0,1472,824)"><path fill="none" stroke="url(#ZXJyORrgXnss)" paint-order="fill stroke markers" d=" M 0 0 L 2 6 L 6 -6 L 10 6 L 14 -6 L 18 6 L 22 -6 L 26 6 L 30 -6 L 32 0" stroke-linecap="round" stroke-miterlimit="10" stroke-width="3" stroke-dasharray=""/></g><text fill="#ffffff" stroke="none" font-family="sans-serif" font-size="12px" font-style="normal" font-weight="normal" text-decoration="normal" x="1482" y="814" text-anchor="start" dominant-baseline="alphabetic">10k</text><path fill="none" stroke="#01fd01" paint-order="fill stroke markers" d=" M 1472 768 L 1472 737" stroke-linecap="round" stroke-miterlimit="10" stroke-width="3" stroke-dasharray=""/><g><text fill="#ffffff" stroke="none" font-family="sans-serif" font-size="12px" font-style="normal" font-weight="normal" text-decoration="normal" x="1458" y="725" text-anchor="start" dominant-baseline="central">+12V</text></g><path fill="none" stroke="#807f7f" paint-order="fill stroke markers" d=" M 1472 880 L 1472 912" stroke-linecap="round" stroke-miterlimit="10" stroke-width="3" stroke-dasharray=""/><path fill="none" stroke="#807f7f" paint-order="fill stroke markers" d=" M 1482 912 L 1462 912" stroke-linecap="round" stroke-miterlimit="10" stroke-width="3" stroke-dasharray=""/><path fill="none" stroke="#807f7f" paint-order="fill stroke markers" d=" M 1478 917 L 1466 917" stroke-linecap="round" stroke-miterlimit="10" stroke-width="3" stroke-dasharray=""/><path fill="none" stroke="#807f7f" paint-order="fill stroke markers" d=" M 1474 922 L 1470 922" stroke-linecap="round" stroke-miterlimit="10" stroke-width="3" stroke-dasharray=""/><g><text fill="#c0c0c0" stroke="none" font-family="sans-serif" font-size="18px" font-style="normal" font-weight="normal" text-decoration="normal" x="1689" y="886" text-anchor="start" dominant-baseline="alphabetic">XOR</text></g><rect fill="none" stroke="#808080" x="1621" y="823" width="172" height="121" stroke-linecap="round" stroke-miterlimit="10" stroke-dasharray="16,6"/><path fill="none" stroke="#807f7f" paint-order="fill stroke markers" d=" M 1648 896 L 1684 896" stroke-linecap="round" stroke-miterlimit="10" stroke-width="3"/><path fill="none" stroke="#807f7f" paint-order="fill stroke markers" d=" M 1648 864 L 1684 864" stroke-linecap="round" stroke-miterlimit="10" stroke-width="3"/><path fill="none" stroke="#807f7f" paint-order="fill stroke markers" d=" M 1740 880 L 1776 880" stroke-linecap="round" stroke-miterlimit="10" stroke-width="3"/><path fill="none" stroke="#c0c0c0" paint-order="fill stroke markers" d=" M 1681 852 L 1701 852 C 1723 857 1723 857 1740 880 C 1723 903 1723 903 1701 908 L 1681 908 C 1688 880 1688 880 1681 852 Z M 1676 852 C 1683 880 1683 880 1676 908" stroke-linecap="round" stroke-miterlimit="10" stroke-width="3"/><path fill="#ffffff" stroke="none" paint-order="stroke fill markers" d=" M 1475 848 A 3 3 0 1 1 1474.9999999999577 847.9999840784612 Z"/><path fill="#ffffff" stroke="none" paint-order="stroke fill markers" d=" M 1171 928 A 3 3 0 1 1 1170.9999999999577 927.9999840784612 Z"/><path fill="#ffffff" stroke="none" paint-order="stroke fill markers" d=" M 1171 832 A 3 3 0 1 1 1170.9999999999577 831.9999840784612 Z"/><path fill="#ffffff" stroke="none" paint-order="stroke fill markers" d=" M 1347 864 A 3 3 0 1 1 1346.9999999999577 863.9999840784612 Z"/><path fill="#ffffff" stroke="none" paint-order="stroke fill markers" d=" M 1219 880 A 3 3 0 1 1 1218.9999999999577 879.9999840784612 Z"/><path fill="#ffffff" stroke="none" paint-order="stroke fill markers" d=" M 1123 880 A 3 3 0 1 1 1122.9999999999577 879.9999840784612 Z"/><path fill="#ffffff" stroke="none" paint-order="stroke fill markers" d=" M 1651 896 A 3 3 0 1 1 1650.9999999999577 895.9999840784612 Z"/><path fill="#ffffff" stroke="none" paint-order="stroke fill markers" d=" M 1651 864 A 3 3 0 1 1 1650.9999999999577 863.9999840784612 Z"/><path fill="#ffffff" stroke="none" paint-order="stroke fill markers" d=" M 1779 880 A 3 3 0 1 1 1778.9999999999577 879.9999840784612 Z"/></g></g></svg>