<svg version="1.1" xmlns="http://www.w3.org/2000/svg" xmlns:xlink="http://www.w3.org/1999/xlink" width="918" height="276"><defs><linearGradient id="HkkBCHGGiaVC" x1="0px" x2="32px" y1="0px" y2="0px" gradientUnits="userSpaceOnUse"><stop offset="0" stop-color="#01fd01"/><stop offset="1" stop-color="#807f7f"/></linearGradient><linearGradient id="WPIEuXLWeFwL" x1="0px" x2="32px" y1="0px" y2="0px" gradientUnits="userSpaceOnUse"><stop offset="0" stop-color="#718e71"/><stop offset="1" stop-color="#01fd01"/></linearGradient><linearGradient id="BohhSdAOcOgR" x1="0px" x2="32px" y1="0px" y2="0px" gradientUnits="userSpaceOnUse"><stop offset="0" stop-color="#02fc02"/><stop offset="1" stop-color="#01fd01"/></linearGradient><linearGradient id="txsqleSdNLbG" x1="0px" x2="32px" y1="0px" y2="0px" gradientUnits="userSpaceOnUse"><stop offset="0" stop-color="#807f7f"/><stop offset="1" stop-color="#807f7f"/></linearGradient></defs><g><rect fill="#000000" stroke="none" x="0" y="0" width="918" height="276"/><g transform="scale(1,1) translate(-986,-494)"><path fill="none" stroke="#807f7f" paint-order="fill stroke markers" d=" M 1232 656 L 1219 666" stroke-linecap="round" stroke-miterlimit="10" stroke-width="3" stroke-dasharray=""/><path fill="none" stroke="#807f7f" paint-order="fill stroke markers" d=" M 1232 688 L 1219 678" stroke-linecap="round" stroke-miterlimit="10" stroke-width="3" stroke-dasharray=""/><path fill="#c0c0c0" stroke="none" paint-order="stroke fill markers" d=" M 1232 688 L 1228 680 L 1223 686 Z"/><path fill="none" stroke="#718e71" paint-order="fill stroke markers" d=" M 1184 672 L 1216 672" stroke-linecap="round" stroke-miterlimit="10" stroke-width="3" stroke-dasharray=""/><path fill="#718e71" stroke="none" paint-order="stroke fill markers" d=" M 1216 656 L 1219 656 L 1219 688 L 1216 688 Z"/><g><g><text fill="#ffffff" stroke="none" font-family="sans-serif" font-size="20px" font-style="normal" font-weight="bold" text-decoration="normal" x="1056" y="672" text-anchor="middle" dominant-baseline="central">H</text></g><path fill="none" stroke="#01fd01" paint-order="fill stroke markers" d=" M 1104 672 L 1068 672" stroke-linecap="round" stroke-miterlimit="10" stroke-width="3" stroke-dasharray=""/></g><g><g><text fill="#c0c0c0" stroke="none" font-family="sans-serif" font-size="20px" font-style="normal" font-weight="bold" text-decoration="normal" x="1296" y="656" text-anchor="middle" dominant-baseline="central">L</text></g><path fill="none" stroke="#807f7f" paint-order="fill stroke markers" d=" M 1232 656 L 1284 656" stroke-linecap="round" stroke-miterlimit="10" stroke-width="3" stroke-dasharray=""/></g><path fill="none" stroke="#01fd01" paint-order="fill stroke markers" d=" M 1232 592 L 1232 561" stroke-linecap="round" stroke-miterlimit="10" stroke-width="3" stroke-dasharray=""/><g><text fill="#ffffff" stroke="none" font-family="sans-serif" font-size="10px" font-style="normal" font-weight="normal" text-decoration="normal" x="1223" y="541" text-anchor="start" dominant-baseline="central">+5V</text></g><path fill="none" stroke="#01fd01" paint-order="fill stroke markers" d=" M 1232 592 L 1232 608" stroke-linecap="round" stroke-miterlimit="10" stroke-width="3" stroke-dasharray=""/><path fill="none" stroke="#807f7f" paint-order="fill stroke markers" d=" M 1232 640 L 1232 656" stroke-linecap="round" stroke-miterlimit="10" stroke-width="3" stroke-dasharray=""/><g transform="matrix(0,1,-1,0,1232,608)"><path fill="none" stroke="url(#HkkBCHGGiaVC)" paint-order="fill stroke markers" d=" M 0 0 L 2 6 L 6 -6 L 10 6 L 14 -6 L 18 6 L 22 -6 L 26 6 L 30 -6 L 32 0" stroke-linecap="round" stroke-miterlimit="10" stroke-width="3" stroke-dasharray=""/></g><text fill="#ffffff" stroke="none" font-family="sans-serif" font-size="12px" font-style="normal" font-weight="normal" text-decoration="normal" x="1242" y="630" text-anchor="start" dominant-baseline="alphabetic">10k</text><path fill="none" stroke="#807f7f" paint-order="fill stroke markers" d=" M 1232 688 L 1232 720" stroke-linecap="round" stroke-miterlimit="10" stroke-width="3" stroke-dasharray=""/><path fill="none" stroke="#807f7f" paint-order="fill stroke markers" d=" M 1242 720 L 1222 720" stroke-linecap="round" stroke-miterlimit="10" stroke-width="3" stroke-dasharray=""/><path fill="none" stroke="#807f7f" paint-order="fill stroke markers" d=" M 1238 725 L 1226 725" stroke-linecap="round" stroke-miterlimit="10" stroke-width="3" stroke-dasharray=""/><path fill="none" stroke="#807f7f" paint-order="fill stroke markers" d=" M 1234 730 L 1230 730" stroke-linecap="round" stroke-miterlimit="10" stroke-width="3" stroke-dasharray=""/><path fill="none" stroke="#718e71" paint-order="fill stroke markers" d=" M 1184 672 L 1160 672" stroke-linecap="round" stroke-miterlimit="10" stroke-width="3" stroke-dasharray=""/><path fill="none" stroke="#01fd01" paint-order="fill stroke markers" d=" M 1128 672 L 1104 672" stroke-linecap="round" stroke-miterlimit="10" stroke-width="3" stroke-dasharray=""/><g transform="matrix(-1,0,0,-1,1160,672)"><path fill="none" stroke="url(#WPIEuXLWeFwL)" paint-order="fill stroke markers" d=" M 0 0 L 2 6 L 6 -6 L 10 6 L 14 -6 L 18 6 L 22 -6 L 26 6 L 30 -6 L 32 0" stroke-linecap="round" stroke-miterlimit="10" stroke-width="3" stroke-dasharray=""/></g><text fill="#ffffff" stroke="none" font-family="sans-serif" font-size="12px" font-style="normal" font-weight="normal" text-decoration="normal" x="1135" y="662" text-anchor="start" dominant-baseline="alphabetic">10k</text><g><text fill="#c0c0c0" stroke="none" font-family="sans-serif" font-size="18px" font-style="normal" font-weight="normal" text-decoration="normal" x="1730" y="640" text-anchor="start" dominant-baseline="alphabetic">NOT</text></g><rect fill="none" stroke="#808080" x="1662" y="595" width="172" height="121" stroke-linecap="round" stroke-miterlimit="10" stroke-dasharray="16,6"/><path fill="none" stroke="#807f7f" paint-order="fill stroke markers" d=" M 1696 672 L 1736 672" stroke-linecap="round" stroke-miterlimit="10" stroke-width="3"/><path fill="none" stroke="#01fd01" paint-order="fill stroke markers" d=" M 1770 672 L 1808 672" stroke-linecap="round" stroke-miterlimit="10" stroke-width="3"/><path fill="none" stroke="#c0c0c0" paint-order="fill stroke markers" d=" M 1736 656 L 1736 688 L 1763 672 Z" stroke-linecap="round" stroke-miterlimit="10" stroke-width="3"/><path fill="none" stroke="#c0c0c0" paint-order="fill stroke markers" d=" M 1768.94 672 A 2.94 2.94 0 1 1 1768.9399985300001 671.99706000049" stroke-linecap="round" stroke-miterlimit="10" stroke-width="3"/><path fill="none" stroke="#02fc02" paint-order="fill stroke markers" d=" M 1504 608 L 1480 608" stroke-linecap="round" stroke-miterlimit="10" stroke-width="3"/><path fill="none" stroke="#01fd01" paint-order="fill stroke markers" d=" M 1448 608 L 1424 608" stroke-linecap="round" stroke-miterlimit="10" stroke-width="3"/><g transform="matrix(-1,0,0,-1,1480,608)"><path fill="none" stroke="url(#BohhSdAOcOgR)" paint-order="fill stroke markers" d=" M 0 0 L 2 6 L 6 -6 L 10 6 L 14 -6 L 18 6 L 22 -6 L 26 6 L 30 -6 L 32 0" stroke-linecap="round" stroke-miterlimit="10" stroke-width="3"/></g><text fill="#ffffff" stroke="none" font-family="sans-serif" font-size="12px" font-style="normal" font-weight="normal" text-decoration="normal" x="1455" y="598" text-anchor="start" dominant-baseline="alphabetic">10k</text><path fill="none" stroke="#807f7f" paint-order="fill stroke markers" d=" M 1552 688 L 1552 720" stroke-linecap="round" stroke-miterlimit="10" stroke-width="3"/><path fill="none" stroke="#807f7f" paint-order="fill stroke markers" d=" M 1562 720 L 1542 720" stroke-linecap="round" stroke-miterlimit="10" stroke-width="3"/><path fill="none" stroke="#807f7f" paint-order="fill stroke markers" d=" M 1558 725 L 1546 725" stroke-linecap="round" stroke-miterlimit="10" stroke-width="3"/><path fill="none" stroke="#807f7f" paint-order="fill stroke markers" d=" M 1554 730 L 1550 730" stroke-linecap="round" stroke-miterlimit="10" stroke-width="3"/><path fill="none" stroke="#807f7f" paint-order="fill stroke markers" d=" M 1552 624 L 1552 640" stroke-linecap="round" stroke-miterlimit="10" stroke-width="3"/><path fill="none" stroke="#807f7f" paint-order="fill stroke markers" d=" M 1552 672 L 1552 688" stroke-linecap="round" stroke-miterlimit="10" stroke-width="3"/><g transform="matrix(0,1,-1,0,1552,640)"><path fill="none" stroke="url(#txsqleSdNLbG)" paint-order="fill stroke markers" d=" M 0 0 L 2 6 L 6 -6 L 10 6 L 14 -6 L 18 6 L 22 -6 L 26 6 L 30 -6 L 32 0" stroke-linecap="round" stroke-miterlimit="10" stroke-width="3"/></g><text fill="#ffffff" stroke="none" font-family="sans-serif" font-size="12px" font-style="normal" font-weight="normal" text-decoration="normal" x="1562" y="662" text-anchor="start" dominant-baseline="alphabetic">10k</text><path fill="none" stroke="#01fd01" paint-order="fill stroke markers" d=" M 1552 592 L 1552 561" stroke-linecap="round" stroke-miterlimit="10" stroke-width="3"/><g><text fill="#ffffff" stroke="none" font-family="sans-serif" font-size="12px" font-style="normal" font-weight="normal" text-decoration="normal" x="1542" y="549" text-anchor="start" dominant-baseline="central">+5V</text></g><g><g><text fill="#c0c0c0" stroke="none" font-family="sans-serif" font-size="20px" font-style="normal" font-weight="bold" text-decoration="normal" x="1616" y="624" text-anchor="middle" dominant-baseline="central">L</text></g><path fill="none" stroke="#807f7f" paint-order="fill stroke markers" d=" M 1552 624 L 1604 624" stroke-linecap="round" stroke-miterlimit="10" stroke-width="3"/></g><g><g><text fill="#ffffff" stroke="none" font-family="sans-serif" font-size="20px" font-style="normal" font-weight="bold" text-decoration="normal" x="1376" y="608" text-anchor="middle" dominant-baseline="central">H</text></g><path fill="none" stroke="#01fd01" paint-order="fill stroke markers" d=" M 1424 608 L 1388 608" stroke-linecap="round" stroke-miterlimit="10" stroke-width="3"/></g><g><text fill="#c0c0c0" stroke="none" font-family="sans-serif" font-size="24px" font-style="normal" font-weight="normal" text-decoration="normal" x="1113" y="568" text-anchor="start" dominant-baseline="alphabetic">NPN</text></g><g><text fill="#c0c0c0" stroke="none" font-family="sans-serif" font-size="24px" font-style="normal" font-weight="normal" text-decoration="normal" x="1457" y="560" text-anchor="start" dominant-baseline="alphabetic">PNP</text></g><path fill="none" stroke="#807f7f" paint-order="fill stroke markers" d=" M 1552 624 L 1539 614" stroke-linecap="round" stroke-miterlimit="10" stroke-width="3"/><path fill="none" stroke="#01fd01" paint-order="fill stroke markers" d=" M 1552 592 L 1539 602" stroke-linecap="round" stroke-miterlimit="10" stroke-width="3"/><path fill="#c0c0c0" stroke="none" paint-order="stroke fill markers" d=" M 1541 603 L 1549 600 L 1544 594 Z"/><path fill="none" stroke="#02fc02" paint-order="fill stroke markers" d=" M 1504 608 L 1536 608" stroke-linecap="round" stroke-miterlimit="10" stroke-width="3"/><path fill="#02fc02" stroke="none" paint-order="stroke fill markers" d=" M 1536 592 L 1539 592 L 1539 624 L 1536 624 Z"/><path fill="#ffffff" stroke="none" paint-order="stroke fill markers" d=" M 1235 656 A 3 3 0 1 1 1234.9999999999577 655.9999840784612 Z"/><path fill="#ffffff" stroke="none" paint-order="stroke fill markers" d=" M 1699 672 A 3 3 0 1 1 1698.9999999999577 671.9999840784612 Z"/><path fill="#ffffff" stroke="none" paint-order="stroke fill markers" d=" M 1811 672 A 3 3 0 1 1 1810.9999999999577 671.9999840784612 Z"/><path fill="#ffffff" stroke="none" paint-order="stroke fill markers" d=" M 1555 624 A 3 3 0 1 1 1554.9999999999577 623.9999840784612 Z"/></g></g></svg>