<svg version="1.1" xmlns="http://www.w3.org/2000/svg" xmlns:xlink="http://www.w3.org/1999/xlink" width="662" height="324"><defs><linearGradient id="pMhkhdNwsJEf" x1="0px" x2="32px" y1="0px" y2="0px" gradientUnits="userSpaceOnUse"><stop offset="0" stop-color="#807f7f"/><stop offset="1" stop-color="#807f7f"/></linearGradient><linearGradient id="UCHSTNaehQTI" x1="0px" x2="32px" y1="0px" y2="0px" gradientUnits="userSpaceOnUse"><stop offset="0" stop-color="#807f7f"/><stop offset="1" stop-color="#807f7f"/></linearGradient><linearGradient id="yWNZCUyGBfWL" x1="0px" x2="32px" y1="0px" y2="0px" gradientUnits="userSpaceOnUse"><stop offset="0" stop-color="#01fd01"/><stop offset="1" stop-color="#02fc02"/></linearGradient></defs><g><rect fill="#000000" stroke="none" x="0" y="0" width="662" height="324"/><g transform="scale(1,1) translate(-730,-878)"><path fill="none" stroke="#807f7f" paint-order="fill stroke markers" d=" M 1008 1072 L 1008 1136" stroke-linecap="round" stroke-miterlimit="10" stroke-width="3" stroke-dasharray=""/><text fill="#ffffff" stroke="none" font-family="sans-serif" font-size="12px" font-style="normal" font-weight="normal" text-decoration="normal" x="1014" y="1110" text-anchor="start" dominant-baseline="alphabetic"></text><path fill="none" stroke="#807f7f" paint-order="fill stroke markers" d=" M 960 1136 L 1008 1136" stroke-linecap="round" stroke-miterlimit="10" stroke-width="3" stroke-dasharray=""/><text fill="#ffffff" stroke="none" font-family="sans-serif" font-size="12px" font-style="normal" font-weight="normal" text-decoration="normal" x="984" y="1130" text-anchor="start" dominant-baseline="alphabetic"></text><path fill="none" stroke="#807f7f" paint-order="fill stroke markers" d=" M 960 1072 L 1008 1072" stroke-linecap="round" stroke-miterlimit="10" stroke-width="3" stroke-dasharray=""/><text fill="#ffffff" stroke="none" font-family="sans-serif" font-size="12px" font-style="normal" font-weight="normal" text-decoration="normal" x="984" y="1066" text-anchor="start" dominant-baseline="alphabetic"></text><path fill="none" stroke="#02fc02" paint-order="fill stroke markers" d=" M 992 1040 L 992 1104" stroke-linecap="round" stroke-miterlimit="10" stroke-width="3" stroke-dasharray=""/><text fill="#ffffff" stroke="none" font-family="sans-serif" font-size="12px" font-style="normal" font-weight="normal" text-decoration="normal" x="998" y="1078" text-anchor="start" dominant-baseline="alphabetic"></text><path fill="none" stroke="#02fc02" paint-order="fill stroke markers" d=" M 960 1104 L 992 1104" stroke-linecap="round" stroke-miterlimit="10" stroke-width="3" stroke-dasharray=""/><text fill="#ffffff" stroke="none" font-family="sans-serif" font-size="12px" font-style="normal" font-weight="normal" text-decoration="normal" x="976" y="1098" text-anchor="start" dominant-baseline="alphabetic"></text><path fill="none" stroke="#02fc02" paint-order="fill stroke markers" d=" M 960 1040 L 992 1040" stroke-linecap="round" stroke-miterlimit="10" stroke-width="3" stroke-dasharray=""/><text fill="#ffffff" stroke="none" font-family="sans-serif" font-size="12px" font-style="normal" font-weight="normal" text-decoration="normal" x="976" y="1034" text-anchor="start" dominant-baseline="alphabetic"></text><path fill="none" stroke="#02fc02" paint-order="fill stroke markers" d=" M 960 1040 L 947 1050" stroke-linecap="round" stroke-miterlimit="10" stroke-width="3" stroke-dasharray=""/><path fill="none" stroke="#807f7f" paint-order="fill stroke markers" d=" M 960 1072 L 947 1062" stroke-linecap="round" stroke-miterlimit="10" stroke-width="3" stroke-dasharray=""/><path fill="#c0c0c0" stroke="none" paint-order="stroke fill markers" d=" M 960 1072 L 956 1064 L 951 1070 Z"/><path fill="none" stroke="#807f7f" paint-order="fill stroke markers" d=" M 912 1056 L 944 1056" stroke-linecap="round" stroke-miterlimit="10" stroke-width="3" stroke-dasharray=""/><path fill="#807f7f" stroke="none" paint-order="stroke fill markers" d=" M 944 1040 L 947 1040 L 947 1072 L 944 1072 Z"/><path fill="none" stroke="#02fc02" paint-order="fill stroke markers" d=" M 960 1104 L 947 1114" stroke-linecap="round" stroke-miterlimit="10" stroke-width="3" stroke-dasharray=""/><path fill="none" stroke="#807f7f" paint-order="fill stroke markers" d=" M 960 1136 L 947 1126" stroke-linecap="round" stroke-miterlimit="10" stroke-width="3" stroke-dasharray=""/><path fill="#c0c0c0" stroke="none" paint-order="stroke fill markers" d=" M 960 1136 L 956 1128 L 951 1134 Z"/><path fill="none" stroke="#807f7f" paint-order="fill stroke markers" d=" M 912 1120 L 944 1120" stroke-linecap="round" stroke-miterlimit="10" stroke-width="3" stroke-dasharray=""/><path fill="#807f7f" stroke="none" paint-order="stroke fill markers" d=" M 944 1104 L 947 1104 L 947 1136 L 944 1136 Z"/><path fill="none" stroke="#807f7f" paint-order="fill stroke markers" d=" M 912 1056 L 896 1056" stroke-linecap="round" stroke-miterlimit="10" stroke-width="3" stroke-dasharray=""/><path fill="none" stroke="#807f7f" paint-order="fill stroke markers" d=" M 864 1056 L 848 1056" stroke-linecap="round" stroke-miterlimit="10" stroke-width="3" stroke-dasharray=""/><g transform="matrix(-1,0,0,-1,896,1056)"><path fill="none" stroke="url(#pMhkhdNwsJEf)" paint-order="fill stroke markers" d=" M 0 0 L 2 6 L 6 -6 L 10 6 L 14 -6 L 18 6 L 22 -6 L 26 6 L 30 -6 L 32 0" stroke-linecap="round" stroke-miterlimit="10" stroke-width="3" stroke-dasharray=""/></g><text fill="#ffffff" stroke="none" font-family="sans-serif" font-size="12px" font-style="normal" font-weight="normal" text-decoration="normal" x="871" y="1046" text-anchor="start" dominant-baseline="alphabetic">10k</text><path fill="none" stroke="#807f7f" paint-order="fill stroke markers" d=" M 912 1120 L 896 1120" stroke-linecap="round" stroke-miterlimit="10" stroke-width="3" stroke-dasharray=""/><path fill="none" stroke="#807f7f" paint-order="fill stroke markers" d=" M 864 1120 L 848 1120" stroke-linecap="round" stroke-miterlimit="10" stroke-width="3" stroke-dasharray=""/><g transform="matrix(-1,0,0,-1,896,1120)"><path fill="none" stroke="url(#UCHSTNaehQTI)" paint-order="fill stroke markers" d=" M 0 0 L 2 6 L 6 -6 L 10 6 L 14 -6 L 18 6 L 22 -6 L 26 6 L 30 -6 L 32 0" stroke-linecap="round" stroke-miterlimit="10" stroke-width="3" stroke-dasharray=""/></g><text fill="#ffffff" stroke="none" font-family="sans-serif" font-size="12px" font-style="normal" font-weight="normal" text-decoration="normal" x="871" y="1110" text-anchor="start" dominant-baseline="alphabetic">10k</text><g><g><text fill="#ffffff" stroke="none" font-family="sans-serif" font-size="20px" font-style="normal" font-weight="bold" text-decoration="normal" x="800" y="1056" text-anchor="middle" dominant-baseline="central">L</text></g><path fill="none" stroke="#807f7f" paint-order="fill stroke markers" d=" M 848 1056 L 812 1056" stroke-linecap="round" stroke-miterlimit="10" stroke-width="3" stroke-dasharray=""/></g><g><g><text fill="#ffffff" stroke="none" font-family="sans-serif" font-size="20px" font-style="normal" font-weight="bold" text-decoration="normal" x="800" y="1120" text-anchor="middle" dominant-baseline="central">L</text></g><path fill="none" stroke="#807f7f" paint-order="fill stroke markers" d=" M 848 1120 L 812 1120" stroke-linecap="round" stroke-miterlimit="10" stroke-width="3" stroke-dasharray=""/></g><path fill="none" stroke="#01fd01" paint-order="fill stroke markers" d=" M 992 976 L 992 992" stroke-linecap="round" stroke-miterlimit="10" stroke-width="3" stroke-dasharray=""/><path fill="none" stroke="#02fc02" paint-order="fill stroke markers" d=" M 992 1024 L 992 1040" stroke-linecap="round" stroke-miterlimit="10" stroke-width="3" stroke-dasharray=""/><g transform="matrix(0,1,-1,0,992,992)"><path fill="none" stroke="url(#yWNZCUyGBfWL)" paint-order="fill stroke markers" d=" M 0 0 L 2 6 L 6 -6 L 10 6 L 14 -6 L 18 6 L 22 -6 L 26 6 L 30 -6 L 32 0" stroke-linecap="round" stroke-miterlimit="10" stroke-width="3" stroke-dasharray=""/></g><text fill="#ffffff" stroke="none" font-family="sans-serif" font-size="12px" font-style="normal" font-weight="normal" text-decoration="normal" x="1002" y="1014" text-anchor="start" dominant-baseline="alphabetic">4.7k</text><path fill="none" stroke="#807f7f" paint-order="fill stroke markers" d=" M 960 1136 L 960 1152" stroke-linecap="round" stroke-miterlimit="10" stroke-width="3" stroke-dasharray=""/><path fill="none" stroke="#807f7f" paint-order="fill stroke markers" d=" M 970 1152 L 950 1152" stroke-linecap="round" stroke-miterlimit="10" stroke-width="3" stroke-dasharray=""/><path fill="none" stroke="#807f7f" paint-order="fill stroke markers" d=" M 966 1157 L 954 1157" stroke-linecap="round" stroke-miterlimit="10" stroke-width="3" stroke-dasharray=""/><path fill="none" stroke="#807f7f" paint-order="fill stroke markers" d=" M 962 1162 L 958 1162" stroke-linecap="round" stroke-miterlimit="10" stroke-width="3" stroke-dasharray=""/><path fill="none" stroke="#01fd01" paint-order="fill stroke markers" d=" M 992 976 L 992 945" stroke-linecap="round" stroke-miterlimit="10" stroke-width="3" stroke-dasharray=""/><g><text fill="#ffffff" stroke="none" font-family="sans-serif" font-size="12px" font-style="normal" font-weight="normal" text-decoration="normal" x="982" y="933" text-anchor="start" dominant-baseline="central">+5V</text></g><g><g><text fill="#c0c0c0" stroke="none" font-family="sans-serif" font-size="20px" font-style="normal" font-weight="bold" text-decoration="normal" x="1056" y="1040" text-anchor="middle" dominant-baseline="central">H</text></g><path fill="none" stroke="#02fc02" paint-order="fill stroke markers" d=" M 992 1040 L 1044 1040" stroke-linecap="round" stroke-miterlimit="10" stroke-width="3" stroke-dasharray=""/></g><rect fill="none" stroke="#808080" x="1150" y="1011" width="172" height="121" stroke-linecap="round" stroke-miterlimit="10" stroke-dasharray="16,6"/><g><text fill="#c0c0c0" stroke="none" font-family="sans-serif" font-size="18px" font-style="normal" font-weight="normal" text-decoration="normal" x="1220" y="1079" text-anchor="start" dominant-baseline="alphabetic">NOR</text></g><path fill="none" stroke="#807f7f" paint-order="fill stroke markers" d=" M 1184 1088 L 1212 1088" stroke-linecap="round" stroke-miterlimit="10" stroke-width="3"/><path fill="none" stroke="#807f7f" paint-order="fill stroke markers" d=" M 1184 1056 L 1212 1056" stroke-linecap="round" stroke-miterlimit="10" stroke-width="3"/><path fill="none" stroke="#01fd01" paint-order="fill stroke markers" d=" M 1276 1072 L 1296 1072" stroke-linecap="round" stroke-miterlimit="10" stroke-width="3"/><path fill="none" stroke="#c0c0c0" paint-order="fill stroke markers" d=" M 1209 1044 L 1229 1044 C 1251 1049 1251 1049 1268 1072 C 1251 1095 1251 1095 1229 1100 L 1209 1100 C 1216 1072 1216 1072 1209 1044 Z" stroke-linecap="round" stroke-miterlimit="10" stroke-width="3"/><path fill="none" stroke="#c0c0c0" paint-order="fill stroke markers" d=" M 1274.94 1072 A 2.94 2.94 0 1 1 1274.9399985300001 1071.99706000049" stroke-linecap="round" stroke-miterlimit="10" stroke-width="3"/><path fill="#ffffff" stroke="none" paint-order="stroke fill markers" d=" M 963 1136 A 3 3 0 1 1 962.9999999999577 1135.9999840784612 Z"/><path fill="#ffffff" stroke="none" paint-order="stroke fill markers" d=" M 995 1040 A 3 3 0 1 1 994.9999999999577 1039.9999840784612 Z"/><path fill="#ffffff" stroke="none" paint-order="stroke fill markers" d=" M 1187 1088 A 3 3 0 1 1 1186.9999999999577 1087.9999840784612 Z"/><path fill="#ffffff" stroke="none" paint-order="stroke fill markers" d=" M 1187 1056 A 3 3 0 1 1 1186.9999999999577 1055.9999840784612 Z"/><path fill="#ffffff" stroke="none" paint-order="stroke fill markers" d=" M 1299 1072 A 3 3 0 1 1 1298.9999999999577 1071.9999840784612 Z"/></g></g></svg>