<svg version="1.1" xmlns="http://www.w3.org/2000/svg" xmlns:xlink="http://www.w3.org/1999/xlink" width="630" height="324"><defs><linearGradient id="WNKtBVgfDhAT" x1="0px" x2="32px" y1="0px" y2="0px" gradientUnits="userSpaceOnUse"><stop offset="0" stop-color="#03fb03"/><stop offset="1" stop-color="#01fd01"/></linearGradient><linearGradient id="TCWkIeWNwWzO" x1="0px" x2="32px" y1="0px" y2="0px" gradientUnits="userSpaceOnUse"><stop offset="0" stop-color="#06f806"/><stop offset="1" stop-color="#01fd01"/></linearGradient><linearGradient id="AQlsHhIoTqbl" x1="0px" x2="32px" y1="0px" y2="0px" gradientUnits="userSpaceOnUse"><stop offset="0" stop-color="#15e915"/><stop offset="1" stop-color="#807f7f"/></linearGradient></defs><g><rect fill="#000000" stroke="none" x="0" y="0" width="630" height="324"/><g transform="scale(1,1) translate(-298,-926)"><path fill="none" stroke="#01fd01" paint-order="fill stroke markers" d=" M 528 1024 L 515 1034" stroke-linecap="round" stroke-miterlimit="10" stroke-width="3" stroke-dasharray=""/><path fill="none" stroke="#13ec13" paint-order="fill stroke markers" d=" M 528 1056 L 515 1046" stroke-linecap="round" stroke-miterlimit="10" stroke-width="3" stroke-dasharray=""/><path fill="#c0c0c0" stroke="none" paint-order="stroke fill markers" d=" M 528 1056 L 524 1048 L 519 1054 Z"/><path fill="none" stroke="#03fb03" paint-order="fill stroke markers" d=" M 480 1040 L 512 1040" stroke-linecap="round" stroke-miterlimit="10" stroke-width="3" stroke-dasharray=""/><path fill="#03fb03" stroke="none" paint-order="stroke fill markers" d=" M 512 1024 L 515 1024 L 515 1056 L 512 1056 Z"/><path fill="none" stroke="#13ec13" paint-order="fill stroke markers" d=" M 528 1088 L 515 1098" stroke-linecap="round" stroke-miterlimit="10" stroke-width="3" stroke-dasharray=""/><path fill="none" stroke="#15e915" paint-order="fill stroke markers" d=" M 528 1120 L 515 1110" stroke-linecap="round" stroke-miterlimit="10" stroke-width="3" stroke-dasharray=""/><path fill="#c0c0c0" stroke="none" paint-order="stroke fill markers" d=" M 528 1120 L 524 1112 L 519 1118 Z"/><path fill="none" stroke="#06f806" paint-order="fill stroke markers" d=" M 480 1104 L 512 1104" stroke-linecap="round" stroke-miterlimit="10" stroke-width="3" stroke-dasharray=""/><path fill="#06f806" stroke="none" paint-order="stroke fill markers" d=" M 512 1088 L 515 1088 L 515 1120 L 512 1120 Z"/><path fill="none" stroke="#13ec13" paint-order="fill stroke markers" d=" M 528 1056 L 528 1088" stroke-linecap="round" stroke-miterlimit="10" stroke-width="3" stroke-dasharray=""/><text fill="#ffffff" stroke="none" font-family="sans-serif" font-size="12px" font-style="normal" font-weight="normal" text-decoration="normal" x="534" y="1078" text-anchor="start" dominant-baseline="alphabetic"></text><path fill="none" stroke="#03fb03" paint-order="fill stroke markers" d=" M 480 1040 L 464 1040" stroke-linecap="round" stroke-miterlimit="10" stroke-width="3" stroke-dasharray=""/><path fill="none" stroke="#01fd01" paint-order="fill stroke markers" d=" M 432 1040 L 416 1040" stroke-linecap="round" stroke-miterlimit="10" stroke-width="3" stroke-dasharray=""/><g transform="matrix(-1,0,0,-1,464,1040)"><path fill="none" stroke="url(#WNKtBVgfDhAT)" paint-order="fill stroke markers" d=" M 0 0 L 2 6 L 6 -6 L 10 6 L 14 -6 L 18 6 L 22 -6 L 26 6 L 30 -6 L 32 0" stroke-linecap="round" stroke-miterlimit="10" stroke-width="3" stroke-dasharray=""/></g><text fill="#ffffff" stroke="none" font-family="sans-serif" font-size="12px" font-style="normal" font-weight="normal" text-decoration="normal" x="439" y="1030" text-anchor="start" dominant-baseline="alphabetic">10k</text><path fill="none" stroke="#06f806" paint-order="fill stroke markers" d=" M 480 1104 L 464 1104" stroke-linecap="round" stroke-miterlimit="10" stroke-width="3" stroke-dasharray=""/><path fill="none" stroke="#01fd01" paint-order="fill stroke markers" d=" M 432 1104 L 416 1104" stroke-linecap="round" stroke-miterlimit="10" stroke-width="3" stroke-dasharray=""/><g transform="matrix(-1,0,0,-1,464,1104)"><path fill="none" stroke="url(#TCWkIeWNwWzO)" paint-order="fill stroke markers" d=" M 0 0 L 2 6 L 6 -6 L 10 6 L 14 -6 L 18 6 L 22 -6 L 26 6 L 30 -6 L 32 0" stroke-linecap="round" stroke-miterlimit="10" stroke-width="3" stroke-dasharray=""/></g><text fill="#ffffff" stroke="none" font-family="sans-serif" font-size="12px" font-style="normal" font-weight="normal" text-decoration="normal" x="439" y="1094" text-anchor="start" dominant-baseline="alphabetic">10k</text><g><g><text fill="#ffffff" stroke="none" font-family="sans-serif" font-size="20px" font-style="normal" font-weight="bold" text-decoration="normal" x="368" y="1040" text-anchor="middle" dominant-baseline="central">H</text></g><path fill="none" stroke="#01fd01" paint-order="fill stroke markers" d=" M 416 1040 L 380 1040" stroke-linecap="round" stroke-miterlimit="10" stroke-width="3" stroke-dasharray=""/></g><g><g><text fill="#ffffff" stroke="none" font-family="sans-serif" font-size="20px" font-style="normal" font-weight="bold" text-decoration="normal" x="368" y="1104" text-anchor="middle" dominant-baseline="central">H</text></g><path fill="none" stroke="#01fd01" paint-order="fill stroke markers" d=" M 416 1104 L 380 1104" stroke-linecap="round" stroke-miterlimit="10" stroke-width="3" stroke-dasharray=""/></g><path fill="none" stroke="#15e915" paint-order="fill stroke markers" d=" M 528 1120 L 528 1136" stroke-linecap="round" stroke-miterlimit="10" stroke-width="3" stroke-dasharray=""/><path fill="none" stroke="#807f7f" paint-order="fill stroke markers" d=" M 528 1168 L 528 1184" stroke-linecap="round" stroke-miterlimit="10" stroke-width="3" stroke-dasharray=""/><g transform="matrix(0,1,-1,0,528,1136)"><path fill="none" stroke="url(#AQlsHhIoTqbl)" paint-order="fill stroke markers" d=" M 0 0 L 2 6 L 6 -6 L 10 6 L 14 -6 L 18 6 L 22 -6 L 26 6 L 30 -6 L 32 0" stroke-linecap="round" stroke-miterlimit="10" stroke-width="3" stroke-dasharray=""/></g><text fill="#ffffff" stroke="none" font-family="sans-serif" font-size="12px" font-style="normal" font-weight="normal" text-decoration="normal" x="538" y="1158" text-anchor="start" dominant-baseline="alphabetic">4.7k</text><path fill="none" stroke="#807f7f" paint-order="fill stroke markers" d=" M 528 1184 L 528 1200" stroke-linecap="round" stroke-miterlimit="10" stroke-width="3" stroke-dasharray=""/><path fill="none" stroke="#807f7f" paint-order="fill stroke markers" d=" M 538 1200 L 518 1200" stroke-linecap="round" stroke-miterlimit="10" stroke-width="3" stroke-dasharray=""/><path fill="none" stroke="#807f7f" paint-order="fill stroke markers" d=" M 534 1205 L 522 1205" stroke-linecap="round" stroke-miterlimit="10" stroke-width="3" stroke-dasharray=""/><path fill="none" stroke="#807f7f" paint-order="fill stroke markers" d=" M 530 1210 L 526 1210" stroke-linecap="round" stroke-miterlimit="10" stroke-width="3" stroke-dasharray=""/><path fill="none" stroke="#01fd01" paint-order="fill stroke markers" d=" M 528 1024 L 528 993" stroke-linecap="round" stroke-miterlimit="10" stroke-width="3" stroke-dasharray=""/><g><text fill="#ffffff" stroke="none" font-family="sans-serif" font-size="12px" font-style="normal" font-weight="normal" text-decoration="normal" x="518" y="981" text-anchor="start" dominant-baseline="central">+5V</text></g><g><g><text fill="#c0c0c0" stroke="none" font-family="sans-serif" font-size="20px" font-style="normal" font-weight="bold" text-decoration="normal" x="592" y="1120" text-anchor="middle" dominant-baseline="central">H</text></g><path fill="none" stroke="#15e915" paint-order="fill stroke markers" d=" M 528 1120 L 580 1120" stroke-linecap="round" stroke-miterlimit="10" stroke-width="3" stroke-dasharray=""/></g><path fill="none" stroke="#807f7f" paint-order="fill stroke markers" d=" M 720 1072 L 748 1072" stroke-linecap="round" stroke-miterlimit="10" stroke-width="3" stroke-dasharray=""/><path fill="none" stroke="#807f7f" paint-order="fill stroke markers" d=" M 720 1040 L 748 1040" stroke-linecap="round" stroke-miterlimit="10" stroke-width="3" stroke-dasharray=""/><path fill="none" stroke="#807f7f" paint-order="fill stroke markers" d=" M 804 1056 L 832 1056" stroke-linecap="round" stroke-miterlimit="10" stroke-width="3" stroke-dasharray=""/><path fill="none" stroke="#c0c0c0" paint-order="fill stroke markers" d=" M 748 1028 L 776 1028 A 28 28 0 0 1 776 1084 L 748 1084 Z" stroke-linecap="round" stroke-miterlimit="10" stroke-width="3" stroke-dasharray=""/><rect fill="none" stroke="#808080" x="686" y="995" width="172" height="121" stroke-linecap="round" stroke-miterlimit="10" stroke-dasharray="16,6"/><g><text fill="#c0c0c0" stroke="none" font-family="sans-serif" font-size="18px" font-style="normal" font-weight="normal" text-decoration="normal" x="756" y="1063" text-anchor="start" dominant-baseline="alphabetic">AND</text></g><path fill="#ffffff" stroke="none" paint-order="stroke fill markers" d=" M 531 1120 A 3 3 0 1 1 530.9999999999577 1119.9999840784612 Z"/><path fill="#ffffff" stroke="none" paint-order="stroke fill markers" d=" M 723 1072 A 3 3 0 1 1 722.9999999999577 1071.9999840784612 Z"/><path fill="#ffffff" stroke="none" paint-order="stroke fill markers" d=" M 723 1040 A 3 3 0 1 1 722.9999999999577 1039.9999840784612 Z"/><path fill="#ffffff" stroke="none" paint-order="stroke fill markers" d=" M 835 1056 A 3 3 0 1 1 834.9999999999577 1055.9999840784612 Z"/></g></g></svg>