<svg version="1.1" xmlns="http://www.w3.org/2000/svg" xmlns:xlink="http://www.w3.org/1999/xlink" width="829" height="237"><defs/><g><rect fill="#000000" stroke="none" x="0" y="0" width="829" height="237"/><g transform="scale(1,1) translate(22,-117)"><path fill="none" stroke="#807f7f" paint-order="fill stroke markers" d=" M 96 256 L 124 256" stroke-linecap="round" stroke-miterlimit="10" stroke-width="3" stroke-dasharray=""/><path fill="none" stroke="#01fd01" paint-order="fill stroke markers" d=" M 96 224 L 124 224" stroke-linecap="round" stroke-miterlimit="10" stroke-width="3" stroke-dasharray=""/><path fill="none" stroke="#01fd01" paint-order="fill stroke markers" d=" M 188 240 L 208 240" stroke-linecap="round" stroke-miterlimit="10" stroke-width="3" stroke-dasharray=""/><path fill="none" stroke="#c0c0c0" paint-order="fill stroke markers" d=" M 124 212 L 152 212 A 28 28 0 0 1 152 268 L 124 268 Z" stroke-linecap="round" stroke-miterlimit="10" stroke-width="3" stroke-dasharray=""/><path fill="none" stroke="#c0c0c0" paint-order="fill stroke markers" d=" M 186.94 240 A 2.94 2.94 0 1 1 186.9399985300001 239.99706000049" stroke-linecap="round" stroke-miterlimit="10" stroke-width="3" stroke-dasharray=""/><path fill="none" stroke="#01fd01" paint-order="fill stroke markers" d=" M 208 208 L 236 208" stroke-linecap="round" stroke-miterlimit="10" stroke-width="3" stroke-dasharray=""/><path fill="none" stroke="#01fd01" paint-order="fill stroke markers" d=" M 208 176 L 236 176" stroke-linecap="round" stroke-miterlimit="10" stroke-width="3" stroke-dasharray=""/><path fill="none" stroke="#807f7f" paint-order="fill stroke markers" d=" M 300 192 L 320 192" stroke-linecap="round" stroke-miterlimit="10" stroke-width="3" stroke-dasharray=""/><path fill="none" stroke="#c0c0c0" paint-order="fill stroke markers" d=" M 236 164 L 264 164 A 28 28 0 0 1 264 220 L 236 220 Z" stroke-linecap="round" stroke-miterlimit="10" stroke-width="3" stroke-dasharray=""/><path fill="none" stroke="#c0c0c0" paint-order="fill stroke markers" d=" M 298.94 192 A 2.94 2.94 0 1 1 298.93999853000014 191.99706000049" stroke-linecap="round" stroke-miterlimit="10" stroke-width="3" stroke-dasharray=""/><path fill="none" stroke="#807f7f" paint-order="fill stroke markers" d=" M 208 304 L 236 304" stroke-linecap="round" stroke-miterlimit="10" stroke-width="3" stroke-dasharray=""/><path fill="none" stroke="#01fd01" paint-order="fill stroke markers" d=" M 208 272 L 236 272" stroke-linecap="round" stroke-miterlimit="10" stroke-width="3" stroke-dasharray=""/><path fill="none" stroke="#01fd01" paint-order="fill stroke markers" d=" M 300 288 L 320 288" stroke-linecap="round" stroke-miterlimit="10" stroke-width="3" stroke-dasharray=""/><path fill="none" stroke="#c0c0c0" paint-order="fill stroke markers" d=" M 236 260 L 264 260 A 28 28 0 0 1 264 316 L 236 316 Z" stroke-linecap="round" stroke-miterlimit="10" stroke-width="3" stroke-dasharray=""/><path fill="none" stroke="#c0c0c0" paint-order="fill stroke markers" d=" M 298.94 288 A 2.94 2.94 0 1 1 298.93999853000014 287.99706000049" stroke-linecap="round" stroke-miterlimit="10" stroke-width="3" stroke-dasharray=""/><path fill="none" stroke="#01fd01" paint-order="fill stroke markers" d=" M 208 240 L 208 272" stroke-linecap="round" stroke-miterlimit="10" stroke-width="3" stroke-dasharray=""/><text fill="#ffffff" stroke="none" font-family="sans-serif" font-size="12px" font-style="normal" font-weight="normal" text-decoration="normal" x="214" y="262" text-anchor="start" dominant-baseline="alphabetic"></text><path fill="none" stroke="#01fd01" paint-order="fill stroke markers" d=" M 208 240 L 208 208" stroke-linecap="round" stroke-miterlimit="10" stroke-width="3" stroke-dasharray=""/><text fill="#ffffff" stroke="none" font-family="sans-serif" font-size="12px" font-style="normal" font-weight="normal" text-decoration="normal" x="214" y="230" text-anchor="start" dominant-baseline="alphabetic"></text><path fill="none" stroke="#01fd01" paint-order="fill stroke markers" d=" M 320 256 L 348 256" stroke-linecap="round" stroke-miterlimit="10" stroke-width="3" stroke-dasharray=""/><path fill="none" stroke="#807f7f" paint-order="fill stroke markers" d=" M 320 224 L 348 224" stroke-linecap="round" stroke-miterlimit="10" stroke-width="3" stroke-dasharray=""/><path fill="none" stroke="#01fd01" paint-order="fill stroke markers" d=" M 412 240 L 432 240" stroke-linecap="round" stroke-miterlimit="10" stroke-width="3" stroke-dasharray=""/><path fill="none" stroke="#c0c0c0" paint-order="fill stroke markers" d=" M 348 212 L 376 212 A 28 28 0 0 1 376 268 L 348 268 Z" stroke-linecap="round" stroke-miterlimit="10" stroke-width="3" stroke-dasharray=""/><path fill="none" stroke="#c0c0c0" paint-order="fill stroke markers" d=" M 410.94 240 A 2.94 2.94 0 1 1 410.93999853000014 239.99706000049" stroke-linecap="round" stroke-miterlimit="10" stroke-width="3" stroke-dasharray=""/><path fill="none" stroke="#807f7f" paint-order="fill stroke markers" d=" M 320 192 L 320 224" stroke-linecap="round" stroke-miterlimit="10" stroke-width="3" stroke-dasharray=""/><text fill="#ffffff" stroke="none" font-family="sans-serif" font-size="12px" font-style="normal" font-weight="normal" text-decoration="normal" x="326" y="214" text-anchor="start" dominant-baseline="alphabetic"></text><path fill="none" stroke="#01fd01" paint-order="fill stroke markers" d=" M 320 256 L 320 288" stroke-linecap="round" stroke-miterlimit="10" stroke-width="3" stroke-dasharray=""/><text fill="#ffffff" stroke="none" font-family="sans-serif" font-size="12px" font-style="normal" font-weight="normal" text-decoration="normal" x="326" y="278" text-anchor="start" dominant-baseline="alphabetic"></text><path fill="none" stroke="#01fd01" paint-order="fill stroke markers" d=" M 96 176 L 96 224" stroke-linecap="round" stroke-miterlimit="10" stroke-width="3" stroke-dasharray=""/><text fill="#ffffff" stroke="none" font-family="sans-serif" font-size="12px" font-style="normal" font-weight="normal" text-decoration="normal" x="102" y="206" text-anchor="start" dominant-baseline="alphabetic"></text><path fill="none" stroke="#01fd01" paint-order="fill stroke markers" d=" M 96 176 L 208 176" stroke-linecap="round" stroke-miterlimit="10" stroke-width="3" stroke-dasharray=""/><text fill="#ffffff" stroke="none" font-family="sans-serif" font-size="12px" font-style="normal" font-weight="normal" text-decoration="normal" x="152" y="170" text-anchor="start" dominant-baseline="alphabetic"></text><path fill="none" stroke="#807f7f" paint-order="fill stroke markers" d=" M 96 256 L 96 304" stroke-linecap="round" stroke-miterlimit="10" stroke-width="3" stroke-dasharray=""/><text fill="#ffffff" stroke="none" font-family="sans-serif" font-size="12px" font-style="normal" font-weight="normal" text-decoration="normal" x="102" y="286" text-anchor="start" dominant-baseline="alphabetic"></text><path fill="none" stroke="#807f7f" paint-order="fill stroke markers" d=" M 96 304 L 208 304" stroke-linecap="round" stroke-miterlimit="10" stroke-width="3" stroke-dasharray=""/><text fill="#ffffff" stroke="none" font-family="sans-serif" font-size="12px" font-style="normal" font-weight="normal" text-decoration="normal" x="152" y="298" text-anchor="start" dominant-baseline="alphabetic"></text><g><g><text fill="#c0c0c0" stroke="none" font-family="sans-serif" font-size="20px" font-style="normal" font-weight="bold" text-decoration="normal" x="480" y="240" text-anchor="middle" dominant-baseline="central">H</text></g><path fill="none" stroke="#01fd01" paint-order="fill stroke markers" d=" M 432 240 L 468 240" stroke-linecap="round" stroke-miterlimit="10" stroke-width="3" stroke-dasharray=""/></g><g><g><text fill="#ffffff" stroke="none" font-family="sans-serif" font-size="20px" font-style="normal" font-weight="bold" text-decoration="normal" x="48" y="176" text-anchor="middle" dominant-baseline="central">H</text></g><path fill="none" stroke="#01fd01" paint-order="fill stroke markers" d=" M 96 176 L 60 176" stroke-linecap="round" stroke-miterlimit="10" stroke-width="3" stroke-dasharray=""/></g><g><g><text fill="#ffffff" stroke="none" font-family="sans-serif" font-size="20px" font-style="normal" font-weight="bold" text-decoration="normal" x="48" y="304" text-anchor="middle" dominant-baseline="central">L</text></g><path fill="none" stroke="#807f7f" paint-order="fill stroke markers" d=" M 96 304 L 60 304" stroke-linecap="round" stroke-miterlimit="10" stroke-width="3" stroke-dasharray=""/></g><path fill="none" stroke="#807f7f" paint-order="fill stroke markers" d=" M 592 240 L 628 240" stroke-linecap="round" stroke-miterlimit="10" stroke-width="3" stroke-dasharray=""/><path fill="none" stroke="#807f7f" paint-order="fill stroke markers" d=" M 592 208 L 628 208" stroke-linecap="round" stroke-miterlimit="10" stroke-width="3" stroke-dasharray=""/><path fill="none" stroke="#807f7f" paint-order="fill stroke markers" d=" M 684 224 L 720 224" stroke-linecap="round" stroke-miterlimit="10" stroke-width="3" stroke-dasharray=""/><path fill="none" stroke="#c0c0c0" paint-order="fill stroke markers" d=" M 625 196 L 645 196 C 667 201 667 201 684 224 C 667 247 667 247 645 252 L 625 252 C 632 224 632 224 625 196 Z M 620 196 C 627 224 627 224 620 252" stroke-linecap="round" stroke-miterlimit="10" stroke-width="3" stroke-dasharray=""/><rect fill="none" stroke="#808080" x="565" y="167" width="172" height="121" stroke-linecap="round" stroke-miterlimit="10" stroke-dasharray="16,6"/><g><text fill="#c0c0c0" stroke="none" font-family="sans-serif" font-size="18px" font-style="normal" font-weight="normal" text-decoration="normal" x="633" y="230" text-anchor="start" dominant-baseline="alphabetic">XOR</text></g><path fill="#ffffff" stroke="none" paint-order="stroke fill markers" d=" M 211 240 A 3 3 0 1 1 210.99999999995774 239.99998407846124 Z"/><path fill="#ffffff" stroke="none" paint-order="stroke fill markers" d=" M 99 176 A 3 3 0 1 1 98.99999999995775 175.99998407846124 Z"/><path fill="#ffffff" stroke="none" paint-order="stroke fill markers" d=" M 99 304 A 3 3 0 1 1 98.99999999995775 303.99998407846124 Z"/><path fill="#ffffff" stroke="none" paint-order="stroke fill markers" d=" M 595 240 A 3 3 0 1 1 594.9999999999577 239.99998407846124 Z"/><path fill="#ffffff" stroke="none" paint-order="stroke fill markers" d=" M 595 208 A 3 3 0 1 1 594.9999999999577 207.99998407846124 Z"/><path fill="#ffffff" stroke="none" paint-order="stroke fill markers" d=" M 723 224 A 3 3 0 1 1 722.9999999999577 223.99998407846124 Z"/></g></g></svg>