<svg version="1.1" xmlns="http://www.w3.org/2000/svg" xmlns:xlink="http://www.w3.org/1999/xlink" width="803" height="500"><defs><linearGradient id="IoChcvIceGzw" x1="0px" x2="32px" y1="0px" y2="0px" gradientUnits="userSpaceOnUse"><stop offset="0" stop-color="#23db23"/><stop offset="1" stop-color="#ff0000"/></linearGradient><linearGradient id="aXPlJFMKLBTE" x1="0px" x2="32px" y1="0px" y2="0px" gradientUnits="userSpaceOnUse"><stop offset="0" stop-color="#817e7e"/><stop offset="1" stop-color="#ff0000"/></linearGradient><linearGradient id="tDqSMIcfcwHV" x1="0px" x2="32px" y1="0px" y2="0px" gradientUnits="userSpaceOnUse"><stop offset="0" stop-color="#ff0000"/><stop offset="1" stop-color="#ff0000"/></linearGradient><linearGradient id="ZLnRATIvfOMk" x1="0px" x2="32px" y1="0px" y2="0px" gradientUnits="userSpaceOnUse"><stop offset="0" stop-color="#ff0000"/><stop offset="1" stop-color="#ff0000"/></linearGradient><linearGradient id="ApUSLBPQtKUi" x1="0px" x2="32px" y1="0px" y2="0px" gradientUnits="userSpaceOnUse"><stop offset="0" stop-color="#ff0000"/><stop offset="1" stop-color="#807f7f"/></linearGradient><linearGradient id="QtFnwfvqShqp" x1="0px" x2="32px" y1="0px" y2="0px" gradientUnits="userSpaceOnUse"><stop offset="0" stop-color="#817e7e"/><stop offset="1" stop-color="#807f7f"/></linearGradient><clipPath id="PQMVEHQootbA"><path fill="none" stroke="none" d=" M 0 0 L 96 0 L 96 64 L 0 64 L 0 0 Z"/></clipPath><clipPath id="fUGJcalUDceX"><path fill="none" stroke="none" d=" M 0 0 L 112 0 L 112 64 L 0 64 L 0 0 Z"/></clipPath></defs><g><rect fill="#000000" stroke="none" x="0" y="0" width="803" height="500"/><g transform="scale(1,1) translate(397,66)"><path fill="none" stroke="#817e7e" paint-order="fill stroke markers" d=" M -112 192 L -82 192" stroke-linecap="round" stroke-miterlimit="10" stroke-width="3" stroke-dasharray=""/><path fill="none" stroke="#807f7f" paint-order="fill stroke markers" d=" M -112 224 L -82 224" stroke-linecap="round" stroke-miterlimit="10" stroke-width="3" stroke-dasharray=""/><path fill="none" stroke="#23db23" paint-order="fill stroke markers" d=" M -30 208 L 0 208" stroke-linecap="round" stroke-miterlimit="10" stroke-width="3" stroke-dasharray=""/><path fill="none" stroke="#c0c0c0" paint-order="fill stroke markers" d=" M -82 176 L -82 240 L -30 208 Z" stroke-linecap="round" stroke-miterlimit="10" stroke-width="3" stroke-dasharray=""/><g><text fill="#c0c0c0" stroke="none" font-family="sans-serif" font-size="14px" font-style="normal" font-weight="normal" text-decoration="normal" x="-72" y="190" text-anchor="middle" dominant-baseline="central">-</text></g><g><text fill="#c0c0c0" stroke="none" font-family="sans-serif" font-size="14px" font-style="normal" font-weight="normal" text-decoration="normal" x="-72" y="224" text-anchor="middle" dominant-baseline="central">+</text></g><path fill="none" stroke="#23db23" paint-order="fill stroke markers" d=" M 0 208 L 24 208" stroke-linecap="round" stroke-miterlimit="10" stroke-width="3" stroke-dasharray=""/><path fill="none" stroke="#ff0000" paint-order="fill stroke markers" d=" M 56 208 L 80 208" stroke-linecap="round" stroke-miterlimit="10" stroke-width="3" stroke-dasharray=""/><g transform="matrix(1,0,0,1,24,208)"><path fill="none" stroke="url(#IoChcvIceGzw)" paint-order="fill stroke markers" d=" M 0 0 L 2 6 L 6 -6 L 10 6 L 14 -6 L 18 6 L 22 -6 L 26 6 L 30 -6 L 32 0" stroke-linecap="round" stroke-miterlimit="10" stroke-width="3" stroke-dasharray=""/></g><text fill="#ffffff" stroke="none" font-family="sans-serif" font-size="12px" font-style="normal" font-weight="normal" text-decoration="normal" x="27" y="198" text-anchor="start" dominant-baseline="alphabetic">100k</text><path fill="none" stroke="#807f7f" paint-order="fill stroke markers" d=" M -112 224 L -112 256" stroke-linecap="round" stroke-miterlimit="10" stroke-width="3" stroke-dasharray=""/><path fill="none" stroke="#807f7f" paint-order="fill stroke markers" d=" M -102 256 L -122 256" stroke-linecap="round" stroke-miterlimit="10" stroke-width="3" stroke-dasharray=""/><path fill="none" stroke="#807f7f" paint-order="fill stroke markers" d=" M -106 261 L -118 261" stroke-linecap="round" stroke-miterlimit="10" stroke-width="3" stroke-dasharray=""/><path fill="none" stroke="#807f7f" paint-order="fill stroke markers" d=" M -110 266 L -114 266" stroke-linecap="round" stroke-miterlimit="10" stroke-width="3" stroke-dasharray=""/><path fill="none" stroke="#817e7e" paint-order="fill stroke markers" d=" M -112 96 L -60 96" stroke-linecap="round" stroke-miterlimit="10" stroke-width="3" stroke-dasharray=""/><path fill="none" stroke="#817e7e" paint-order="fill stroke markers" d=" M -60 84 L -60 108" stroke-linecap="round" stroke-miterlimit="10" stroke-width="3" stroke-dasharray=""/><path fill="none" stroke="#23db23" paint-order="fill stroke markers" d=" M 0 96 L -52 96" stroke-linecap="round" stroke-miterlimit="10" stroke-width="3" stroke-dasharray=""/><path fill="none" stroke="#23db23" paint-order="fill stroke markers" d=" M -52 84 L -52 108" stroke-linecap="round" stroke-miterlimit="10" stroke-width="3" stroke-dasharray=""/><text fill="#ffffff" stroke="none" font-family="sans-serif" font-size="12px" font-style="normal" font-weight="normal" text-decoration="normal" x="-69" y="82" text-anchor="start" dominant-baseline="alphabetic">10nF</text><path fill="none" stroke="#817e7e" paint-order="fill stroke markers" d=" M -112 192 L -112 96" stroke-linecap="round" stroke-miterlimit="10" stroke-width="3" stroke-dasharray=""/><text fill="#ffffff" stroke="none" font-family="sans-serif" font-size="12px" font-style="normal" font-weight="normal" text-decoration="normal" x="-106" y="150" text-anchor="start" dominant-baseline="alphabetic"></text><path fill="none" stroke="#817e7e" paint-order="fill stroke markers" d=" M -112 192 L -136 192" stroke-linecap="round" stroke-miterlimit="10" stroke-width="3" stroke-dasharray=""/><path fill="none" stroke="#ff0000" paint-order="fill stroke markers" d=" M -168 192 L -192 192" stroke-linecap="round" stroke-miterlimit="10" stroke-width="3" stroke-dasharray=""/><g transform="matrix(-1,0,0,-1,-136,192)"><path fill="none" stroke="url(#aXPlJFMKLBTE)" paint-order="fill stroke markers" d=" M 0 0 L 2 6 L 6 -6 L 10 6 L 14 -6 L 18 6 L 22 -6 L 26 6 L 30 -6 L 32 0" stroke-linecap="round" stroke-miterlimit="10" stroke-width="3" stroke-dasharray=""/></g><text fill="#ffffff" stroke="none" font-family="sans-serif" font-size="12px" font-style="normal" font-weight="normal" text-decoration="normal" x="-165" y="182" text-anchor="start" dominant-baseline="alphabetic">100k</text><path fill="none" stroke="#807f7f" paint-order="fill stroke markers" d=" M 80 240 L 134 240" stroke-linecap="round" stroke-miterlimit="10" stroke-width="3" stroke-dasharray=""/><path fill="none" stroke="#ff0000" paint-order="fill stroke markers" d=" M 80 208 L 134 208" stroke-linecap="round" stroke-miterlimit="10" stroke-width="3" stroke-dasharray=""/><path fill="none" stroke="#ff0000" paint-order="fill stroke markers" d=" M 186 224 L 240 224" stroke-linecap="round" stroke-miterlimit="10" stroke-width="3" stroke-dasharray=""/><path fill="none" stroke="#c0c0c0" paint-order="fill stroke markers" d=" M 134 256 L 134 192 L 186 224 Z" stroke-linecap="round" stroke-miterlimit="10" stroke-width="3" stroke-dasharray=""/><g><text fill="#c0c0c0" stroke="none" font-family="sans-serif" font-size="14px" font-style="normal" font-weight="normal" text-decoration="normal" x="144" y="238" text-anchor="middle" dominant-baseline="central">-</text></g><g><text fill="#c0c0c0" stroke="none" font-family="sans-serif" font-size="14px" font-style="normal" font-weight="normal" text-decoration="normal" x="144" y="208" text-anchor="middle" dominant-baseline="central">+</text></g><path fill="none" stroke="#807f7f" paint-order="fill stroke markers" d=" M 80 240 L 80 272" stroke-linecap="round" stroke-miterlimit="10" stroke-width="3" stroke-dasharray=""/><path fill="none" stroke="#807f7f" paint-order="fill stroke markers" d=" M 90 272 L 70 272" stroke-linecap="round" stroke-miterlimit="10" stroke-width="3" stroke-dasharray=""/><path fill="none" stroke="#807f7f" paint-order="fill stroke markers" d=" M 86 277 L 74 277" stroke-linecap="round" stroke-miterlimit="10" stroke-width="3" stroke-dasharray=""/><path fill="none" stroke="#807f7f" paint-order="fill stroke markers" d=" M 82 282 L 78 282" stroke-linecap="round" stroke-miterlimit="10" stroke-width="3" stroke-dasharray=""/><path fill="none" stroke="#ff0000" paint-order="fill stroke markers" d=" M 80 160 L 144 160" stroke-linecap="round" stroke-miterlimit="10" stroke-width="3" stroke-dasharray=""/><path fill="none" stroke="#ff0000" paint-order="fill stroke markers" d=" M 176 160 L 240 160" stroke-linecap="round" stroke-miterlimit="10" stroke-width="3" stroke-dasharray=""/><g transform="matrix(1,0,0,1,144,160)"><path fill="none" stroke="url(#tDqSMIcfcwHV)" paint-order="fill stroke markers" d=" M 0 0 L 2 6 L 6 -6 L 10 6 L 14 -6 L 18 6 L 22 -6 L 26 6 L 30 -6 L 32 0" stroke-linecap="round" stroke-miterlimit="10" stroke-width="3" stroke-dasharray=""/></g><text fill="#ffffff" stroke="none" font-family="sans-serif" font-size="12px" font-style="normal" font-weight="normal" text-decoration="normal" x="147" y="150" text-anchor="start" dominant-baseline="alphabetic">100k</text><path fill="none" stroke="#ff0000" paint-order="fill stroke markers" d=" M 80 208 L 80 160" stroke-linecap="round" stroke-miterlimit="10" stroke-width="3" stroke-dasharray=""/><text fill="#ffffff" stroke="none" font-family="sans-serif" font-size="12px" font-style="normal" font-weight="normal" text-decoration="normal" x="86" y="190" text-anchor="start" dominant-baseline="alphabetic"></text><path fill="none" stroke="#ff0000" paint-order="fill stroke markers" d=" M 240 224 L 240 248" stroke-linecap="round" stroke-miterlimit="10" stroke-width="3" stroke-dasharray=""/><path fill="none" stroke="#ff0000" paint-order="fill stroke markers" d=" M 240 280 L 240 304" stroke-linecap="round" stroke-miterlimit="10" stroke-width="3" stroke-dasharray=""/><g transform="matrix(0,1,-1,0,240,248)"><path fill="none" stroke="url(#ZLnRATIvfOMk)" paint-order="fill stroke markers" d=" M 0 0 L 2 6 L 6 -6 L 10 6 L 14 -6 L 18 6 L 22 -6 L 26 6 L 30 -6 L 32 0" stroke-linecap="round" stroke-miterlimit="10" stroke-width="3" stroke-dasharray=""/></g><text fill="#ffffff" stroke="none" font-family="sans-serif" font-size="12px" font-style="normal" font-weight="normal" text-decoration="normal" x="250" y="270" text-anchor="start" dominant-baseline="alphabetic">4.7k</text><path fill="none" stroke="#ff0000" paint-order="fill stroke markers" d=" M 240 304 L 240 320" stroke-linecap="round" stroke-miterlimit="10" stroke-width="3" stroke-dasharray=""/><path fill="none" stroke="#807f7f" paint-order="fill stroke markers" d=" M 240 352 L 240 368" stroke-linecap="round" stroke-miterlimit="10" stroke-width="3" stroke-dasharray=""/><g transform="matrix(0,1,-1,0,240,320)"><path fill="none" stroke="url(#ApUSLBPQtKUi)" paint-order="fill stroke markers" d=" M 0 0 L 2 6 L 6 -6 L 10 6 L 14 -6 L 18 6 L 22 -6 L 26 6 L 30 -6 L 32 0" stroke-linecap="round" stroke-miterlimit="10" stroke-width="3" stroke-dasharray=""/></g><text fill="#ffffff" stroke="none" font-family="sans-serif" font-size="12px" font-style="normal" font-weight="normal" text-decoration="normal" x="250" y="342" text-anchor="start" dominant-baseline="alphabetic">10k</text><path fill="none" stroke="#807f7f" paint-order="fill stroke markers" d=" M 240 368 L 240 384" stroke-linecap="round" stroke-miterlimit="10" stroke-width="3" stroke-dasharray=""/><path fill="none" stroke="#807f7f" paint-order="fill stroke markers" d=" M 250 384 L 230 384" stroke-linecap="round" stroke-miterlimit="10" stroke-width="3" stroke-dasharray=""/><path fill="none" stroke="#807f7f" paint-order="fill stroke markers" d=" M 246 389 L 234 389" stroke-linecap="round" stroke-miterlimit="10" stroke-width="3" stroke-dasharray=""/><path fill="none" stroke="#807f7f" paint-order="fill stroke markers" d=" M 242 394 L 238 394" stroke-linecap="round" stroke-miterlimit="10" stroke-width="3" stroke-dasharray=""/><path fill="none" stroke="#ff0000" paint-order="fill stroke markers" d=" M -256 144 L -256 176" stroke-linecap="round" stroke-miterlimit="10" stroke-width="3" stroke-dasharray=""/><path fill="none" stroke="#817e7e" paint-order="fill stroke markers" d=" M -256 208 L -256 240" stroke-linecap="round" stroke-miterlimit="10" stroke-width="3" stroke-dasharray=""/><path fill="none" stroke="#ff0000" paint-order="fill stroke markers" d=" M -256 176 L -248 178" stroke-linecap="round" stroke-miterlimit="10" stroke-width="3" stroke-dasharray=""/><path fill="none" stroke="#ff0000" paint-order="fill stroke markers" d=" M -248 178 L -256 180" stroke-linecap="round" stroke-miterlimit="10" stroke-width="3" stroke-dasharray=""/><path fill="none" stroke="#ff0000" paint-order="fill stroke markers" d=" M -256 180 L -264 182" stroke-linecap="round" stroke-miterlimit="10" stroke-width="3" stroke-dasharray=""/><path fill="none" stroke="#ff0000" paint-order="fill stroke markers" d=" M -264 182 L -256 184" stroke-linecap="round" stroke-miterlimit="10" stroke-width="3" stroke-dasharray=""/><path fill="none" stroke="#ff0000" paint-order="fill stroke markers" d=" M -256 184 L -248 186" stroke-linecap="round" stroke-miterlimit="10" stroke-width="3" stroke-dasharray=""/><path fill="none" stroke="#ff0000" paint-order="fill stroke markers" d=" M -248 186 L -256 188" stroke-linecap="round" stroke-miterlimit="10" stroke-width="3" stroke-dasharray=""/><path fill="none" stroke="#ff0000" paint-order="fill stroke markers" d=" M -256 188 L -264 190" stroke-linecap="round" stroke-miterlimit="10" stroke-width="3" stroke-dasharray=""/><path fill="none" stroke="#f60808" paint-order="fill stroke markers" d=" M -264 190 L -256 192" stroke-linecap="round" stroke-miterlimit="10" stroke-width="3" stroke-dasharray=""/><path fill="none" stroke="#e91515" paint-order="fill stroke markers" d=" M -256 192 L -248 194" stroke-linecap="round" stroke-miterlimit="10" stroke-width="3" stroke-dasharray=""/><path fill="none" stroke="#db2323" paint-order="fill stroke markers" d=" M -248 194 L -256 196" stroke-linecap="round" stroke-miterlimit="10" stroke-width="3" stroke-dasharray=""/><path fill="none" stroke="#ce3030" paint-order="fill stroke markers" d=" M -256 196 L -264 198" stroke-linecap="round" stroke-miterlimit="10" stroke-width="3" stroke-dasharray=""/><path fill="none" stroke="#c23d3d" paint-order="fill stroke markers" d=" M -264 198 L -256 200" stroke-linecap="round" stroke-miterlimit="10" stroke-width="3" stroke-dasharray=""/><path fill="none" stroke="#b54949" paint-order="fill stroke markers" d=" M -256 200 L -248 202" stroke-linecap="round" stroke-miterlimit="10" stroke-width="3" stroke-dasharray=""/><path fill="none" stroke="#a95656" paint-order="fill stroke markers" d=" M -248 202 L -256 204" stroke-linecap="round" stroke-miterlimit="10" stroke-width="3" stroke-dasharray=""/><path fill="none" stroke="#9c6363" paint-order="fill stroke markers" d=" M -256 204 L -264 206" stroke-linecap="round" stroke-miterlimit="10" stroke-width="3" stroke-dasharray=""/><path fill="none" stroke="#8e7171" paint-order="fill stroke markers" d=" M -264 206 L -256 208" stroke-linecap="round" stroke-miterlimit="10" stroke-width="3" stroke-dasharray=""/><path fill="none" stroke="#ff0000" paint-order="fill stroke markers" d=" M -192 192 L -192 182" stroke-linecap="round" stroke-miterlimit="10" stroke-width="3" stroke-dasharray=""/><path fill="none" stroke="#ff0000" paint-order="fill stroke markers" d=" M -192 182 L -248 182" stroke-linecap="round" stroke-miterlimit="10" stroke-width="3" stroke-dasharray=""/><path fill="none" stroke="#ff0000" paint-order="fill stroke markers" d=" M -240 190 L -248 182" stroke-linecap="round" stroke-miterlimit="10" stroke-width="3" stroke-dasharray=""/><path fill="none" stroke="#ff0000" paint-order="fill stroke markers" d=" M -240 174 L -248 182" stroke-linecap="round" stroke-miterlimit="10" stroke-width="3" stroke-dasharray=""/><text fill="#ffffff" stroke="none" font-family="sans-serif" font-size="12px" font-style="normal" font-weight="normal" text-decoration="normal" x="-246" y="201" text-anchor="start" dominant-baseline="alphabetic">83.7k</text><text fill="#ffffff" stroke="none" font-family="sans-serif" font-size="12px" font-style="normal" font-weight="normal" text-decoration="normal" x="-246" y="171" text-anchor="start" dominant-baseline="alphabetic">16.3k</text><path fill="none" stroke="#817e7e" paint-order="fill stroke markers" d=" M -256 240 L -256 272" stroke-linecap="round" stroke-miterlimit="10" stroke-width="3" stroke-dasharray=""/><path fill="none" stroke="#807f7f" paint-order="fill stroke markers" d=" M -256 304 L -256 336" stroke-linecap="round" stroke-miterlimit="10" stroke-width="3" stroke-dasharray=""/><g transform="matrix(0,1,-1,0,-256,272)"><path fill="none" stroke="url(#QtFnwfvqShqp)" paint-order="fill stroke markers" d=" M 0 0 L 2 6 L 6 -6 L 10 6 L 14 -6 L 18 6 L 22 -6 L 26 6 L 30 -6 L 32 0" stroke-linecap="round" stroke-miterlimit="10" stroke-width="3" stroke-dasharray=""/></g><text fill="#ffffff" stroke="none" font-family="sans-serif" font-size="12px" font-style="normal" font-weight="normal" text-decoration="normal" x="-246" y="294" text-anchor="start" dominant-baseline="alphabetic">470</text><path fill="none" stroke="#807f7f" paint-order="fill stroke markers" d=" M -256 336 L -256 352" stroke-linecap="round" stroke-miterlimit="10" stroke-width="3" stroke-dasharray=""/><path fill="none" stroke="#807f7f" paint-order="fill stroke markers" d=" M -246 352 L -266 352" stroke-linecap="round" stroke-miterlimit="10" stroke-width="3" stroke-dasharray=""/><path fill="none" stroke="#807f7f" paint-order="fill stroke markers" d=" M -250 357 L -262 357" stroke-linecap="round" stroke-miterlimit="10" stroke-width="3" stroke-dasharray=""/><path fill="none" stroke="#807f7f" paint-order="fill stroke markers" d=" M -254 362 L -258 362" stroke-linecap="round" stroke-miterlimit="10" stroke-width="3" stroke-dasharray=""/><path fill="none" stroke="#ff0000" paint-order="fill stroke markers" d=" M -256 144 L -256 -16" stroke-linecap="round" stroke-miterlimit="10" stroke-width="3" stroke-dasharray=""/><text fill="#ffffff" stroke="none" font-family="sans-serif" font-size="12px" font-style="normal" font-weight="normal" text-decoration="normal" x="-250" y="70" text-anchor="start" dominant-baseline="alphabetic"></text><path fill="none" stroke="#ff0000" paint-order="fill stroke markers" d=" M 240 304 L 336 304" stroke-linecap="round" stroke-miterlimit="10" stroke-width="3" stroke-dasharray=""/><text fill="#ffffff" stroke="none" font-family="sans-serif" font-size="12px" font-style="normal" font-weight="normal" text-decoration="normal" x="288" y="298" text-anchor="start" dominant-baseline="alphabetic"></text><path fill="none" stroke="#ff0000" paint-order="fill stroke markers" d=" M 336 -16 L 336 304" stroke-linecap="round" stroke-miterlimit="10" stroke-width="3" stroke-dasharray=""/><text fill="#ffffff" stroke="none" font-family="sans-serif" font-size="12px" font-style="normal" font-weight="normal" text-decoration="normal" x="342" y="150" text-anchor="start" dominant-baseline="alphabetic"></text><path fill="none" stroke="#ff0000" paint-order="fill stroke markers" d=" M -256 -16 L 336 -16" stroke-linecap="round" stroke-miterlimit="10" stroke-width="3" stroke-dasharray=""/><text fill="#ffffff" stroke="none" font-family="sans-serif" font-size="12px" font-style="normal" font-weight="normal" text-decoration="normal" x="40" y="-22" text-anchor="start" dominant-baseline="alphabetic"></text><path fill="none" stroke="#23db23" paint-order="fill stroke markers" d=" M 0 96 L 64 96" stroke-linecap="round" stroke-miterlimit="10" stroke-width="3" stroke-dasharray=""/><text fill="#ffffff" stroke="none" font-family="sans-serif" font-size="12px" font-style="normal" font-weight="normal" text-decoration="normal" x="32" y="90" text-anchor="start" dominant-baseline="alphabetic"></text><path fill="none" stroke="#ff0000" paint-order="fill stroke markers" d=" M 240 160 L 304 160" stroke-linecap="round" stroke-miterlimit="10" stroke-width="3" stroke-dasharray=""/><text fill="#ffffff" stroke="none" font-family="sans-serif" font-size="12px" font-style="normal" font-weight="normal" text-decoration="normal" x="272" y="154" text-anchor="start" dominant-baseline="alphabetic"></text><g><text fill="#c0c0c0" stroke="none" font-family="sans-serif" font-size="16px" font-style="normal" font-weight="normal" text-decoration="normal" x="219" y="144" text-anchor="start" dominant-baseline="alphabetic">Square Out</text></g><g><text fill="#c0c0c0" stroke="none" font-family="sans-serif" font-size="16px" font-style="normal" font-weight="normal" text-decoration="normal" x="-15" y="86" text-anchor="start" dominant-baseline="alphabetic">Triangle Out</text></g><path fill="none" stroke="#23db23" paint-order="fill stroke markers" d=" M 0 96 L 0 208" stroke-linecap="round" stroke-miterlimit="10" stroke-width="3" stroke-dasharray=""/><text fill="#ffffff" stroke="none" font-family="sans-serif" font-size="12px" font-style="normal" font-weight="normal" text-decoration="normal" x="6" y="158" text-anchor="start" dominant-baseline="alphabetic"></text><path fill="none" stroke="#ff0000" paint-order="fill stroke markers" d=" M 240 160 L 240 224" stroke-linecap="round" stroke-miterlimit="10" stroke-width="3" stroke-dasharray=""/><text fill="#ffffff" stroke="none" font-family="sans-serif" font-size="12px" font-style="normal" font-weight="normal" text-decoration="normal" x="246" y="198" text-anchor="start" dominant-baseline="alphabetic"></text><g><text fill="#c0c0c0" stroke="none" font-family="sans-serif" font-size="12px" font-style="normal" font-weight="normal" text-decoration="normal" x="-327" y="184" text-anchor="start" dominant-baseline="alphabetic">Frequency</text></g><g><text fill="#c0c0c0" stroke="none" font-family="sans-serif" font-size="12px" font-style="normal" font-weight="normal" text-decoration="normal" x="-309" y="204" text-anchor="start" dominant-baseline="alphabetic">100k</text></g><g transform="scale(1,1) translate(-397,-66)"><g transform="translate(381,66)" clip-path="url(#PQMVEHQootbA)"><g><path fill="none" stroke="#404040" paint-order="fill stroke markers" d=" M 0 59 L 95 59" stroke-linecap="round" stroke-miterlimit="10" stroke-dasharray=""/><path fill="none" stroke="#A0A0A0" paint-order="fill stroke markers" d=" M 0 31 L 95 31" stroke-linecap="round" stroke-miterlimit="10" stroke-dasharray=""/><path fill="none" stroke="#404040" paint-order="fill stroke markers" d=" M 0 3 L 95 3" stroke-linecap="round" stroke-miterlimit="10" stroke-dasharray=""/><path fill="none" stroke="#404040" paint-order="fill stroke markers" d=" M 82 0 L 82 63" stroke-linecap="round" stroke-miterlimit="10" stroke-dasharray=""/><path fill="none" stroke="#404040" paint-order="fill stroke markers" d=" M 51 0 L 51 63" stroke-linecap="round" stroke-miterlimit="10" stroke-dasharray=""/><path fill="none" stroke="#404040" paint-order="fill stroke markers" d=" M 20 0 L 20 63" stroke-linecap="round" stroke-miterlimit="10" stroke-dasharray=""/><path fill="none" stroke="#00ff00" paint-order="fill stroke markers" d=" M 0 11 L 0 10" stroke-linecap="round" stroke-miterlimit="10" stroke-dasharray=""/><path fill="none" stroke="#00ff00" paint-order="fill stroke markers" d=" M 1 12 L 1 11" stroke-linecap="round" stroke-miterlimit="10" stroke-dasharray=""/><path fill="none" stroke="#00ff00" paint-order="fill stroke markers" d=" M 2 14 L 2 12" stroke-linecap="round" stroke-miterlimit="10" stroke-dasharray=""/><path fill="none" stroke="#00ff00" paint-order="fill stroke markers" d=" M 3 16 L 3 14" stroke-linecap="round" stroke-miterlimit="10" stroke-dasharray=""/><path fill="none" stroke="#00ff00" paint-order="fill stroke markers" d=" M 4 17 L 4 16" stroke-linecap="round" stroke-miterlimit="10" stroke-dasharray=""/><path fill="none" stroke="#00ff00" paint-order="fill stroke markers" d=" M 5 19 L 5 17" stroke-linecap="round" stroke-miterlimit="10" stroke-dasharray=""/><path fill="none" stroke="#00ff00" paint-order="fill stroke markers" d=" M 6 20 L 6 19" stroke-linecap="round" stroke-miterlimit="10" stroke-dasharray=""/><path fill="none" stroke="#00ff00" paint-order="fill stroke markers" d=" M 7 22 L 7 20" stroke-linecap="round" stroke-miterlimit="10" stroke-dasharray=""/><path fill="none" stroke="#00ff00" paint-order="fill stroke markers" d=" M 8 24 L 8 22" stroke-linecap="round" stroke-miterlimit="10" stroke-dasharray=""/><path fill="none" stroke="#00ff00" paint-order="fill stroke markers" d=" M 9 25 L 9 24" stroke-linecap="round" stroke-miterlimit="10" stroke-dasharray=""/><path fill="none" stroke="#00ff00" paint-order="fill stroke markers" d=" M 10 27 L 10 25" stroke-linecap="round" stroke-miterlimit="10" stroke-dasharray=""/><path fill="none" stroke="#00ff00" paint-order="fill stroke markers" d=" M 11 29 L 11 27" stroke-linecap="round" stroke-miterlimit="10" stroke-dasharray=""/><path fill="none" stroke="#00ff00" paint-order="fill stroke markers" d=" M 12 30 L 12 29" stroke-linecap="round" stroke-miterlimit="10" stroke-dasharray=""/><path fill="none" stroke="#00ff00" paint-order="fill stroke markers" d=" M 13 31 L 13 30" stroke-linecap="round" stroke-miterlimit="10" stroke-dasharray=""/><path fill="none" stroke="#00ff00" paint-order="fill stroke markers" d=" M 14 32 L 14 31" stroke-linecap="round" stroke-miterlimit="10" stroke-dasharray=""/><path fill="none" stroke="#00ff00" paint-order="fill stroke markers" d=" M 15 34 L 15 32" stroke-linecap="round" stroke-miterlimit="10" stroke-dasharray=""/><path fill="none" stroke="#00ff00" paint-order="fill stroke markers" d=" M 16 36 L 16 34" stroke-linecap="round" stroke-miterlimit="10" stroke-dasharray=""/><path fill="none" stroke="#00ff00" paint-order="fill stroke markers" d=" M 17 37 L 17 36" stroke-linecap="round" stroke-miterlimit="10" stroke-dasharray=""/><path fill="none" stroke="#00ff00" paint-order="fill stroke markers" d=" M 18 39 L 18 37" stroke-linecap="round" stroke-miterlimit="10" stroke-dasharray=""/><path fill="none" stroke="#00ff00" paint-order="fill stroke markers" d=" M 19 40 L 19 39" stroke-linecap="round" stroke-miterlimit="10" stroke-dasharray=""/><path fill="none" stroke="#00ff00" paint-order="fill stroke markers" d=" M 20 42 L 20 40" stroke-linecap="round" stroke-miterlimit="10" stroke-dasharray=""/><path fill="none" stroke="#00ff00" paint-order="fill stroke markers" d=" M 21 44 L 21 42" stroke-linecap="round" stroke-miterlimit="10" stroke-dasharray=""/><path fill="none" stroke="#00ff00" paint-order="fill stroke markers" d=" M 22 45 L 22 44" stroke-linecap="round" stroke-miterlimit="10" stroke-dasharray=""/><path fill="none" stroke="#00ff00" paint-order="fill stroke markers" d=" M 23 47 L 23 45" stroke-linecap="round" stroke-miterlimit="10" stroke-dasharray=""/><path fill="none" stroke="#00ff00" paint-order="fill stroke markers" d=" M 24 48 L 24 47" stroke-linecap="round" stroke-miterlimit="10" stroke-dasharray=""/><path fill="none" stroke="#00ff00" paint-order="fill stroke markers" d=" M 25 50 L 25 48" stroke-linecap="round" stroke-miterlimit="10" stroke-dasharray=""/><path fill="none" stroke="#00ff00" paint-order="fill stroke markers" d=" M 26 52 L 26 50" stroke-linecap="round" stroke-miterlimit="10" stroke-dasharray=""/><path fill="none" stroke="#00ff00" paint-order="fill stroke markers" d=" M 27 52 L 27 50" stroke-linecap="round" stroke-miterlimit="10" stroke-dasharray=""/><path fill="none" stroke="#00ff00" paint-order="fill stroke markers" d=" M 28 50 L 28 49" stroke-linecap="round" stroke-miterlimit="10" stroke-dasharray=""/><path fill="none" stroke="#00ff00" paint-order="fill stroke markers" d=" M 29 49 L 29 47" stroke-linecap="round" stroke-miterlimit="10" stroke-dasharray=""/><path fill="none" stroke="#00ff00" paint-order="fill stroke markers" d=" M 30 47 L 30 45" stroke-linecap="round" stroke-miterlimit="10" stroke-dasharray=""/><path fill="none" stroke="#00ff00" paint-order="fill stroke markers" d=" M 31 45 L 31 44" stroke-linecap="round" stroke-miterlimit="10" stroke-dasharray=""/><path fill="none" stroke="#00ff00" paint-order="fill stroke markers" d=" M 32 44 L 32 42" stroke-linecap="round" stroke-miterlimit="10" stroke-dasharray=""/><path fill="none" stroke="#00ff00" paint-order="fill stroke markers" d=" M 33 42 L 33 40" stroke-linecap="round" stroke-miterlimit="10" stroke-dasharray=""/><path fill="none" stroke="#00ff00" paint-order="fill stroke markers" d=" M 34 40 L 34 39" stroke-linecap="round" stroke-miterlimit="10" stroke-dasharray=""/><path fill="none" stroke="#00ff00" paint-order="fill stroke markers" d=" M 35 39 L 35 37" stroke-linecap="round" stroke-miterlimit="10" stroke-dasharray=""/><path fill="none" stroke="#00ff00" paint-order="fill stroke markers" d=" M 36 37 L 36 36" stroke-linecap="round" stroke-miterlimit="10" stroke-dasharray=""/><path fill="none" stroke="#00ff00" paint-order="fill stroke markers" d=" M 37 36 L 37 34" stroke-linecap="round" stroke-miterlimit="10" stroke-dasharray=""/><path fill="none" stroke="#00ff00" paint-order="fill stroke markers" d=" M 38 34 L 38 32" stroke-linecap="round" stroke-miterlimit="10" stroke-dasharray=""/><path fill="none" stroke="#00ff00" paint-order="fill stroke markers" d=" M 39 32 L 39 31" stroke-linecap="round" stroke-miterlimit="10" stroke-dasharray=""/><path fill="none" stroke="#00ff00" paint-order="fill stroke markers" d=" M 40 31 L 40 30" stroke-linecap="round" stroke-miterlimit="10" stroke-dasharray=""/><path fill="none" stroke="#00ff00" paint-order="fill stroke markers" d=" M 41 30 L 41 29" stroke-linecap="round" stroke-miterlimit="10" stroke-dasharray=""/><path fill="none" stroke="#00ff00" paint-order="fill stroke markers" d=" M 42 29 L 42 27" stroke-linecap="round" stroke-miterlimit="10" stroke-dasharray=""/><path fill="none" stroke="#00ff00" paint-order="fill stroke markers" d=" M 43 27 L 43 25" stroke-linecap="round" stroke-miterlimit="10" stroke-dasharray=""/><path fill="none" stroke="#00ff00" paint-order="fill stroke markers" d=" M 44 25 L 44 24" stroke-linecap="round" stroke-miterlimit="10" stroke-dasharray=""/><path fill="none" stroke="#00ff00" paint-order="fill stroke markers" d=" M 45 24 L 45 22" stroke-linecap="round" stroke-miterlimit="10" stroke-dasharray=""/><path fill="none" stroke="#00ff00" paint-order="fill stroke markers" d=" M 46 22 L 46 20" stroke-linecap="round" stroke-miterlimit="10" stroke-dasharray=""/><path fill="none" stroke="#00ff00" paint-order="fill stroke markers" d=" M 47 20 L 47 19" stroke-linecap="round" stroke-miterlimit="10" stroke-dasharray=""/><path fill="none" stroke="#00ff00" paint-order="fill stroke markers" d=" M 48 19 L 48 17" stroke-linecap="round" stroke-miterlimit="10" stroke-dasharray=""/><path fill="none" stroke="#00ff00" paint-order="fill stroke markers" d=" M 49 17 L 49 16" stroke-linecap="round" stroke-miterlimit="10" stroke-dasharray=""/><path fill="none" stroke="#00ff00" paint-order="fill stroke markers" d=" M 50 16 L 50 14" stroke-linecap="round" stroke-miterlimit="10" stroke-dasharray=""/><path fill="none" stroke="#00ff00" paint-order="fill stroke markers" d=" M 51 14 L 51 12" stroke-linecap="round" stroke-miterlimit="10" stroke-dasharray=""/><path fill="none" stroke="#00ff00" paint-order="fill stroke markers" d=" M 52 12 L 52 11" stroke-linecap="round" stroke-miterlimit="10" stroke-dasharray=""/><path fill="none" stroke="#00ff00" paint-order="fill stroke markers" d=" M 53 11 L 53 10" stroke-linecap="round" stroke-miterlimit="10" stroke-dasharray=""/><path fill="none" stroke="#00ff00" paint-order="fill stroke markers" d=" M 54 13 L 54 11" stroke-linecap="round" stroke-miterlimit="10" stroke-dasharray=""/><path fill="none" stroke="#00ff00" paint-order="fill stroke markers" d=" M 55 15 L 55 13" stroke-linecap="round" stroke-miterlimit="10" stroke-dasharray=""/><path fill="none" stroke="#00ff00" paint-order="fill stroke markers" d=" M 56 16 L 56 15" stroke-linecap="round" stroke-miterlimit="10" stroke-dasharray=""/><path fill="none" stroke="#00ff00" paint-order="fill stroke markers" d=" M 57 18 L 57 16" stroke-linecap="round" stroke-miterlimit="10" stroke-dasharray=""/><path fill="none" stroke="#00ff00" paint-order="fill stroke markers" d=" M 58 19 L 58 18" stroke-linecap="round" stroke-miterlimit="10" stroke-dasharray=""/><path fill="none" stroke="#00ff00" paint-order="fill stroke markers" d=" M 59 21 L 59 19" stroke-linecap="round" stroke-miterlimit="10" stroke-dasharray=""/><path fill="none" stroke="#00ff00" paint-order="fill stroke markers" d=" M 60 23 L 60 21" stroke-linecap="round" stroke-miterlimit="10" stroke-dasharray=""/><path fill="none" stroke="#00ff00" paint-order="fill stroke markers" d=" M 61 24 L 61 23" stroke-linecap="round" stroke-miterlimit="10" stroke-dasharray=""/><path fill="none" stroke="#00ff00" paint-order="fill stroke markers" d=" M 62 26 L 62 24" stroke-linecap="round" stroke-miterlimit="10" stroke-dasharray=""/><path fill="none" stroke="#00ff00" paint-order="fill stroke markers" d=" M 63 27 L 63 26" stroke-linecap="round" stroke-miterlimit="10" stroke-dasharray=""/><path fill="none" stroke="#00ff00" paint-order="fill stroke markers" d=" M 64 29 L 64 27" stroke-linecap="round" stroke-miterlimit="10" stroke-dasharray=""/><path fill="none" stroke="#00ff00" paint-order="fill stroke markers" d=" M 65 31 L 65 29" stroke-linecap="round" stroke-miterlimit="10" stroke-dasharray=""/><path fill="none" stroke="#00ff00" paint-order="fill stroke markers" d=" M 66 31 L 67 31" stroke-linecap="round" stroke-miterlimit="10" stroke-dasharray=""/><path fill="none" stroke="#00ff00" paint-order="fill stroke markers" d=" M 67 33 L 67 31" stroke-linecap="round" stroke-miterlimit="10" stroke-dasharray=""/><path fill="none" stroke="#00ff00" paint-order="fill stroke markers" d=" M 68 35 L 68 33" stroke-linecap="round" stroke-miterlimit="10" stroke-dasharray=""/><path fill="none" stroke="#00ff00" paint-order="fill stroke markers" d=" M 69 36 L 69 35" stroke-linecap="round" stroke-miterlimit="10" stroke-dasharray=""/><path fill="none" stroke="#00ff00" paint-order="fill stroke markers" d=" M 70 38 L 70 36" stroke-linecap="round" stroke-miterlimit="10" stroke-dasharray=""/><path fill="none" stroke="#00ff00" paint-order="fill stroke markers" d=" M 71 39 L 71 38" stroke-linecap="round" stroke-miterlimit="10" stroke-dasharray=""/><path fill="none" stroke="#00ff00" paint-order="fill stroke markers" d=" M 72 41 L 72 39" stroke-linecap="round" stroke-miterlimit="10" stroke-dasharray=""/><path fill="none" stroke="#00ff00" paint-order="fill stroke markers" d=" M 73 43 L 73 41" stroke-linecap="round" stroke-miterlimit="10" stroke-dasharray=""/><path fill="none" stroke="#00ff00" paint-order="fill stroke markers" d=" M 74 44 L 74 43" stroke-linecap="round" stroke-miterlimit="10" stroke-dasharray=""/><path fill="none" stroke="#00ff00" paint-order="fill stroke markers" d=" M 75 46 L 75 44" stroke-linecap="round" stroke-miterlimit="10" stroke-dasharray=""/><path fill="none" stroke="#00ff00" paint-order="fill stroke markers" d=" M 76 47 L 76 46" stroke-linecap="round" stroke-miterlimit="10" stroke-dasharray=""/><path fill="none" stroke="#00ff00" paint-order="fill stroke markers" d=" M 77 49 L 77 47" stroke-linecap="round" stroke-miterlimit="10" stroke-dasharray=""/><path fill="none" stroke="#00ff00" paint-order="fill stroke markers" d=" M 78 51 L 78 49" stroke-linecap="round" stroke-miterlimit="10" stroke-dasharray=""/><path fill="none" stroke="#00ff00" paint-order="fill stroke markers" d=" M 79 52 L 79 51" stroke-linecap="round" stroke-miterlimit="10" stroke-dasharray=""/><path fill="none" stroke="#00ff00" paint-order="fill stroke markers" d=" M 80 51 L 80 50" stroke-linecap="round" stroke-miterlimit="10" stroke-dasharray=""/><path fill="none" stroke="#00ff00" paint-order="fill stroke markers" d=" M 81 50 L 81 48" stroke-linecap="round" stroke-miterlimit="10" stroke-dasharray=""/><path fill="none" stroke="#00ff00" paint-order="fill stroke markers" d=" M 82 48 L 82 46" stroke-linecap="round" stroke-miterlimit="10" stroke-dasharray=""/><path fill="none" stroke="#00ff00" paint-order="fill stroke markers" d=" M 83 46 L 83 45" stroke-linecap="round" stroke-miterlimit="10" stroke-dasharray=""/><path fill="none" stroke="#00ff00" paint-order="fill stroke markers" d=" M 84 45 L 84 43" stroke-linecap="round" stroke-miterlimit="10" stroke-dasharray=""/><path fill="none" stroke="#00ff00" paint-order="fill stroke markers" d=" M 85 43 L 85 41" stroke-linecap="round" stroke-miterlimit="10" stroke-dasharray=""/><path fill="none" stroke="#00ff00" paint-order="fill stroke markers" d=" M 86 41 L 86 40" stroke-linecap="round" stroke-miterlimit="10" stroke-dasharray=""/><path fill="none" stroke="#00ff00" paint-order="fill stroke markers" d=" M 87 40 L 87 38" stroke-linecap="round" stroke-miterlimit="10" stroke-dasharray=""/><path fill="none" stroke="#00ff00" paint-order="fill stroke markers" d=" M 88 38 L 88 37" stroke-linecap="round" stroke-miterlimit="10" stroke-dasharray=""/><path fill="none" stroke="#00ff00" paint-order="fill stroke markers" d=" M 89 37 L 89 35" stroke-linecap="round" stroke-miterlimit="10" stroke-dasharray=""/><path fill="none" stroke="#00ff00" paint-order="fill stroke markers" d=" M 90 35 L 90 33" stroke-linecap="round" stroke-miterlimit="10" stroke-dasharray=""/><path fill="none" stroke="#00ff00" paint-order="fill stroke markers" d=" M 91 33 L 91 32" stroke-linecap="round" stroke-miterlimit="10" stroke-dasharray=""/><path fill="none" stroke="#00ff00" paint-order="fill stroke markers" d=" M 92 32 L 92 31" stroke-linecap="round" stroke-miterlimit="10" stroke-dasharray=""/><path fill="none" stroke="#00ff00" paint-order="fill stroke markers" d=" M 93 31 L 93 30" stroke-linecap="round" stroke-miterlimit="10" stroke-dasharray=""/><path fill="none" stroke="#00ff00" paint-order="fill stroke markers" d=" M 94 30 L 94 28" stroke-linecap="round" stroke-miterlimit="10" stroke-dasharray=""/><path fill="none" stroke="#00ff00" paint-order="fill stroke markers" d=" M 95 28 L 95 26" stroke-linecap="round" stroke-miterlimit="10" stroke-dasharray=""/></g></g></g><g transform="scale(1,1) translate(-397,-66)"><g transform="translate(605,130)" clip-path="url(#fUGJcalUDceX)"><g><path fill="none" stroke="#404040" paint-order="fill stroke markers" d=" M 0 59 L 111 59" stroke-linecap="round" stroke-miterlimit="10" stroke-dasharray=""/><path fill="none" stroke="#A0A0A0" paint-order="fill stroke markers" d=" M 0 31 L 111 31" stroke-linecap="round" stroke-miterlimit="10" stroke-dasharray=""/><path fill="none" stroke="#404040" paint-order="fill stroke markers" d=" M 0 3 L 111 3" stroke-linecap="round" stroke-miterlimit="10" stroke-dasharray=""/><path fill="none" stroke="#404040" paint-order="fill stroke markers" d=" M 98 0 L 98 63" stroke-linecap="round" stroke-miterlimit="10" stroke-dasharray=""/><path fill="none" stroke="#404040" paint-order="fill stroke markers" d=" M 67 0 L 67 63" stroke-linecap="round" stroke-miterlimit="10" stroke-dasharray=""/><path fill="none" stroke="#404040" paint-order="fill stroke markers" d=" M 36 0 L 36 63" stroke-linecap="round" stroke-miterlimit="10" stroke-dasharray=""/><path fill="none" stroke="#404040" paint-order="fill stroke markers" d=" M 4 0 L 4 63" stroke-linecap="round" stroke-miterlimit="10" stroke-dasharray=""/><path fill="none" stroke="#00ff00" paint-order="fill stroke markers" d=" M 0 52 L 16 52" stroke-linecap="round" stroke-miterlimit="10" stroke-dasharray=""/><path fill="none" stroke="#00ff00" paint-order="fill stroke markers" d=" M 16 52 L 16 10" stroke-linecap="round" stroke-miterlimit="10" stroke-dasharray=""/><path fill="none" stroke="#00ff00" paint-order="fill stroke markers" d=" M 17 10 L 43 10" stroke-linecap="round" stroke-miterlimit="10" stroke-dasharray=""/><path fill="none" stroke="#00ff00" paint-order="fill stroke markers" d=" M 43 52 L 43 10" stroke-linecap="round" stroke-miterlimit="10" stroke-dasharray=""/><path fill="none" stroke="#00ff00" paint-order="fill stroke markers" d=" M 44 52 L 69 52" stroke-linecap="round" stroke-miterlimit="10" stroke-dasharray=""/><path fill="none" stroke="#00ff00" paint-order="fill stroke markers" d=" M 69 52 L 69 10" stroke-linecap="round" stroke-miterlimit="10" stroke-dasharray=""/><path fill="none" stroke="#00ff00" paint-order="fill stroke markers" d=" M 70 10 L 95 10" stroke-linecap="round" stroke-miterlimit="10" stroke-dasharray=""/><path fill="none" stroke="#00ff00" paint-order="fill stroke markers" d=" M 95 52 L 95 10" stroke-linecap="round" stroke-miterlimit="10" stroke-dasharray=""/><path fill="none" stroke="#00ff00" paint-order="fill stroke markers" d=" M 96 52 L 111 52" stroke-linecap="round" stroke-miterlimit="10" stroke-dasharray=""/></g></g></g><path fill="#ffffff" stroke="none" paint-order="stroke fill markers" d=" M -109 192 A 3 3 0 1 1 -109.00000000004225 191.99998407846124 Z"/><path fill="#ffffff" stroke="none" paint-order="stroke fill markers" d=" M 3 208 A 3 3 0 1 1 2.9999999999577507 207.99998407846124 Z"/><path fill="#ffffff" stroke="none" paint-order="stroke fill markers" d=" M 83 208 A 3 3 0 1 1 82.99999999995775 207.99998407846124 Z"/><path fill="#ffffff" stroke="none" paint-order="stroke fill markers" d=" M 3 96 A 3 3 0 1 1 2.9999999999577507 95.99998407846124 Z"/><path fill="#ffffff" stroke="none" paint-order="stroke fill markers" d=" M 243 224 A 3 3 0 1 1 242.99999999995774 223.99998407846124 Z"/><path fill="#ffffff" stroke="none" paint-order="stroke fill markers" d=" M 243 160 A 3 3 0 1 1 242.99999999995774 159.99998407846124 Z"/><path fill="#ffffff" stroke="none" paint-order="stroke fill markers" d=" M 243 304 A 3 3 0 1 1 242.99999999995774 303.99998407846124 Z"/><path fill="#ffffff" stroke="none" paint-order="stroke fill markers" d=" M 67 96 A 3 3 0 1 1 66.99999999995775 95.99998407846124 Z"/><path fill="#ffffff" stroke="none" paint-order="stroke fill markers" d=" M 307 160 A 3 3 0 1 1 306.99999999995777 159.99998407846124 Z"/></g></g></svg>