<svg version="1.1" xmlns="http://www.w3.org/2000/svg" xmlns:xlink="http://www.w3.org/1999/xlink" width="417" height="241"><defs><linearGradient id="OTxDhVSTPTuT" x1="0px" x2="32px" y1="0px" y2="0px" gradientUnits="userSpaceOnUse"><stop offset="0" stop-color="#807f7f"/><stop offset="1" stop-color="#01fd01"/></linearGradient></defs><g><rect fill="#000000" stroke="none" x="0" y="0" width="417" height="241"/><g transform="scale(1,1) translate(-213,-469)"><g><text fill="#c0c0c0" stroke="none" font-family="sans-serif" font-size="24px" font-style="normal" font-weight="normal" text-decoration="normal" x="319" y="553" text-anchor="start" dominant-baseline="alphabetic">IC</text></g><rect fill="none" stroke="#808080" x="283" y="519" width="97" height="141" stroke-linecap="round" stroke-miterlimit="10" stroke-dasharray="16,6"/><path fill="none" stroke="#01fd01" paint-order="fill stroke markers" d=" M 432 608 L 352 608" stroke-linecap="round" stroke-miterlimit="10" stroke-width="3"/><text fill="#ffffff" stroke="none" font-family="sans-serif" font-size="12px" font-style="normal" font-weight="normal" text-decoration="normal" x="392" y="602" text-anchor="start" dominant-baseline="alphabetic"></text><path fill="none" stroke="#807f7f" paint-order="fill stroke markers" d=" M 560 608 L 512 608" stroke-linecap="round" stroke-miterlimit="10" stroke-width="3"/><path fill="none" stroke="#01fd01" paint-order="fill stroke markers" d=" M 480 608 L 432 608" stroke-linecap="round" stroke-miterlimit="10" stroke-width="3"/><g transform="matrix(-1,0,0,-1,512,608)"><path fill="none" stroke="url(#OTxDhVSTPTuT)" paint-order="fill stroke markers" d=" M 0 0 L 2 6 L 6 -6 L 10 6 L 14 -6 L 18 6 L 22 -6 L 26 6 L 30 -6 L 32 0" stroke-linecap="round" stroke-miterlimit="10" stroke-width="3"/></g><text fill="#ffffff" stroke="none" font-family="sans-serif" font-size="12px" font-style="normal" font-weight="normal" text-decoration="normal" x="490" y="598" text-anchor="start" dominant-baseline="alphabetic">1k</text><g><g><text fill="#ffffff" stroke="none" font-family="sans-serif" font-size="20px" font-style="normal" font-weight="bold" text-decoration="normal" x="320" y="608" text-anchor="middle" dominant-baseline="central">H</text></g><path fill="none" stroke="#01fd01" paint-order="fill stroke markers" d=" M 352 608 L 332 608" stroke-linecap="round" stroke-miterlimit="10" stroke-width="3"/></g><g><text fill="#c0c0c0" stroke="none" font-family="sans-serif" font-size="80px" font-style="normal" font-weight="normal" text-decoration="normal" x="401" y="586" text-anchor="start" dominant-baseline="alphabetic">→</text></g><g><text fill="#c0c0c0" stroke="none" font-family="sans-serif" font-size="18px" font-style="normal" font-weight="normal" text-decoration="normal" x="411" y="533" text-anchor="start" dominant-baseline="alphabetic">Current</text></g><path fill="none" stroke="#807f7f" paint-order="fill stroke markers" d=" M 560 608 L 560 656" stroke-linecap="round" stroke-miterlimit="10" stroke-width="3"/><path fill="none" stroke="#807f7f" paint-order="fill stroke markers" d=" M 570 656 L 550 656" stroke-linecap="round" stroke-miterlimit="10" stroke-width="3"/><path fill="none" stroke="#807f7f" paint-order="fill stroke markers" d=" M 566 661 L 554 661" stroke-linecap="round" stroke-miterlimit="10" stroke-width="3"/><path fill="none" stroke="#807f7f" paint-order="fill stroke markers" d=" M 562 666 L 558 666" stroke-linecap="round" stroke-miterlimit="10" stroke-width="3"/></g></g></svg>