<svg version="1.1" xmlns="http://www.w3.org/2000/svg" xmlns:xlink="http://www.w3.org/1999/xlink" width="604" height="612"><defs><linearGradient id="PfUsaSbPRPRd" x1="0px" x2="32px" y1="0px" y2="0px" gradientUnits="userSpaceOnUse"><stop offset="0" stop-color="#1ae41a"/><stop offset="1" stop-color="#1ae41a"/></linearGradient><linearGradient id="CvCfKALTTbyE" x1="0px" x2="31.304951684997057px" y1="0px" y2="0px" gradientUnits="userSpaceOnUse"><stop offset="0" stop-color="#1ae41a"/><stop offset="1" stop-color="#1ce31c"/></linearGradient><linearGradient id="AMTUOyyTDPzI" x1="0px" x2="32px" y1="0px" y2="0px" gradientUnits="userSpaceOnUse"><stop offset="0" stop-color="#1ae41a"/><stop offset="1" stop-color="#1ce31c"/></linearGradient><linearGradient id="BwvVcHFmLPbW" x1="0px" x2="32.31098884280702px" y1="0px" y2="0px" gradientUnits="userSpaceOnUse"><stop offset="0" stop-color="#0af40a"/><stop offset="1" stop-color="#1ae41a"/></linearGradient><linearGradient id="PiTlIxdIJhga" x1="0px" x2="32.55764119219941px" y1="0px" y2="0px" gradientUnits="userSpaceOnUse"><stop offset="0" stop-color="#0af40a"/><stop offset="1" stop-color="#1ce31c"/></linearGradient><linearGradient id="pKfokhDVIrWB" x1="0px" x2="32px" y1="0px" y2="0px" gradientUnits="userSpaceOnUse"><stop offset="0" stop-color="#0fef0f"/><stop offset="1" stop-color="#0af40a"/></linearGradient><linearGradient id="nkqaTQLSKJoD" x1="0px" x2="31.622776601683793px" y1="0px" y2="0px" gradientUnits="userSpaceOnUse"><stop offset="0" stop-color="#1ae41a"/><stop offset="1" stop-color="#0fef0f"/></linearGradient><linearGradient id="fsmiTODkLcWN" x1="0px" x2="31.622776601683793px" y1="0px" y2="0px" gradientUnits="userSpaceOnUse"><stop offset="0" stop-color="#2ad52a"/><stop offset="1" stop-color="#1ce31c"/></linearGradient><linearGradient id="wSngxfGTPWCq" x1="0px" x2="31.622776601683793px" y1="0px" y2="0px" gradientUnits="userSpaceOnUse"><stop offset="0" stop-color="#2ad52a"/><stop offset="1" stop-color="#807f7f"/></linearGradient><linearGradient id="apKEJNUmKnlR" x1="0px" x2="32.2490309931942px" y1="0px" y2="0px" gradientUnits="userSpaceOnUse"><stop offset="0" stop-color="#2ad52a"/><stop offset="1" stop-color="#1ae41a"/></linearGradient><linearGradient id="lPMOCzwXSTmJ" x1="0px" x2="32px" y1="0px" y2="0px" gradientUnits="userSpaceOnUse"><stop offset="0" stop-color="#0af40a"/><stop offset="1" stop-color="#10ee10"/></linearGradient><linearGradient id="sFSlHJJxcPxQ" x1="0px" x2="32.2490309931942px" y1="0px" y2="0px" gradientUnits="userSpaceOnUse"><stop offset="0" stop-color="#1ce31c"/><stop offset="1" stop-color="#10ee10"/></linearGradient><linearGradient id="WUtqgLMoXiIf" x1="0px" x2="31.622776601683793px" y1="0px" y2="0px" gradientUnits="userSpaceOnUse"><stop offset="0" stop-color="#807f7f"/><stop offset="1" stop-color="#10ee10"/></linearGradient><linearGradient id="UdUXtHhUeTyV" x1="0px" x2="32.55764119219941px" y1="0px" y2="0px" gradientUnits="userSpaceOnUse"><stop offset="0" stop-color="#01fd01"/><stop offset="1" stop-color="#0af40a"/></linearGradient><linearGradient id="QURuwQqVOtvy" x1="0px" x2="31.11269837220809px" y1="0px" y2="0px" gradientUnits="userSpaceOnUse"><stop offset="0" stop-color="#0fef0f"/><stop offset="1" stop-color="#01fd01"/></linearGradient><linearGradient id="WeIEvxHqXKEB" x1="0px" x2="32.2490309931942px" y1="0px" y2="0px" gradientUnits="userSpaceOnUse"><stop offset="0" stop-color="#0fef0f"/><stop offset="1" stop-color="#0fef0f"/></linearGradient><linearGradient id="ukKAFPhxzqXk" x1="0px" x2="32.31098884280702px" y1="0px" y2="0px" gradientUnits="userSpaceOnUse"><stop offset="0" stop-color="#0fef0f"/><stop offset="1" stop-color="#01fd01"/></linearGradient><linearGradient id="DlGldFzfSRMk" x1="0px" x2="32.2490309931942px" y1="0px" y2="0px" gradientUnits="userSpaceOnUse"><stop offset="0" stop-color="#1ce31c"/><stop offset="1" stop-color="#0fef0f"/></linearGradient><linearGradient id="yQgWynzwhBHs" x1="0px" x2="32.2490309931942px" y1="0px" y2="0px" gradientUnits="userSpaceOnUse"><stop offset="0" stop-color="#1ce31c"/><stop offset="1" stop-color="#1ae41a"/></linearGradient><linearGradient id="pVMbqKCyoOTs" x1="0px" x2="32.802438933713454px" y1="0px" y2="0px" gradientUnits="userSpaceOnUse"><stop offset="0" stop-color="#1ce31c"/><stop offset="1" stop-color="#2ad52a"/></linearGradient><linearGradient id="TlSkDvKwkBwS" x1="0px" x2="31.622776601683793px" y1="0px" y2="0px" gradientUnits="userSpaceOnUse"><stop offset="0" stop-color="#0af40a"/><stop offset="1" stop-color="#08f608"/></linearGradient><linearGradient id="NlSfakxRDuHE" x1="0px" x2="31.622776601683793px" y1="0px" y2="0px" gradientUnits="userSpaceOnUse"><stop offset="0" stop-color="#08f608"/><stop offset="1" stop-color="#10ee10"/></linearGradient><linearGradient id="hpHVubSWHBFO" x1="0px" x2="32px" y1="0px" y2="0px" gradientUnits="userSpaceOnUse"><stop offset="0" stop-color="#08f608"/><stop offset="1" stop-color="#7f807f"/></linearGradient><linearGradient id="rydxLOkpCsyR" x1="0px" x2="32.984845004941285px" y1="0px" y2="0px" gradientUnits="userSpaceOnUse"><stop offset="0" stop-color="#7f807f"/><stop offset="1" stop-color="#807f7f"/></linearGradient><linearGradient id="doVNoITqaOVH" x1="0px" x2="32.55764119219941px" y1="0px" y2="0px" gradientUnits="userSpaceOnUse"><stop offset="0" stop-color="#01fd01"/><stop offset="1" stop-color="#05f905"/></linearGradient><linearGradient id="WFVQGtwOgHcC" x1="0px" x2="31.622776601683793px" y1="0px" y2="0px" gradientUnits="userSpaceOnUse"><stop offset="0" stop-color="#0af40a"/><stop offset="1" stop-color="#05f905"/></linearGradient><linearGradient id="zoTSxhUFGMPL" x1="0px" x2="32.31098884280702px" y1="0px" y2="0px" gradientUnits="userSpaceOnUse"><stop offset="0" stop-color="#05f905"/><stop offset="1" stop-color="#08f608"/></linearGradient></defs><g><rect fill="#000000" stroke="none" x="0" y="0" width="604" height="612"/><g transform="scale(1,1) translate(-42,-318)"><path fill="none" stroke="#1ae41a" paint-order="fill stroke markers" d=" M 464 656 L 416 656" stroke-linecap="round" stroke-miterlimit="10" stroke-width="3" stroke-dasharray=""/><path fill="none" stroke="#1ae41a" paint-order="fill stroke markers" d=" M 384 656 L 336 656" stroke-linecap="round" stroke-miterlimit="10" stroke-width="3" stroke-dasharray=""/><g transform="matrix(-1,0,0,-1,416,656)"><path fill="none" stroke="url(#PfUsaSbPRPRd)" paint-order="fill stroke markers" d=" M 0 0 L 2 6 L 6 -6 L 10 6 L 14 -6 L 18 6 L 22 -6 L 26 6 L 30 -6 L 32 0" stroke-linecap="round" stroke-miterlimit="10" stroke-width="3" stroke-dasharray=""/></g><text fill="#ffffff" stroke="none" font-family="sans-serif" font-size="12px" font-style="normal" font-weight="normal" text-decoration="normal" x="394" y="646" text-anchor="start" dominant-baseline="alphabetic">1k</text><path fill="none" stroke="#1ae41a" paint-order="fill stroke markers" d=" M 464 656 L 414 681" stroke-linecap="round" stroke-miterlimit="10" stroke-width="3" stroke-dasharray=""/><path fill="none" stroke="#1ce31c" paint-order="fill stroke markers" d=" M 386 695 L 336 720" stroke-linecap="round" stroke-miterlimit="10" stroke-width="3" stroke-dasharray=""/><g transform="matrix(-0.8944271909999159,0.4472135954999579,-0.4472135954999579,-0.8944271909999159,414,681)"><path fill="none" stroke="url(#CvCfKALTTbyE)" paint-order="fill stroke markers" d=" M 0 0 L 1.956559480312316 6 L 5.869678440936948 -6 L 9.78279740156158 6 L 13.695916362186212 -6 L 17.609035322810843 6 L 21.522154283435476 -6 L 25.43527324406011 6 L 29.348392204684743 -6 L 31.304951684997057 0" stroke-linecap="round" stroke-miterlimit="10" stroke-width="3" stroke-dasharray=""/></g><text fill="#ffffff" stroke="none" font-family="sans-serif" font-size="12px" font-style="normal" font-weight="normal" text-decoration="normal" x="405" y="701" text-anchor="start" dominant-baseline="alphabetic">100</text><path fill="none" stroke="#1ae41a" paint-order="fill stroke markers" d=" M 336 656 L 336 672" stroke-linecap="round" stroke-miterlimit="10" stroke-width="3" stroke-dasharray=""/><path fill="none" stroke="#1ce31c" paint-order="fill stroke markers" d=" M 336 704 L 336 720" stroke-linecap="round" stroke-miterlimit="10" stroke-width="3" stroke-dasharray=""/><g transform="matrix(0,1,-1,0,336,672)"><path fill="none" stroke="url(#AMTUOyyTDPzI)" paint-order="fill stroke markers" d=" M 0 0 L 2 6 L 6 -6 L 10 6 L 14 -6 L 18 6 L 22 -6 L 26 6 L 30 -6 L 32 0" stroke-linecap="round" stroke-miterlimit="10" stroke-width="3" stroke-dasharray=""/></g><text fill="#ffffff" stroke="none" font-family="sans-serif" font-size="12px" font-style="normal" font-weight="normal" text-decoration="normal" x="346" y="694" text-anchor="start" dominant-baseline="alphabetic">1k</text><path fill="none" stroke="#0af40a" paint-order="fill stroke markers" d=" M 208 608 L 257 626" stroke-linecap="round" stroke-miterlimit="10" stroke-width="3" stroke-dasharray=""/><path fill="none" stroke="#1ae41a" paint-order="fill stroke markers" d=" M 287 638 L 336 656" stroke-linecap="round" stroke-miterlimit="10" stroke-width="3" stroke-dasharray=""/><g transform="matrix(0.9284766908852594,0.3713906763541038,-0.3713906763541038,0.9284766908852594,257,626)"><path fill="none" stroke="url(#BwvVcHFmLPbW)" paint-order="fill stroke markers" d=" M 0 0 L 2.019436802675439 6 L 6.058310408026316 -6 L 10.097184013377195 6 L 14.13605761872807 -6 L 18.17493122407895 6 L 22.213804829429826 -6 L 26.252678434780705 6 L 30.29155204013158 -6 L 32.31098884280702 0" stroke-linecap="round" stroke-miterlimit="10" stroke-width="3" stroke-dasharray=""/></g><text fill="#ffffff" stroke="none" font-family="sans-serif" font-size="12px" font-style="normal" font-weight="normal" text-decoration="normal" x="276" y="631" text-anchor="start" dominant-baseline="alphabetic">100k</text><path fill="none" stroke="#0af40a" paint-order="fill stroke markers" d=" M 208 608 L 260 653" stroke-linecap="round" stroke-miterlimit="10" stroke-width="3" stroke-dasharray=""/><path fill="none" stroke="#1ce31c" paint-order="fill stroke markers" d=" M 284 675 L 336 720" stroke-linecap="round" stroke-miterlimit="10" stroke-width="3" stroke-dasharray=""/><g transform="matrix(0.7371541402007414,0.6757246285173463,-0.6757246285173463,0.7371541402007414,260,653)"><path fill="none" stroke="url(#PiTlIxdIJhga)" paint-order="fill stroke markers" d=" M 0 0 L 2.0348525745124633 6 L 6.10455772353739 -6 L 10.174262872562316 6 L 14.243968021587243 -6 L 18.31367317061217 6 L 22.383378319637096 -6 L 26.453083468662022 6 L 30.52278861768695 -6 L 32.55764119219941 0" stroke-linecap="round" stroke-miterlimit="10" stroke-width="3" stroke-dasharray=""/></g><text fill="#ffffff" stroke="none" font-family="sans-serif" font-size="12px" font-style="normal" font-weight="normal" text-decoration="normal" x="279" y="664" text-anchor="start" dominant-baseline="alphabetic">47k</text><path fill="none" stroke="#0fef0f" paint-order="fill stroke markers" d=" M 448 608 L 344 608" stroke-linecap="round" stroke-miterlimit="10" stroke-width="3" stroke-dasharray=""/><path fill="none" stroke="#0af40a" paint-order="fill stroke markers" d=" M 312 608 L 208 608" stroke-linecap="round" stroke-miterlimit="10" stroke-width="3" stroke-dasharray=""/><g transform="matrix(-1,0,0,-1,344,608)"><path fill="none" stroke="url(#pKfokhDVIrWB)" paint-order="fill stroke markers" d=" M 0 0 L 2 6 L 6 -6 L 10 6 L 14 -6 L 18 6 L 22 -6 L 26 6 L 30 -6 L 32 0" stroke-linecap="round" stroke-miterlimit="10" stroke-width="3" stroke-dasharray=""/></g><text fill="#ffffff" stroke="none" font-family="sans-serif" font-size="12px" font-style="normal" font-weight="normal" text-decoration="normal" x="322" y="598" text-anchor="start" dominant-baseline="alphabetic">1k</text><path fill="none" stroke="#1ae41a" paint-order="fill stroke markers" d=" M 464 656 L 461 647" stroke-linecap="round" stroke-miterlimit="10" stroke-width="3" stroke-dasharray=""/><path fill="none" stroke="#0fef0f" paint-order="fill stroke markers" d=" M 451 617 L 448 608" stroke-linecap="round" stroke-miterlimit="10" stroke-width="3" stroke-dasharray=""/><g transform="matrix(-0.31622776601683794,-0.9486832980505138,0.9486832980505138,-0.31622776601683794,461,647)"><path fill="none" stroke="url(#nkqaTQLSKJoD)" paint-order="fill stroke markers" d=" M 0 0 L 1.976423537605237 6 L 5.929270612815711 -6 L 9.882117688026185 6 L 13.834964763236659 -6 L 17.787811838447134 6 L 21.740658913657608 -6 L 25.693505988868083 6 L 29.646353064078557 -6 L 31.622776601683793 0" stroke-linecap="round" stroke-miterlimit="10" stroke-width="3" stroke-dasharray=""/></g><text fill="#ffffff" stroke="none" font-family="sans-serif" font-size="12px" font-style="normal" font-weight="normal" text-decoration="normal" x="465" y="640" text-anchor="start" dominant-baseline="alphabetic">680</text><path fill="none" stroke="#2ad52a" paint-order="fill stroke markers" d=" M 480 768 L 423 749" stroke-linecap="round" stroke-miterlimit="10" stroke-width="3" stroke-dasharray=""/><path fill="none" stroke="#1ce31c" paint-order="fill stroke markers" d=" M 393 739 L 336 720" stroke-linecap="round" stroke-miterlimit="10" stroke-width="3" stroke-dasharray=""/><g transform="matrix(-0.9486832980505138,-0.31622776601683794,0.31622776601683794,-0.9486832980505138,423,749)"><path fill="none" stroke="url(#fsmiTODkLcWN)" paint-order="fill stroke markers" d=" M 0 0 L 1.976423537605237 6 L 5.929270612815711 -6 L 9.882117688026185 6 L 13.834964763236659 -6 L 17.787811838447134 6 L 21.740658913657608 -6 L 25.693505988868083 6 L 29.646353064078557 -6 L 31.622776601683793 0" stroke-linecap="round" stroke-miterlimit="10" stroke-width="3" stroke-dasharray=""/></g><text fill="#ffffff" stroke="none" font-family="sans-serif" font-size="12px" font-style="normal" font-weight="normal" text-decoration="normal" x="412" y="757" text-anchor="start" dominant-baseline="alphabetic">1k</text><path fill="none" stroke="#2ad52a" paint-order="fill stroke markers" d=" M 480 768 L 415 787" stroke-linecap="round" stroke-miterlimit="10" stroke-width="3" stroke-dasharray=""/><path fill="none" stroke="#807f7f" paint-order="fill stroke markers" d=" M 385 797 L 320 816" stroke-linecap="round" stroke-miterlimit="10" stroke-width="3" stroke-dasharray=""/><g transform="matrix(-0.9486832980505138,0.31622776601683794,-0.31622776601683794,-0.9486832980505138,415,787)"><path fill="none" stroke="url(#wSngxfGTPWCq)" paint-order="fill stroke markers" d=" M 0 0 L 1.976423537605237 6 L 5.929270612815711 -6 L 9.882117688026185 6 L 13.834964763236659 -6 L 17.787811838447134 6 L 21.740658913657608 -6 L 25.693505988868083 6 L 29.646353064078557 -6 L 31.622776601683793 0" stroke-linecap="round" stroke-miterlimit="10" stroke-width="3" stroke-dasharray=""/></g><text fill="#ffffff" stroke="none" font-family="sans-serif" font-size="12px" font-style="normal" font-weight="normal" text-decoration="normal" x="404" y="805" text-anchor="start" dominant-baseline="alphabetic">3k</text><path fill="none" stroke="#2ad52a" paint-order="fill stroke markers" d=" M 480 768 L 474 728" stroke-linecap="round" stroke-miterlimit="10" stroke-width="3" stroke-dasharray=""/><path fill="none" stroke="#1ae41a" paint-order="fill stroke markers" d=" M 470 696 L 464 656" stroke-linecap="round" stroke-miterlimit="10" stroke-width="3" stroke-dasharray=""/><g transform="matrix(-0.12403473458920847,-0.9922778767136677,0.9922778767136677,-0.12403473458920847,474,728)"><path fill="none" stroke="url(#apKEJNUmKnlR)" paint-order="fill stroke markers" d=" M 0 0 L 2.0155644370746373 6 L 6.046693311223912 -6 L 10.077822185373186 6 L 14.108951059522461 -6 L 18.140079933671736 6 L 22.17120880782101 -6 L 26.202337681970285 6 L 30.23346655611956 -6 L 32.2490309931942 0" stroke-linecap="round" stroke-miterlimit="10" stroke-width="3" stroke-dasharray=""/></g><text fill="#ffffff" stroke="none" font-family="sans-serif" font-size="12px" font-style="normal" font-weight="normal" text-decoration="normal" x="481" y="719" text-anchor="start" dominant-baseline="alphabetic">1k</text><path fill="none" stroke="#0af40a" paint-order="fill stroke markers" d=" M 208 608 L 208 656" stroke-linecap="round" stroke-miterlimit="10" stroke-width="3" stroke-dasharray=""/><path fill="none" stroke="#10ee10" paint-order="fill stroke markers" d=" M 208 688 L 208 736" stroke-linecap="round" stroke-miterlimit="10" stroke-width="3" stroke-dasharray=""/><g transform="matrix(0,1,-1,0,208,656)"><path fill="none" stroke="url(#lPMOCzwXSTmJ)" paint-order="fill stroke markers" d=" M 0 0 L 2 6 L 6 -6 L 10 6 L 14 -6 L 18 6 L 22 -6 L 26 6 L 30 -6 L 32 0" stroke-linecap="round" stroke-miterlimit="10" stroke-width="3" stroke-dasharray=""/></g><text fill="#ffffff" stroke="none" font-family="sans-serif" font-size="12px" font-style="normal" font-weight="normal" text-decoration="normal" x="218" y="678" text-anchor="start" dominant-baseline="alphabetic">1k</text><path fill="none" stroke="#1ce31c" paint-order="fill stroke markers" d=" M 336 720 L 288 726" stroke-linecap="round" stroke-miterlimit="10" stroke-width="3" stroke-dasharray=""/><path fill="none" stroke="#10ee10" paint-order="fill stroke markers" d=" M 256 730 L 208 736" stroke-linecap="round" stroke-miterlimit="10" stroke-width="3" stroke-dasharray=""/><g transform="matrix(-0.9922778767136677,0.12403473458920847,-0.12403473458920847,-0.9922778767136677,288,726)"><path fill="none" stroke="url(#sFSlHJJxcPxQ)" paint-order="fill stroke markers" d=" M 0 0 L 2.0155644370746373 6 L 6.046693311223912 -6 L 10.077822185373186 6 L 14.108951059522461 -6 L 18.140079933671736 6 L 22.17120880782101 -6 L 26.202337681970285 6 L 30.23346655611956 -6 L 32.2490309931942 0" stroke-linecap="round" stroke-miterlimit="10" stroke-width="3" stroke-dasharray=""/></g><text fill="#ffffff" stroke="none" font-family="sans-serif" font-size="12px" font-style="normal" font-weight="normal" text-decoration="normal" x="266" y="719" text-anchor="start" dominant-baseline="alphabetic">1k</text><path fill="none" stroke="#807f7f" paint-order="fill stroke markers" d=" M 320 816 L 277 785" stroke-linecap="round" stroke-miterlimit="10" stroke-width="3" stroke-dasharray=""/><path fill="none" stroke="#10ee10" paint-order="fill stroke markers" d=" M 251 767 L 208 736" stroke-linecap="round" stroke-miterlimit="10" stroke-width="3" stroke-dasharray=""/><g transform="matrix(-0.8221921916437787,-0.5692099788303083,0.5692099788303083,-0.8221921916437787,277,785)"><path fill="none" stroke="url(#WUtqgLMoXiIf)" paint-order="fill stroke markers" d=" M 0 0 L 1.976423537605237 6 L 5.929270612815711 -6 L 9.882117688026185 6 L 13.834964763236659 -6 L 17.787811838447134 6 L 21.740658913657608 -6 L 25.693505988868083 6 L 29.646353064078557 -6 L 31.622776601683793 0" stroke-linecap="round" stroke-miterlimit="10" stroke-width="3" stroke-dasharray=""/></g><text fill="#ffffff" stroke="none" font-family="sans-serif" font-size="12px" font-style="normal" font-weight="normal" text-decoration="normal" x="270" y="788" text-anchor="start" dominant-baseline="alphabetic">22k</text><path fill="none" stroke="#01fd01" paint-order="fill stroke markers" d=" M 320 480 L 275 532" stroke-linecap="round" stroke-miterlimit="10" stroke-width="3" stroke-dasharray=""/><path fill="none" stroke="#0af40a" paint-order="fill stroke markers" d=" M 253 556 L 208 608" stroke-linecap="round" stroke-miterlimit="10" stroke-width="3" stroke-dasharray=""/><g transform="matrix(-0.6757246285173463,0.7371541402007414,-0.7371541402007414,-0.6757246285173463,275,532)"><path fill="none" stroke="url(#UdUXtHhUeTyV)" paint-order="fill stroke markers" d=" M 0 0 L 2.0348525745124633 6 L 6.10455772353739 -6 L 10.174262872562316 6 L 14.243968021587243 -6 L 18.31367317061217 6 L 22.383378319637096 -6 L 26.453083468662022 6 L 30.52278861768695 -6 L 32.55764119219941 0" stroke-linecap="round" stroke-miterlimit="10" stroke-width="3" stroke-dasharray=""/></g><text fill="#ffffff" stroke="none" font-family="sans-serif" font-size="12px" font-style="normal" font-weight="normal" text-decoration="normal" x="272" y="555" text-anchor="start" dominant-baseline="alphabetic">1k</text><path fill="none" stroke="#0fef0f" paint-order="fill stroke markers" d=" M 448 608 L 395 555" stroke-linecap="round" stroke-miterlimit="10" stroke-width="3" stroke-dasharray=""/><path fill="none" stroke="#01fd01" paint-order="fill stroke markers" d=" M 373 533 L 320 480" stroke-linecap="round" stroke-miterlimit="10" stroke-width="3" stroke-dasharray=""/><g transform="matrix(-0.7071067811865476,-0.7071067811865476,0.7071067811865476,-0.7071067811865476,395,555)"><path fill="none" stroke="url(#QURuwQqVOtvy)" paint-order="fill stroke markers" d=" M 0 0 L 1.9445436482630056 6 L 5.833630944789017 -6 L 9.722718241315029 6 L 13.61180553784104 -6 L 17.50089283436705 6 L 21.38998013089306 -6 L 25.279067427419072 6 L 29.168154723945083 -6 L 31.11269837220809 0" stroke-linecap="round" stroke-miterlimit="10" stroke-width="3" stroke-dasharray=""/></g><text fill="#ffffff" stroke="none" font-family="sans-serif" font-size="12px" font-style="normal" font-weight="normal" text-decoration="normal" x="391" y="555" text-anchor="start" dominant-baseline="alphabetic">1k</text><path fill="none" stroke="#0fef0f" paint-order="fill stroke markers" d=" M 528 560 L 502 576" stroke-linecap="round" stroke-miterlimit="10" stroke-width="3" stroke-dasharray=""/><path fill="none" stroke="#0fef0f" paint-order="fill stroke markers" d=" M 474 592 L 448 608" stroke-linecap="round" stroke-miterlimit="10" stroke-width="3" stroke-dasharray=""/><g transform="matrix(-0.8682431421244593,0.49613893835683387,-0.49613893835683387,-0.8682431421244593,502,576)"><path fill="none" stroke="url(#WeIEvxHqXKEB)" paint-order="fill stroke markers" d=" M 0 0 L 2.0155644370746373 6 L 6.046693311223912 -6 L 10.077822185373186 6 L 14.108951059522461 -6 L 18.140079933671736 6 L 22.17120880782101 -6 L 26.202337681970285 6 L 30.23346655611956 -6 L 32.2490309931942 0" stroke-linecap="round" stroke-miterlimit="10" stroke-width="3" stroke-dasharray=""/></g><text fill="#ffffff" stroke="none" font-family="sans-serif" font-size="12px" font-style="normal" font-weight="normal" text-decoration="normal" x="494" y="596" text-anchor="start" dominant-baseline="alphabetic">1k</text><path fill="none" stroke="#0fef0f" paint-order="fill stroke markers" d=" M 528 560 L 439 526" stroke-linecap="round" stroke-miterlimit="10" stroke-width="3" stroke-dasharray=""/><path fill="none" stroke="#01fd01" paint-order="fill stroke markers" d=" M 409 514 L 320 480" stroke-linecap="round" stroke-miterlimit="10" stroke-width="3" stroke-dasharray=""/><g transform="matrix(-0.9284766908852594,-0.3713906763541038,0.3713906763541038,-0.9284766908852594,439,526)"><path fill="none" stroke="url(#ukKAFPhxzqXk)" paint-order="fill stroke markers" d=" M 0 0 L 2.019436802675439 6 L 6.058310408026316 -6 L 10.097184013377195 6 L 14.13605761872807 -6 L 18.17493122407895 6 L 22.213804829429826 -6 L 26.252678434780705 6 L 30.29155204013158 -6 L 32.31098884280702 0" stroke-linecap="round" stroke-miterlimit="10" stroke-width="3" stroke-dasharray=""/></g><text fill="#ffffff" stroke="none" font-family="sans-serif" font-size="12px" font-style="normal" font-weight="normal" text-decoration="normal" x="428" y="533" text-anchor="start" dominant-baseline="alphabetic">1M</text><path fill="none" stroke="#1ce31c" paint-order="fill stroke markers" d=" M 576 640 L 560 614" stroke-linecap="round" stroke-miterlimit="10" stroke-width="3" stroke-dasharray=""/><path fill="none" stroke="#0fef0f" paint-order="fill stroke markers" d=" M 544 586 L 528 560" stroke-linecap="round" stroke-miterlimit="10" stroke-width="3" stroke-dasharray=""/><g transform="matrix(-0.49613893835683387,-0.8682431421244593,0.8682431421244593,-0.49613893835683387,560,614)"><path fill="none" stroke="url(#DlGldFzfSRMk)" paint-order="fill stroke markers" d=" M 0 0 L 2.0155644370746373 6 L 6.046693311223912 -6 L 10.077822185373186 6 L 14.108951059522461 -6 L 18.140079933671736 6 L 22.17120880782101 -6 L 26.202337681970285 6 L 30.23346655611956 -6 L 32.2490309931942 0" stroke-linecap="round" stroke-miterlimit="10" stroke-width="3" stroke-dasharray=""/></g><text fill="#ffffff" stroke="none" font-family="sans-serif" font-size="12px" font-style="normal" font-weight="normal" text-decoration="normal" x="560" y="610" text-anchor="start" dominant-baseline="alphabetic">150k</text><path fill="none" stroke="#1ce31c" paint-order="fill stroke markers" d=" M 576 640 L 536 646" stroke-linecap="round" stroke-miterlimit="10" stroke-width="3" stroke-dasharray=""/><path fill="none" stroke="#1ae41a" paint-order="fill stroke markers" d=" M 504 650 L 464 656" stroke-linecap="round" stroke-miterlimit="10" stroke-width="3" stroke-dasharray=""/><g transform="matrix(-0.9922778767136677,0.12403473458920847,-0.12403473458920847,-0.9922778767136677,536,646)"><path fill="none" stroke="url(#yQgWynzwhBHs)" paint-order="fill stroke markers" d=" M 0 0 L 2.0155644370746373 6 L 6.046693311223912 -6 L 10.077822185373186 6 L 14.108951059522461 -6 L 18.140079933671736 6 L 22.17120880782101 -6 L 26.202337681970285 6 L 30.23346655611956 -6 L 32.2490309931942 0" stroke-linecap="round" stroke-miterlimit="10" stroke-width="3" stroke-dasharray=""/></g><text fill="#ffffff" stroke="none" font-family="sans-serif" font-size="12px" font-style="normal" font-weight="normal" text-decoration="normal" x="523" y="661" text-anchor="start" dominant-baseline="alphabetic">1k</text><path fill="none" stroke="#1ce31c" paint-order="fill stroke markers" d=" M 576 640 L 538 691" stroke-linecap="round" stroke-miterlimit="10" stroke-width="3" stroke-dasharray=""/><path fill="none" stroke="#2ad52a" paint-order="fill stroke markers" d=" M 518 717 L 480 768" stroke-linecap="round" stroke-miterlimit="10" stroke-width="3" stroke-dasharray=""/><g transform="matrix(-0.6097107608496923,0.7926239891046,-0.7926239891046,-0.6097107608496923,538,691)"><path fill="none" stroke="url(#pVMbqKCyoOTs)" paint-order="fill stroke markers" d=" M 0 0 L 2.050152433357091 6 L 6.150457300071272 -6 L 10.250762166785455 6 L 14.351067033499636 -6 L 18.451371900213818 6 L 22.551676766928 -6 L 26.65198163364218 6 L 30.752286500356362 -6 L 32.802438933713454 0" stroke-linecap="round" stroke-miterlimit="10" stroke-width="3" stroke-dasharray=""/></g><text fill="#ffffff" stroke="none" font-family="sans-serif" font-size="12px" font-style="normal" font-weight="normal" text-decoration="normal" x="536" y="714" text-anchor="start" dominant-baseline="alphabetic">33k</text><path fill="none" stroke="#807f7f" paint-order="fill stroke markers" d=" M 320 848 L 320 880" stroke-linecap="round" stroke-miterlimit="10" stroke-width="3" stroke-dasharray=""/><path fill="none" stroke="#807f7f" paint-order="fill stroke markers" d=" M 330 880 L 310 880" stroke-linecap="round" stroke-miterlimit="10" stroke-width="3" stroke-dasharray=""/><path fill="none" stroke="#807f7f" paint-order="fill stroke markers" d=" M 326 885 L 314 885" stroke-linecap="round" stroke-miterlimit="10" stroke-width="3" stroke-dasharray=""/><path fill="none" stroke="#807f7f" paint-order="fill stroke markers" d=" M 322 890 L 318 890" stroke-linecap="round" stroke-miterlimit="10" stroke-width="3" stroke-dasharray=""/><path fill="none" stroke="#01fd01" paint-order="fill stroke markers" d=" M 320 416 L 320 385" stroke-linecap="round" stroke-miterlimit="10" stroke-width="3" stroke-dasharray=""/><g><text fill="#ffffff" stroke="none" font-family="sans-serif" font-size="12px" font-style="normal" font-weight="normal" text-decoration="normal" x="310" y="373" text-anchor="start" dominant-baseline="central">+5V</text></g><path fill="none" stroke="#0af40a" paint-order="fill stroke markers" d=" M 208 608 L 173 631" stroke-linecap="round" stroke-miterlimit="10" stroke-width="3" stroke-dasharray=""/><path fill="none" stroke="#08f608" paint-order="fill stroke markers" d=" M 147 649 L 112 672" stroke-linecap="round" stroke-miterlimit="10" stroke-width="3" stroke-dasharray=""/><g transform="matrix(-0.8221921916437787,0.5692099788303083,-0.5692099788303083,-0.8221921916437787,173,631)"><path fill="none" stroke="url(#TlSkDvKwkBwS)" paint-order="fill stroke markers" d=" M 0 0 L 1.976423537605237 6 L 5.929270612815711 -6 L 9.882117688026185 6 L 13.834964763236659 -6 L 17.787811838447134 6 L 21.740658913657608 -6 L 25.693505988868083 6 L 29.646353064078557 -6 L 31.622776601683793 0" stroke-linecap="round" stroke-miterlimit="10" stroke-width="3" stroke-dasharray=""/></g><text fill="#ffffff" stroke="none" font-family="sans-serif" font-size="12px" font-style="normal" font-weight="normal" text-decoration="normal" x="166" y="652" text-anchor="start" dominant-baseline="alphabetic">1k</text><path fill="none" stroke="#08f608" paint-order="fill stroke markers" d=" M 112 672 L 147 695" stroke-linecap="round" stroke-miterlimit="10" stroke-width="3" stroke-dasharray=""/><path fill="none" stroke="#10ee10" paint-order="fill stroke markers" d=" M 173 713 L 208 736" stroke-linecap="round" stroke-miterlimit="10" stroke-width="3" stroke-dasharray=""/><g transform="matrix(0.8221921916437787,0.5692099788303083,-0.5692099788303083,0.8221921916437787,147,695)"><path fill="none" stroke="url(#NlSfakxRDuHE)" paint-order="fill stroke markers" d=" M 0 0 L 1.976423537605237 6 L 5.929270612815711 -6 L 9.882117688026185 6 L 13.834964763236659 -6 L 17.787811838447134 6 L 21.740658913657608 -6 L 25.693505988868083 6 L 29.646353064078557 -6 L 31.622776601683793 0" stroke-linecap="round" stroke-miterlimit="10" stroke-width="3" stroke-dasharray=""/></g><text fill="#ffffff" stroke="none" font-family="sans-serif" font-size="12px" font-style="normal" font-weight="normal" text-decoration="normal" x="166" y="704" text-anchor="start" dominant-baseline="alphabetic">1k</text><path fill="none" stroke="#08f608" paint-order="fill stroke markers" d=" M 112 672 L 112 704" stroke-linecap="round" stroke-miterlimit="10" stroke-width="3" stroke-dasharray=""/><path fill="none" stroke="#7f807f" paint-order="fill stroke markers" d=" M 112 736 L 112 768" stroke-linecap="round" stroke-miterlimit="10" stroke-width="3" stroke-dasharray=""/><g transform="matrix(0,1,-1,0,112,704)"><path fill="none" stroke="url(#hpHVubSWHBFO)" paint-order="fill stroke markers" d=" M 0 0 L 2 6 L 6 -6 L 10 6 L 14 -6 L 18 6 L 22 -6 L 26 6 L 30 -6 L 32 0" stroke-linecap="round" stroke-miterlimit="10" stroke-width="3" stroke-dasharray=""/></g><text fill="#ffffff" stroke="none" font-family="sans-serif" font-size="12px" font-style="normal" font-weight="normal" text-decoration="normal" x="122" y="726" text-anchor="start" dominant-baseline="alphabetic">65k</text><path fill="none" stroke="#7f807f" paint-order="fill stroke markers" d=" M 112 768 L 200 788" stroke-linecap="round" stroke-miterlimit="10" stroke-width="3" stroke-dasharray=""/><path fill="none" stroke="#807f7f" paint-order="fill stroke markers" d=" M 232 796 L 320 816" stroke-linecap="round" stroke-miterlimit="10" stroke-width="3" stroke-dasharray=""/><g transform="matrix(0.9701425001453319,0.24253562503633297,-0.24253562503633297,0.9701425001453319,200,788)"><path fill="none" stroke="url(#rydxLOkpCsyR)" paint-order="fill stroke markers" d=" M 0 0 L 2.0615528128088303 6 L 6.18465843842649 -6 L 10.307764064044152 6 L 14.430869689661812 -6 L 18.553975315279473 6 L 22.677080940897135 -6 L 26.800186566514792 6 L 30.923292192132454 -6 L 32.984845004941285 0" stroke-linecap="round" stroke-miterlimit="10" stroke-width="3" stroke-dasharray=""/></g><text fill="#ffffff" stroke="none" font-family="sans-serif" font-size="12px" font-style="normal" font-weight="normal" text-decoration="normal" x="219" y="791" text-anchor="start" dominant-baseline="alphabetic">1k</text><path fill="none" stroke="#01fd01" paint-order="fill stroke markers" d=" M 320 480 L 264 493" stroke-linecap="round" stroke-miterlimit="10" stroke-width="3" stroke-dasharray=""/><path fill="none" stroke="#05f905" paint-order="fill stroke markers" d=" M 232 499 L 176 512" stroke-linecap="round" stroke-miterlimit="10" stroke-width="3" stroke-dasharray=""/><g transform="matrix(-0.9828721869343219,0.18428853505018536,-0.18428853505018536,-0.9828721869343219,264,493)"><path fill="none" stroke="url(#doVNoITqaOVH)" paint-order="fill stroke markers" d=" M 0 0 L 2.0348525745124633 6 L 6.10455772353739 -6 L 10.174262872562316 6 L 14.243968021587243 -6 L 18.31367317061217 6 L 22.383378319637096 -6 L 26.453083468662022 6 L 30.52278861768695 -6 L 32.55764119219941 0" stroke-linecap="round" stroke-miterlimit="10" stroke-width="3" stroke-dasharray=""/></g><text fill="#ffffff" stroke="none" font-family="sans-serif" font-size="12px" font-style="normal" font-weight="normal" text-decoration="normal" x="251" y="509" text-anchor="start" dominant-baseline="alphabetic">200</text><path fill="none" stroke="#0af40a" paint-order="fill stroke markers" d=" M 208 608 L 197 575" stroke-linecap="round" stroke-miterlimit="10" stroke-width="3" stroke-dasharray=""/><path fill="none" stroke="#05f905" paint-order="fill stroke markers" d=" M 187 545 L 176 512" stroke-linecap="round" stroke-miterlimit="10" stroke-width="3" stroke-dasharray=""/><g transform="matrix(-0.31622776601683794,-0.9486832980505138,0.9486832980505138,-0.31622776601683794,197,575)"><path fill="none" stroke="url(#WFVQGtwOgHcC)" paint-order="fill stroke markers" d=" M 0 0 L 1.976423537605237 6 L 5.929270612815711 -6 L 9.882117688026185 6 L 13.834964763236659 -6 L 17.787811838447134 6 L 21.740658913657608 -6 L 25.693505988868083 6 L 29.646353064078557 -6 L 31.622776601683793 0" stroke-linecap="round" stroke-miterlimit="10" stroke-width="3" stroke-dasharray=""/></g><text fill="#ffffff" stroke="none" font-family="sans-serif" font-size="12px" font-style="normal" font-weight="normal" text-decoration="normal" x="201" y="568" text-anchor="start" dominant-baseline="alphabetic">1k</text><path fill="none" stroke="#05f905" paint-order="fill stroke markers" d=" M 176 512 L 150 577" stroke-linecap="round" stroke-miterlimit="10" stroke-width="3" stroke-dasharray=""/><path fill="none" stroke="#08f608" paint-order="fill stroke markers" d=" M 138 607 L 112 672" stroke-linecap="round" stroke-miterlimit="10" stroke-width="3" stroke-dasharray=""/><g transform="matrix(-0.3713906763541038,0.9284766908852594,-0.9284766908852594,-0.3713906763541038,150,577)"><path fill="none" stroke="url(#zoTSxhUFGMPL)" paint-order="fill stroke markers" d=" M 0 0 L 2.019436802675439 6 L 6.058310408026316 -6 L 10.097184013377195 6 L 14.13605761872807 -6 L 18.17493122407895 6 L 22.213804829429826 -6 L 26.252678434780705 6 L 30.29155204013158 -6 L 32.31098884280702 0" stroke-linecap="round" stroke-miterlimit="10" stroke-width="3" stroke-dasharray=""/></g><text fill="#ffffff" stroke="none" font-family="sans-serif" font-size="12px" font-style="normal" font-weight="normal" text-decoration="normal" x="153" y="600" text-anchor="start" dominant-baseline="alphabetic">330</text><path fill="none" stroke="#807f7f" paint-order="fill stroke markers" d=" M 320 816 L 320 848" stroke-linecap="round" stroke-miterlimit="10" stroke-width="3" stroke-dasharray=""/><text fill="#ffffff" stroke="none" font-family="sans-serif" font-size="12px" font-style="normal" font-weight="normal" text-decoration="normal" x="326" y="838" text-anchor="start" dominant-baseline="alphabetic"></text><path fill="none" stroke="#01fd01" paint-order="fill stroke markers" d=" M 320 416 L 320 480" stroke-linecap="round" stroke-miterlimit="10" stroke-width="3" stroke-dasharray=""/><path fill="#01fd01" stroke="none" paint-order="stroke fill markers" d=" M 320 454 L 327 440 L 313 440 Z"/><text fill="#ffffff" stroke="none" font-family="sans-serif" font-size="12px" font-style="normal" font-weight="normal" text-decoration="normal" x="326" y="454" text-anchor="start" dominant-baseline="alphabetic">1.419 mA</text><path fill="#ffffff" stroke="none" paint-order="stroke fill markers" d=" M 467 656 A 3 3 0 1 1 466.99999999995777 655.9999840784612 Z"/><path fill="#ffffff" stroke="none" paint-order="stroke fill markers" d=" M 339 656 A 3 3 0 1 1 338.99999999995777 655.9999840784612 Z"/><path fill="#ffffff" stroke="none" paint-order="stroke fill markers" d=" M 339 720 A 3 3 0 1 1 338.99999999995777 719.9999840784612 Z"/><path fill="#ffffff" stroke="none" paint-order="stroke fill markers" d=" M 211 608 A 3 3 0 1 1 210.99999999995774 607.9999840784612 Z"/><path fill="#ffffff" stroke="none" paint-order="stroke fill markers" d=" M 451 608 A 3 3 0 1 1 450.99999999995777 607.9999840784612 Z"/><path fill="#ffffff" stroke="none" paint-order="stroke fill markers" d=" M 483 768 A 3 3 0 1 1 482.99999999995777 767.9999840784612 Z"/><path fill="#ffffff" stroke="none" paint-order="stroke fill markers" d=" M 323 816 A 3 3 0 1 1 322.99999999995777 815.9999840784612 Z"/><path fill="#ffffff" stroke="none" paint-order="stroke fill markers" d=" M 211 736 A 3 3 0 1 1 210.99999999995774 735.9999840784612 Z"/><path fill="#ffffff" stroke="none" paint-order="stroke fill markers" d=" M 323 480 A 3 3 0 1 1 322.99999999995777 479.99998407846124 Z"/><path fill="#ffffff" stroke="none" paint-order="stroke fill markers" d=" M 531 560 A 3 3 0 1 1 530.9999999999577 559.9999840784612 Z"/><path fill="#ffffff" stroke="none" paint-order="stroke fill markers" d=" M 579 640 A 3 3 0 1 1 578.9999999999577 639.9999840784612 Z"/><path fill="#ffffff" stroke="none" paint-order="stroke fill markers" d=" M 115 672 A 3 3 0 1 1 114.99999999995775 671.9999840784612 Z"/><path fill="#ffffff" stroke="none" paint-order="stroke fill markers" d=" M 179 512 A 3 3 0 1 1 178.99999999995774 511.99998407846124 Z"/></g></g></svg>