<svg version="1.1" xmlns="http://www.w3.org/2000/svg" xmlns:xlink="http://www.w3.org/1999/xlink" width="812" height="324"><defs><linearGradient id="plsGiPbWeIdI" x1="0px" x2="32px" y1="0px" y2="0px" gradientUnits="userSpaceOnUse"><stop offset="0" stop-color="#807f7f"/><stop offset="1" stop-color="#807f7f"/></linearGradient><linearGradient id="MvfAKySVBAmr" x1="0px" x2="32px" y1="0px" y2="0px" gradientUnits="userSpaceOnUse"><stop offset="0" stop-color="#807f7f"/><stop offset="1" stop-color="#807f7f"/></linearGradient></defs><g><rect fill="#000000" stroke="none" x="0" y="0" width="812" height="324"/><g transform="scale(1,1) translate(902,194)"><g><path fill="none" stroke="#807f7f" paint-order="fill stroke markers" d=" M -368 -80 L -352 -80" stroke-linecap="round" stroke-miterlimit="10" stroke-width="3" stroke-dasharray=""/><text fill="#ffffff" stroke="none" font-family="normal" font-size="20px" font-style="normal" font-weight="normal" text-decoration="normal" x="-347" y="-74" text-anchor="start" dominant-baseline="alphabetic">D</text><path fill="none" stroke="#01fd01" paint-order="fill stroke markers" d=" M -272 -80 L -288 -80" stroke-linecap="round" stroke-miterlimit="10" stroke-width="3" stroke-dasharray=""/><text fill="#ffffff" stroke="none" font-family="normal" font-size="20px" font-style="normal" font-weight="normal" text-decoration="normal" x="-307" y="-74" text-anchor="start" dominant-baseline="alphabetic">Q</text><path fill="none" stroke="#807f7f" paint-order="fill stroke markers" d=" M -272 -16 L -288 -16" stroke-linecap="round" stroke-miterlimit="10" stroke-width="3" stroke-dasharray=""/><text fill="#ffffff" stroke="none" font-family="normal" font-size="20px" font-style="normal" font-weight="normal" text-decoration="normal" x="-307" y="-10" text-anchor="start" dominant-baseline="alphabetic">Q</text><path fill="none" stroke="#ffffff" paint-order="fill stroke markers" d=" M -307 -30 L -293 -30" stroke-linecap="round" stroke-miterlimit="10" stroke-dasharray=""/><path fill="none" stroke="#807f7f" paint-order="fill stroke markers" d=" M -368 -48 L -352 -48" stroke-linecap="round" stroke-miterlimit="10" stroke-width="3" stroke-dasharray=""/><path fill="none" stroke="#c0c0c0" paint-order="fill stroke markers" d=" M -352 -56 L -336 -48 L -352 -40 Z" stroke-linecap="round" stroke-miterlimit="10" stroke-dasharray=""/><text fill="#ffffff" stroke="none" font-family="normal" font-size="20px" font-style="normal" font-weight="normal" text-decoration="normal" x="-347" y="-42" text-anchor="start" dominant-baseline="alphabetic"></text><path fill="none" stroke="#807f7f" paint-order="fill stroke markers" d=" M -368 -16 L -352 -16" stroke-linecap="round" stroke-miterlimit="10" stroke-width="3" stroke-dasharray=""/><text fill="#ffffff" stroke="none" font-family="normal" font-size="20px" font-style="normal" font-weight="normal" text-decoration="normal" x="-347" y="-10" text-anchor="start" dominant-baseline="alphabetic">R</text><path fill="none" stroke="#c0c0c0" paint-order="fill stroke markers" d=" M -352 -96 L -288 -96 L -288 0 L -352 0 Z" stroke-linecap="round" stroke-miterlimit="10" stroke-width="3" stroke-dasharray=""/></g><path fill="none" stroke="#807f7f" paint-order="fill stroke markers" d=" M -368 -16 L -368 32" stroke-linecap="round" stroke-miterlimit="10" stroke-width="3" stroke-dasharray=""/><path fill="none" stroke="#807f7f" paint-order="fill stroke markers" d=" M -358 32 L -378 32" stroke-linecap="round" stroke-miterlimit="10" stroke-width="3" stroke-dasharray=""/><path fill="none" stroke="#807f7f" paint-order="fill stroke markers" d=" M -362 37 L -374 37" stroke-linecap="round" stroke-miterlimit="10" stroke-width="3" stroke-dasharray=""/><path fill="none" stroke="#807f7f" paint-order="fill stroke markers" d=" M -366 42 L -370 42" stroke-linecap="round" stroke-miterlimit="10" stroke-width="3" stroke-dasharray=""/><path fill="none" stroke="#807f7f" paint-order="fill stroke markers" d=" M -368 -80 L -368 -144" stroke-linecap="round" stroke-miterlimit="10" stroke-width="3" stroke-dasharray=""/><text fill="#ffffff" stroke="none" font-family="sans-serif" font-size="12px" font-style="normal" font-weight="normal" text-decoration="normal" x="-362" y="-106" text-anchor="start" dominant-baseline="alphabetic"></text><path fill="none" stroke="#807f7f" paint-order="fill stroke markers" d=" M -368 -144 L -240 -144" stroke-linecap="round" stroke-miterlimit="10" stroke-width="3" stroke-dasharray=""/><text fill="#ffffff" stroke="none" font-family="sans-serif" font-size="12px" font-style="normal" font-weight="normal" text-decoration="normal" x="-304" y="-150" text-anchor="start" dominant-baseline="alphabetic"></text><path fill="none" stroke="#807f7f" paint-order="fill stroke markers" d=" M -272 -16 L -240 -16" stroke-linecap="round" stroke-miterlimit="10" stroke-width="3" stroke-dasharray=""/><text fill="#ffffff" stroke="none" font-family="sans-serif" font-size="12px" font-style="normal" font-weight="normal" text-decoration="normal" x="-256" y="-22" text-anchor="start" dominant-baseline="alphabetic"></text><path fill="none" stroke="#807f7f" paint-order="fill stroke markers" d=" M -240 -16 L -240 -144" stroke-linecap="round" stroke-miterlimit="10" stroke-width="3" stroke-dasharray=""/><text fill="#ffffff" stroke="none" font-family="sans-serif" font-size="12px" font-style="normal" font-weight="normal" text-decoration="normal" x="-234" y="-74" text-anchor="start" dominant-baseline="alphabetic"></text><path fill="none" stroke="#01fd01" paint-order="fill stroke markers" d=" M -496 -48 L -496 -79" stroke-linecap="round" stroke-miterlimit="10" stroke-width="3" stroke-dasharray=""/><g><text fill="#ffffff" stroke="none" font-family="sans-serif" font-size="12px" font-style="normal" font-weight="normal" text-decoration="normal" x="-506" y="-91" text-anchor="start" dominant-baseline="central">+5V</text></g><rect fill="none" stroke="#808080" x="-468" y="-89" width="68" height="68" stroke-linecap="round" stroke-miterlimit="10" stroke-dasharray="16,6"/><g><text fill="#c0c0c0" stroke="none" font-family="sans-serif" font-size="12px" font-style="normal" font-weight="normal" text-decoration="normal" x="-806" y="-1" text-anchor="start" dominant-baseline="alphabetic">Press switch</text></g><path fill="none" stroke="#807f7f" paint-order="fill stroke markers" d=" M -240 -16 L -212 -16" stroke-linecap="round" stroke-miterlimit="10" stroke-width="3"/><path fill="none" stroke="#807f7f" paint-order="fill stroke markers" d=" M -188 -16 L -160 -16" stroke-linecap="round" stroke-miterlimit="10" stroke-width="3"/><path fill="none" stroke="#808080" paint-order="fill stroke markers" d=" M -188.24 -16 A 11.76 11.76 0 1 1 -188.2400058799995 -16.011759998040006" stroke-linecap="round" stroke-miterlimit="10" stroke-width="3"/><path fill="#000000" stroke="none" paint-order="stroke fill markers" d=" M -192 -16 A 8 8 0 1 1 -192.00000000011266 -16.00004245743669 Z"/><path fill="none" stroke="#807f7f" paint-order="fill stroke markers" d=" M -160 -16 L -160 0" stroke-linecap="round" stroke-miterlimit="10" stroke-width="3"/><path fill="none" stroke="#807f7f" paint-order="fill stroke markers" d=" M -160 32 L -160 48" stroke-linecap="round" stroke-miterlimit="10" stroke-width="3"/><g transform="matrix(0,1,-1,0,-160,0)"><path fill="none" stroke="url(#plsGiPbWeIdI)" paint-order="fill stroke markers" d=" M 0 0 L 2 6 L 6 -6 L 10 6 L 14 -6 L 18 6 L 22 -6 L 26 6 L 30 -6 L 32 0" stroke-linecap="round" stroke-miterlimit="10" stroke-width="3"/></g><text fill="#ffffff" stroke="none" font-family="sans-serif" font-size="12px" font-style="normal" font-weight="normal" text-decoration="normal" x="-150" y="22" text-anchor="start" dominant-baseline="alphabetic">1k</text><path fill="none" stroke="#807f7f" paint-order="fill stroke markers" d=" M -160 48 L -160 80" stroke-linecap="round" stroke-miterlimit="10" stroke-width="3"/><path fill="none" stroke="#807f7f" paint-order="fill stroke markers" d=" M -150 80 L -170 80" stroke-linecap="round" stroke-miterlimit="10" stroke-width="3"/><path fill="none" stroke="#807f7f" paint-order="fill stroke markers" d=" M -154 85 L -166 85" stroke-linecap="round" stroke-miterlimit="10" stroke-width="3"/><path fill="none" stroke="#807f7f" paint-order="fill stroke markers" d=" M -158 90 L -162 90" stroke-linecap="round" stroke-miterlimit="10" stroke-width="3"/><path fill="none" stroke="#01fd01" paint-order="fill stroke markers" d=" M -496 -48 L -448 -48" stroke-linecap="round" stroke-miterlimit="10" stroke-width="3"/><path fill="none" stroke="#807f7f" paint-order="fill stroke markers" d=" M -416 -48 L -368 -48" stroke-linecap="round" stroke-miterlimit="10" stroke-width="3"/><path fill="none" stroke="#ffffff" paint-order="fill stroke markers" d=" M -448 -48 L -416 -64" stroke-linecap="round" stroke-miterlimit="10" stroke-width="3"/><path fill="none" stroke="#01fd01" paint-order="fill stroke markers" d=" M -832 -48 L -784 -48" stroke-linecap="round" stroke-miterlimit="10" stroke-width="3"/><path fill="none" stroke="#807f7f" paint-order="fill stroke markers" d=" M -752 -48 L -704 -48" stroke-linecap="round" stroke-miterlimit="10" stroke-width="3"/><path fill="none" stroke="#ffffff" paint-order="fill stroke markers" d=" M -784 -48 L -752 -64" stroke-linecap="round" stroke-miterlimit="10" stroke-width="3"/><rect fill="none" stroke="#808080" x="-804" y="-89" width="68" height="68" stroke-linecap="round" stroke-miterlimit="10" stroke-dasharray="16,6"/><path fill="none" stroke="#01fd01" paint-order="fill stroke markers" d=" M -832 -48 L -832 -79" stroke-linecap="round" stroke-miterlimit="10" stroke-width="3"/><g><text fill="#ffffff" stroke="none" font-family="sans-serif" font-size="12px" font-style="normal" font-weight="normal" text-decoration="normal" x="-842" y="-91" text-anchor="start" dominant-baseline="central">+5V</text></g><path fill="none" stroke="#807f7f" paint-order="fill stroke markers" d=" M -704 -48 L -676 -48" stroke-linecap="round" stroke-miterlimit="10" stroke-width="3"/><path fill="none" stroke="#807f7f" paint-order="fill stroke markers" d=" M -652 -48 L -624 -48" stroke-linecap="round" stroke-miterlimit="10" stroke-width="3"/><path fill="none" stroke="#808080" paint-order="fill stroke markers" d=" M -652.24 -48 A 11.76 11.76 0 1 1 -652.2400058799996 -48.011759998040006" stroke-linecap="round" stroke-miterlimit="10" stroke-width="3"/><path fill="#000000" stroke="none" paint-order="stroke fill markers" d=" M -656 -48 A 8 8 0 1 1 -656.0000000001127 -48.00004245743669 Z"/><path fill="none" stroke="#807f7f" paint-order="fill stroke markers" d=" M -624 -48 L -624 -32" stroke-linecap="round" stroke-miterlimit="10" stroke-width="3"/><path fill="none" stroke="#807f7f" paint-order="fill stroke markers" d=" M -624 0 L -624 16" stroke-linecap="round" stroke-miterlimit="10" stroke-width="3"/><g transform="matrix(0,1,-1,0,-624,-32)"><path fill="none" stroke="url(#MvfAKySVBAmr)" paint-order="fill stroke markers" d=" M 0 0 L 2 6 L 6 -6 L 10 6 L 14 -6 L 18 6 L 22 -6 L 26 6 L 30 -6 L 32 0" stroke-linecap="round" stroke-miterlimit="10" stroke-width="3"/></g><text fill="#ffffff" stroke="none" font-family="sans-serif" font-size="12px" font-style="normal" font-weight="normal" text-decoration="normal" x="-614" y="-10" text-anchor="start" dominant-baseline="alphabetic">1k</text><path fill="none" stroke="#807f7f" paint-order="fill stroke markers" d=" M -624 16 L -624 48" stroke-linecap="round" stroke-miterlimit="10" stroke-width="3"/><path fill="none" stroke="#807f7f" paint-order="fill stroke markers" d=" M -614 48 L -634 48" stroke-linecap="round" stroke-miterlimit="10" stroke-width="3"/><path fill="none" stroke="#807f7f" paint-order="fill stroke markers" d=" M -618 53 L -630 53" stroke-linecap="round" stroke-miterlimit="10" stroke-width="3"/><path fill="none" stroke="#807f7f" paint-order="fill stroke markers" d=" M -622 58 L -626 58" stroke-linecap="round" stroke-miterlimit="10" stroke-width="3"/><g><text fill="#c0c0c0" stroke="none" font-family="sans-serif" font-size="12px" font-style="normal" font-weight="normal" text-decoration="normal" x="-470" y="-2" text-anchor="start" dominant-baseline="alphabetic">Press switch</text></g><path fill="#ffffff" stroke="none" paint-order="stroke fill markers" d=" M -269 -80 A 3 3 0 1 1 -269.00000000004223 -80.00001592153876 Z"/><path fill="#ffffff" stroke="none" paint-order="stroke fill markers" d=" M -237 -16 A 3 3 0 1 1 -237.00000000004226 -16.00001592153876 Z"/></g></g></svg>