<svg version="1.1" xmlns="http://www.w3.org/2000/svg" xmlns:xlink="http://www.w3.org/1999/xlink" width="528" height="360"><defs><linearGradient id="DRGOSOEkzgrV" x1="0px" x2="32px" y1="0px" y2="0px" gradientUnits="userSpaceOnUse"><stop offset="0" stop-color="#40be40"/><stop offset="1" stop-color="#807f7f"/></linearGradient><linearGradient id="qOsVXvOBkDWk" x1="0px" x2="32px" y1="0px" y2="0px" gradientUnits="userSpaceOnUse"><stop offset="0" stop-color="#40be40"/><stop offset="1" stop-color="#01fd01"/></linearGradient><clipPath id="dyxEeiUTenLC"><path fill="none" stroke="none" d=" M 0 0 L 144 0 L 144 96 L 0 96 L 0 0 Z"/></clipPath></defs><g><rect fill="#000000" stroke="none" x="0" y="0" width="528" height="360"/><g transform="scale(1,1) translate(-922,-373)"><g><text fill="#c0c0c0" stroke="none" font-family="sans-serif" font-size="12px" font-style="normal" font-weight="normal" text-decoration="normal" x="1247" y="517" text-anchor="start" dominant-baseline="alphabetic">Analog read</text></g><g><text fill="#c0c0c0" stroke="none" font-family="sans-serif" font-size="24px" font-style="normal" font-weight="normal" text-decoration="normal" x="1286" y="454" text-anchor="start" dominant-baseline="alphabetic">Arduino</text></g><g><text fill="#c0c0c0" stroke="none" font-family="sans-serif" font-size="12px" font-style="normal" font-weight="normal" text-decoration="normal" x="1071" y="485" text-anchor="start" dominant-baseline="alphabetic">ON-OFF-ON</text></g><rect fill="none" stroke="#808080" x="1216" y="423" width="164" height="260" stroke-linecap="round" stroke-miterlimit="10" stroke-dasharray="16,6"/><g><text fill="#c0c0c0" stroke="none" font-family="sans-serif" font-size="12px" font-style="normal" font-weight="normal" text-decoration="normal" x="1071" y="466" text-anchor="start" dominant-baseline="alphabetic">Toggle Switch</text></g><rect fill="none" stroke="#808080" x="1072" y="496" width="68" height="68" stroke-linecap="round" stroke-miterlimit="10" stroke-dasharray="16,6"/><path fill="none" stroke="#40be40" paint-order="fill stroke markers" d=" M 1168 528 L 1312 528" stroke-linecap="round" stroke-miterlimit="10" stroke-width="3"/><text fill="#ffffff" stroke="none" font-family="sans-serif" font-size="12px" font-style="normal" font-weight="normal" text-decoration="normal" x="1240" y="522" text-anchor="start" dominant-baseline="alphabetic"></text><path fill="none" stroke="#807f7f" paint-order="fill stroke markers" d=" M 1168 592 L 1168 624" stroke-linecap="round" stroke-miterlimit="10" stroke-width="3"/><path fill="none" stroke="#807f7f" paint-order="fill stroke markers" d=" M 1178 624 L 1158 624" stroke-linecap="round" stroke-miterlimit="10" stroke-width="3"/><path fill="none" stroke="#807f7f" paint-order="fill stroke markers" d=" M 1174 629 L 1162 629" stroke-linecap="round" stroke-miterlimit="10" stroke-width="3"/><path fill="none" stroke="#807f7f" paint-order="fill stroke markers" d=" M 1170 634 L 1166 634" stroke-linecap="round" stroke-miterlimit="10" stroke-width="3"/><path fill="none" stroke="#40be40" paint-order="fill stroke markers" d=" M 1168 528 L 1168 544" stroke-linecap="round" stroke-miterlimit="10" stroke-width="3"/><path fill="none" stroke="#807f7f" paint-order="fill stroke markers" d=" M 1168 576 L 1168 592" stroke-linecap="round" stroke-miterlimit="10" stroke-width="3"/><g transform="matrix(0,1,-1,0,1168,544)"><path fill="none" stroke="url(#DRGOSOEkzgrV)" paint-order="fill stroke markers" d=" M 0 0 L 2 6 L 6 -6 L 10 6 L 14 -6 L 18 6 L 22 -6 L 26 6 L 30 -6 L 32 0" stroke-linecap="round" stroke-miterlimit="10" stroke-width="3"/></g><text fill="#ffffff" stroke="none" font-family="sans-serif" font-size="12px" font-style="normal" font-weight="normal" text-decoration="normal" x="1178" y="566" text-anchor="start" dominant-baseline="alphabetic">100k</text><path fill="none" stroke="#01fd01" paint-order="fill stroke markers" d=" M 992 544 L 992 512" stroke-linecap="round" stroke-miterlimit="10" stroke-width="3"/><text fill="#ffffff" stroke="none" font-family="sans-serif" font-size="12px" font-style="normal" font-weight="normal" text-decoration="normal" x="998" y="534" text-anchor="start" dominant-baseline="alphabetic"></text><path fill="none" stroke="#01fd01" paint-order="fill stroke markers" d=" M 1072 512 L 992 512" stroke-linecap="round" stroke-miterlimit="10" stroke-width="3"/><text fill="#ffffff" stroke="none" font-family="sans-serif" font-size="12px" font-style="normal" font-weight="normal" text-decoration="normal" x="1032" y="506" text-anchor="start" dominant-baseline="alphabetic"></text><path fill="none" stroke="#40be40" paint-order="fill stroke markers" d=" M 1072 544 L 1048 544" stroke-linecap="round" stroke-miterlimit="10" stroke-width="3"/><path fill="none" stroke="#01fd01" paint-order="fill stroke markers" d=" M 1016 544 L 992 544" stroke-linecap="round" stroke-miterlimit="10" stroke-width="3"/><g transform="matrix(-1,0,0,-1,1048,544)"><path fill="none" stroke="url(#qOsVXvOBkDWk)" paint-order="fill stroke markers" d=" M 0 0 L 2 6 L 6 -6 L 10 6 L 14 -6 L 18 6 L 22 -6 L 26 6 L 30 -6 L 32 0" stroke-linecap="round" stroke-miterlimit="10" stroke-width="3"/></g><text fill="#ffffff" stroke="none" font-family="sans-serif" font-size="12px" font-style="normal" font-weight="normal" text-decoration="normal" x="1019" y="534" text-anchor="start" dominant-baseline="alphabetic">100k</text><path fill="none" stroke="#01fd01" paint-order="fill stroke markers" d=" M 992 512 L 992 481" stroke-linecap="round" stroke-miterlimit="10" stroke-width="3"/><g><text fill="#ffffff" stroke="none" font-family="sans-serif" font-size="12px" font-style="normal" font-weight="normal" text-decoration="normal" x="982" y="469" text-anchor="start" dominant-baseline="central">+5V</text></g><path fill="none" stroke="#40be40" paint-order="fill stroke markers" d=" M 1168 528 L 1136 528" stroke-linecap="round" stroke-miterlimit="10" stroke-width="3"/><path fill="none" stroke="#40be40" paint-order="fill stroke markers" d=" M 1104 544 L 1072 544" stroke-linecap="round" stroke-miterlimit="10" stroke-width="3"/><path fill="none" stroke="#807f7f" paint-order="fill stroke markers" d=" M 1104 528 L 1072 528" stroke-linecap="round" stroke-miterlimit="10" stroke-width="3"/><path fill="none" stroke="#01fd01" paint-order="fill stroke markers" d=" M 1104 512 L 1072 512" stroke-linecap="round" stroke-miterlimit="10" stroke-width="3"/><path fill="none" stroke="#ffffff" paint-order="fill stroke markers" d=" M 1136 528 L 1104 544" stroke-linecap="round" stroke-miterlimit="10" stroke-width="3"/><g transform="scale(1,1) translate(922,373)"><g transform="translate(310,187)" clip-path="url(#dyxEeiUTenLC)"><g><path fill="none" stroke="#A0A0A0" paint-order="fill stroke markers" d=" M 0 89 L 143 89" stroke-linecap="round" stroke-miterlimit="10"/><path fill="none" stroke="#404040" paint-order="fill stroke markers" d=" M 0 55 L 143 55" stroke-linecap="round" stroke-miterlimit="10"/><path fill="none" stroke="#404040" paint-order="fill stroke markers" d=" M 0 22 L 143 22" stroke-linecap="round" stroke-miterlimit="10"/><path fill="none" stroke="#404040" paint-order="fill stroke markers" d=" M 141 0 L 141 95" stroke-linecap="round" stroke-miterlimit="10"/><path fill="none" stroke="#404040" paint-order="fill stroke markers" d=" M 116 0 L 116 95" stroke-linecap="round" stroke-miterlimit="10"/><path fill="none" stroke="#404040" paint-order="fill stroke markers" d=" M 91 0 L 91 95" stroke-linecap="round" stroke-miterlimit="10"/><path fill="none" stroke="#404040" paint-order="fill stroke markers" d=" M 66 0 L 66 95" stroke-linecap="round" stroke-miterlimit="10"/><path fill="none" stroke="#404040" paint-order="fill stroke markers" d=" M 41 0 L 41 95" stroke-linecap="round" stroke-miterlimit="10"/><path fill="none" stroke="#404040" paint-order="fill stroke markers" d=" M 16 0 L 16 95" stroke-linecap="round" stroke-miterlimit="10"/><path fill="none" stroke="#00ff00" paint-order="fill stroke markers" d=" M 0 47 L 143 47" stroke-linecap="round" stroke-miterlimit="10"/><text fill="#ffffff" stroke="none" font-family="sans-serif" font-size="12px" font-style="normal" font-weight="normal" text-decoration="normal" x="0" y="10" text-anchor="start" dominant-baseline="alphabetic">Max=2.5 V</text></g></g></g><path fill="#ffffff" stroke="none" paint-order="stroke fill markers" d=" M 1171 528 A 3 3 0 1 1 1170.9999999999577 527.9999840784612 Z"/><path fill="#ffffff" stroke="none" paint-order="stroke fill markers" d=" M 1315 528 A 3 3 0 1 1 1314.9999999999577 527.9999840784612 Z"/><path fill="#ffffff" stroke="none" paint-order="stroke fill markers" d=" M 995 512 A 3 3 0 1 1 994.9999999999577 511.99998407846124 Z"/><path fill="#ffffff" stroke="none" paint-order="stroke fill markers" d=" M 1075 528 A 3 3 0 1 1 1074.9999999999577 527.9999840784612 Z"/></g></g></svg>