<svg version="1.1" xmlns="http://www.w3.org/2000/svg" xmlns:xlink="http://www.w3.org/1999/xlink" width="1116" height="388"><defs><linearGradient id="aicSOwCnCAIT" x1="0px" x2="32px" y1="0px" y2="0px" gradientUnits="userSpaceOnUse"><stop offset="0" stop-color="#01fd01"/><stop offset="1" stop-color="#807f7f"/></linearGradient><linearGradient id="sczlPyWBmOcq" x1="0px" x2="32px" y1="0px" y2="0px" gradientUnits="userSpaceOnUse"><stop offset="0" stop-color="#738c73"/><stop offset="1" stop-color="#01fd01"/></linearGradient><clipPath id="AwUkZCBqGoHL"><path fill="none" stroke="none" d=" M 0 0 L 416 0 L 416 288 L 0 288 L 0 0 Z"/></clipPath></defs><g><rect fill="#000000" stroke="none" x="0" y="0" width="1116" height="388"/><g transform="scale(1,1) translate(118,-382)"><g><text fill="#c0c0c0" stroke="none" font-family="sans-serif" font-size="24px" font-style="normal" font-weight="normal" text-decoration="normal" x="336" y="477" text-anchor="start" dominant-baseline="alphabetic">Arduino</text></g><rect fill="none" stroke="#808080" x="218" y="444" width="209" height="269" stroke-linecap="round" stroke-miterlimit="10" stroke-dasharray="16,6"/><path fill="none" stroke="#807f7f" paint-order="fill stroke markers" d=" M 176 608 L 176 656" stroke-linecap="round" stroke-miterlimit="10" stroke-width="3"/><text fill="#ffffff" stroke="none" font-family="sans-serif" font-size="12px" font-style="normal" font-weight="normal" text-decoration="normal" x="182" y="638" text-anchor="start" dominant-baseline="alphabetic"></text><path fill="none" stroke="#807f7f" paint-order="fill stroke markers" d=" M 112 656 L 112 688" stroke-linecap="round" stroke-miterlimit="10" stroke-width="3"/><path fill="none" stroke="#807f7f" paint-order="fill stroke markers" d=" M 122 688 L 102 688" stroke-linecap="round" stroke-miterlimit="10" stroke-width="3"/><path fill="none" stroke="#807f7f" paint-order="fill stroke markers" d=" M 118 693 L 106 693" stroke-linecap="round" stroke-miterlimit="10" stroke-width="3"/><path fill="none" stroke="#807f7f" paint-order="fill stroke markers" d=" M 114 698 L 110 698" stroke-linecap="round" stroke-miterlimit="10" stroke-width="3"/><path fill="none" stroke="#807f7f" paint-order="fill stroke markers" d=" M 112 656 L 112 632" stroke-linecap="round" stroke-miterlimit="10" stroke-width="3"/><path fill="none" stroke="#738c73" paint-order="fill stroke markers" d=" M 112 616 L 112 592" stroke-linecap="round" stroke-miterlimit="10" stroke-width="3"/><path fill="#807f7f" stroke="none" paint-order="stroke fill markers" d=" M 104 632 L 120 632 L 112 616 Z"/><path fill="none" stroke="#738c73" paint-order="fill stroke markers" d=" M 104 616 L 120 616" stroke-linecap="round" stroke-miterlimit="10" stroke-width="3"/><path fill="none" stroke="#01fd01" paint-order="fill stroke markers" d=" M 16 592 L -31 592" stroke-linecap="round" stroke-miterlimit="10" stroke-width="3"/><path fill="none" stroke="#808080" paint-order="fill stroke markers" d=" M -31.34 592 A 16.66 16.66 0 1 1 -31.340008329999307 591.9833400027767" stroke-linecap="round" stroke-miterlimit="10" stroke-width="3"/><path fill="none" stroke="#808080" paint-order="fill stroke markers" d=" M -56 584 L -56 592" stroke-linecap="round" stroke-miterlimit="10" stroke-width="3"/><path fill="none" stroke="#808080" paint-order="fill stroke markers" d=" M -56 584 L -48 584" stroke-linecap="round" stroke-miterlimit="10" stroke-width="3"/><path fill="none" stroke="#808080" paint-order="fill stroke markers" d=" M -48 584 L -48 600" stroke-linecap="round" stroke-miterlimit="10" stroke-width="3"/><path fill="none" stroke="#808080" paint-order="fill stroke markers" d=" M -40 600 L -48 600" stroke-linecap="round" stroke-miterlimit="10" stroke-width="3"/><path fill="none" stroke="#808080" paint-order="fill stroke markers" d=" M -40 592 L -40 600" stroke-linecap="round" stroke-miterlimit="10" stroke-width="3"/><text fill="#ffffff" stroke="none" font-family="sans-serif" font-size="12px" font-style="normal" font-weight="normal" text-decoration="normal" x="-62" y="573" text-anchor="start" dominant-baseline="alphabetic">40Hz</text><g><g><text fill="#c0c0c0" stroke="none" font-family="sans-serif" font-size="20px" font-style="normal" font-weight="bold" text-decoration="normal" x="288" y="576" text-anchor="middle" dominant-baseline="central">L</text></g><path fill="none" stroke="#807f7f" paint-order="fill stroke markers" d=" M 256 576 L 276 576" stroke-linecap="round" stroke-miterlimit="10" stroke-width="3"/></g><path fill="none" stroke="#807f7f" paint-order="fill stroke markers" d=" M 176 656 L 176 688" stroke-linecap="round" stroke-miterlimit="10" stroke-width="3"/><path fill="none" stroke="#807f7f" paint-order="fill stroke markers" d=" M 186 688 L 166 688" stroke-linecap="round" stroke-miterlimit="10" stroke-width="3"/><path fill="none" stroke="#807f7f" paint-order="fill stroke markers" d=" M 182 693 L 170 693" stroke-linecap="round" stroke-miterlimit="10" stroke-width="3"/><path fill="none" stroke="#807f7f" paint-order="fill stroke markers" d=" M 178 698 L 174 698" stroke-linecap="round" stroke-miterlimit="10" stroke-width="3"/><path fill="none" stroke="#01fd01" paint-order="fill stroke markers" d=" M 256 512 L 256 528" stroke-linecap="round" stroke-miterlimit="10" stroke-width="3"/><path fill="none" stroke="#807f7f" paint-order="fill stroke markers" d=" M 256 560 L 256 576" stroke-linecap="round" stroke-miterlimit="10" stroke-width="3"/><g transform="matrix(0,1,-1,0,256,528)"><path fill="none" stroke="url(#aicSOwCnCAIT)" paint-order="fill stroke markers" d=" M 0 0 L 2 6 L 6 -6 L 10 6 L 14 -6 L 18 6 L 22 -6 L 26 6 L 30 -6 L 32 0" stroke-linecap="round" stroke-miterlimit="10" stroke-width="3"/></g><text fill="#ffffff" stroke="none" font-family="sans-serif" font-size="12px" font-style="normal" font-weight="normal" text-decoration="normal" x="266" y="550" text-anchor="start" dominant-baseline="alphabetic">1M</text><path fill="none" stroke="#738c73" paint-order="fill stroke markers" d=" M 112 592 L 80 592" stroke-linecap="round" stroke-miterlimit="10" stroke-width="3"/><path fill="none" stroke="#01fd01" paint-order="fill stroke markers" d=" M 48 592 L 16 592" stroke-linecap="round" stroke-miterlimit="10" stroke-width="3"/><g transform="matrix(-1,0,0,-1,80,592)"><path fill="none" stroke="url(#sczlPyWBmOcq)" paint-order="fill stroke markers" d=" M 0 0 L 2 6 L 6 -6 L 10 6 L 14 -6 L 18 6 L 22 -6 L 26 6 L 30 -6 L 32 0" stroke-linecap="round" stroke-miterlimit="10" stroke-width="3"/></g><text fill="#ffffff" stroke="none" font-family="sans-serif" font-size="12px" font-style="normal" font-weight="normal" text-decoration="normal" x="51" y="582" text-anchor="start" dominant-baseline="alphabetic">100k</text><path fill="none" stroke="#01fd01" paint-order="fill stroke markers" d=" M 256 512 L 256 481" stroke-linecap="round" stroke-miterlimit="10" stroke-width="3"/><g><text fill="#ffffff" stroke="none" font-family="sans-serif" font-size="12px" font-style="normal" font-weight="normal" text-decoration="normal" x="246" y="469" text-anchor="start" dominant-baseline="central">+5V</text></g><path fill="none" stroke="#807f7f" paint-order="fill stroke markers" d=" M 176 576 L 163 586" stroke-linecap="round" stroke-miterlimit="10" stroke-width="3"/><path fill="none" stroke="#807f7f" paint-order="fill stroke markers" d=" M 176 608 L 163 598" stroke-linecap="round" stroke-miterlimit="10" stroke-width="3"/><path fill="#c0c0c0" stroke="none" paint-order="stroke fill markers" d=" M 176 608 L 172 600 L 167 606 Z"/><path fill="none" stroke="#738c73" paint-order="fill stroke markers" d=" M 112 592 L 160 592" stroke-linecap="round" stroke-miterlimit="10" stroke-width="3"/><path fill="#738c73" stroke="none" paint-order="stroke fill markers" d=" M 160 576 L 163 576 L 163 608 L 160 608 Z"/><path fill="none" stroke="#807f7f" paint-order="fill stroke markers" d=" M 176 576 L 256 576" stroke-linecap="round" stroke-miterlimit="10" stroke-width="3"/><text fill="#ffffff" stroke="none" font-family="sans-serif" font-size="12px" font-style="normal" font-weight="normal" text-decoration="normal" x="216" y="570" text-anchor="start" dominant-baseline="alphabetic"></text><g transform="scale(1,1) translate(-118,382)"><g transform="translate(648,320)"><path fill="none" stroke="#404040" paint-order="fill stroke markers" d=" M 4.9 0 A 4.9 4.9 0 1 1 4.899997550000204 -0.004899999183336211" stroke-linecap="round" stroke-miterlimit="10" stroke-width="3"/><path fill="none" stroke="#404040" paint-order="fill stroke markers" d=" M -8 0 L -5 0" stroke-linecap="round" stroke-miterlimit="10" stroke-width="3"/><path fill="none" stroke="#404040" paint-order="fill stroke markers" d=" M 8 0 L 5 0" stroke-linecap="round" stroke-miterlimit="10" stroke-width="3"/><path fill="none" stroke="#404040" paint-order="fill stroke markers" d=" M 0 -8 L 0 -5" stroke-linecap="round" stroke-miterlimit="10" stroke-width="3"/><path fill="none" stroke="#404040" paint-order="fill stroke markers" d=" M 0 8 L 0 5" stroke-linecap="round" stroke-miterlimit="10" stroke-width="3"/><path fill="none" stroke="#404040" paint-order="fill stroke markers" d=" M -6 -6 L -4 -4" stroke-linecap="round" stroke-miterlimit="10" stroke-width="3"/><path fill="none" stroke="#404040" paint-order="fill stroke markers" d=" M 6 -6 L 4 -4" stroke-linecap="round" stroke-miterlimit="10" stroke-width="3"/><path fill="none" stroke="#404040" paint-order="fill stroke markers" d=" M -6 6 L -4 4" stroke-linecap="round" stroke-miterlimit="10" stroke-width="3"/><path fill="none" stroke="#404040" paint-order="fill stroke markers" d=" M 6 6 L 4 4" stroke-linecap="round" stroke-miterlimit="10" stroke-width="3"/></g><g transform="translate(630,50)" clip-path="url(#AwUkZCBqGoHL)"><g><path fill="none" stroke="#404040" paint-order="fill stroke markers" d=" M 0 273 L 415 273" stroke-linecap="round" stroke-miterlimit="10"/><path fill="none" stroke="#404040" paint-order="fill stroke markers" d=" M 0 247 L 415 247" stroke-linecap="round" stroke-miterlimit="10"/><path fill="none" stroke="#404040" paint-order="fill stroke markers" d=" M 0 221 L 415 221" stroke-linecap="round" stroke-miterlimit="10"/><path fill="none" stroke="#404040" paint-order="fill stroke markers" d=" M 0 195 L 415 195" stroke-linecap="round" stroke-miterlimit="10"/><path fill="none" stroke="#404040" paint-order="fill stroke markers" d=" M 0 169 L 415 169" stroke-linecap="round" stroke-miterlimit="10"/><path fill="none" stroke="#A0A0A0" paint-order="fill stroke markers" d=" M 0 143 L 415 143" stroke-linecap="round" stroke-miterlimit="10"/><path fill="none" stroke="#404040" paint-order="fill stroke markers" d=" M 0 117 L 415 117" stroke-linecap="round" stroke-miterlimit="10"/><path fill="none" stroke="#404040" paint-order="fill stroke markers" d=" M 0 91 L 415 91" stroke-linecap="round" stroke-miterlimit="10"/><path fill="none" stroke="#404040" paint-order="fill stroke markers" d=" M 0 65 L 415 65" stroke-linecap="round" stroke-miterlimit="10"/><path fill="none" stroke="#404040" paint-order="fill stroke markers" d=" M 0 39 L 415 39" stroke-linecap="round" stroke-miterlimit="10"/><path fill="none" stroke="#404040" paint-order="fill stroke markers" d=" M 0 13 L 415 13" stroke-linecap="round" stroke-miterlimit="10"/><path fill="none" stroke="#404040" paint-order="fill stroke markers" d=" M 391 0 L 391 287" stroke-linecap="round" stroke-miterlimit="10"/><path fill="none" stroke="#404040" paint-order="fill stroke markers" d=" M 366 0 L 366 287" stroke-linecap="round" stroke-miterlimit="10"/><path fill="none" stroke="#404040" paint-order="fill stroke markers" d=" M 341 0 L 341 287" stroke-linecap="round" stroke-miterlimit="10"/><path fill="none" stroke="#404040" paint-order="fill stroke markers" d=" M 316 0 L 316 287" stroke-linecap="round" stroke-miterlimit="10"/><path fill="none" stroke="#404040" paint-order="fill stroke markers" d=" M 291 0 L 291 287" stroke-linecap="round" stroke-miterlimit="10"/><path fill="none" stroke="#A0A0A0" paint-order="fill stroke markers" d=" M 266 0 L 266 287" stroke-linecap="round" stroke-miterlimit="10"/><path fill="none" stroke="#404040" paint-order="fill stroke markers" d=" M 241 0 L 241 287" stroke-linecap="round" stroke-miterlimit="10"/><path fill="none" stroke="#404040" paint-order="fill stroke markers" d=" M 216 0 L 216 287" stroke-linecap="round" stroke-miterlimit="10"/><path fill="none" stroke="#404040" paint-order="fill stroke markers" d=" M 191 0 L 191 287" stroke-linecap="round" stroke-miterlimit="10"/><path fill="none" stroke="#404040" paint-order="fill stroke markers" d=" M 166 0 L 166 287" stroke-linecap="round" stroke-miterlimit="10"/><path fill="none" stroke="#404040" paint-order="fill stroke markers" d=" M 141 0 L 141 287" stroke-linecap="round" stroke-miterlimit="10"/><path fill="none" stroke="#404040" paint-order="fill stroke markers" d=" M 116 0 L 116 287" stroke-linecap="round" stroke-miterlimit="10"/><path fill="none" stroke="#404040" paint-order="fill stroke markers" d=" M 91 0 L 91 287" stroke-linecap="round" stroke-miterlimit="10"/><path fill="none" stroke="#404040" paint-order="fill stroke markers" d=" M 66 0 L 66 287" stroke-linecap="round" stroke-miterlimit="10"/><path fill="none" stroke="#404040" paint-order="fill stroke markers" d=" M 41 0 L 41 287" stroke-linecap="round" stroke-miterlimit="10"/><path fill="none" stroke="#A0A0A0" paint-order="fill stroke markers" d=" M 16 0 L 16 287" stroke-linecap="round" stroke-miterlimit="10"/><path fill="none" stroke="#00ff00" paint-order="fill stroke markers" d=" M 0 273 L 17 273" stroke-linecap="round" stroke-miterlimit="10"/><path fill="none" stroke="#00ff00" paint-order="fill stroke markers" d=" M 17 273 L 17 13" stroke-linecap="round" stroke-miterlimit="10"/><path fill="none" stroke="#00ff00" paint-order="fill stroke markers" d=" M 18 13 L 173 13" stroke-linecap="round" stroke-miterlimit="10"/><path fill="none" stroke="#00ff00" paint-order="fill stroke markers" d=" M 173 273 L 173 13" stroke-linecap="round" stroke-miterlimit="10"/><path fill="none" stroke="#00ff00" paint-order="fill stroke markers" d=" M 174 273 L 329 273" stroke-linecap="round" stroke-miterlimit="10"/><path fill="none" stroke="#00ff00" paint-order="fill stroke markers" d=" M 329 273 L 329 13" stroke-linecap="round" stroke-miterlimit="10"/><path fill="none" stroke="#00ff00" paint-order="fill stroke markers" d=" M 330 13 L 415 13" stroke-linecap="round" stroke-miterlimit="10"/><path fill="none" stroke="#FF0000" paint-order="fill stroke markers" d=" M 0 14 L 17 14" stroke-linecap="round" stroke-miterlimit="10"/><path fill="none" stroke="#FF0000" paint-order="fill stroke markers" d=" M 17 143 L 17 14" stroke-linecap="round" stroke-miterlimit="10"/><path fill="none" stroke="#FF0000" paint-order="fill stroke markers" d=" M 18 143 L 173 143" stroke-linecap="round" stroke-miterlimit="10"/><path fill="none" stroke="#FF0000" paint-order="fill stroke markers" d=" M 173 143 L 173 14" stroke-linecap="round" stroke-miterlimit="10"/><path fill="none" stroke="#FF0000" paint-order="fill stroke markers" d=" M 174 14 L 329 14" stroke-linecap="round" stroke-miterlimit="10"/><path fill="none" stroke="#FF0000" paint-order="fill stroke markers" d=" M 329 143 L 329 14" stroke-linecap="round" stroke-miterlimit="10"/><path fill="none" stroke="#FF0000" paint-order="fill stroke markers" d=" M 330 143 L 415 143" stroke-linecap="round" stroke-miterlimit="10"/><text fill="#ffffff" stroke="none" font-family="sans-serif" font-size="12px" font-style="normal" font-weight="normal" text-decoration="normal" x="0" y="10" text-anchor="start" dominant-baseline="alphabetic">Max=5 V</text></g></g></g><g><text fill="#c0c0c0" stroke="none" font-family="sans-serif" font-size="24px" font-style="normal" font-weight="normal" text-decoration="normal" x="233" y="658" text-anchor="start" dominant-baseline="alphabetic">INPUT_PULLUP</text></g><g><text fill="#c0c0c0" stroke="none" font-family="sans-serif" font-size="24px" font-style="normal" font-weight="normal" text-decoration="normal" x="236" y="619" text-anchor="start" dominant-baseline="alphabetic">Digital Read</text></g><path fill="#ffffff" stroke="none" paint-order="stroke fill markers" d=" M 115 592 A 3 3 0 1 1 114.99999999995775 591.9999840784612 Z"/><path fill="#ffffff" stroke="none" paint-order="stroke fill markers" d=" M 259 576 A 3 3 0 1 1 258.99999999995777 575.9999840784612 Z"/></g></g></svg>