<svg version="1.1" xmlns="http://www.w3.org/2000/svg" xmlns:xlink="http://www.w3.org/1999/xlink" width="924" height="369"><defs><linearGradient id="KGwgPnNzNqqm" x1="0px" x2="32px" y1="0px" y2="0px" gradientUnits="userSpaceOnUse"><stop offset="0" stop-color="#01fd01"/><stop offset="1" stop-color="#01fd01"/></linearGradient><clipPath id="eaWpmePcfvnZ"><path fill="none" stroke="none" d=" M 0 0 L 336 0 L 336 256 L 0 256 L 0 0 Z"/></clipPath><linearGradient id="dAuiiCRmPOBT" x1="0px" x2="32px" y1="0px" y2="0px" gradientUnits="userSpaceOnUse"><stop offset="0" stop-color="#807f7f"/><stop offset="1" stop-color="#01fd01"/></linearGradient></defs><g><rect fill="#000000" stroke="none" x="0" y="0" width="924" height="369"/><g transform="scale(1,1) translate(22,46)"><g><g><text fill="#c0c0c0" stroke="none" font-family="sans-serif" font-size="20px" font-style="normal" font-weight="bold" text-decoration="normal" x="352" y="144" text-anchor="middle" dominant-baseline="central">H</text></g><path fill="none" stroke="#01fd01" paint-order="fill stroke markers" d=" M 224 144 L 340 144" stroke-linecap="round" stroke-miterlimit="10" stroke-width="3" stroke-dasharray=""/></g><rect fill="none" stroke="#808080" x="294" y="4" width="161" height="269" stroke-linecap="round" stroke-miterlimit="10" stroke-dasharray="16,6"/><g><text fill="#c0c0c0" stroke="none" font-family="sans-serif" font-size="24px" font-style="normal" font-weight="normal" text-decoration="normal" x="368" y="28" text-anchor="start" dominant-baseline="alphabetic">Arduino</text></g><g><text fill="#c0c0c0" stroke="none" font-family="sans-serif" font-size="24px" font-style="normal" font-weight="normal" text-decoration="normal" x="306" y="186" text-anchor="start" dominant-baseline="alphabetic">Digital Read</text></g><g><text fill="#c0c0c0" stroke="none" font-family="sans-serif" font-size="24px" font-style="normal" font-weight="normal" text-decoration="normal" x="313" y="224" text-anchor="start" dominant-baseline="alphabetic">INPUT</text></g><path fill="none" stroke="#01fd01" paint-order="fill stroke markers" d=" M 176 80 L 176 65" stroke-linecap="round" stroke-miterlimit="10" stroke-width="3"/><g><text fill="#ffffff" stroke="none" font-family="sans-serif" font-size="10px" font-style="normal" font-weight="normal" text-decoration="normal" x="167" y="45" text-anchor="start" dominant-baseline="central">+5V</text></g><path fill="none" stroke="#01fd01" paint-order="fill stroke markers" d=" M 96 144 L 65 144" stroke-linecap="round" stroke-miterlimit="10" stroke-width="3"/><path fill="none" stroke="#808080" paint-order="fill stroke markers" d=" M 64.66 144 A 16.66 16.66 0 1 1 64.6599916700007 143.98334000277666" stroke-linecap="round" stroke-miterlimit="10" stroke-width="3"/><path fill="none" stroke="#808080" paint-order="fill stroke markers" d=" M 40 136 L 40 144" stroke-linecap="round" stroke-miterlimit="10" stroke-width="3"/><path fill="none" stroke="#808080" paint-order="fill stroke markers" d=" M 40 136 L 48 136" stroke-linecap="round" stroke-miterlimit="10" stroke-width="3"/><path fill="none" stroke="#808080" paint-order="fill stroke markers" d=" M 48 136 L 48 152" stroke-linecap="round" stroke-miterlimit="10" stroke-width="3"/><path fill="none" stroke="#808080" paint-order="fill stroke markers" d=" M 56 152 L 48 152" stroke-linecap="round" stroke-miterlimit="10" stroke-width="3"/><path fill="none" stroke="#808080" paint-order="fill stroke markers" d=" M 56 144 L 56 152" stroke-linecap="round" stroke-miterlimit="10" stroke-width="3"/><text fill="#ffffff" stroke="none" font-family="sans-serif" font-size="12px" font-style="normal" font-weight="normal" text-decoration="normal" x="34" y="125" text-anchor="start" dominant-baseline="alphabetic">40Hz</text><path fill="none" stroke="#807f7f" paint-order="fill stroke markers" d=" M 176 208 L 176 184" stroke-linecap="round" stroke-miterlimit="10" stroke-width="3"/><path fill="none" stroke="#01fd01" paint-order="fill stroke markers" d=" M 176 168 L 176 144" stroke-linecap="round" stroke-miterlimit="10" stroke-width="3"/><path fill="#807f7f" stroke="none" paint-order="stroke fill markers" d=" M 168 184 L 184 184 L 176 168 Z"/><path fill="none" stroke="#01fd01" paint-order="fill stroke markers" d=" M 168 168 L 184 168" stroke-linecap="round" stroke-miterlimit="10" stroke-width="3"/><path fill="none" stroke="#807f7f" paint-order="fill stroke markers" d=" M 176 208 L 176 240" stroke-linecap="round" stroke-miterlimit="10" stroke-width="3"/><path fill="none" stroke="#807f7f" paint-order="fill stroke markers" d=" M 186 240 L 166 240" stroke-linecap="round" stroke-miterlimit="10" stroke-width="3"/><path fill="none" stroke="#807f7f" paint-order="fill stroke markers" d=" M 182 245 L 170 245" stroke-linecap="round" stroke-miterlimit="10" stroke-width="3"/><path fill="none" stroke="#807f7f" paint-order="fill stroke markers" d=" M 178 250 L 174 250" stroke-linecap="round" stroke-miterlimit="10" stroke-width="3"/><path fill="none" stroke="#01fd01" paint-order="fill stroke markers" d=" M 176 144 L 176 120" stroke-linecap="round" stroke-miterlimit="10" stroke-width="3"/><path fill="none" stroke="#01fd01" paint-order="fill stroke markers" d=" M 176 104 L 176 80" stroke-linecap="round" stroke-miterlimit="10" stroke-width="3"/><path fill="#01fd01" stroke="none" paint-order="stroke fill markers" d=" M 168 120 L 184 120 L 176 104 Z"/><path fill="none" stroke="#01fd01" paint-order="fill stroke markers" d=" M 168 104 L 184 104" stroke-linecap="round" stroke-miterlimit="10" stroke-width="3"/><path fill="none" stroke="#01fd01" paint-order="fill stroke markers" d=" M 176 144 L 152 144" stroke-linecap="round" stroke-miterlimit="10" stroke-width="3"/><path fill="none" stroke="#01fd01" paint-order="fill stroke markers" d=" M 120 144 L 96 144" stroke-linecap="round" stroke-miterlimit="10" stroke-width="3"/><g transform="matrix(-1,0,0,-1,152,144)"><path fill="none" stroke="url(#KGwgPnNzNqqm)" paint-order="fill stroke markers" d=" M 0 0 L 2 6 L 6 -6 L 10 6 L 14 -6 L 18 6 L 22 -6 L 26 6 L 30 -6 L 32 0" stroke-linecap="round" stroke-miterlimit="10" stroke-width="3"/></g><text fill="#ffffff" stroke="none" font-family="sans-serif" font-size="12px" font-style="normal" font-weight="normal" text-decoration="normal" x="126" y="134" text-anchor="start" dominant-baseline="alphabetic">470</text><g transform="scale(1,1) translate(-22,-46)"><g transform="translate(536,300)"><path fill="none" stroke="#404040" paint-order="fill stroke markers" d=" M 4.9 0 A 4.9 4.9 0 1 1 4.899997550000204 -0.004899999183336211" stroke-linecap="round" stroke-miterlimit="10" stroke-width="3"/><path fill="none" stroke="#404040" paint-order="fill stroke markers" d=" M -8 0 L -5 0" stroke-linecap="round" stroke-miterlimit="10" stroke-width="3"/><path fill="none" stroke="#404040" paint-order="fill stroke markers" d=" M 8 0 L 5 0" stroke-linecap="round" stroke-miterlimit="10" stroke-width="3"/><path fill="none" stroke="#404040" paint-order="fill stroke markers" d=" M 0 -8 L 0 -5" stroke-linecap="round" stroke-miterlimit="10" stroke-width="3"/><path fill="none" stroke="#404040" paint-order="fill stroke markers" d=" M 0 8 L 0 5" stroke-linecap="round" stroke-miterlimit="10" stroke-width="3"/><path fill="none" stroke="#404040" paint-order="fill stroke markers" d=" M -6 -6 L -4 -4" stroke-linecap="round" stroke-miterlimit="10" stroke-width="3"/><path fill="none" stroke="#404040" paint-order="fill stroke markers" d=" M 6 -6 L 4 -4" stroke-linecap="round" stroke-miterlimit="10" stroke-width="3"/><path fill="none" stroke="#404040" paint-order="fill stroke markers" d=" M -6 6 L -4 4" stroke-linecap="round" stroke-miterlimit="10" stroke-width="3"/><path fill="none" stroke="#404040" paint-order="fill stroke markers" d=" M 6 6 L 4 4" stroke-linecap="round" stroke-miterlimit="10" stroke-width="3"/></g><g transform="translate(518,62)" clip-path="url(#eaWpmePcfvnZ)"><g><path fill="none" stroke="#404040" paint-order="fill stroke markers" d=" M 0 242 L 335 242" stroke-linecap="round" stroke-miterlimit="10"/><path fill="none" stroke="#404040" paint-order="fill stroke markers" d=" M 0 219 L 335 219" stroke-linecap="round" stroke-miterlimit="10"/><path fill="none" stroke="#404040" paint-order="fill stroke markers" d=" M 0 196 L 335 196" stroke-linecap="round" stroke-miterlimit="10"/><path fill="none" stroke="#404040" paint-order="fill stroke markers" d=" M 0 173 L 335 173" stroke-linecap="round" stroke-miterlimit="10"/><path fill="none" stroke="#404040" paint-order="fill stroke markers" d=" M 0 150 L 335 150" stroke-linecap="round" stroke-miterlimit="10"/><path fill="none" stroke="#A0A0A0" paint-order="fill stroke markers" d=" M 0 127 L 335 127" stroke-linecap="round" stroke-miterlimit="10"/><path fill="none" stroke="#404040" paint-order="fill stroke markers" d=" M 0 104 L 335 104" stroke-linecap="round" stroke-miterlimit="10"/><path fill="none" stroke="#404040" paint-order="fill stroke markers" d=" M 0 81 L 335 81" stroke-linecap="round" stroke-miterlimit="10"/><path fill="none" stroke="#404040" paint-order="fill stroke markers" d=" M 0 58 L 335 58" stroke-linecap="round" stroke-miterlimit="10"/><path fill="none" stroke="#404040" paint-order="fill stroke markers" d=" M 0 35 L 335 35" stroke-linecap="round" stroke-miterlimit="10"/><path fill="none" stroke="#404040" paint-order="fill stroke markers" d=" M 0 12 L 335 12" stroke-linecap="round" stroke-miterlimit="10"/><path fill="none" stroke="#404040" paint-order="fill stroke markers" d=" M 317 0 L 317 255" stroke-linecap="round" stroke-miterlimit="10"/><path fill="none" stroke="#404040" paint-order="fill stroke markers" d=" M 292 0 L 292 255" stroke-linecap="round" stroke-miterlimit="10"/><path fill="none" stroke="#404040" paint-order="fill stroke markers" d=" M 267 0 L 267 255" stroke-linecap="round" stroke-miterlimit="10"/><path fill="none" stroke="#A0A0A0" paint-order="fill stroke markers" d=" M 242 0 L 242 255" stroke-linecap="round" stroke-miterlimit="10"/><path fill="none" stroke="#404040" paint-order="fill stroke markers" d=" M 217 0 L 217 255" stroke-linecap="round" stroke-miterlimit="10"/><path fill="none" stroke="#404040" paint-order="fill stroke markers" d=" M 192 0 L 192 255" stroke-linecap="round" stroke-miterlimit="10"/><path fill="none" stroke="#404040" paint-order="fill stroke markers" d=" M 167 0 L 167 255" stroke-linecap="round" stroke-miterlimit="10"/><path fill="none" stroke="#404040" paint-order="fill stroke markers" d=" M 142 0 L 142 255" stroke-linecap="round" stroke-miterlimit="10"/><path fill="none" stroke="#404040" paint-order="fill stroke markers" d=" M 117 0 L 117 255" stroke-linecap="round" stroke-miterlimit="10"/><path fill="none" stroke="#404040" paint-order="fill stroke markers" d=" M 92 0 L 92 255" stroke-linecap="round" stroke-miterlimit="10"/><path fill="none" stroke="#404040" paint-order="fill stroke markers" d=" M 67 0 L 67 255" stroke-linecap="round" stroke-miterlimit="10"/><path fill="none" stroke="#404040" paint-order="fill stroke markers" d=" M 42 0 L 42 255" stroke-linecap="round" stroke-miterlimit="10"/><path fill="none" stroke="#404040" paint-order="fill stroke markers" d=" M 17 0 L 17 255" stroke-linecap="round" stroke-miterlimit="10"/><path fill="none" stroke="#00ff00" paint-order="fill stroke markers" d=" M 0 35 L 149 35" stroke-linecap="round" stroke-miterlimit="10"/><path fill="none" stroke="#00ff00" paint-order="fill stroke markers" d=" M 149 219 L 149 35" stroke-linecap="round" stroke-miterlimit="10"/><path fill="none" stroke="#00ff00" paint-order="fill stroke markers" d=" M 150 219 L 305 219" stroke-linecap="round" stroke-miterlimit="10"/><path fill="none" stroke="#00ff00" paint-order="fill stroke markers" d=" M 305 219 L 305 35" stroke-linecap="round" stroke-miterlimit="10"/><path fill="none" stroke="#00ff00" paint-order="fill stroke markers" d=" M 306 35 L 335 35" stroke-linecap="round" stroke-miterlimit="10"/><path fill="none" stroke="#FF0000" paint-order="fill stroke markers" d=" M 0 64 L 149 64" stroke-linecap="round" stroke-miterlimit="10"/><path fill="none" stroke="#FF0000" paint-order="fill stroke markers" d=" M 149 133 L 149 64" stroke-linecap="round" stroke-miterlimit="10"/><path fill="none" stroke="#FF0000" paint-order="fill stroke markers" d=" M 150 133 L 305 133" stroke-linecap="round" stroke-miterlimit="10"/><path fill="none" stroke="#FF0000" paint-order="fill stroke markers" d=" M 305 133 L 305 64" stroke-linecap="round" stroke-miterlimit="10"/><path fill="none" stroke="#FF0000" paint-order="fill stroke markers" d=" M 306 64 L 335 64" stroke-linecap="round" stroke-miterlimit="10"/><text fill="#ffffff" stroke="none" font-family="sans-serif" font-size="12px" font-style="normal" font-weight="normal" text-decoration="normal" x="0" y="10" text-anchor="start" dominant-baseline="alphabetic">Max=8 V</text></g></g></g><path fill="none" stroke="#807f7f" paint-order="fill stroke markers" d=" M 224 224 L 224 200" stroke-linecap="round" stroke-miterlimit="10" stroke-width="3"/><path fill="none" stroke="#01fd01" paint-order="fill stroke markers" d=" M 224 168 L 224 144" stroke-linecap="round" stroke-miterlimit="10" stroke-width="3"/><g transform="matrix(0,-1,1,0,224,200)"><path fill="none" stroke="url(#dAuiiCRmPOBT)" paint-order="fill stroke markers" d=" M 0 0 L 2 6 L 6 -6 L 10 6 L 14 -6 L 18 6 L 22 -6 L 26 6 L 30 -6 L 32 0" stroke-linecap="round" stroke-miterlimit="10" stroke-width="3"/></g><text fill="#ffffff" stroke="none" font-family="sans-serif" font-size="12px" font-style="normal" font-weight="normal" text-decoration="normal" x="234" y="190" text-anchor="start" dominant-baseline="alphabetic">100k</text><path fill="none" stroke="#01fd01" paint-order="fill stroke markers" d=" M 176 144 L 224 144" stroke-linecap="round" stroke-miterlimit="10" stroke-width="3"/><text fill="#ffffff" stroke="none" font-family="sans-serif" font-size="12px" font-style="normal" font-weight="normal" text-decoration="normal" x="200" y="138" text-anchor="start" dominant-baseline="alphabetic"></text><path fill="none" stroke="#807f7f" paint-order="fill stroke markers" d=" M 224 224 L 224 240" stroke-linecap="round" stroke-miterlimit="10" stroke-width="3"/><path fill="none" stroke="#807f7f" paint-order="fill stroke markers" d=" M 234 240 L 214 240" stroke-linecap="round" stroke-miterlimit="10" stroke-width="3"/><path fill="none" stroke="#807f7f" paint-order="fill stroke markers" d=" M 230 245 L 218 245" stroke-linecap="round" stroke-miterlimit="10" stroke-width="3"/><path fill="none" stroke="#807f7f" paint-order="fill stroke markers" d=" M 226 250 L 222 250" stroke-linecap="round" stroke-miterlimit="10" stroke-width="3"/><path fill="#ffffff" stroke="none" paint-order="stroke fill markers" d=" M 227 144 A 3 3 0 1 1 226.99999999995774 143.99998407846124 Z"/><path fill="#ffffff" stroke="none" paint-order="stroke fill markers" d=" M 179 144 A 3 3 0 1 1 178.99999999995774 143.99998407846124 Z"/></g></g></svg>