<svg version="1.1" xmlns="http://www.w3.org/2000/svg" xmlns:xlink="http://www.w3.org/1999/xlink" width="898" height="564"><defs><linearGradient id="cwlyoGqRptkX" x1="0px" x2="32px" y1="0px" y2="0px" gradientUnits="userSpaceOnUse"><stop offset="0" stop-color="#8c7373"/><stop offset="1" stop-color="#ff0000"/></linearGradient><linearGradient id="uSRCeBZtDXWV" x1="0px" x2="32px" y1="0px" y2="0px" gradientUnits="userSpaceOnUse"><stop offset="0" stop-color="#8c7373"/><stop offset="1" stop-color="#807f7f"/></linearGradient><linearGradient id="DWbiTzfrHsLv" x1="0px" x2="32px" y1="0px" y2="0px" gradientUnits="userSpaceOnUse"><stop offset="0" stop-color="#01fd01"/><stop offset="1" stop-color="#02fc02"/></linearGradient><clipPath id="xbBoSDDZNgEw"><path fill="none" stroke="none" d=" M 0 0 L 144 0 L 144 160 L 0 160 L 0 0 Z"/></clipPath><linearGradient id="wKOChtRqfZLa" x1="0px" x2="32px" y1="0px" y2="0px" gradientUnits="userSpaceOnUse"><stop offset="0" stop-color="#807f7f"/><stop offset="1" stop-color="#807f7f"/></linearGradient></defs><g><rect fill="#000000" stroke="none" x="0" y="0" width="898" height="564"/><g transform="scale(1,1) translate(326,-222)"><path fill="none" stroke="#02fc02" paint-order="fill stroke markers" d=" M 224 592 L 211 602" stroke-linecap="round" stroke-miterlimit="10" stroke-width="3" stroke-dasharray=""/><path fill="none" stroke="#807f7f" paint-order="fill stroke markers" d=" M 224 624 L 211 614" stroke-linecap="round" stroke-miterlimit="10" stroke-width="3" stroke-dasharray=""/><path fill="#c0c0c0" stroke="none" paint-order="stroke fill markers" d=" M 224 624 L 220 616 L 215 622 Z"/><path fill="none" stroke="#8c7373" paint-order="fill stroke markers" d=" M 176 608 L 208 608" stroke-linecap="round" stroke-miterlimit="10" stroke-width="3" stroke-dasharray=""/><path fill="#8c7373" stroke="none" paint-order="stroke fill markers" d=" M 208 592 L 211 592 L 211 624 L 208 624 Z"/><path fill="none" stroke="#02fc02" paint-order="fill stroke markers" d=" M 224 592 L 304 592" stroke-linecap="round" stroke-miterlimit="10" stroke-width="3" stroke-dasharray=""/><text fill="#ffffff" stroke="none" font-family="sans-serif" font-size="12px" font-style="normal" font-weight="normal" text-decoration="normal" x="264" y="586" text-anchor="start" dominant-baseline="alphabetic"></text><path fill="none" stroke="#ff0000" paint-order="fill stroke markers" d=" M -64 624 L -207 624" stroke-linecap="round" stroke-miterlimit="10" stroke-width="3" stroke-dasharray=""/><path fill="none" stroke="#808080" paint-order="fill stroke markers" d=" M -207.34 624 A 16.66 16.66 0 1 1 -207.3400083299993 623.9833400027767" stroke-linecap="round" stroke-miterlimit="10" stroke-width="3" stroke-dasharray=""/><path fill="none" stroke="#808080" paint-order="fill stroke markers" d=" M -232 616 L -232 624" stroke-linecap="round" stroke-miterlimit="10" stroke-width="3" stroke-dasharray=""/><path fill="none" stroke="#808080" paint-order="fill stroke markers" d=" M -232 616 L -224 616" stroke-linecap="round" stroke-miterlimit="10" stroke-width="3" stroke-dasharray=""/><path fill="none" stroke="#808080" paint-order="fill stroke markers" d=" M -224 616 L -224 632" stroke-linecap="round" stroke-miterlimit="10" stroke-width="3" stroke-dasharray=""/><path fill="none" stroke="#808080" paint-order="fill stroke markers" d=" M -216 632 L -224 632" stroke-linecap="round" stroke-miterlimit="10" stroke-width="3" stroke-dasharray=""/><path fill="none" stroke="#808080" paint-order="fill stroke markers" d=" M -216 624 L -216 632" stroke-linecap="round" stroke-miterlimit="10" stroke-width="3" stroke-dasharray=""/><text fill="#ffffff" stroke="none" font-family="sans-serif" font-size="12px" font-style="normal" font-weight="normal" text-decoration="normal" x="-238" y="605" text-anchor="start" dominant-baseline="alphabetic">40Hz</text><path fill="none" stroke="#8c7373" paint-order="fill stroke markers" d=" M 80 608 L 64 608" stroke-linecap="round" stroke-miterlimit="10" stroke-width="3" stroke-dasharray=""/><path fill="none" stroke="#ff0000" paint-order="fill stroke markers" d=" M 32 608 L 16 608" stroke-linecap="round" stroke-miterlimit="10" stroke-width="3" stroke-dasharray=""/><g transform="matrix(-1,0,0,-1,64,608)"><path fill="none" stroke="url(#cwlyoGqRptkX)" paint-order="fill stroke markers" d=" M 0 0 L 2 6 L 6 -6 L 10 6 L 14 -6 L 18 6 L 22 -6 L 26 6 L 30 -6 L 32 0" stroke-linecap="round" stroke-miterlimit="10" stroke-width="3" stroke-dasharray=""/></g><text fill="#ffffff" stroke="none" font-family="sans-serif" font-size="12px" font-style="normal" font-weight="normal" text-decoration="normal" x="39" y="598" text-anchor="start" dominant-baseline="alphabetic">10k</text><path fill="none" stroke="#807f7f" paint-order="fill stroke markers" d=" M 224 624 L 224 736" stroke-linecap="round" stroke-miterlimit="10" stroke-width="3" stroke-dasharray=""/><path fill="none" stroke="#807f7f" paint-order="fill stroke markers" d=" M 234 736 L 214 736" stroke-linecap="round" stroke-miterlimit="10" stroke-width="3" stroke-dasharray=""/><path fill="none" stroke="#807f7f" paint-order="fill stroke markers" d=" M 230 741 L 218 741" stroke-linecap="round" stroke-miterlimit="10" stroke-width="3" stroke-dasharray=""/><path fill="none" stroke="#807f7f" paint-order="fill stroke markers" d=" M 226 746 L 222 746" stroke-linecap="round" stroke-miterlimit="10" stroke-width="3" stroke-dasharray=""/><path fill="none" stroke="#807f7f" paint-order="fill stroke markers" d=" M 176 704 L 176 664" stroke-linecap="round" stroke-miterlimit="10" stroke-width="3" stroke-dasharray=""/><path fill="none" stroke="#8c7373" paint-order="fill stroke markers" d=" M 176 648 L 176 608" stroke-linecap="round" stroke-miterlimit="10" stroke-width="3" stroke-dasharray=""/><path fill="#807f7f" stroke="none" paint-order="stroke fill markers" d=" M 168 664 L 184 664 L 176 648 Z"/><path fill="none" stroke="#8c7373" paint-order="fill stroke markers" d=" M 168 648 L 184 648" stroke-linecap="round" stroke-miterlimit="10" stroke-width="3" stroke-dasharray=""/><path fill="none" stroke="#807f7f" paint-order="fill stroke markers" d=" M 176 704 L 176 736" stroke-linecap="round" stroke-miterlimit="10" stroke-width="3" stroke-dasharray=""/><path fill="none" stroke="#807f7f" paint-order="fill stroke markers" d=" M 186 736 L 166 736" stroke-linecap="round" stroke-miterlimit="10" stroke-width="3" stroke-dasharray=""/><path fill="none" stroke="#807f7f" paint-order="fill stroke markers" d=" M 182 741 L 170 741" stroke-linecap="round" stroke-miterlimit="10" stroke-width="3" stroke-dasharray=""/><path fill="none" stroke="#807f7f" paint-order="fill stroke markers" d=" M 178 746 L 174 746" stroke-linecap="round" stroke-miterlimit="10" stroke-width="3" stroke-dasharray=""/><g><text fill="#c0c0c0" stroke="none" font-family="sans-serif" font-size="24px" font-style="normal" font-weight="normal" text-decoration="normal" x="268" y="305" text-anchor="start" dominant-baseline="alphabetic">Arduino</text></g><path fill="none" stroke="#8c7373" paint-order="fill stroke markers" d=" M 80 608 L 80 640" stroke-linecap="round" stroke-miterlimit="10" stroke-width="3" stroke-dasharray=""/><path fill="none" stroke="#807f7f" paint-order="fill stroke markers" d=" M 80 672 L 80 704" stroke-linecap="round" stroke-miterlimit="10" stroke-width="3" stroke-dasharray=""/><g transform="matrix(0,1,-1,0,80,640)"><path fill="none" stroke="url(#uSRCeBZtDXWV)" paint-order="fill stroke markers" d=" M 0 0 L 2 6 L 6 -6 L 10 6 L 14 -6 L 18 6 L 22 -6 L 26 6 L 30 -6 L 32 0" stroke-linecap="round" stroke-miterlimit="10" stroke-width="3" stroke-dasharray=""/></g><text fill="#ffffff" stroke="none" font-family="sans-serif" font-size="12px" font-style="normal" font-weight="normal" text-decoration="normal" x="90" y="662" text-anchor="start" dominant-baseline="alphabetic">100k</text><path fill="none" stroke="#807f7f" paint-order="fill stroke markers" d=" M 80 704 L 80 736" stroke-linecap="round" stroke-miterlimit="10" stroke-width="3" stroke-dasharray=""/><path fill="none" stroke="#807f7f" paint-order="fill stroke markers" d=" M 90 736 L 70 736" stroke-linecap="round" stroke-miterlimit="10" stroke-width="3" stroke-dasharray=""/><path fill="none" stroke="#807f7f" paint-order="fill stroke markers" d=" M 86 741 L 74 741" stroke-linecap="round" stroke-miterlimit="10" stroke-width="3" stroke-dasharray=""/><path fill="none" stroke="#807f7f" paint-order="fill stroke markers" d=" M 82 746 L 78 746" stroke-linecap="round" stroke-miterlimit="10" stroke-width="3" stroke-dasharray=""/><path fill="none" stroke="#8c7373" paint-order="fill stroke markers" d=" M 176 608 L 80 608" stroke-linecap="round" stroke-miterlimit="10" stroke-width="3" stroke-dasharray=""/><text fill="#ffffff" stroke="none" font-family="sans-serif" font-size="12px" font-style="normal" font-weight="normal" text-decoration="normal" x="128" y="602" text-anchor="start" dominant-baseline="alphabetic"></text><rect fill="none" stroke="#808080" x="-99" y="565" width="107" height="107" stroke-linecap="round" stroke-miterlimit="10" stroke-dasharray="16,6"/><path fill="none" stroke="#ff0000" paint-order="fill stroke markers" d=" M 16 608 L -8 608" stroke-linecap="round" stroke-miterlimit="10" stroke-width="3"/><path fill="none" stroke="#ff0000" paint-order="fill stroke markers" d=" M -40 624 L -64 624" stroke-linecap="round" stroke-miterlimit="10" stroke-width="3"/><path fill="none" stroke="#07f707" paint-order="fill stroke markers" d=" M -40 592 L -64 592" stroke-linecap="round" stroke-miterlimit="10" stroke-width="3"/><path fill="none" stroke="#ffffff" paint-order="fill stroke markers" d=" M -8 608 L -40 624" stroke-linecap="round" stroke-miterlimit="10" stroke-width="3"/><path fill="none" stroke="#07f707" paint-order="fill stroke markers" d=" M -64 592 L -64 352" stroke-linecap="round" stroke-miterlimit="10" stroke-width="3"/><text fill="#ffffff" stroke="none" font-family="sans-serif" font-size="12px" font-style="normal" font-weight="normal" text-decoration="normal" x="-58" y="478" text-anchor="start" dominant-baseline="alphabetic"></text><path fill="none" stroke="#807f7f" paint-order="fill stroke markers" d=" M 48 368 L 304 368" stroke-linecap="round" stroke-miterlimit="10" stroke-width="3"/><text fill="#ffffff" stroke="none" font-family="sans-serif" font-size="12px" font-style="normal" font-weight="normal" text-decoration="normal" x="176" y="362" text-anchor="start" dominant-baseline="alphabetic"></text><path fill="none" stroke="#01fd01" paint-order="fill stroke markers" d=" M 304 528 L 304 544" stroke-linecap="round" stroke-miterlimit="10" stroke-width="3"/><path fill="none" stroke="#02fc02" paint-order="fill stroke markers" d=" M 304 576 L 304 592" stroke-linecap="round" stroke-miterlimit="10" stroke-width="3"/><g transform="matrix(0,1,-1,0,304,544)"><path fill="none" stroke="url(#DWbiTzfrHsLv)" paint-order="fill stroke markers" d=" M 0 0 L 2 6 L 6 -6 L 10 6 L 14 -6 L 18 6 L 22 -6 L 26 6 L 30 -6 L 32 0" stroke-linecap="round" stroke-miterlimit="10" stroke-width="3"/></g><text fill="#ffffff" stroke="none" font-family="sans-serif" font-size="12px" font-style="normal" font-weight="normal" text-decoration="normal" x="314" y="566" text-anchor="start" dominant-baseline="alphabetic">1M</text><path fill="none" stroke="#01fd01" paint-order="fill stroke markers" d=" M 304 528 L 304 513" stroke-linecap="round" stroke-miterlimit="10" stroke-width="3"/><g><text fill="#ffffff" stroke="none" font-family="sans-serif" font-size="12px" font-style="normal" font-weight="normal" text-decoration="normal" x="294" y="501" text-anchor="start" dominant-baseline="central">+5V</text></g><g><g><text fill="#c0c0c0" stroke="none" font-family="sans-serif" font-size="20px" font-style="normal" font-weight="bold" text-decoration="normal" x="352" y="368" text-anchor="middle" dominant-baseline="central">L</text></g><path fill="none" stroke="#807f7f" paint-order="fill stroke markers" d=" M 304 368 L 340 368" stroke-linecap="round" stroke-miterlimit="10" stroke-width="3"/></g><g><g><text fill="#c0c0c0" stroke="none" font-family="sans-serif" font-size="20px" font-style="normal" font-weight="bold" text-decoration="normal" x="352" y="592" text-anchor="middle" dominant-baseline="central">H</text></g><path fill="none" stroke="#02fc02" paint-order="fill stroke markers" d=" M 304 592 L 340 592" stroke-linecap="round" stroke-miterlimit="10" stroke-width="3"/></g><rect fill="none" stroke="#808080" x="251" y="272" width="251" height="363" stroke-linecap="round" stroke-miterlimit="10" stroke-dasharray="16,6"/><g><text fill="#c0c0c0" stroke="none" font-family="sans-serif" font-size="12px" font-style="normal" font-weight="normal" text-decoration="normal" x="374" y="593" text-anchor="start" dominant-baseline="alphabetic">INPUT_PULLUP</text></g><g><text fill="#c0c0c0" stroke="none" font-family="sans-serif" font-size="12px" font-style="normal" font-weight="normal" text-decoration="normal" x="-119" y="698" text-anchor="start" dominant-baseline="alphabetic">Input Jack With Breaking Pin</text></g><g transform="scale(1,1) translate(-326,222)"><g transform="translate(88,352)"><path fill="none" stroke="#404040" paint-order="fill stroke markers" d=" M 4.9 0 A 4.9 4.9 0 1 1 4.899997550000204 -0.004899999183336211" stroke-linecap="round" stroke-miterlimit="10" stroke-width="3"/><path fill="none" stroke="#404040" paint-order="fill stroke markers" d=" M -8 0 L -5 0" stroke-linecap="round" stroke-miterlimit="10" stroke-width="3"/><path fill="none" stroke="#404040" paint-order="fill stroke markers" d=" M 8 0 L 5 0" stroke-linecap="round" stroke-miterlimit="10" stroke-width="3"/><path fill="none" stroke="#404040" paint-order="fill stroke markers" d=" M 0 -8 L 0 -5" stroke-linecap="round" stroke-miterlimit="10" stroke-width="3"/><path fill="none" stroke="#404040" paint-order="fill stroke markers" d=" M 0 8 L 0 5" stroke-linecap="round" stroke-miterlimit="10" stroke-width="3"/><path fill="none" stroke="#404040" paint-order="fill stroke markers" d=" M -6 -6 L -4 -4" stroke-linecap="round" stroke-miterlimit="10" stroke-width="3"/><path fill="none" stroke="#404040" paint-order="fill stroke markers" d=" M 6 -6 L 4 -4" stroke-linecap="round" stroke-miterlimit="10" stroke-width="3"/><path fill="none" stroke="#404040" paint-order="fill stroke markers" d=" M -6 6 L -4 4" stroke-linecap="round" stroke-miterlimit="10" stroke-width="3"/><path fill="none" stroke="#404040" paint-order="fill stroke markers" d=" M 6 6 L 4 4" stroke-linecap="round" stroke-miterlimit="10" stroke-width="3"/></g><g transform="translate(70,210)" clip-path="url(#xbBoSDDZNgEw)"><g><path fill="none" stroke="#404040" paint-order="fill stroke markers" d=" M 0 150 L 143 150" stroke-linecap="round" stroke-miterlimit="10"/><path fill="none" stroke="#404040" paint-order="fill stroke markers" d=" M 0 114 L 143 114" stroke-linecap="round" stroke-miterlimit="10"/><path fill="none" stroke="#A0A0A0" paint-order="fill stroke markers" d=" M 0 79 L 143 79" stroke-linecap="round" stroke-miterlimit="10"/><path fill="none" stroke="#404040" paint-order="fill stroke markers" d=" M 0 44 L 143 44" stroke-linecap="round" stroke-miterlimit="10"/><path fill="none" stroke="#404040" paint-order="fill stroke markers" d=" M 0 8 L 143 8" stroke-linecap="round" stroke-miterlimit="10"/><path fill="none" stroke="#404040" paint-order="fill stroke markers" d=" M 138 0 L 138 159" stroke-linecap="round" stroke-miterlimit="10"/><path fill="none" stroke="#404040" paint-order="fill stroke markers" d=" M 113 0 L 113 159" stroke-linecap="round" stroke-miterlimit="10"/><path fill="none" stroke="#404040" paint-order="fill stroke markers" d=" M 88 0 L 88 159" stroke-linecap="round" stroke-miterlimit="10"/><path fill="none" stroke="#404040" paint-order="fill stroke markers" d=" M 63 0 L 63 159" stroke-linecap="round" stroke-miterlimit="10"/><path fill="none" stroke="#A0A0A0" paint-order="fill stroke markers" d=" M 38 0 L 38 159" stroke-linecap="round" stroke-miterlimit="10"/><path fill="none" stroke="#404040" paint-order="fill stroke markers" d=" M 13 0 L 13 159" stroke-linecap="round" stroke-miterlimit="10"/><path fill="none" stroke="#00ff00" paint-order="fill stroke markers" d=" M 0 8 L 7 8" stroke-linecap="round" stroke-miterlimit="10"/><path fill="none" stroke="#00ff00" paint-order="fill stroke markers" d=" M 7 150 L 7 8" stroke-linecap="round" stroke-miterlimit="10"/><path fill="none" stroke="#00ff00" paint-order="fill stroke markers" d=" M 8 150 L 143 150" stroke-linecap="round" stroke-miterlimit="10"/><text fill="#ffffff" stroke="none" font-family="sans-serif" font-size="12px" font-style="normal" font-weight="normal" text-decoration="normal" x="0" y="10" text-anchor="start" dominant-baseline="alphabetic">Max=10 V</text></g></g></g><g><text fill="#c0c0c0" stroke="none" font-family="sans-serif" font-size="12px" font-style="normal" font-weight="normal" text-decoration="normal" x="299" y="392" text-anchor="start" dominant-baseline="alphabetic">Checks if cable is inserted</text></g><path fill="none" stroke="#807f7f" paint-order="fill stroke markers" d=" M 48 368 L 35 358" stroke-linecap="round" stroke-miterlimit="10" stroke-width="3"/><path fill="none" stroke="#01fd01" paint-order="fill stroke markers" d=" M 48 336 L 35 346" stroke-linecap="round" stroke-miterlimit="10" stroke-width="3"/><path fill="#c0c0c0" stroke="none" paint-order="stroke fill markers" d=" M 37 347 L 45 344 L 40 338 Z"/><path fill="none" stroke="#07f707" paint-order="fill stroke markers" d=" M -16 352 L 32 352" stroke-linecap="round" stroke-miterlimit="10" stroke-width="3"/><path fill="#07f707" stroke="none" paint-order="stroke fill markers" d=" M 32 336 L 35 336 L 35 368 L 32 368 Z"/><path fill="none" stroke="#807f7f" paint-order="fill stroke markers" d=" M 48 368 L 48 400" stroke-linecap="round" stroke-miterlimit="10" stroke-width="3"/><path fill="none" stroke="#807f7f" paint-order="fill stroke markers" d=" M 48 432 L 48 464" stroke-linecap="round" stroke-miterlimit="10" stroke-width="3"/><g transform="matrix(0,1,-1,0,48,400)"><path fill="none" stroke="url(#wKOChtRqfZLa)" paint-order="fill stroke markers" d=" M 0 0 L 2 6 L 6 -6 L 10 6 L 14 -6 L 18 6 L 22 -6 L 26 6 L 30 -6 L 32 0" stroke-linecap="round" stroke-miterlimit="10" stroke-width="3"/></g><text fill="#ffffff" stroke="none" font-family="sans-serif" font-size="12px" font-style="normal" font-weight="normal" text-decoration="normal" x="58" y="422" text-anchor="start" dominant-baseline="alphabetic">100k</text><path fill="none" stroke="#01fd01" paint-order="fill stroke markers" d=" M 48 336 L 48 305" stroke-linecap="round" stroke-miterlimit="10" stroke-width="3"/><g><text fill="#ffffff" stroke="none" font-family="sans-serif" font-size="12px" font-style="normal" font-weight="normal" text-decoration="normal" x="38" y="293" text-anchor="start" dominant-baseline="central">+5V</text></g><path fill="none" stroke="#07f707" paint-order="fill stroke markers" d=" M -16 352 L -64 352" stroke-linecap="round" stroke-miterlimit="10" stroke-width="3"/><text fill="#ffffff" stroke="none" font-family="sans-serif" font-size="12px" font-style="normal" font-weight="normal" text-decoration="normal" x="-40" y="346" text-anchor="start" dominant-baseline="alphabetic"></text><path fill="none" stroke="#807f7f" paint-order="fill stroke markers" d=" M 48 464 L 48 480" stroke-linecap="round" stroke-miterlimit="10" stroke-width="3"/><path fill="none" stroke="#807f7f" paint-order="fill stroke markers" d=" M 58 480 L 38 480" stroke-linecap="round" stroke-miterlimit="10" stroke-width="3"/><path fill="none" stroke="#807f7f" paint-order="fill stroke markers" d=" M 54 485 L 42 485" stroke-linecap="round" stroke-miterlimit="10" stroke-width="3"/><path fill="none" stroke="#807f7f" paint-order="fill stroke markers" d=" M 50 490 L 46 490" stroke-linecap="round" stroke-miterlimit="10" stroke-width="3"/><path fill="#ffffff" stroke="none" paint-order="stroke fill markers" d=" M 179 608 A 3 3 0 1 1 178.99999999995774 607.9999840784612 Z"/><path fill="#ffffff" stroke="none" paint-order="stroke fill markers" d=" M 307 592 A 3 3 0 1 1 306.99999999995777 591.9999840784612 Z"/><path fill="#ffffff" stroke="none" paint-order="stroke fill markers" d=" M 83 608 A 3 3 0 1 1 82.99999999995775 607.9999840784612 Z"/><path fill="#ffffff" stroke="none" paint-order="stroke fill markers" d=" M 51 368 A 3 3 0 1 1 50.99999999995775 367.99998407846124 Z"/></g></g></svg>