<svg version="1.1" xmlns="http://www.w3.org/2000/svg" xmlns:xlink="http://www.w3.org/1999/xlink" width="901" height="518"><defs><linearGradient id="ZfcuBDCMeQkA" x1="0px" x2="32px" y1="0px" y2="0px" gradientUnits="userSpaceOnUse"><stop offset="0" stop-color="#718e71"/><stop offset="1" stop-color="#01fd01"/></linearGradient><linearGradient id="DXtVOLwoFXBp" x1="0px" x2="32px" y1="0px" y2="0px" gradientUnits="userSpaceOnUse"><stop offset="0" stop-color="#718e71"/><stop offset="1" stop-color="#807f7f"/></linearGradient><linearGradient id="diWqppvecWrP" x1="0px" x2="32px" y1="0px" y2="0px" gradientUnits="userSpaceOnUse"><stop offset="0" stop-color="#01fd01"/><stop offset="1" stop-color="#807f7f"/></linearGradient><linearGradient id="ruXgLhfdeNMB" x1="0px" x2="32px" y1="0px" y2="0px" gradientUnits="userSpaceOnUse"><stop offset="0" stop-color="#01fd01"/><stop offset="1" stop-color="#01fd01"/></linearGradient><linearGradient id="VNsUnsgwOTXS" x1="0px" x2="32px" y1="0px" y2="0px" gradientUnits="userSpaceOnUse"><stop offset="0" stop-color="#01fd01"/><stop offset="1" stop-color="#01fd01"/></linearGradient><clipPath id="MogOvyctzMtp"><path fill="none" stroke="none" d=" M 0 0 L 144 0 L 144 160 L 0 160 L 0 0 Z"/></clipPath></defs><g><rect fill="#000000" stroke="none" x="0" y="0" width="901" height="518"/><g transform="scale(1,1) translate(326,-268)"><path fill="none" stroke="#807f7f" paint-order="fill stroke markers" d=" M 224 592 L 211 602" stroke-linecap="round" stroke-miterlimit="10" stroke-width="3" stroke-dasharray=""/><path fill="none" stroke="#807f7f" paint-order="fill stroke markers" d=" M 224 624 L 211 614" stroke-linecap="round" stroke-miterlimit="10" stroke-width="3" stroke-dasharray=""/><path fill="#c0c0c0" stroke="none" paint-order="stroke fill markers" d=" M 224 624 L 220 616 L 215 622 Z"/><path fill="none" stroke="#718e71" paint-order="fill stroke markers" d=" M 176 608 L 208 608" stroke-linecap="round" stroke-miterlimit="10" stroke-width="3" stroke-dasharray=""/><path fill="#718e71" stroke="none" paint-order="stroke fill markers" d=" M 208 592 L 211 592 L 211 624 L 208 624 Z"/><path fill="none" stroke="#807f7f" paint-order="fill stroke markers" d=" M 224 592 L 304 592" stroke-linecap="round" stroke-miterlimit="10" stroke-width="3" stroke-dasharray=""/><text fill="#ffffff" stroke="none" font-family="sans-serif" font-size="12px" font-style="normal" font-weight="normal" text-decoration="normal" x="264" y="586" text-anchor="start" dominant-baseline="alphabetic"></text><path fill="none" stroke="#01fd01" paint-order="fill stroke markers" d=" M 304 368 L 304 353" stroke-linecap="round" stroke-miterlimit="10" stroke-width="3" stroke-dasharray=""/><g><text fill="#ffffff" stroke="none" font-family="sans-serif" font-size="12px" font-style="normal" font-weight="normal" text-decoration="normal" x="294" y="341" text-anchor="start" dominant-baseline="central">+5V</text></g><path fill="none" stroke="#01fd01" paint-order="fill stroke markers" d=" M -64 624 L -207 624" stroke-linecap="round" stroke-miterlimit="10" stroke-width="3" stroke-dasharray=""/><path fill="none" stroke="#808080" paint-order="fill stroke markers" d=" M -207.34 624 A 16.66 16.66 0 1 1 -207.3400083299993 623.9833400027767" stroke-linecap="round" stroke-miterlimit="10" stroke-width="3" stroke-dasharray=""/><path fill="none" stroke="#808080" paint-order="fill stroke markers" d=" M -232 616 L -232 624" stroke-linecap="round" stroke-miterlimit="10" stroke-width="3" stroke-dasharray=""/><path fill="none" stroke="#808080" paint-order="fill stroke markers" d=" M -232 616 L -224 616" stroke-linecap="round" stroke-miterlimit="10" stroke-width="3" stroke-dasharray=""/><path fill="none" stroke="#808080" paint-order="fill stroke markers" d=" M -224 616 L -224 632" stroke-linecap="round" stroke-miterlimit="10" stroke-width="3" stroke-dasharray=""/><path fill="none" stroke="#808080" paint-order="fill stroke markers" d=" M -216 632 L -224 632" stroke-linecap="round" stroke-miterlimit="10" stroke-width="3" stroke-dasharray=""/><path fill="none" stroke="#808080" paint-order="fill stroke markers" d=" M -216 624 L -216 632" stroke-linecap="round" stroke-miterlimit="10" stroke-width="3" stroke-dasharray=""/><text fill="#ffffff" stroke="none" font-family="sans-serif" font-size="12px" font-style="normal" font-weight="normal" text-decoration="normal" x="-238" y="605" text-anchor="start" dominant-baseline="alphabetic">40Hz</text><path fill="none" stroke="#718e71" paint-order="fill stroke markers" d=" M 80 608 L 64 608" stroke-linecap="round" stroke-miterlimit="10" stroke-width="3" stroke-dasharray=""/><path fill="none" stroke="#01fd01" paint-order="fill stroke markers" d=" M 32 608 L 16 608" stroke-linecap="round" stroke-miterlimit="10" stroke-width="3" stroke-dasharray=""/><g transform="matrix(-1,0,0,-1,64,608)"><path fill="none" stroke="url(#ZfcuBDCMeQkA)" paint-order="fill stroke markers" d=" M 0 0 L 2 6 L 6 -6 L 10 6 L 14 -6 L 18 6 L 22 -6 L 26 6 L 30 -6 L 32 0" stroke-linecap="round" stroke-miterlimit="10" stroke-width="3" stroke-dasharray=""/></g><text fill="#ffffff" stroke="none" font-family="sans-serif" font-size="12px" font-style="normal" font-weight="normal" text-decoration="normal" x="39" y="598" text-anchor="start" dominant-baseline="alphabetic">10k</text><path fill="none" stroke="#807f7f" paint-order="fill stroke markers" d=" M 224 624 L 224 736" stroke-linecap="round" stroke-miterlimit="10" stroke-width="3" stroke-dasharray=""/><path fill="none" stroke="#807f7f" paint-order="fill stroke markers" d=" M 234 736 L 214 736" stroke-linecap="round" stroke-miterlimit="10" stroke-width="3" stroke-dasharray=""/><path fill="none" stroke="#807f7f" paint-order="fill stroke markers" d=" M 230 741 L 218 741" stroke-linecap="round" stroke-miterlimit="10" stroke-width="3" stroke-dasharray=""/><path fill="none" stroke="#807f7f" paint-order="fill stroke markers" d=" M 226 746 L 222 746" stroke-linecap="round" stroke-miterlimit="10" stroke-width="3" stroke-dasharray=""/><path fill="none" stroke="#807f7f" paint-order="fill stroke markers" d=" M 176 704 L 176 664" stroke-linecap="round" stroke-miterlimit="10" stroke-width="3" stroke-dasharray=""/><path fill="none" stroke="#718e71" paint-order="fill stroke markers" d=" M 176 648 L 176 608" stroke-linecap="round" stroke-miterlimit="10" stroke-width="3" stroke-dasharray=""/><path fill="#807f7f" stroke="none" paint-order="stroke fill markers" d=" M 168 664 L 184 664 L 176 648 Z"/><path fill="none" stroke="#718e71" paint-order="fill stroke markers" d=" M 168 648 L 184 648" stroke-linecap="round" stroke-miterlimit="10" stroke-width="3" stroke-dasharray=""/><path fill="none" stroke="#807f7f" paint-order="fill stroke markers" d=" M 176 704 L 176 736" stroke-linecap="round" stroke-miterlimit="10" stroke-width="3" stroke-dasharray=""/><path fill="none" stroke="#807f7f" paint-order="fill stroke markers" d=" M 186 736 L 166 736" stroke-linecap="round" stroke-miterlimit="10" stroke-width="3" stroke-dasharray=""/><path fill="none" stroke="#807f7f" paint-order="fill stroke markers" d=" M 182 741 L 170 741" stroke-linecap="round" stroke-miterlimit="10" stroke-width="3" stroke-dasharray=""/><path fill="none" stroke="#807f7f" paint-order="fill stroke markers" d=" M 178 746 L 174 746" stroke-linecap="round" stroke-miterlimit="10" stroke-width="3" stroke-dasharray=""/><g><text fill="#c0c0c0" stroke="none" font-family="sans-serif" font-size="24px" font-style="normal" font-weight="normal" text-decoration="normal" x="385" y="352" text-anchor="start" dominant-baseline="alphabetic">Arduino</text></g><path fill="none" stroke="#718e71" paint-order="fill stroke markers" d=" M 80 608 L 80 640" stroke-linecap="round" stroke-miterlimit="10" stroke-width="3" stroke-dasharray=""/><path fill="none" stroke="#807f7f" paint-order="fill stroke markers" d=" M 80 672 L 80 704" stroke-linecap="round" stroke-miterlimit="10" stroke-width="3" stroke-dasharray=""/><g transform="matrix(0,1,-1,0,80,640)"><path fill="none" stroke="url(#DXtVOLwoFXBp)" paint-order="fill stroke markers" d=" M 0 0 L 2 6 L 6 -6 L 10 6 L 14 -6 L 18 6 L 22 -6 L 26 6 L 30 -6 L 32 0" stroke-linecap="round" stroke-miterlimit="10" stroke-width="3" stroke-dasharray=""/></g><text fill="#ffffff" stroke="none" font-family="sans-serif" font-size="12px" font-style="normal" font-weight="normal" text-decoration="normal" x="90" y="662" text-anchor="start" dominant-baseline="alphabetic">100k</text><path fill="none" stroke="#807f7f" paint-order="fill stroke markers" d=" M 80 704 L 80 736" stroke-linecap="round" stroke-miterlimit="10" stroke-width="3" stroke-dasharray=""/><path fill="none" stroke="#807f7f" paint-order="fill stroke markers" d=" M 90 736 L 70 736" stroke-linecap="round" stroke-miterlimit="10" stroke-width="3" stroke-dasharray=""/><path fill="none" stroke="#807f7f" paint-order="fill stroke markers" d=" M 86 741 L 74 741" stroke-linecap="round" stroke-miterlimit="10" stroke-width="3" stroke-dasharray=""/><path fill="none" stroke="#807f7f" paint-order="fill stroke markers" d=" M 82 746 L 78 746" stroke-linecap="round" stroke-miterlimit="10" stroke-width="3" stroke-dasharray=""/><path fill="none" stroke="#718e71" paint-order="fill stroke markers" d=" M 176 608 L 80 608" stroke-linecap="round" stroke-miterlimit="10" stroke-width="3" stroke-dasharray=""/><text fill="#ffffff" stroke="none" font-family="sans-serif" font-size="12px" font-style="normal" font-weight="normal" text-decoration="normal" x="128" y="602" text-anchor="start" dominant-baseline="alphabetic"></text><rect fill="none" stroke="#808080" x="-99" y="565" width="107" height="107" stroke-linecap="round" stroke-miterlimit="10" stroke-dasharray="16,6"/><path fill="none" stroke="#01fd01" paint-order="fill stroke markers" d=" M 16 608 L -8 608" stroke-linecap="round" stroke-miterlimit="10" stroke-width="3"/><path fill="none" stroke="#01fd01" paint-order="fill stroke markers" d=" M -40 624 L -64 624" stroke-linecap="round" stroke-miterlimit="10" stroke-width="3"/><path fill="none" stroke="#01fd01" paint-order="fill stroke markers" d=" M -40 592 L -64 592" stroke-linecap="round" stroke-miterlimit="10" stroke-width="3"/><path fill="none" stroke="#ffffff" paint-order="fill stroke markers" d=" M -8 608 L -40 624" stroke-linecap="round" stroke-miterlimit="10" stroke-width="3"/><path fill="none" stroke="#01fd01" paint-order="fill stroke markers" d=" M -64 592 L -64 432" stroke-linecap="round" stroke-miterlimit="10" stroke-width="3"/><text fill="#ffffff" stroke="none" font-family="sans-serif" font-size="12px" font-style="normal" font-weight="normal" text-decoration="normal" x="-58" y="518" text-anchor="start" dominant-baseline="alphabetic"></text><path fill="none" stroke="#01fd01" paint-order="fill stroke markers" d=" M 48 432 L 304 432" stroke-linecap="round" stroke-miterlimit="10" stroke-width="3"/><text fill="#ffffff" stroke="none" font-family="sans-serif" font-size="12px" font-style="normal" font-weight="normal" text-decoration="normal" x="176" y="426" text-anchor="start" dominant-baseline="alphabetic"></text><path fill="none" stroke="#01fd01" paint-order="fill stroke markers" d=" M 304 528 L 304 544" stroke-linecap="round" stroke-miterlimit="10" stroke-width="3"/><path fill="none" stroke="#807f7f" paint-order="fill stroke markers" d=" M 304 576 L 304 592" stroke-linecap="round" stroke-miterlimit="10" stroke-width="3"/><g transform="matrix(0,1,-1,0,304,544)"><path fill="none" stroke="url(#diWqppvecWrP)" paint-order="fill stroke markers" d=" M 0 0 L 2 6 L 6 -6 L 10 6 L 14 -6 L 18 6 L 22 -6 L 26 6 L 30 -6 L 32 0" stroke-linecap="round" stroke-miterlimit="10" stroke-width="3"/></g><text fill="#ffffff" stroke="none" font-family="sans-serif" font-size="12px" font-style="normal" font-weight="normal" text-decoration="normal" x="314" y="566" text-anchor="start" dominant-baseline="alphabetic">1M</text><path fill="none" stroke="#01fd01" paint-order="fill stroke markers" d=" M 304 368 L 304 384" stroke-linecap="round" stroke-miterlimit="10" stroke-width="3"/><path fill="none" stroke="#01fd01" paint-order="fill stroke markers" d=" M 304 416 L 304 432" stroke-linecap="round" stroke-miterlimit="10" stroke-width="3"/><g transform="matrix(0,1,-1,0,304,384)"><path fill="none" stroke="url(#ruXgLhfdeNMB)" paint-order="fill stroke markers" d=" M 0 0 L 2 6 L 6 -6 L 10 6 L 14 -6 L 18 6 L 22 -6 L 26 6 L 30 -6 L 32 0" stroke-linecap="round" stroke-miterlimit="10" stroke-width="3"/></g><text fill="#ffffff" stroke="none" font-family="sans-serif" font-size="12px" font-style="normal" font-weight="normal" text-decoration="normal" x="314" y="406" text-anchor="start" dominant-baseline="alphabetic">1M</text><path fill="none" stroke="#01fd01" paint-order="fill stroke markers" d=" M 304 528 L 304 513" stroke-linecap="round" stroke-miterlimit="10" stroke-width="3"/><g><text fill="#ffffff" stroke="none" font-family="sans-serif" font-size="12px" font-style="normal" font-weight="normal" text-decoration="normal" x="294" y="501" text-anchor="start" dominant-baseline="central">+5V</text></g><path fill="none" stroke="#01fd01" paint-order="fill stroke markers" d=" M -64 432 L -24 432" stroke-linecap="round" stroke-miterlimit="10" stroke-width="3"/><path fill="none" stroke="#01fd01" paint-order="fill stroke markers" d=" M 8 432 L 48 432" stroke-linecap="round" stroke-miterlimit="10" stroke-width="3"/><g transform="matrix(1,0,0,1,-24,432)"><path fill="none" stroke="url(#VNsUnsgwOTXS)" paint-order="fill stroke markers" d=" M 0 0 L 2 6 L 6 -6 L 10 6 L 14 -6 L 18 6 L 22 -6 L 26 6 L 30 -6 L 32 0" stroke-linecap="round" stroke-miterlimit="10" stroke-width="3"/></g><text fill="#ffffff" stroke="none" font-family="sans-serif" font-size="12px" font-style="normal" font-weight="normal" text-decoration="normal" x="-17" y="422" text-anchor="start" dominant-baseline="alphabetic">10k</text><g><g><text fill="#c0c0c0" stroke="none" font-family="sans-serif" font-size="20px" font-style="normal" font-weight="bold" text-decoration="normal" x="352" y="432" text-anchor="middle" dominant-baseline="central">H</text></g><path fill="none" stroke="#01fd01" paint-order="fill stroke markers" d=" M 304 432 L 340 432" stroke-linecap="round" stroke-miterlimit="10" stroke-width="3"/></g><g><g><text fill="#c0c0c0" stroke="none" font-family="sans-serif" font-size="20px" font-style="normal" font-weight="bold" text-decoration="normal" x="352" y="592" text-anchor="middle" dominant-baseline="central">L</text></g><path fill="none" stroke="#807f7f" paint-order="fill stroke markers" d=" M 304 592 L 340 592" stroke-linecap="round" stroke-miterlimit="10" stroke-width="3"/></g><rect fill="none" stroke="#808080" x="254" y="318" width="251" height="347" stroke-linecap="round" stroke-miterlimit="10" stroke-dasharray="16,6"/><g><text fill="#c0c0c0" stroke="none" font-family="sans-serif" font-size="12px" font-style="normal" font-weight="normal" text-decoration="normal" x="380" y="435" text-anchor="start" dominant-baseline="alphabetic">INPUT_PULLUP</text></g><g><text fill="#c0c0c0" stroke="none" font-family="sans-serif" font-size="12px" font-style="normal" font-weight="normal" text-decoration="normal" x="374" y="593" text-anchor="start" dominant-baseline="alphabetic">INPUT_PULLUP</text></g><g><text fill="#c0c0c0" stroke="none" font-family="sans-serif" font-size="12px" font-style="normal" font-weight="normal" text-decoration="normal" x="-119" y="698" text-anchor="start" dominant-baseline="alphabetic">Input Jack With Breaking Pin</text></g><g transform="scale(1,1) translate(-326,268)"><g transform="translate(88,306)"><path fill="none" stroke="#404040" paint-order="fill stroke markers" d=" M 4.9 0 A 4.9 4.9 0 1 1 4.899997550000204 -0.004899999183336211" stroke-linecap="round" stroke-miterlimit="10" stroke-width="3"/><path fill="none" stroke="#404040" paint-order="fill stroke markers" d=" M -8 0 L -5 0" stroke-linecap="round" stroke-miterlimit="10" stroke-width="3"/><path fill="none" stroke="#404040" paint-order="fill stroke markers" d=" M 8 0 L 5 0" stroke-linecap="round" stroke-miterlimit="10" stroke-width="3"/><path fill="none" stroke="#404040" paint-order="fill stroke markers" d=" M 0 -8 L 0 -5" stroke-linecap="round" stroke-miterlimit="10" stroke-width="3"/><path fill="none" stroke="#404040" paint-order="fill stroke markers" d=" M 0 8 L 0 5" stroke-linecap="round" stroke-miterlimit="10" stroke-width="3"/><path fill="none" stroke="#404040" paint-order="fill stroke markers" d=" M -6 -6 L -4 -4" stroke-linecap="round" stroke-miterlimit="10" stroke-width="3"/><path fill="none" stroke="#404040" paint-order="fill stroke markers" d=" M 6 -6 L 4 -4" stroke-linecap="round" stroke-miterlimit="10" stroke-width="3"/><path fill="none" stroke="#404040" paint-order="fill stroke markers" d=" M -6 6 L -4 4" stroke-linecap="round" stroke-miterlimit="10" stroke-width="3"/><path fill="none" stroke="#404040" paint-order="fill stroke markers" d=" M 6 6 L 4 4" stroke-linecap="round" stroke-miterlimit="10" stroke-width="3"/></g><g transform="translate(70,164)" clip-path="url(#MogOvyctzMtp)"><g><path fill="none" stroke="#404040" paint-order="fill stroke markers" d=" M 0 150 L 143 150" stroke-linecap="round" stroke-miterlimit="10"/><path fill="none" stroke="#404040" paint-order="fill stroke markers" d=" M 0 114 L 143 114" stroke-linecap="round" stroke-miterlimit="10"/><path fill="none" stroke="#A0A0A0" paint-order="fill stroke markers" d=" M 0 79 L 143 79" stroke-linecap="round" stroke-miterlimit="10"/><path fill="none" stroke="#404040" paint-order="fill stroke markers" d=" M 0 44 L 143 44" stroke-linecap="round" stroke-miterlimit="10"/><path fill="none" stroke="#404040" paint-order="fill stroke markers" d=" M 0 8 L 143 8" stroke-linecap="round" stroke-miterlimit="10"/><path fill="none" stroke="#404040" paint-order="fill stroke markers" d=" M 119 0 L 119 159" stroke-linecap="round" stroke-miterlimit="10"/><path fill="none" stroke="#404040" paint-order="fill stroke markers" d=" M 94 0 L 94 159" stroke-linecap="round" stroke-miterlimit="10"/><path fill="none" stroke="#404040" paint-order="fill stroke markers" d=" M 69 0 L 69 159" stroke-linecap="round" stroke-miterlimit="10"/><path fill="none" stroke="#404040" paint-order="fill stroke markers" d=" M 44 0 L 44 159" stroke-linecap="round" stroke-miterlimit="10"/><path fill="none" stroke="#404040" paint-order="fill stroke markers" d=" M 19 0 L 19 159" stroke-linecap="round" stroke-miterlimit="10"/><path fill="none" stroke="#00ff00" paint-order="fill stroke markers" d=" M 0 150 L 95 150" stroke-linecap="round" stroke-miterlimit="10"/><path fill="none" stroke="#00ff00" paint-order="fill stroke markers" d=" M 95 150 L 95 8" stroke-linecap="round" stroke-miterlimit="10"/><path fill="none" stroke="#00ff00" paint-order="fill stroke markers" d=" M 96 8 L 143 8" stroke-linecap="round" stroke-miterlimit="10"/><text fill="#ffffff" stroke="none" font-family="sans-serif" font-size="12px" font-style="normal" font-weight="normal" text-decoration="normal" x="0" y="10" text-anchor="start" dominant-baseline="alphabetic">Max=10 V</text></g></g></g><g><text fill="#c0c0c0" stroke="none" font-family="sans-serif" font-size="12px" font-style="normal" font-weight="normal" text-decoration="normal" x="334" y="454" text-anchor="start" dominant-baseline="alphabetic">Checks if cable is inserted</text></g><path fill="#ffffff" stroke="none" paint-order="stroke fill markers" d=" M 179 608 A 3 3 0 1 1 178.99999999995774 607.9999840784612 Z"/><path fill="#ffffff" stroke="none" paint-order="stroke fill markers" d=" M 307 592 A 3 3 0 1 1 306.99999999995777 591.9999840784612 Z"/><path fill="#ffffff" stroke="none" paint-order="stroke fill markers" d=" M 83 608 A 3 3 0 1 1 82.99999999995775 607.9999840784612 Z"/><path fill="#ffffff" stroke="none" paint-order="stroke fill markers" d=" M 307 432 A 3 3 0 1 1 306.99999999995777 431.99998407846124 Z"/></g></g></svg>