<svg version="1.1" xmlns="http://www.w3.org/2000/svg" xmlns:xlink="http://www.w3.org/1999/xlink" width="700" height="305"><defs><linearGradient id="ZvDDyHIaIDwp" x1="0px" x2="32px" y1="0px" y2="0px" gradientUnits="userSpaceOnUse"><stop offset="0" stop-color="#02fc02"/><stop offset="1" stop-color="#01fd01"/></linearGradient><linearGradient id="JIpETkdNuqiI" x1="0px" x2="32px" y1="0px" y2="0px" gradientUnits="userSpaceOnUse"><stop offset="0" stop-color="#0fef0f"/><stop offset="1" stop-color="#807f7f"/></linearGradient><linearGradient id="RTMvbpKvwJPX" x1="0px" x2="32px" y1="0px" y2="0px" gradientUnits="userSpaceOnUse"><stop offset="0" stop-color="#01fd01"/><stop offset="1" stop-color="#01fd01"/></linearGradient><linearGradient id="kimfcXTLKXiG" x1="0px" x2="32px" y1="0px" y2="0px" gradientUnits="userSpaceOnUse"><stop offset="0" stop-color="#01fd01"/><stop offset="1" stop-color="#01fd01"/></linearGradient></defs><g><rect fill="#000000" stroke="none" x="0" y="0" width="700" height="305"/><g transform="scale(1,1) translate(-298,-945)"><path fill="none" stroke="#01fd01" paint-order="fill stroke markers" d=" M 528 1088 L 515 1098" stroke-linecap="round" stroke-miterlimit="10" stroke-width="3" stroke-dasharray=""/><path fill="none" stroke="#0fef0f" paint-order="fill stroke markers" d=" M 528 1120 L 515 1110" stroke-linecap="round" stroke-miterlimit="10" stroke-width="3" stroke-dasharray=""/><path fill="#c0c0c0" stroke="none" paint-order="stroke fill markers" d=" M 528 1120 L 524 1112 L 519 1118 Z"/><path fill="none" stroke="#02fc02" paint-order="fill stroke markers" d=" M 480 1104 L 512 1104" stroke-linecap="round" stroke-miterlimit="10" stroke-width="3" stroke-dasharray=""/><path fill="#02fc02" stroke="none" paint-order="stroke fill markers" d=" M 512 1088 L 515 1088 L 515 1120 L 512 1120 Z"/><path fill="none" stroke="#02fc02" paint-order="fill stroke markers" d=" M 480 1104 L 464 1104" stroke-linecap="round" stroke-miterlimit="10" stroke-width="3" stroke-dasharray=""/><path fill="none" stroke="#01fd01" paint-order="fill stroke markers" d=" M 432 1104 L 416 1104" stroke-linecap="round" stroke-miterlimit="10" stroke-width="3" stroke-dasharray=""/><g transform="matrix(-1,0,0,-1,464,1104)"><path fill="none" stroke="url(#ZvDDyHIaIDwp)" paint-order="fill stroke markers" d=" M 0 0 L 2 6 L 6 -6 L 10 6 L 14 -6 L 18 6 L 22 -6 L 26 6 L 30 -6 L 32 0" stroke-linecap="round" stroke-miterlimit="10" stroke-width="3" stroke-dasharray=""/></g><text fill="#ffffff" stroke="none" font-family="sans-serif" font-size="12px" font-style="normal" font-weight="normal" text-decoration="normal" x="439" y="1094" text-anchor="start" dominant-baseline="alphabetic">10k</text><g><g><text fill="#ffffff" stroke="none" font-family="sans-serif" font-size="20px" font-style="normal" font-weight="bold" text-decoration="normal" x="368" y="1104" text-anchor="middle" dominant-baseline="central">H</text></g><path fill="none" stroke="#01fd01" paint-order="fill stroke markers" d=" M 416 1104 L 380 1104" stroke-linecap="round" stroke-miterlimit="10" stroke-width="3" stroke-dasharray=""/></g><path fill="none" stroke="#0fef0f" paint-order="fill stroke markers" d=" M 528 1120 L 528 1136" stroke-linecap="round" stroke-miterlimit="10" stroke-width="3" stroke-dasharray=""/><path fill="none" stroke="#807f7f" paint-order="fill stroke markers" d=" M 528 1168 L 528 1184" stroke-linecap="round" stroke-miterlimit="10" stroke-width="3" stroke-dasharray=""/><g transform="matrix(0,1,-1,0,528,1136)"><path fill="none" stroke="url(#JIpETkdNuqiI)" paint-order="fill stroke markers" d=" M 0 0 L 2 6 L 6 -6 L 10 6 L 14 -6 L 18 6 L 22 -6 L 26 6 L 30 -6 L 32 0" stroke-linecap="round" stroke-miterlimit="10" stroke-width="3" stroke-dasharray=""/></g><text fill="#ffffff" stroke="none" font-family="sans-serif" font-size="12px" font-style="normal" font-weight="normal" text-decoration="normal" x="538" y="1158" text-anchor="start" dominant-baseline="alphabetic">100k</text><path fill="none" stroke="#807f7f" paint-order="fill stroke markers" d=" M 528 1184 L 528 1200" stroke-linecap="round" stroke-miterlimit="10" stroke-width="3" stroke-dasharray=""/><path fill="none" stroke="#807f7f" paint-order="fill stroke markers" d=" M 538 1200 L 518 1200" stroke-linecap="round" stroke-miterlimit="10" stroke-width="3" stroke-dasharray=""/><path fill="none" stroke="#807f7f" paint-order="fill stroke markers" d=" M 534 1205 L 522 1205" stroke-linecap="round" stroke-miterlimit="10" stroke-width="3" stroke-dasharray=""/><path fill="none" stroke="#807f7f" paint-order="fill stroke markers" d=" M 530 1210 L 526 1210" stroke-linecap="round" stroke-miterlimit="10" stroke-width="3" stroke-dasharray=""/><path fill="none" stroke="#01fd01" paint-order="fill stroke markers" d=" M 528 1088 L 528 1057" stroke-linecap="round" stroke-miterlimit="10" stroke-width="3" stroke-dasharray=""/><g><text fill="#ffffff" stroke="none" font-family="sans-serif" font-size="12px" font-style="normal" font-weight="normal" text-decoration="normal" x="514" y="1045" text-anchor="start" dominant-baseline="central">+12V</text></g><g><g><text fill="#c0c0c0" stroke="none" font-family="sans-serif" font-size="20px" font-style="normal" font-weight="bold" text-decoration="normal" x="592" y="1120" text-anchor="middle" dominant-baseline="central">H</text></g><path fill="none" stroke="#0fef0f" paint-order="fill stroke markers" d=" M 528 1120 L 580 1120" stroke-linecap="round" stroke-miterlimit="10" stroke-width="3" stroke-dasharray=""/></g><g><text fill="#c0c0c0" stroke="none" font-family="sans-serif" font-size="24px" font-style="normal" font-weight="normal" text-decoration="normal" x="477" y="1000" text-anchor="start" dominant-baseline="alphabetic">NPN</text></g><g><text fill="#c0c0c0" stroke="none" font-family="sans-serif" font-size="24px" font-style="normal" font-weight="normal" text-decoration="normal" x="755" y="995" text-anchor="start" dominant-baseline="alphabetic">PNP</text></g><g><g><text fill="#c0c0c0" stroke="none" font-family="sans-serif" font-size="20px" font-style="normal" font-weight="bold" text-decoration="normal" x="928" y="1120" text-anchor="middle" dominant-baseline="central">H</text></g><path fill="none" stroke="#01fd01" paint-order="fill stroke markers" d=" M 864 1120 L 916 1120" stroke-linecap="round" stroke-miterlimit="10" stroke-width="3" stroke-dasharray=""/></g><path fill="none" stroke="#01fd01" paint-order="fill stroke markers" d=" M 864 1056 L 864 1025" stroke-linecap="round" stroke-miterlimit="10" stroke-width="3" stroke-dasharray=""/><g><text fill="#ffffff" stroke="none" font-family="sans-serif" font-size="12px" font-style="normal" font-weight="normal" text-decoration="normal" x="850" y="1005" text-anchor="start" dominant-baseline="central">+12V</text></g><path fill="none" stroke="#807f7f" paint-order="fill stroke markers" d=" M 864 1152 L 864 1200" stroke-linecap="round" stroke-miterlimit="10" stroke-width="3" stroke-dasharray=""/><path fill="none" stroke="#807f7f" paint-order="fill stroke markers" d=" M 874 1200 L 854 1200" stroke-linecap="round" stroke-miterlimit="10" stroke-width="3" stroke-dasharray=""/><path fill="none" stroke="#807f7f" paint-order="fill stroke markers" d=" M 870 1205 L 858 1205" stroke-linecap="round" stroke-miterlimit="10" stroke-width="3" stroke-dasharray=""/><path fill="none" stroke="#807f7f" paint-order="fill stroke markers" d=" M 866 1210 L 862 1210" stroke-linecap="round" stroke-miterlimit="10" stroke-width="3" stroke-dasharray=""/><path fill="none" stroke="#01fd01" paint-order="fill stroke markers" d=" M 864 1056 L 864 1072" stroke-linecap="round" stroke-miterlimit="10" stroke-width="3" stroke-dasharray=""/><path fill="none" stroke="#01fd01" paint-order="fill stroke markers" d=" M 864 1104 L 864 1120" stroke-linecap="round" stroke-miterlimit="10" stroke-width="3" stroke-dasharray=""/><g transform="matrix(0,1,-1,0,864,1072)"><path fill="none" stroke="url(#RTMvbpKvwJPX)" paint-order="fill stroke markers" d=" M 0 0 L 2 6 L 6 -6 L 10 6 L 14 -6 L 18 6 L 22 -6 L 26 6 L 30 -6 L 32 0" stroke-linecap="round" stroke-miterlimit="10" stroke-width="3" stroke-dasharray=""/></g><text fill="#ffffff" stroke="none" font-family="sans-serif" font-size="12px" font-style="normal" font-weight="normal" text-decoration="normal" x="874" y="1094" text-anchor="start" dominant-baseline="alphabetic">100k</text><g><g><text fill="#ffffff" stroke="none" font-family="sans-serif" font-size="20px" font-style="normal" font-weight="bold" text-decoration="normal" x="704" y="1136" text-anchor="middle" dominant-baseline="central">H</text></g><path fill="none" stroke="#01fd01" paint-order="fill stroke markers" d=" M 752 1136 L 716 1136" stroke-linecap="round" stroke-miterlimit="10" stroke-width="3" stroke-dasharray=""/></g><path fill="none" stroke="#01fd01" paint-order="fill stroke markers" d=" M 816 1136 L 800 1136" stroke-linecap="round" stroke-miterlimit="10" stroke-width="3" stroke-dasharray=""/><path fill="none" stroke="#01fd01" paint-order="fill stroke markers" d=" M 768 1136 L 752 1136" stroke-linecap="round" stroke-miterlimit="10" stroke-width="3" stroke-dasharray=""/><g transform="matrix(-1,0,0,-1,800,1136)"><path fill="none" stroke="url(#kimfcXTLKXiG)" paint-order="fill stroke markers" d=" M 0 0 L 2 6 L 6 -6 L 10 6 L 14 -6 L 18 6 L 22 -6 L 26 6 L 30 -6 L 32 0" stroke-linecap="round" stroke-miterlimit="10" stroke-width="3" stroke-dasharray=""/></g><text fill="#ffffff" stroke="none" font-family="sans-serif" font-size="12px" font-style="normal" font-weight="normal" text-decoration="normal" x="775" y="1126" text-anchor="start" dominant-baseline="alphabetic">10k</text><path fill="none" stroke="#807f7f" paint-order="fill stroke markers" d=" M 864 1152 L 851 1142" stroke-linecap="round" stroke-miterlimit="10" stroke-width="3" stroke-dasharray=""/><path fill="none" stroke="#01fd01" paint-order="fill stroke markers" d=" M 864 1120 L 851 1130" stroke-linecap="round" stroke-miterlimit="10" stroke-width="3" stroke-dasharray=""/><path fill="#c0c0c0" stroke="none" paint-order="stroke fill markers" d=" M 853 1131 L 861 1128 L 856 1122 Z"/><path fill="none" stroke="#01fd01" paint-order="fill stroke markers" d=" M 816 1136 L 848 1136" stroke-linecap="round" stroke-miterlimit="10" stroke-width="3" stroke-dasharray=""/><path fill="#01fd01" stroke="none" paint-order="stroke fill markers" d=" M 848 1120 L 851 1120 L 851 1152 L 848 1152 Z"/><path fill="#ffffff" stroke="none" paint-order="stroke fill markers" d=" M 531 1120 A 3 3 0 1 1 530.9999999999577 1119.9999840784612 Z"/><path fill="#ffffff" stroke="none" paint-order="stroke fill markers" d=" M 867 1120 A 3 3 0 1 1 866.9999999999577 1119.9999840784612 Z"/></g></g></svg>