<svg version="1.1" xmlns="http://www.w3.org/2000/svg" xmlns:xlink="http://www.w3.org/1999/xlink" width="884" height="407"><defs><linearGradient id="chbdOUsEFOSm" x1="0px" x2="32px" y1="0px" y2="0px" gradientUnits="userSpaceOnUse"><stop offset="0" stop-color="#807f7f"/><stop offset="1" stop-color="#807f7f"/></linearGradient><clipPath id="AIEKwJdXSFtG"><path fill="none" stroke="none" d=" M 0 0 L 368 0 L 368 256 L 0 256 L 0 0 Z"/></clipPath></defs><g><rect fill="#000000" stroke="none" x="0" y="0" width="884" height="407"/><g transform="scale(1,1) translate(-594,613)"><path fill="none" stroke="#01fd01" paint-order="fill stroke markers" d=" M 880 -448 L 880 -463" stroke-linecap="round" stroke-miterlimit="10" stroke-width="3" stroke-dasharray=""/><g><text fill="#ffffff" stroke="none" font-family="sans-serif" font-size="10px" font-style="normal" font-weight="normal" text-decoration="normal" x="871" y="-475" text-anchor="start" dominant-baseline="central">+5V</text></g><g><text fill="#c0c0c0" stroke="none" font-family="sans-serif" font-size="24px" font-style="normal" font-weight="normal" text-decoration="normal" x="712" y="-523" text-anchor="start" dominant-baseline="alphabetic">Arduino</text></g><g><text fill="#c0c0c0" stroke="none" font-family="sans-serif" font-size="12px" font-style="normal" font-weight="normal" text-decoration="normal" x="690" y="-428" text-anchor="start" dominant-baseline="alphabetic">Digital Or Analog Write</text></g><rect fill="none" stroke="#808080" x="664" y="-563" width="160" height="305" stroke-linecap="round" stroke-miterlimit="10" stroke-dasharray="16,6"/><path fill="none" stroke="#807f7f" paint-order="fill stroke markers" d=" M 880 -320 L 880 -344" stroke-linecap="round" stroke-miterlimit="10" stroke-width="3"/><path fill="none" stroke="#807f7f" paint-order="fill stroke markers" d=" M 880 -360 L 880 -384" stroke-linecap="round" stroke-miterlimit="10" stroke-width="3"/><path fill="#807f7f" stroke="none" paint-order="stroke fill markers" d=" M 872 -344 L 888 -344 L 880 -360 Z"/><path fill="none" stroke="#807f7f" paint-order="fill stroke markers" d=" M 872 -360 L 888 -360" stroke-linecap="round" stroke-miterlimit="10" stroke-width="3"/><path fill="none" stroke="#807f7f" paint-order="fill stroke markers" d=" M 880 -320 L 880 -288" stroke-linecap="round" stroke-miterlimit="10" stroke-width="3"/><path fill="none" stroke="#807f7f" paint-order="fill stroke markers" d=" M 890 -288 L 870 -288" stroke-linecap="round" stroke-miterlimit="10" stroke-width="3"/><path fill="none" stroke="#807f7f" paint-order="fill stroke markers" d=" M 886 -283 L 874 -283" stroke-linecap="round" stroke-miterlimit="10" stroke-width="3"/><path fill="none" stroke="#807f7f" paint-order="fill stroke markers" d=" M 882 -278 L 878 -278" stroke-linecap="round" stroke-miterlimit="10" stroke-width="3"/><path fill="none" stroke="#807f7f" paint-order="fill stroke markers" d=" M 880 -384 L 880 -408" stroke-linecap="round" stroke-miterlimit="10" stroke-width="3"/><path fill="none" stroke="#01fd01" paint-order="fill stroke markers" d=" M 880 -424 L 880 -448" stroke-linecap="round" stroke-miterlimit="10" stroke-width="3"/><path fill="#807f7f" stroke="none" paint-order="stroke fill markers" d=" M 872 -408 L 888 -408 L 880 -424 Z"/><path fill="none" stroke="#01fd01" paint-order="fill stroke markers" d=" M 872 -424 L 888 -424" stroke-linecap="round" stroke-miterlimit="10" stroke-width="3"/><path fill="none" stroke="#807f7f" paint-order="fill stroke markers" d=" M 960 -384 L 1008 -384" stroke-linecap="round" stroke-miterlimit="10" stroke-width="3"/><text fill="#ffffff" stroke="none" font-family="sans-serif" font-size="12px" font-style="normal" font-weight="normal" text-decoration="normal" x="984" y="-390" text-anchor="start" dominant-baseline="alphabetic"></text><path fill="none" stroke="#807f7f" paint-order="fill stroke markers" d=" M 960 -384 L 936 -384" stroke-linecap="round" stroke-miterlimit="10" stroke-width="3"/><path fill="none" stroke="#807f7f" paint-order="fill stroke markers" d=" M 904 -384 L 880 -384" stroke-linecap="round" stroke-miterlimit="10" stroke-width="3"/><g transform="matrix(-1,0,0,-1,936,-384)"><path fill="none" stroke="url(#chbdOUsEFOSm)" paint-order="fill stroke markers" d=" M 0 0 L 2 6 L 6 -6 L 10 6 L 14 -6 L 18 6 L 22 -6 L 26 6 L 30 -6 L 32 0" stroke-linecap="round" stroke-miterlimit="10" stroke-width="3"/></g><text fill="#ffffff" stroke="none" font-family="sans-serif" font-size="12px" font-style="normal" font-weight="normal" text-decoration="normal" x="914" y="-394" text-anchor="start" dominant-baseline="alphabetic">1k</text><g transform="scale(1,1) translate(594,-613)"><g transform="translate(464,339)"><path fill="none" stroke="#404040" paint-order="fill stroke markers" d=" M 4.9 0 A 4.9 4.9 0 1 1 4.899997550000204 -0.004899999183336211" stroke-linecap="round" stroke-miterlimit="10" stroke-width="3"/><path fill="none" stroke="#404040" paint-order="fill stroke markers" d=" M -8 0 L -5 0" stroke-linecap="round" stroke-miterlimit="10" stroke-width="3"/><path fill="none" stroke="#404040" paint-order="fill stroke markers" d=" M 8 0 L 5 0" stroke-linecap="round" stroke-miterlimit="10" stroke-width="3"/><path fill="none" stroke="#404040" paint-order="fill stroke markers" d=" M 0 -8 L 0 -5" stroke-linecap="round" stroke-miterlimit="10" stroke-width="3"/><path fill="none" stroke="#404040" paint-order="fill stroke markers" d=" M 0 8 L 0 5" stroke-linecap="round" stroke-miterlimit="10" stroke-width="3"/><path fill="none" stroke="#404040" paint-order="fill stroke markers" d=" M -6 -6 L -4 -4" stroke-linecap="round" stroke-miterlimit="10" stroke-width="3"/><path fill="none" stroke="#404040" paint-order="fill stroke markers" d=" M 6 -6 L 4 -4" stroke-linecap="round" stroke-miterlimit="10" stroke-width="3"/><path fill="none" stroke="#404040" paint-order="fill stroke markers" d=" M -6 6 L -4 4" stroke-linecap="round" stroke-miterlimit="10" stroke-width="3"/><path fill="none" stroke="#404040" paint-order="fill stroke markers" d=" M 6 6 L 4 4" stroke-linecap="round" stroke-miterlimit="10" stroke-width="3"/></g><g transform="translate(446,101)" clip-path="url(#AIEKwJdXSFtG)"><g><path fill="none" stroke="#A0A0A0" paint-order="fill stroke markers" d=" M 0 242 L 367 242" stroke-linecap="round" stroke-miterlimit="10"/><path fill="none" stroke="#404040" paint-order="fill stroke markers" d=" M 0 219 L 367 219" stroke-linecap="round" stroke-miterlimit="10"/><path fill="none" stroke="#404040" paint-order="fill stroke markers" d=" M 0 196 L 367 196" stroke-linecap="round" stroke-miterlimit="10"/><path fill="none" stroke="#404040" paint-order="fill stroke markers" d=" M 0 173 L 367 173" stroke-linecap="round" stroke-miterlimit="10"/><path fill="none" stroke="#404040" paint-order="fill stroke markers" d=" M 0 150 L 367 150" stroke-linecap="round" stroke-miterlimit="10"/><path fill="none" stroke="#404040" paint-order="fill stroke markers" d=" M 0 127 L 367 127" stroke-linecap="round" stroke-miterlimit="10"/><path fill="none" stroke="#404040" paint-order="fill stroke markers" d=" M 0 104 L 367 104" stroke-linecap="round" stroke-miterlimit="10"/><path fill="none" stroke="#404040" paint-order="fill stroke markers" d=" M 0 81 L 367 81" stroke-linecap="round" stroke-miterlimit="10"/><path fill="none" stroke="#404040" paint-order="fill stroke markers" d=" M 0 58 L 367 58" stroke-linecap="round" stroke-miterlimit="10"/><path fill="none" stroke="#404040" paint-order="fill stroke markers" d=" M 0 35 L 367 35" stroke-linecap="round" stroke-miterlimit="10"/><path fill="none" stroke="#404040" paint-order="fill stroke markers" d=" M 0 12 L 367 12" stroke-linecap="round" stroke-miterlimit="10"/><path fill="none" stroke="#404040" paint-order="fill stroke markers" d=" M 366 0 L 366 255" stroke-linecap="round" stroke-miterlimit="10"/><path fill="none" stroke="#404040" paint-order="fill stroke markers" d=" M 341 0 L 341 255" stroke-linecap="round" stroke-miterlimit="10"/><path fill="none" stroke="#404040" paint-order="fill stroke markers" d=" M 316 0 L 316 255" stroke-linecap="round" stroke-miterlimit="10"/><path fill="none" stroke="#404040" paint-order="fill stroke markers" d=" M 291 0 L 291 255" stroke-linecap="round" stroke-miterlimit="10"/><path fill="none" stroke="#404040" paint-order="fill stroke markers" d=" M 266 0 L 266 255" stroke-linecap="round" stroke-miterlimit="10"/><path fill="none" stroke="#404040" paint-order="fill stroke markers" d=" M 241 0 L 241 255" stroke-linecap="round" stroke-miterlimit="10"/><path fill="none" stroke="#A0A0A0" paint-order="fill stroke markers" d=" M 216 0 L 216 255" stroke-linecap="round" stroke-miterlimit="10"/><path fill="none" stroke="#404040" paint-order="fill stroke markers" d=" M 191 0 L 191 255" stroke-linecap="round" stroke-miterlimit="10"/><path fill="none" stroke="#404040" paint-order="fill stroke markers" d=" M 166 0 L 166 255" stroke-linecap="round" stroke-miterlimit="10"/><path fill="none" stroke="#404040" paint-order="fill stroke markers" d=" M 141 0 L 141 255" stroke-linecap="round" stroke-miterlimit="10"/><path fill="none" stroke="#404040" paint-order="fill stroke markers" d=" M 116 0 L 116 255" stroke-linecap="round" stroke-miterlimit="10"/><path fill="none" stroke="#404040" paint-order="fill stroke markers" d=" M 91 0 L 91 255" stroke-linecap="round" stroke-miterlimit="10"/><path fill="none" stroke="#404040" paint-order="fill stroke markers" d=" M 66 0 L 66 255" stroke-linecap="round" stroke-miterlimit="10"/><path fill="none" stroke="#404040" paint-order="fill stroke markers" d=" M 41 0 L 41 255" stroke-linecap="round" stroke-miterlimit="10"/><path fill="none" stroke="#404040" paint-order="fill stroke markers" d=" M 16 0 L 16 255" stroke-linecap="round" stroke-miterlimit="10"/><path fill="none" stroke="#00ff00" paint-order="fill stroke markers" d=" M 0 242 L 92 242" stroke-linecap="round" stroke-miterlimit="10"/><path fill="none" stroke="#00ff00" paint-order="fill stroke markers" d=" M 92 242 L 92 12" stroke-linecap="round" stroke-miterlimit="10"/><path fill="none" stroke="#00ff00" paint-order="fill stroke markers" d=" M 93 12 L 248 12" stroke-linecap="round" stroke-miterlimit="10"/><path fill="none" stroke="#00ff00" paint-order="fill stroke markers" d=" M 248 242 L 248 12" stroke-linecap="round" stroke-miterlimit="10"/><path fill="none" stroke="#00ff00" paint-order="fill stroke markers" d=" M 249 242 L 367 242" stroke-linecap="round" stroke-miterlimit="10"/><text fill="#ffffff" stroke="none" font-family="sans-serif" font-size="12px" font-style="normal" font-weight="normal" text-decoration="normal" x="0" y="10" text-anchor="start" dominant-baseline="alphabetic">Max=5 V</text></g></g></g><path fill="none" stroke="#807f7f" paint-order="fill stroke markers" d=" M 880 -384 L 769 -384" stroke-linecap="round" stroke-miterlimit="10" stroke-width="3"/><path fill="none" stroke="#808080" paint-order="fill stroke markers" d=" M 768.66 -384 A 16.66 16.66 0 1 1 768.6599916700006 -384.01665999722337" stroke-linecap="round" stroke-miterlimit="10" stroke-width="3"/><path fill="none" stroke="#808080" paint-order="fill stroke markers" d=" M 744 -392 L 744 -384" stroke-linecap="round" stroke-miterlimit="10" stroke-width="3"/><path fill="none" stroke="#808080" paint-order="fill stroke markers" d=" M 744 -392 L 752 -392" stroke-linecap="round" stroke-miterlimit="10" stroke-width="3"/><path fill="none" stroke="#808080" paint-order="fill stroke markers" d=" M 752 -392 L 752 -376" stroke-linecap="round" stroke-miterlimit="10" stroke-width="3"/><path fill="none" stroke="#808080" paint-order="fill stroke markers" d=" M 760 -376 L 752 -376" stroke-linecap="round" stroke-miterlimit="10" stroke-width="3"/><path fill="none" stroke="#808080" paint-order="fill stroke markers" d=" M 760 -384 L 760 -376" stroke-linecap="round" stroke-miterlimit="10" stroke-width="3"/><text fill="#ffffff" stroke="none" font-family="sans-serif" font-size="12px" font-style="normal" font-weight="normal" text-decoration="normal" x="738" y="-403" text-anchor="start" dominant-baseline="alphabetic">40Hz</text><path fill="#ffffff" stroke="none" paint-order="stroke fill markers" d=" M 883 -384 A 3 3 0 1 1 882.9999999999577 -384.00001592153876 Z"/><path fill="#ffffff" stroke="none" paint-order="stroke fill markers" d=" M 1011 -384 A 3 3 0 1 1 1010.9999999999577 -384.00001592153876 Z"/></g></g></svg>