<svg version="1.1" xmlns="http://www.w3.org/2000/svg" xmlns:xlink="http://www.w3.org/1999/xlink" width="764" height="377"><defs><linearGradient id="AHOwlhveiuRD" x1="0px" x2="32px" y1="0px" y2="0px" gradientUnits="userSpaceOnUse"><stop offset="0" stop-color="#807f7f"/><stop offset="1" stop-color="#36c836"/></linearGradient><linearGradient id="PsyiQvVEUOQd" x1="0px" x2="32px" y1="0px" y2="0px" gradientUnits="userSpaceOnUse"><stop offset="0" stop-color="#36c836"/><stop offset="1" stop-color="#01fd01"/></linearGradient><linearGradient id="lUhrIcMQTGFl" x1="0px" x2="32px" y1="0px" y2="0px" gradientUnits="userSpaceOnUse"><stop offset="0" stop-color="#36c836"/><stop offset="1" stop-color="#807f7f"/></linearGradient><linearGradient id="KzlxdknwcDkZ" x1="0px" x2="32px" y1="0px" y2="0px" gradientUnits="userSpaceOnUse"><stop offset="0" stop-color="#36c836"/><stop offset="1" stop-color="#01fd01"/></linearGradient><clipPath id="BFBMWDuzQsBS"><path fill="none" stroke="none" d=" M 0 0 L 144 0 L 144 112 L 0 112 L 0 0 Z"/></clipPath><linearGradient id="JaFoqRQabIhk" x1="0px" x2="32px" y1="0px" y2="0px" gradientUnits="userSpaceOnUse"><stop offset="0" stop-color="#807f7f"/><stop offset="1" stop-color="#01fd01"/></linearGradient><linearGradient id="DSEeTsGgQwJm" x1="0px" x2="32px" y1="0px" y2="0px" gradientUnits="userSpaceOnUse"><stop offset="0" stop-color="#807f7f"/><stop offset="1" stop-color="#01fd01"/></linearGradient><linearGradient id="yqTvGqqcQfxG" x1="0px" x2="32px" y1="0px" y2="0px" gradientUnits="userSpaceOnUse"><stop offset="0" stop-color="#01fd01"/><stop offset="1" stop-color="#01fd01"/></linearGradient><linearGradient id="naTIwuytCZIK" x1="0px" x2="32px" y1="0px" y2="0px" gradientUnits="userSpaceOnUse"><stop offset="0" stop-color="#01fd01"/><stop offset="1" stop-color="#01fd01"/></linearGradient></defs><g><rect fill="#000000" stroke="none" x="0" y="0" width="764" height="377"/><g transform="scale(1,1) translate(294,-340)"><g><text fill="#c0c0c0" stroke="none" font-family="sans-serif" font-size="12px" font-style="normal" font-weight="normal" text-decoration="normal" x="11" y="517" text-anchor="start" dominant-baseline="alphabetic">R3</text></g><g><text fill="#c0c0c0" stroke="none" font-family="sans-serif" font-size="12px" font-style="normal" font-weight="normal" text-decoration="normal" x="9" y="390" text-anchor="start" dominant-baseline="alphabetic">R1</text></g><path fill="none" stroke="#807f7f" paint-order="fill stroke markers" d=" M 192 416 L 144 416" stroke-linecap="round" stroke-miterlimit="10" stroke-width="3" stroke-dasharray=""/><path fill="none" stroke="#36c836" paint-order="fill stroke markers" d=" M 112 416 L 64 416" stroke-linecap="round" stroke-miterlimit="10" stroke-width="3" stroke-dasharray=""/><g transform="matrix(-1,0,0,-1,144,416)"><path fill="none" stroke="url(#AHOwlhveiuRD)" paint-order="fill stroke markers" d=" M 0 0 L 2 6 L 6 -6 L 10 6 L 14 -6 L 18 6 L 22 -6 L 26 6 L 30 -6 L 32 0" stroke-linecap="round" stroke-miterlimit="10" stroke-width="3" stroke-dasharray=""/></g><text fill="#ffffff" stroke="none" font-family="sans-serif" font-size="12px" font-style="normal" font-weight="normal" text-decoration="normal" x="119" y="406" text-anchor="start" dominant-baseline="alphabetic">10k</text><path fill="none" stroke="#36c836" paint-order="fill stroke markers" d=" M 64 416 L 32 416" stroke-linecap="round" stroke-miterlimit="10" stroke-width="3" stroke-dasharray=""/><path fill="none" stroke="#01fd01" paint-order="fill stroke markers" d=" M 0 416 L -32 416" stroke-linecap="round" stroke-miterlimit="10" stroke-width="3" stroke-dasharray=""/><g transform="matrix(-1,0,0,-1,32,416)"><path fill="none" stroke="url(#PsyiQvVEUOQd)" paint-order="fill stroke markers" d=" M 0 0 L 2 6 L 6 -6 L 10 6 L 14 -6 L 18 6 L 22 -6 L 26 6 L 30 -6 L 32 0" stroke-linecap="round" stroke-miterlimit="10" stroke-width="3" stroke-dasharray=""/></g><text fill="#ffffff" stroke="none" font-family="sans-serif" font-size="12px" font-style="normal" font-weight="normal" text-decoration="normal" x="7" y="406" text-anchor="start" dominant-baseline="alphabetic">10k</text><path fill="none" stroke="#36c836" paint-order="fill stroke markers" d=" M 64 512 L 102 512" stroke-linecap="round" stroke-miterlimit="10" stroke-width="3" stroke-dasharray=""/><path fill="none" stroke="#36c836" paint-order="fill stroke markers" d=" M 64 544 L 102 544" stroke-linecap="round" stroke-miterlimit="10" stroke-width="3" stroke-dasharray=""/><path fill="none" stroke="#807f7f" paint-order="fill stroke markers" d=" M 154 528 L 192 528" stroke-linecap="round" stroke-miterlimit="10" stroke-width="3" stroke-dasharray=""/><path fill="none" stroke="#c0c0c0" paint-order="fill stroke markers" d=" M 102 496 L 102 560 L 154 528 Z" stroke-linecap="round" stroke-miterlimit="10" stroke-width="3" stroke-dasharray=""/><g><text fill="#c0c0c0" stroke="none" font-family="sans-serif" font-size="14px" font-style="normal" font-weight="normal" text-decoration="normal" x="112" y="510" text-anchor="middle" dominant-baseline="central">-</text></g><g><text fill="#c0c0c0" stroke="none" font-family="sans-serif" font-size="14px" font-style="normal" font-weight="normal" text-decoration="normal" x="112" y="544" text-anchor="middle" dominant-baseline="central">+</text></g><path fill="none" stroke="#36c836" paint-order="fill stroke markers" d=" M 64 512 L 64 416" stroke-linecap="round" stroke-miterlimit="10" stroke-width="3" stroke-dasharray=""/><text fill="#ffffff" stroke="none" font-family="sans-serif" font-size="12px" font-style="normal" font-weight="normal" text-decoration="normal" x="70" y="470" text-anchor="start" dominant-baseline="alphabetic"></text><path fill="none" stroke="#807f7f" paint-order="fill stroke markers" d=" M 192 528 L 192 416" stroke-linecap="round" stroke-miterlimit="10" stroke-width="3" stroke-dasharray=""/><text fill="#ffffff" stroke="none" font-family="sans-serif" font-size="12px" font-style="normal" font-weight="normal" text-decoration="normal" x="198" y="478" text-anchor="start" dominant-baseline="alphabetic"></text><path fill="none" stroke="#807f7f" paint-order="fill stroke markers" d=" M 192 528 L 240 528" stroke-linecap="round" stroke-miterlimit="10" stroke-width="3" stroke-dasharray=""/><text fill="#ffffff" stroke="none" font-family="sans-serif" font-size="12px" font-style="normal" font-weight="normal" text-decoration="normal" x="216" y="522" text-anchor="start" dominant-baseline="alphabetic"></text><path fill="none" stroke="#36c836" paint-order="fill stroke markers" d=" M 64 544 L 64 568" stroke-linecap="round" stroke-miterlimit="10" stroke-width="3" stroke-dasharray=""/><path fill="none" stroke="#807f7f" paint-order="fill stroke markers" d=" M 64 600 L 64 624" stroke-linecap="round" stroke-miterlimit="10" stroke-width="3" stroke-dasharray=""/><g transform="matrix(0,1,-1,0,64,568)"><path fill="none" stroke="url(#lUhrIcMQTGFl)" paint-order="fill stroke markers" d=" M 0 0 L 2 6 L 6 -6 L 10 6 L 14 -6 L 18 6 L 22 -6 L 26 6 L 30 -6 L 32 0" stroke-linecap="round" stroke-miterlimit="10" stroke-width="3" stroke-dasharray=""/></g><text fill="#ffffff" stroke="none" font-family="sans-serif" font-size="12px" font-style="normal" font-weight="normal" text-decoration="normal" x="74" y="590" text-anchor="start" dominant-baseline="alphabetic">10k</text><path fill="none" stroke="#36c836" paint-order="fill stroke markers" d=" M 64 544 L 32 544" stroke-linecap="round" stroke-miterlimit="10" stroke-width="3" stroke-dasharray=""/><path fill="none" stroke="#01fd01" paint-order="fill stroke markers" d=" M 0 544 L -32 544" stroke-linecap="round" stroke-miterlimit="10" stroke-width="3" stroke-dasharray=""/><g transform="matrix(-1,0,0,-1,32,544)"><path fill="none" stroke="url(#KzlxdknwcDkZ)" paint-order="fill stroke markers" d=" M 0 0 L 2 6 L 6 -6 L 10 6 L 14 -6 L 18 6 L 22 -6 L 26 6 L 30 -6 L 32 0" stroke-linecap="round" stroke-miterlimit="10" stroke-width="3" stroke-dasharray=""/></g><text fill="#ffffff" stroke="none" font-family="sans-serif" font-size="12px" font-style="normal" font-weight="normal" text-decoration="normal" x="7" y="534" text-anchor="start" dominant-baseline="alphabetic">10k</text><path fill="none" stroke="#807f7f" paint-order="fill stroke markers" d=" M 64 624 L 64 656" stroke-linecap="round" stroke-miterlimit="10" stroke-width="3" stroke-dasharray=""/><path fill="none" stroke="#807f7f" paint-order="fill stroke markers" d=" M 74 656 L 54 656" stroke-linecap="round" stroke-miterlimit="10" stroke-width="3" stroke-dasharray=""/><path fill="none" stroke="#807f7f" paint-order="fill stroke markers" d=" M 70 661 L 58 661" stroke-linecap="round" stroke-miterlimit="10" stroke-width="3" stroke-dasharray=""/><path fill="none" stroke="#807f7f" paint-order="fill stroke markers" d=" M 66 666 L 62 666" stroke-linecap="round" stroke-miterlimit="10" stroke-width="3" stroke-dasharray=""/><g><text fill="#c0c0c0" stroke="none" font-family="sans-serif" font-size="12px" font-style="normal" font-weight="normal" text-decoration="normal" x="122" y="390" text-anchor="start" dominant-baseline="alphabetic">R2</text></g><g><text fill="#c0c0c0" stroke="none" font-family="sans-serif" font-size="12px" font-style="normal" font-weight="normal" text-decoration="normal" x="78" y="603" text-anchor="start" dominant-baseline="alphabetic">R4</text></g><g><text fill="#c0c0c0" stroke="none" font-family="sans-serif" font-size="12px" font-style="normal" font-weight="normal" text-decoration="normal" x="219" y="521" text-anchor="start" dominant-baseline="alphabetic">Vout</text></g><g transform="scale(1,1) translate(-294,340)"><g transform="translate(568,202)"><path fill="none" stroke="#404040" paint-order="fill stroke markers" d=" M 4.9 0 A 4.9 4.9 0 1 1 4.899997550000204 -0.004899999183336211" stroke-linecap="round" stroke-miterlimit="10" stroke-width="3" stroke-dasharray=""/><path fill="none" stroke="#404040" paint-order="fill stroke markers" d=" M -8 0 L -5 0" stroke-linecap="round" stroke-miterlimit="10" stroke-width="3" stroke-dasharray=""/><path fill="none" stroke="#404040" paint-order="fill stroke markers" d=" M 8 0 L 5 0" stroke-linecap="round" stroke-miterlimit="10" stroke-width="3" stroke-dasharray=""/><path fill="none" stroke="#404040" paint-order="fill stroke markers" d=" M 0 -8 L 0 -5" stroke-linecap="round" stroke-miterlimit="10" stroke-width="3" stroke-dasharray=""/><path fill="none" stroke="#404040" paint-order="fill stroke markers" d=" M 0 8 L 0 5" stroke-linecap="round" stroke-miterlimit="10" stroke-width="3" stroke-dasharray=""/><path fill="none" stroke="#404040" paint-order="fill stroke markers" d=" M -6 -6 L -4 -4" stroke-linecap="round" stroke-miterlimit="10" stroke-width="3" stroke-dasharray=""/><path fill="none" stroke="#404040" paint-order="fill stroke markers" d=" M 6 -6 L 4 -4" stroke-linecap="round" stroke-miterlimit="10" stroke-width="3" stroke-dasharray=""/><path fill="none" stroke="#404040" paint-order="fill stroke markers" d=" M -6 6 L -4 4" stroke-linecap="round" stroke-miterlimit="10" stroke-width="3" stroke-dasharray=""/><path fill="none" stroke="#404040" paint-order="fill stroke markers" d=" M 6 6 L 4 4" stroke-linecap="round" stroke-miterlimit="10" stroke-width="3" stroke-dasharray=""/></g><g transform="translate(550,108)" clip-path="url(#BFBMWDuzQsBS)"><g><path fill="none" stroke="#A0A0A0" paint-order="fill stroke markers" d=" M 0 105 L 143 105" stroke-linecap="round" stroke-miterlimit="10" stroke-dasharray=""/><path fill="none" stroke="#404040" paint-order="fill stroke markers" d=" M 0 78 L 143 78" stroke-linecap="round" stroke-miterlimit="10" stroke-dasharray=""/><path fill="none" stroke="#404040" paint-order="fill stroke markers" d=" M 0 53 L 143 53" stroke-linecap="round" stroke-miterlimit="10" stroke-dasharray=""/><path fill="none" stroke="#404040" paint-order="fill stroke markers" d=" M 0 27 L 143 27" stroke-linecap="round" stroke-miterlimit="10" stroke-dasharray=""/><path fill="none" stroke="#404040" paint-order="fill stroke markers" d=" M 0 1 L 143 1" stroke-linecap="round" stroke-miterlimit="10" stroke-dasharray=""/><path fill="none" stroke="#404040" paint-order="fill stroke markers" d=" M 113 0 L 113 111" stroke-linecap="round" stroke-miterlimit="10" stroke-dasharray=""/><path fill="none" stroke="#404040" paint-order="fill stroke markers" d=" M 81 0 L 81 111" stroke-linecap="round" stroke-miterlimit="10" stroke-dasharray=""/><path fill="none" stroke="#404040" paint-order="fill stroke markers" d=" M 50 0 L 50 111" stroke-linecap="round" stroke-miterlimit="10" stroke-dasharray=""/><path fill="none" stroke="#A0A0A0" paint-order="fill stroke markers" d=" M 19 0 L 19 111" stroke-linecap="round" stroke-miterlimit="10" stroke-dasharray=""/><path fill="none" stroke="#00ff00" paint-order="fill stroke markers" d=" M 0 105 L 143 105" stroke-linecap="round" stroke-miterlimit="10" stroke-dasharray=""/><text fill="#ffffff" stroke="none" font-family="sans-serif" font-size="12px" font-style="normal" font-weight="normal" text-decoration="normal" x="0" y="10" text-anchor="start" dominant-baseline="alphabetic">Max=0 V</text></g></g></g><rect fill="none" stroke="#808080" x="-206" y="440" width="158" height="208" stroke-linecap="round" stroke-miterlimit="10" stroke-dasharray="16,6"/><g><text fill="#c0c0c0" stroke="none" font-family="sans-serif" font-size="12px" font-style="normal" font-weight="normal" text-decoration="normal" x="-177" y="664" text-anchor="start" dominant-baseline="alphabetic">Wheatstone Bridge</text></g><path fill="none" stroke="#01fd01" paint-order="fill stroke markers" d=" M -176 544 L -224 544" stroke-linecap="round" stroke-miterlimit="10" stroke-width="3"/><text fill="#ffffff" stroke="none" font-family="sans-serif" font-size="12px" font-style="normal" font-weight="normal" text-decoration="normal" x="-200" y="538" text-anchor="start" dominant-baseline="alphabetic"></text><path fill="none" stroke="#807f7f" paint-order="fill stroke markers" d=" M -176 608 L -176 592" stroke-linecap="round" stroke-miterlimit="10" stroke-width="3"/><path fill="none" stroke="#01fd01" paint-order="fill stroke markers" d=" M -176 560 L -176 544" stroke-linecap="round" stroke-miterlimit="10" stroke-width="3"/><g transform="matrix(0,-1,1,0,-176,592)"><path fill="none" stroke="url(#JaFoqRQabIhk)" paint-order="fill stroke markers" d=" M 0 0 L 2 6 L 6 -6 L 10 6 L 14 -6 L 18 6 L 22 -6 L 26 6 L 30 -6 L 32 0" stroke-linecap="round" stroke-miterlimit="10" stroke-width="3"/></g><text fill="#ffffff" stroke="none" font-family="sans-serif" font-size="12px" font-style="normal" font-weight="normal" text-decoration="normal" x="-166" y="582" text-anchor="start" dominant-baseline="alphabetic">1k</text><path fill="none" stroke="#807f7f" paint-order="fill stroke markers" d=" M -128 608 L -128 624" stroke-linecap="round" stroke-miterlimit="10" stroke-width="3"/><path fill="none" stroke="#807f7f" paint-order="fill stroke markers" d=" M -118 624 L -138 624" stroke-linecap="round" stroke-miterlimit="10" stroke-width="3"/><path fill="none" stroke="#807f7f" paint-order="fill stroke markers" d=" M -122 629 L -134 629" stroke-linecap="round" stroke-miterlimit="10" stroke-width="3"/><path fill="none" stroke="#807f7f" paint-order="fill stroke markers" d=" M -126 634 L -130 634" stroke-linecap="round" stroke-miterlimit="10" stroke-width="3"/><path fill="none" stroke="#807f7f" paint-order="fill stroke markers" d=" M -80 608 L -80 592" stroke-linecap="round" stroke-miterlimit="10" stroke-width="3"/><path fill="none" stroke="#01fd01" paint-order="fill stroke markers" d=" M -80 560 L -80 544" stroke-linecap="round" stroke-miterlimit="10" stroke-width="3"/><g transform="matrix(0,-1,1,0,-80,592)"><path fill="none" stroke="url(#DSEeTsGgQwJm)" paint-order="fill stroke markers" d=" M 0 0 L 2 6 L 6 -6 L 10 6 L 14 -6 L 18 6 L 22 -6 L 26 6 L 30 -6 L 32 0" stroke-linecap="round" stroke-miterlimit="10" stroke-width="3"/></g><text fill="#ffffff" stroke="none" font-family="sans-serif" font-size="12px" font-style="normal" font-weight="normal" text-decoration="normal" x="-70" y="582" text-anchor="start" dominant-baseline="alphabetic">1k</text><path fill="none" stroke="#01fd01" paint-order="fill stroke markers" d=" M -176 544 L -176 528" stroke-linecap="round" stroke-miterlimit="10" stroke-width="3"/><path fill="none" stroke="#01fd01" paint-order="fill stroke markers" d=" M -176 496 L -176 480" stroke-linecap="round" stroke-miterlimit="10" stroke-width="3"/><g transform="matrix(0,-1,1,0,-176,528)"><path fill="none" stroke="url(#yqTvGqqcQfxG)" paint-order="fill stroke markers" d=" M 0 0 L 2 6 L 6 -6 L 10 6 L 14 -6 L 18 6 L 22 -6 L 26 6 L 30 -6 L 32 0" stroke-linecap="round" stroke-miterlimit="10" stroke-width="3"/></g><text fill="#ffffff" stroke="none" font-family="sans-serif" font-size="12px" font-style="normal" font-weight="normal" text-decoration="normal" x="-166" y="518" text-anchor="start" dominant-baseline="alphabetic">1k</text><path fill="none" stroke="#01fd01" paint-order="fill stroke markers" d=" M -80 480 L -80 496" stroke-linecap="round" stroke-miterlimit="10" stroke-width="3"/><path fill="none" stroke="#01fd01" paint-order="fill stroke markers" d=" M -80 528 L -80 544" stroke-linecap="round" stroke-miterlimit="10" stroke-width="3"/><g transform="matrix(0,1,-1,0,-80,496)"><path fill="none" stroke="url(#naTIwuytCZIK)" paint-order="fill stroke markers" d=" M 0 0 L 2 6 L 6 -6 L 10 6 L 14 -6 L 18 6 L 22 -6 L 26 6 L 30 -6 L 32 0" stroke-linecap="round" stroke-miterlimit="10" stroke-width="3"/></g><text fill="#ffffff" stroke="none" font-family="sans-serif" font-size="12px" font-style="normal" font-weight="normal" text-decoration="normal" x="-70" y="518" text-anchor="start" dominant-baseline="alphabetic">1k</text><path fill="none" stroke="#01fd01" paint-order="fill stroke markers" d=" M -128 480 L -128 465" stroke-linecap="round" stroke-miterlimit="10" stroke-width="3"/><g><text fill="#ffffff" stroke="none" font-family="sans-serif" font-size="12px" font-style="normal" font-weight="normal" text-decoration="normal" x="-142" y="453" text-anchor="start" dominant-baseline="central">+12V</text></g><path fill="none" stroke="#01fd01" paint-order="fill stroke markers" d=" M -176 480 L -128 480" stroke-linecap="round" stroke-miterlimit="10" stroke-width="3"/><text fill="#ffffff" stroke="none" font-family="sans-serif" font-size="12px" font-style="normal" font-weight="normal" text-decoration="normal" x="-152" y="474" text-anchor="start" dominant-baseline="alphabetic"></text><path fill="none" stroke="#01fd01" paint-order="fill stroke markers" d=" M -80 480 L -128 480" stroke-linecap="round" stroke-miterlimit="10" stroke-width="3"/><text fill="#ffffff" stroke="none" font-family="sans-serif" font-size="12px" font-style="normal" font-weight="normal" text-decoration="normal" x="-104" y="474" text-anchor="start" dominant-baseline="alphabetic"></text><path fill="none" stroke="#807f7f" paint-order="fill stroke markers" d=" M -176 608 L -128 608" stroke-linecap="round" stroke-miterlimit="10" stroke-width="3"/><text fill="#ffffff" stroke="none" font-family="sans-serif" font-size="12px" font-style="normal" font-weight="normal" text-decoration="normal" x="-152" y="602" text-anchor="start" dominant-baseline="alphabetic"></text><path fill="none" stroke="#807f7f" paint-order="fill stroke markers" d=" M -80 608 L -128 608" stroke-linecap="round" stroke-miterlimit="10" stroke-width="3"/><text fill="#ffffff" stroke="none" font-family="sans-serif" font-size="12px" font-style="normal" font-weight="normal" text-decoration="normal" x="-104" y="602" text-anchor="start" dominant-baseline="alphabetic"></text><path fill="none" stroke="#01fd01" paint-order="fill stroke markers" d=" M -32 544 L -80 544" stroke-linecap="round" stroke-miterlimit="10" stroke-width="3"/><text fill="#ffffff" stroke="none" font-family="sans-serif" font-size="12px" font-style="normal" font-weight="normal" text-decoration="normal" x="-56" y="538" text-anchor="start" dominant-baseline="alphabetic"></text><path fill="none" stroke="#01fd01" paint-order="fill stroke markers" d=" M -32 416 L -224 416" stroke-linecap="round" stroke-miterlimit="10" stroke-width="3"/><text fill="#ffffff" stroke="none" font-family="sans-serif" font-size="12px" font-style="normal" font-weight="normal" text-decoration="normal" x="-128" y="410" text-anchor="start" dominant-baseline="alphabetic"></text><path fill="none" stroke="#01fd01" paint-order="fill stroke markers" d=" M -224 544 L -224 416" stroke-linecap="round" stroke-miterlimit="10" stroke-width="3"/><text fill="#ffffff" stroke="none" font-family="sans-serif" font-size="12px" font-style="normal" font-weight="normal" text-decoration="normal" x="-218" y="486" text-anchor="start" dominant-baseline="alphabetic"></text><path fill="#ffffff" stroke="none" paint-order="stroke fill markers" d=" M 67 416 A 3 3 0 1 1 66.99999999995775 415.99998407846124 Z"/><path fill="#ffffff" stroke="none" paint-order="stroke fill markers" d=" M 67 544 A 3 3 0 1 1 66.99999999995775 543.9999840784612 Z"/><path fill="#ffffff" stroke="none" paint-order="stroke fill markers" d=" M 195 528 A 3 3 0 1 1 194.99999999995774 527.9999840784612 Z"/><path fill="#ffffff" stroke="none" paint-order="stroke fill markers" d=" M 243 528 A 3 3 0 1 1 242.99999999995774 527.9999840784612 Z"/><path fill="#ffffff" stroke="none" paint-order="stroke fill markers" d=" M -173 544 A 3 3 0 1 1 -173.00000000004226 543.9999840784612 Z"/><path fill="#ffffff" stroke="none" paint-order="stroke fill markers" d=" M -125 608 A 3 3 0 1 1 -125.00000000004225 607.9999840784612 Z"/><path fill="#ffffff" stroke="none" paint-order="stroke fill markers" d=" M -77 544 A 3 3 0 1 1 -77.00000000004225 543.9999840784612 Z"/><path fill="#ffffff" stroke="none" paint-order="stroke fill markers" d=" M -125 480 A 3 3 0 1 1 -125.00000000004225 479.99998407846124 Z"/></g></g></svg>