<svg version="1.1" xmlns="http://www.w3.org/2000/svg" xmlns:xlink="http://www.w3.org/1999/xlink" width="895" height="619"><defs><linearGradient id="LdFPTLtoniIG" x1="0px" x2="32px" y1="0px" y2="0px" gradientUnits="userSpaceOnUse"><stop offset="0" stop-color="#02fc02"/><stop offset="1" stop-color="#2cd22c"/></linearGradient><linearGradient id="vpyTnfvOwBvP" x1="0px" x2="32px" y1="0px" y2="0px" gradientUnits="userSpaceOnUse"><stop offset="0" stop-color="#807f7f"/><stop offset="1" stop-color="#56a956"/></linearGradient><linearGradient id="ChHUmmLOalqG" x1="0px" x2="32px" y1="0px" y2="0px" gradientUnits="userSpaceOnUse"><stop offset="0" stop-color="#42bd42"/><stop offset="1" stop-color="#42bd42"/></linearGradient><linearGradient id="rrIhlqebUIbI" x1="0px" x2="32px" y1="0px" y2="0px" gradientUnits="userSpaceOnUse"><stop offset="0" stop-color="#42bd42"/><stop offset="1" stop-color="#42bd42"/></linearGradient></defs><g><rect fill="#000000" stroke="none" x="0" y="0" width="895" height="619"/><g transform="scale(1,1) translate(123,188)"><path fill="none" stroke="#02fc02" paint-order="fill stroke markers" d=" M 144 144 L 184 144" stroke-linecap="round" stroke-miterlimit="10" stroke-width="3" stroke-dasharray=""/><path fill="none" stroke="#2cd22c" paint-order="fill stroke markers" d=" M 216 144 L 256 144" stroke-linecap="round" stroke-miterlimit="10" stroke-width="3" stroke-dasharray=""/><g transform="matrix(1,0,0,1,184,144)"><path fill="none" stroke="url(#LdFPTLtoniIG)" paint-order="fill stroke markers" d=" M 0 0 L 2 6 L 6 -6 L 10 6 L 14 -6 L 18 6 L 22 -6 L 26 6 L 30 -6 L 32 0" stroke-linecap="round" stroke-miterlimit="10" stroke-width="3" stroke-dasharray=""/></g><text fill="#ffffff" stroke="none" font-family="sans-serif" font-size="12px" font-style="normal" font-weight="normal" text-decoration="normal" x="194" y="134" text-anchor="start" dominant-baseline="alphabetic">1k</text><path fill="none" stroke="#2cd22c" paint-order="fill stroke markers" d=" M 256 144 L 256 164" stroke-linecap="round" stroke-miterlimit="10" stroke-width="3" stroke-dasharray=""/><path fill="none" stroke="#56a956" paint-order="fill stroke markers" d=" M 256 188 L 256 208" stroke-linecap="round" stroke-miterlimit="10" stroke-width="3" stroke-dasharray=""/><path fill="none" stroke="#808080" paint-order="fill stroke markers" d=" M 267.76 176 A 11.76 11.76 0 1 1 267.7599941200005 175.98824000195998" stroke-linecap="round" stroke-miterlimit="10" stroke-width="3" stroke-dasharray=""/><path fill="#a40000" stroke="none" paint-order="stroke fill markers" d=" M 264 176 A 8 8 0 1 1 263.99999999988734 175.9999575425633 Z"/><path fill="none" stroke="#56a956" paint-order="fill stroke markers" d=" M 288 208 L 288 188" stroke-linecap="round" stroke-miterlimit="10" stroke-width="3" stroke-dasharray=""/><path fill="none" stroke="#2cd22c" paint-order="fill stroke markers" d=" M 288 164 L 288 144" stroke-linecap="round" stroke-miterlimit="10" stroke-width="3" stroke-dasharray=""/><path fill="none" stroke="#808080" paint-order="fill stroke markers" d=" M 299.76 176 A 11.76 11.76 0 1 1 299.7599941200005 175.98824000195998" stroke-linecap="round" stroke-miterlimit="10" stroke-width="3" stroke-dasharray=""/><path fill="#000000" stroke="none" paint-order="stroke fill markers" d=" M 296 176 A 8 8 0 1 1 295.99999999988734 175.9999575425633 Z"/><path fill="none" stroke="#2cd22c" paint-order="fill stroke markers" d=" M 256 144 L 288 144" stroke-linecap="round" stroke-miterlimit="10" stroke-width="3" stroke-dasharray=""/><text fill="#ffffff" stroke="none" font-family="sans-serif" font-size="12px" font-style="normal" font-weight="normal" text-decoration="normal" x="272" y="138" text-anchor="start" dominant-baseline="alphabetic"></text><path fill="none" stroke="#56a956" paint-order="fill stroke markers" d=" M 256 208 L 288 208" stroke-linecap="round" stroke-miterlimit="10" stroke-width="3" stroke-dasharray=""/><text fill="#ffffff" stroke="none" font-family="sans-serif" font-size="12px" font-style="normal" font-weight="normal" text-decoration="normal" x="272" y="202" text-anchor="start" dominant-baseline="alphabetic"></text><path fill="none" stroke="#807f7f" paint-order="fill stroke markers" d=" M 144 208 L 184 208" stroke-linecap="round" stroke-miterlimit="10" stroke-width="3" stroke-dasharray=""/><path fill="none" stroke="#56a956" paint-order="fill stroke markers" d=" M 216 208 L 256 208" stroke-linecap="round" stroke-miterlimit="10" stroke-width="3" stroke-dasharray=""/><g transform="matrix(1,0,0,1,184,208)"><path fill="none" stroke="url(#vpyTnfvOwBvP)" paint-order="fill stroke markers" d=" M 0 0 L 2 6 L 6 -6 L 10 6 L 14 -6 L 18 6 L 22 -6 L 26 6 L 30 -6 L 32 0" stroke-linecap="round" stroke-miterlimit="10" stroke-width="3" stroke-dasharray=""/></g><text fill="#ffffff" stroke="none" font-family="sans-serif" font-size="12px" font-style="normal" font-weight="normal" text-decoration="normal" x="194" y="198" text-anchor="start" dominant-baseline="alphabetic">1k</text><path fill="none" stroke="#42bd42" paint-order="fill stroke markers" d=" M 144 272 L 184 272" stroke-linecap="round" stroke-miterlimit="10" stroke-width="3" stroke-dasharray=""/><path fill="none" stroke="#42bd42" paint-order="fill stroke markers" d=" M 216 272 L 256 272" stroke-linecap="round" stroke-miterlimit="10" stroke-width="3" stroke-dasharray=""/><g transform="matrix(1,0,0,1,184,272)"><path fill="none" stroke="url(#ChHUmmLOalqG)" paint-order="fill stroke markers" d=" M 0 0 L 2 6 L 6 -6 L 10 6 L 14 -6 L 18 6 L 22 -6 L 26 6 L 30 -6 L 32 0" stroke-linecap="round" stroke-miterlimit="10" stroke-width="3" stroke-dasharray=""/></g><text fill="#ffffff" stroke="none" font-family="sans-serif" font-size="12px" font-style="normal" font-weight="normal" text-decoration="normal" x="194" y="262" text-anchor="start" dominant-baseline="alphabetic">1k</text><path fill="none" stroke="#42bd42" paint-order="fill stroke markers" d=" M 144 336 L 184 336" stroke-linecap="round" stroke-miterlimit="10" stroke-width="3" stroke-dasharray=""/><path fill="none" stroke="#42bd42" paint-order="fill stroke markers" d=" M 216 336 L 256 336" stroke-linecap="round" stroke-miterlimit="10" stroke-width="3" stroke-dasharray=""/><g transform="matrix(1,0,0,1,184,336)"><path fill="none" stroke="url(#rrIhlqebUIbI)" paint-order="fill stroke markers" d=" M 0 0 L 2 6 L 6 -6 L 10 6 L 14 -6 L 18 6 L 22 -6 L 26 6 L 30 -6 L 32 0" stroke-linecap="round" stroke-miterlimit="10" stroke-width="3" stroke-dasharray=""/></g><text fill="#ffffff" stroke="none" font-family="sans-serif" font-size="12px" font-style="normal" font-weight="normal" text-decoration="normal" x="194" y="326" text-anchor="start" dominant-baseline="alphabetic">1k</text><path fill="none" stroke="#56a956" paint-order="fill stroke markers" d=" M 288 208 L 288 228" stroke-linecap="round" stroke-miterlimit="10" stroke-width="3" stroke-dasharray=""/><path fill="none" stroke="#42bd42" paint-order="fill stroke markers" d=" M 288 252 L 288 272" stroke-linecap="round" stroke-miterlimit="10" stroke-width="3" stroke-dasharray=""/><path fill="none" stroke="#808080" paint-order="fill stroke markers" d=" M 299.76 240 A 11.76 11.76 0 1 1 299.7599941200005 239.98824000195998" stroke-linecap="round" stroke-miterlimit="10" stroke-width="3" stroke-dasharray=""/><path fill="#000000" stroke="none" paint-order="stroke fill markers" d=" M 296 240 A 8 8 0 1 1 295.99999999988734 239.9999575425633 Z"/><path fill="none" stroke="#42bd42" paint-order="fill stroke markers" d=" M 320 272 L 320 252" stroke-linecap="round" stroke-miterlimit="10" stroke-width="3" stroke-dasharray=""/><path fill="none" stroke="#56a956" paint-order="fill stroke markers" d=" M 320 228 L 320 208" stroke-linecap="round" stroke-miterlimit="10" stroke-width="3" stroke-dasharray=""/><path fill="none" stroke="#808080" paint-order="fill stroke markers" d=" M 331.76 240 A 11.76 11.76 0 1 1 331.7599941200005 239.98824000195998" stroke-linecap="round" stroke-miterlimit="10" stroke-width="3" stroke-dasharray=""/><path fill="#000000" stroke="none" paint-order="stroke fill markers" d=" M 328 240 A 8 8 0 1 1 327.99999999988734 239.9999575425633 Z"/><path fill="none" stroke="#56a956" paint-order="fill stroke markers" d=" M 288 208 L 320 208" stroke-linecap="round" stroke-miterlimit="10" stroke-width="3" stroke-dasharray=""/><text fill="#ffffff" stroke="none" font-family="sans-serif" font-size="12px" font-style="normal" font-weight="normal" text-decoration="normal" x="304" y="202" text-anchor="start" dominant-baseline="alphabetic"></text><path fill="none" stroke="#42bd42" paint-order="fill stroke markers" d=" M 288 272 L 320 272" stroke-linecap="round" stroke-miterlimit="10" stroke-width="3" stroke-dasharray=""/><text fill="#ffffff" stroke="none" font-family="sans-serif" font-size="12px" font-style="normal" font-weight="normal" text-decoration="normal" x="304" y="266" text-anchor="start" dominant-baseline="alphabetic"></text><path fill="none" stroke="#42bd42" paint-order="fill stroke markers" d=" M 320 272 L 320 292" stroke-linecap="round" stroke-miterlimit="10" stroke-width="3" stroke-dasharray=""/><path fill="none" stroke="#42bd42" paint-order="fill stroke markers" d=" M 320 316 L 320 336" stroke-linecap="round" stroke-miterlimit="10" stroke-width="3" stroke-dasharray=""/><path fill="none" stroke="#808080" paint-order="fill stroke markers" d=" M 331.76 304 A 11.76 11.76 0 1 1 331.7599941200005 303.98824000196" stroke-linecap="round" stroke-miterlimit="10" stroke-width="3" stroke-dasharray=""/><path fill="#000000" stroke="none" paint-order="stroke fill markers" d=" M 328 304 A 8 8 0 1 1 327.99999999988734 303.9999575425633 Z"/><path fill="none" stroke="#42bd42" paint-order="fill stroke markers" d=" M 352 336 L 352 316" stroke-linecap="round" stroke-miterlimit="10" stroke-width="3" stroke-dasharray=""/><path fill="none" stroke="#42bd42" paint-order="fill stroke markers" d=" M 352 292 L 352 272" stroke-linecap="round" stroke-miterlimit="10" stroke-width="3" stroke-dasharray=""/><path fill="none" stroke="#808080" paint-order="fill stroke markers" d=" M 363.76 304 A 11.76 11.76 0 1 1 363.7599941200005 303.98824000196" stroke-linecap="round" stroke-miterlimit="10" stroke-width="3" stroke-dasharray=""/><path fill="#000000" stroke="none" paint-order="stroke fill markers" d=" M 360 304 A 8 8 0 1 1 359.99999999988734 303.9999575425633 Z"/><path fill="none" stroke="#42bd42" paint-order="fill stroke markers" d=" M 320 272 L 352 272" stroke-linecap="round" stroke-miterlimit="10" stroke-width="3" stroke-dasharray=""/><text fill="#ffffff" stroke="none" font-family="sans-serif" font-size="12px" font-style="normal" font-weight="normal" text-decoration="normal" x="336" y="266" text-anchor="start" dominant-baseline="alphabetic"></text><path fill="none" stroke="#42bd42" paint-order="fill stroke markers" d=" M 320 336 L 352 336" stroke-linecap="round" stroke-miterlimit="10" stroke-width="3" stroke-dasharray=""/><text fill="#ffffff" stroke="none" font-family="sans-serif" font-size="12px" font-style="normal" font-weight="normal" text-decoration="normal" x="336" y="330" text-anchor="start" dominant-baseline="alphabetic"></text><path fill="none" stroke="#2cd22c" paint-order="fill stroke markers" d=" M 352 144 L 352 196" stroke-linecap="round" stroke-miterlimit="10" stroke-width="3" stroke-dasharray=""/><path fill="none" stroke="#42bd42" paint-order="fill stroke markers" d=" M 352 220 L 352 272" stroke-linecap="round" stroke-miterlimit="10" stroke-width="3" stroke-dasharray=""/><path fill="none" stroke="#808080" paint-order="fill stroke markers" d=" M 363.76 208 A 11.76 11.76 0 1 1 363.7599941200005 207.98824000195998" stroke-linecap="round" stroke-miterlimit="10" stroke-width="3" stroke-dasharray=""/><path fill="#000000" stroke="none" paint-order="stroke fill markers" d=" M 360 208 A 8 8 0 1 1 359.99999999988734 207.9999575425633 Z"/><path fill="none" stroke="#42bd42" paint-order="fill stroke markers" d=" M 384 272 L 384 220" stroke-linecap="round" stroke-miterlimit="10" stroke-width="3" stroke-dasharray=""/><path fill="none" stroke="#2cd22c" paint-order="fill stroke markers" d=" M 384 196 L 384 144" stroke-linecap="round" stroke-miterlimit="10" stroke-width="3" stroke-dasharray=""/><path fill="none" stroke="#808080" paint-order="fill stroke markers" d=" M 395.76 208 A 11.76 11.76 0 1 1 395.7599941200005 207.98824000195998" stroke-linecap="round" stroke-miterlimit="10" stroke-width="3" stroke-dasharray=""/><path fill="#000000" stroke="none" paint-order="stroke fill markers" d=" M 392 208 A 8 8 0 1 1 391.99999999988734 207.9999575425633 Z"/><path fill="none" stroke="#2cd22c" paint-order="fill stroke markers" d=" M 352 144 L 384 144" stroke-linecap="round" stroke-miterlimit="10" stroke-width="3" stroke-dasharray=""/><text fill="#ffffff" stroke="none" font-family="sans-serif" font-size="12px" font-style="normal" font-weight="normal" text-decoration="normal" x="368" y="138" text-anchor="start" dominant-baseline="alphabetic"></text><path fill="none" stroke="#2cd22c" paint-order="fill stroke markers" d=" M 480 144 L 480 228" stroke-linecap="round" stroke-miterlimit="10" stroke-width="3" stroke-dasharray=""/><path fill="none" stroke="#42bd42" paint-order="fill stroke markers" d=" M 480 252 L 480 336" stroke-linecap="round" stroke-miterlimit="10" stroke-width="3" stroke-dasharray=""/><path fill="none" stroke="#808080" paint-order="fill stroke markers" d=" M 491.76 240 A 11.76 11.76 0 1 1 491.7599941200005 239.98824000195998" stroke-linecap="round" stroke-miterlimit="10" stroke-width="3" stroke-dasharray=""/><path fill="#000000" stroke="none" paint-order="stroke fill markers" d=" M 488 240 A 8 8 0 1 1 487.99999999988734 239.9999575425633 Z"/><path fill="none" stroke="#42bd42" paint-order="fill stroke markers" d=" M 512 336 L 512 252" stroke-linecap="round" stroke-miterlimit="10" stroke-width="3" stroke-dasharray=""/><path fill="none" stroke="#2cd22c" paint-order="fill stroke markers" d=" M 512 228 L 512 144" stroke-linecap="round" stroke-miterlimit="10" stroke-width="3" stroke-dasharray=""/><path fill="none" stroke="#808080" paint-order="fill stroke markers" d=" M 523.76 240 A 11.76 11.76 0 1 1 523.7599941200004 239.98824000195998" stroke-linecap="round" stroke-miterlimit="10" stroke-width="3" stroke-dasharray=""/><path fill="#000000" stroke="none" paint-order="stroke fill markers" d=" M 520 240 A 8 8 0 1 1 519.9999999998873 239.9999575425633 Z"/><path fill="none" stroke="#2cd22c" paint-order="fill stroke markers" d=" M 416 144 L 480 144" stroke-linecap="round" stroke-miterlimit="10" stroke-width="3" stroke-dasharray=""/><text fill="#ffffff" stroke="none" font-family="sans-serif" font-size="12px" font-style="normal" font-weight="normal" text-decoration="normal" x="448" y="138" text-anchor="start" dominant-baseline="alphabetic"></text><path fill="none" stroke="#42bd42" paint-order="fill stroke markers" d=" M 416 336 L 448 336" stroke-linecap="round" stroke-miterlimit="10" stroke-width="3" stroke-dasharray=""/><text fill="#ffffff" stroke="none" font-family="sans-serif" font-size="12px" font-style="normal" font-weight="normal" text-decoration="normal" x="432" y="330" text-anchor="start" dominant-baseline="alphabetic"></text><path fill="none" stroke="#42bd42" paint-order="fill stroke markers" d=" M 352 272 L 384 272" stroke-linecap="round" stroke-miterlimit="10" stroke-width="3" stroke-dasharray=""/><text fill="#ffffff" stroke="none" font-family="sans-serif" font-size="12px" font-style="normal" font-weight="normal" text-decoration="normal" x="368" y="266" text-anchor="start" dominant-baseline="alphabetic"></text><path fill="none" stroke="#42bd42" paint-order="fill stroke markers" d=" M 320 336 L 256 336" stroke-linecap="round" stroke-miterlimit="10" stroke-width="3" stroke-dasharray=""/><text fill="#ffffff" stroke="none" font-family="sans-serif" font-size="12px" font-style="normal" font-weight="normal" text-decoration="normal" x="288" y="330" text-anchor="start" dominant-baseline="alphabetic"></text><path fill="none" stroke="#42bd42" paint-order="fill stroke markers" d=" M 288 272 L 256 272" stroke-linecap="round" stroke-miterlimit="10" stroke-width="3" stroke-dasharray=""/><text fill="#ffffff" stroke="none" font-family="sans-serif" font-size="12px" font-style="normal" font-weight="normal" text-decoration="normal" x="272" y="266" text-anchor="start" dominant-baseline="alphabetic"></text><path fill="none" stroke="#42bd42" paint-order="fill stroke markers" d=" M 352 336 L 416 336" stroke-linecap="round" stroke-miterlimit="10" stroke-width="3" stroke-dasharray=""/><text fill="#ffffff" stroke="none" font-family="sans-serif" font-size="12px" font-style="normal" font-weight="normal" text-decoration="normal" x="384" y="330" text-anchor="start" dominant-baseline="alphabetic"></text><path fill="none" stroke="#2cd22c" paint-order="fill stroke markers" d=" M 288 144 L 352 144" stroke-linecap="round" stroke-miterlimit="10" stroke-width="3" stroke-dasharray=""/><text fill="#ffffff" stroke="none" font-family="sans-serif" font-size="12px" font-style="normal" font-weight="normal" text-decoration="normal" x="320" y="138" text-anchor="start" dominant-baseline="alphabetic"></text><path fill="none" stroke="#2cd22c" paint-order="fill stroke markers" d=" M 384 144 L 416 144" stroke-linecap="round" stroke-miterlimit="10" stroke-width="3" stroke-dasharray=""/><text fill="#ffffff" stroke="none" font-family="sans-serif" font-size="12px" font-style="normal" font-weight="normal" text-decoration="normal" x="400" y="138" text-anchor="start" dominant-baseline="alphabetic"></text><path fill="none" stroke="#01fd01" paint-order="fill stroke markers" d=" M 80 336 L 96 336" stroke-linecap="round" stroke-miterlimit="10" stroke-width="3" stroke-dasharray=""/><path fill="none" stroke="#42bd42" paint-order="fill stroke markers" d=" M 128 336 L 144 336" stroke-linecap="round" stroke-miterlimit="10" stroke-width="3" stroke-dasharray=""/><path fill="none" stroke="#c0c0c0" paint-order="fill stroke markers" d=" M 96 318 L 96 354 L 126 336 Z" stroke-linecap="round" stroke-miterlimit="10" stroke-width="3" stroke-dasharray=""/><path fill="none" stroke="#807f7f" paint-order="fill stroke markers" d=" M 112 320 L 112 328" stroke-linecap="round" stroke-miterlimit="10" stroke-width="3" stroke-dasharray=""/><g><g><text fill="#ffffff" stroke="none" font-family="sans-serif" font-size="20px" font-style="normal" font-weight="bold" text-decoration="normal" x="32" y="336" text-anchor="middle" dominant-baseline="central">H</text></g><path fill="none" stroke="#01fd01" paint-order="fill stroke markers" d=" M 80 336 L 44 336" stroke-linecap="round" stroke-miterlimit="10" stroke-width="3" stroke-dasharray=""/></g><g><g><text fill="#ffffff" stroke="none" font-family="sans-serif" font-size="20px" font-style="normal" font-weight="bold" text-decoration="normal" x="64" y="304" text-anchor="middle" dominant-baseline="central">L</text></g><path fill="none" stroke="#807f7f" paint-order="fill stroke markers" d=" M 112 304 L 76 304" stroke-linecap="round" stroke-miterlimit="10" stroke-width="3" stroke-dasharray=""/></g><path fill="none" stroke="#807f7f" paint-order="fill stroke markers" d=" M 80 272 L 96 272" stroke-linecap="round" stroke-miterlimit="10" stroke-width="3" stroke-dasharray=""/><path fill="none" stroke="#42bd42" paint-order="fill stroke markers" d=" M 128 272 L 144 272" stroke-linecap="round" stroke-miterlimit="10" stroke-width="3" stroke-dasharray=""/><path fill="none" stroke="#c0c0c0" paint-order="fill stroke markers" d=" M 96 254 L 96 290 L 126 272 Z" stroke-linecap="round" stroke-miterlimit="10" stroke-width="3" stroke-dasharray=""/><path fill="none" stroke="#807f7f" paint-order="fill stroke markers" d=" M 112 256 L 112 264" stroke-linecap="round" stroke-miterlimit="10" stroke-width="3" stroke-dasharray=""/><path fill="none" stroke="#807f7f" paint-order="fill stroke markers" d=" M 112 304 L 112 320" stroke-linecap="round" stroke-miterlimit="10" stroke-width="3" stroke-dasharray=""/><text fill="#ffffff" stroke="none" font-family="sans-serif" font-size="12px" font-style="normal" font-weight="normal" text-decoration="normal" x="118" y="318" text-anchor="start" dominant-baseline="alphabetic"></text><g><g><text fill="#ffffff" stroke="none" font-family="sans-serif" font-size="20px" font-style="normal" font-weight="bold" text-decoration="normal" x="32" y="272" text-anchor="middle" dominant-baseline="central">L</text></g><path fill="none" stroke="#807f7f" paint-order="fill stroke markers" d=" M 80 272 L 44 272" stroke-linecap="round" stroke-miterlimit="10" stroke-width="3" stroke-dasharray=""/></g><g><g><text fill="#ffffff" stroke="none" font-family="sans-serif" font-size="20px" font-style="normal" font-weight="bold" text-decoration="normal" x="64" y="240" text-anchor="middle" dominant-baseline="central">L</text></g><path fill="none" stroke="#807f7f" paint-order="fill stroke markers" d=" M 112 240 L 76 240" stroke-linecap="round" stroke-miterlimit="10" stroke-width="3" stroke-dasharray=""/></g><path fill="none" stroke="#807f7f" paint-order="fill stroke markers" d=" M 112 240 L 112 256" stroke-linecap="round" stroke-miterlimit="10" stroke-width="3" stroke-dasharray=""/><text fill="#ffffff" stroke="none" font-family="sans-serif" font-size="12px" font-style="normal" font-weight="normal" text-decoration="normal" x="118" y="254" text-anchor="start" dominant-baseline="alphabetic"></text><path fill="none" stroke="#01fd01" paint-order="fill stroke markers" d=" M 112 112 L 112 128" stroke-linecap="round" stroke-miterlimit="10" stroke-width="3" stroke-dasharray=""/><text fill="#ffffff" stroke="none" font-family="sans-serif" font-size="12px" font-style="normal" font-weight="normal" text-decoration="normal" x="118" y="126" text-anchor="start" dominant-baseline="alphabetic"></text><g><g><text fill="#ffffff" stroke="none" font-family="sans-serif" font-size="20px" font-style="normal" font-weight="bold" text-decoration="normal" x="64" y="112" text-anchor="middle" dominant-baseline="central">H</text></g><path fill="none" stroke="#01fd01" paint-order="fill stroke markers" d=" M 112 112 L 76 112" stroke-linecap="round" stroke-miterlimit="10" stroke-width="3" stroke-dasharray=""/></g><g><g><text fill="#ffffff" stroke="none" font-family="sans-serif" font-size="20px" font-style="normal" font-weight="bold" text-decoration="normal" x="32" y="144" text-anchor="middle" dominant-baseline="central">H</text></g><path fill="none" stroke="#01fd01" paint-order="fill stroke markers" d=" M 80 144 L 44 144" stroke-linecap="round" stroke-miterlimit="10" stroke-width="3" stroke-dasharray=""/></g><path fill="none" stroke="#01fd01" paint-order="fill stroke markers" d=" M 112 176 L 112 192" stroke-linecap="round" stroke-miterlimit="10" stroke-width="3" stroke-dasharray=""/><text fill="#ffffff" stroke="none" font-family="sans-serif" font-size="12px" font-style="normal" font-weight="normal" text-decoration="normal" x="118" y="190" text-anchor="start" dominant-baseline="alphabetic"></text><path fill="none" stroke="#01fd01" paint-order="fill stroke markers" d=" M 80 144 L 96 144" stroke-linecap="round" stroke-miterlimit="10" stroke-width="3" stroke-dasharray=""/><path fill="none" stroke="#02fc02" paint-order="fill stroke markers" d=" M 128 144 L 144 144" stroke-linecap="round" stroke-miterlimit="10" stroke-width="3" stroke-dasharray=""/><path fill="none" stroke="#c0c0c0" paint-order="fill stroke markers" d=" M 96 126 L 96 162 L 126 144 Z" stroke-linecap="round" stroke-miterlimit="10" stroke-width="3" stroke-dasharray=""/><path fill="none" stroke="#01fd01" paint-order="fill stroke markers" d=" M 112 128 L 112 136" stroke-linecap="round" stroke-miterlimit="10" stroke-width="3" stroke-dasharray=""/><g><g><text fill="#ffffff" stroke="none" font-family="sans-serif" font-size="20px" font-style="normal" font-weight="bold" text-decoration="normal" x="64" y="176" text-anchor="middle" dominant-baseline="central">H</text></g><path fill="none" stroke="#01fd01" paint-order="fill stroke markers" d=" M 112 176 L 76 176" stroke-linecap="round" stroke-miterlimit="10" stroke-width="3" stroke-dasharray=""/></g><g><g><text fill="#ffffff" stroke="none" font-family="sans-serif" font-size="20px" font-style="normal" font-weight="bold" text-decoration="normal" x="32" y="208" text-anchor="middle" dominant-baseline="central">L</text></g><path fill="none" stroke="#807f7f" paint-order="fill stroke markers" d=" M 80 208 L 44 208" stroke-linecap="round" stroke-miterlimit="10" stroke-width="3" stroke-dasharray=""/></g><path fill="none" stroke="#807f7f" paint-order="fill stroke markers" d=" M 80 208 L 96 208" stroke-linecap="round" stroke-miterlimit="10" stroke-width="3" stroke-dasharray=""/><path fill="none" stroke="#807f7f" paint-order="fill stroke markers" d=" M 128 208 L 144 208" stroke-linecap="round" stroke-miterlimit="10" stroke-width="3" stroke-dasharray=""/><path fill="none" stroke="#c0c0c0" paint-order="fill stroke markers" d=" M 96 190 L 96 226 L 126 208 Z" stroke-linecap="round" stroke-miterlimit="10" stroke-width="3" stroke-dasharray=""/><path fill="none" stroke="#01fd01" paint-order="fill stroke markers" d=" M 112 192 L 112 200" stroke-linecap="round" stroke-miterlimit="10" stroke-width="3" stroke-dasharray=""/><path fill="none" stroke="#807f7f" paint-order="fill stroke markers" d=" M 32 -16 L 48 -16" stroke-linecap="round" stroke-miterlimit="10" stroke-width="3" stroke-dasharray=""/><path fill="none" stroke="#807f7f" paint-order="fill stroke markers" d=" M 80 -16 L 96 -16" stroke-linecap="round" stroke-miterlimit="10" stroke-width="3" stroke-dasharray=""/><path fill="none" stroke="#c0c0c0" paint-order="fill stroke markers" d=" M 48 -34 L 48 2 L 78 -16 Z" stroke-linecap="round" stroke-miterlimit="10" stroke-width="3" stroke-dasharray=""/><path fill="none" stroke="#807f7f" paint-order="fill stroke markers" d=" M 64 -32 L 64 -24" stroke-linecap="round" stroke-miterlimit="10" stroke-width="3" stroke-dasharray=""/><g><g><text fill="#ffffff" stroke="none" font-family="sans-serif" font-size="20px" font-style="normal" font-weight="bold" text-decoration="normal" x="-16" y="-16" text-anchor="middle" dominant-baseline="central">L</text></g><path fill="none" stroke="#807f7f" paint-order="fill stroke markers" d=" M 32 -16 L -4 -16" stroke-linecap="round" stroke-miterlimit="10" stroke-width="3" stroke-dasharray=""/></g><g><g><text fill="#ffffff" stroke="none" font-family="sans-serif" font-size="20px" font-style="normal" font-weight="bold" text-decoration="normal" x="16" y="-48" text-anchor="middle" dominant-baseline="central">L</text></g><path fill="none" stroke="#807f7f" paint-order="fill stroke markers" d=" M 64 -48 L 28 -48" stroke-linecap="round" stroke-miterlimit="10" stroke-width="3" stroke-dasharray=""/></g><path fill="none" stroke="#807f7f" paint-order="fill stroke markers" d=" M 64 -48 L 64 -32" stroke-linecap="round" stroke-miterlimit="10" stroke-width="3" stroke-dasharray=""/><text fill="#ffffff" stroke="none" font-family="sans-serif" font-size="12px" font-style="normal" font-weight="normal" text-decoration="normal" x="70" y="-34" text-anchor="start" dominant-baseline="alphabetic"></text><g><g><text fill="#ffffff" stroke="none" font-family="sans-serif" font-size="20px" font-style="normal" font-weight="bold" text-decoration="normal" x="256" y="-16" text-anchor="middle" dominant-baseline="central">L</text></g><path fill="none" stroke="#807f7f" paint-order="fill stroke markers" d=" M 304 -16 L 268 -16" stroke-linecap="round" stroke-miterlimit="10" stroke-width="3" stroke-dasharray=""/></g><path fill="none" stroke="#807f7f" paint-order="fill stroke markers" d=" M 304 -16 L 320 -16" stroke-linecap="round" stroke-miterlimit="10" stroke-width="3" stroke-dasharray=""/><path fill="none" stroke="#807f7f" paint-order="fill stroke markers" d=" M 352 -16 L 368 -16" stroke-linecap="round" stroke-miterlimit="10" stroke-width="3" stroke-dasharray=""/><path fill="none" stroke="#c0c0c0" paint-order="fill stroke markers" d=" M 320 -34 L 320 2 L 350 -16 Z" stroke-linecap="round" stroke-miterlimit="10" stroke-width="3" stroke-dasharray=""/><path fill="none" stroke="#01fd01" paint-order="fill stroke markers" d=" M 336 -32 L 336 -24" stroke-linecap="round" stroke-miterlimit="10" stroke-width="3" stroke-dasharray=""/><g><text fill="#c0c0c0" stroke="none" font-family="sans-serif" font-size="19px" font-style="normal" font-weight="normal" text-decoration="normal" x="-26" y="-99" text-anchor="start" dominant-baseline="alphabetic">IO as INPUT</text></g><g><text fill="#c0c0c0" stroke="none" font-family="sans-serif" font-size="19px" font-style="normal" font-weight="normal" text-decoration="normal" x="197" y="-81" text-anchor="start" dominant-baseline="alphabetic">IO as OUTPUT, LOW</text></g><g><text fill="#c0c0c0" stroke="none" font-family="sans-serif" font-size="19px" font-style="normal" font-weight="normal" text-decoration="normal" x="494" y="-83" text-anchor="start" dominant-baseline="alphabetic">IO as OUTPUT, HIGH</text></g><path fill="none" stroke="#01fd01" paint-order="fill stroke markers" d=" M 608 -16 L 624 -16" stroke-linecap="round" stroke-miterlimit="10" stroke-width="3" stroke-dasharray=""/><path fill="none" stroke="#02fc02" paint-order="fill stroke markers" d=" M 656 -16 L 672 -16" stroke-linecap="round" stroke-miterlimit="10" stroke-width="3" stroke-dasharray=""/><path fill="none" stroke="#c0c0c0" paint-order="fill stroke markers" d=" M 624 -34 L 624 2 L 654 -16 Z" stroke-linecap="round" stroke-miterlimit="10" stroke-width="3" stroke-dasharray=""/><path fill="none" stroke="#01fd01" paint-order="fill stroke markers" d=" M 640 -32 L 640 -24" stroke-linecap="round" stroke-miterlimit="10" stroke-width="3" stroke-dasharray=""/><g><g><text fill="#ffffff" stroke="none" font-family="sans-serif" font-size="20px" font-style="normal" font-weight="bold" text-decoration="normal" x="560" y="-16" text-anchor="middle" dominant-baseline="central">H</text></g><path fill="none" stroke="#01fd01" paint-order="fill stroke markers" d=" M 608 -16 L 572 -16" stroke-linecap="round" stroke-miterlimit="10" stroke-width="3" stroke-dasharray=""/></g><path fill="none" stroke="#01fd01" paint-order="fill stroke markers" d=" M 640 -48 L 640 -32" stroke-linecap="round" stroke-miterlimit="10" stroke-width="3" stroke-dasharray=""/><text fill="#ffffff" stroke="none" font-family="sans-serif" font-size="12px" font-style="normal" font-weight="normal" text-decoration="normal" x="646" y="-34" text-anchor="start" dominant-baseline="alphabetic"></text><g><text fill="#c0c0c0" stroke="none" font-family="sans-serif" font-size="19px" font-style="normal" font-weight="normal" text-decoration="normal" x="-40" y="-80" text-anchor="start" dominant-baseline="alphabetic">=high impedance</text></g><g><g><text fill="#ffffff" stroke="none" font-family="sans-serif" font-size="20px" font-style="normal" font-weight="bold" text-decoration="normal" x="288" y="-48" text-anchor="middle" dominant-baseline="central">H</text></g><path fill="none" stroke="#01fd01" paint-order="fill stroke markers" d=" M 336 -48 L 300 -48" stroke-linecap="round" stroke-miterlimit="10" stroke-width="3" stroke-dasharray=""/></g><g><g><text fill="#ffffff" stroke="none" font-family="sans-serif" font-size="20px" font-style="normal" font-weight="bold" text-decoration="normal" x="592" y="-48" text-anchor="middle" dominant-baseline="central">H</text></g><path fill="none" stroke="#01fd01" paint-order="fill stroke markers" d=" M 640 -48 L 604 -48" stroke-linecap="round" stroke-miterlimit="10" stroke-width="3" stroke-dasharray=""/></g><path fill="none" stroke="#01fd01" paint-order="fill stroke markers" d=" M 336 -32 L 336 -48" stroke-linecap="round" stroke-miterlimit="10" stroke-width="3" stroke-dasharray=""/><text fill="#ffffff" stroke="none" font-family="sans-serif" font-size="12px" font-style="normal" font-weight="normal" text-decoration="normal" x="342" y="-34" text-anchor="start" dominant-baseline="alphabetic"></text><rect fill="none" stroke="#808080" x="-16" y="64" width="179" height="317" stroke-linecap="round" stroke-miterlimit="10" stroke-dasharray="16,6"/><g><text fill="#c0c0c0" stroke="none" font-family="sans-serif" font-size="19px" font-style="normal" font-weight="normal" text-decoration="normal" x="20" y="85" text-anchor="start" dominant-baseline="alphabetic">Inside MCU</text></g><rect fill="none" stroke="#808080" x="-53" y="-126" width="755" height="141" stroke-linecap="round" stroke-miterlimit="10" stroke-dasharray="16,6"/><path fill="none" stroke="#42bd42" paint-order="fill stroke markers" d=" M 416 336 L 416 284" stroke-linecap="round" stroke-miterlimit="10" stroke-width="3"/><path fill="none" stroke="#56a956" paint-order="fill stroke markers" d=" M 416 260 L 416 208" stroke-linecap="round" stroke-miterlimit="10" stroke-width="3"/><path fill="none" stroke="#808080" paint-order="fill stroke markers" d=" M 427.76 272 A 11.76 11.76 0 1 1 427.7599941200005 271.98824000196" stroke-linecap="round" stroke-miterlimit="10" stroke-width="3"/><path fill="#000000" stroke="none" paint-order="stroke fill markers" d=" M 424 272 A 8 8 0 1 1 423.99999999988734 271.9999575425633 Z"/><path fill="none" stroke="#56a956" paint-order="fill stroke markers" d=" M 448 208 L 448 260" stroke-linecap="round" stroke-miterlimit="10" stroke-width="3"/><path fill="none" stroke="#42bd42" paint-order="fill stroke markers" d=" M 448 284 L 448 336" stroke-linecap="round" stroke-miterlimit="10" stroke-width="3"/><path fill="none" stroke="#808080" paint-order="fill stroke markers" d=" M 459.76 272 A 11.76 11.76 0 1 1 459.7599941200005 271.98824000196" stroke-linecap="round" stroke-miterlimit="10" stroke-width="3"/><path fill="#000000" stroke="none" paint-order="stroke fill markers" d=" M 456 272 A 8 8 0 1 1 455.99999999988734 271.9999575425633 Z"/><path fill="none" stroke="#56a956" paint-order="fill stroke markers" d=" M 416 208 L 448 208" stroke-linecap="round" stroke-miterlimit="10" stroke-width="3"/><text fill="#ffffff" stroke="none" font-family="sans-serif" font-size="12px" font-style="normal" font-weight="normal" text-decoration="normal" x="432" y="202" text-anchor="start" dominant-baseline="alphabetic"></text><path fill="none" stroke="#56a956" paint-order="fill stroke markers" d=" M 320 176 L 416 176" stroke-linecap="round" stroke-miterlimit="10" stroke-width="3"/><text fill="#ffffff" stroke="none" font-family="sans-serif" font-size="12px" font-style="normal" font-weight="normal" text-decoration="normal" x="368" y="170" text-anchor="start" dominant-baseline="alphabetic"></text><path fill="none" stroke="#2cd22c" paint-order="fill stroke markers" d=" M 480 144 L 512 144" stroke-linecap="round" stroke-miterlimit="10" stroke-width="3"/><text fill="#ffffff" stroke="none" font-family="sans-serif" font-size="12px" font-style="normal" font-weight="normal" text-decoration="normal" x="496" y="138" text-anchor="start" dominant-baseline="alphabetic"></text><path fill="none" stroke="#42bd42" paint-order="fill stroke markers" d=" M 448 336 L 480 336" stroke-linecap="round" stroke-miterlimit="10" stroke-width="3"/><text fill="#ffffff" stroke="none" font-family="sans-serif" font-size="12px" font-style="normal" font-weight="normal" text-decoration="normal" x="464" y="330" text-anchor="start" dominant-baseline="alphabetic"></text><path fill="none" stroke="#42bd42" paint-order="fill stroke markers" d=" M 512 336 L 480 336" stroke-linecap="round" stroke-miterlimit="10" stroke-width="3"/><text fill="#ffffff" stroke="none" font-family="sans-serif" font-size="12px" font-style="normal" font-weight="normal" text-decoration="normal" x="496" y="330" text-anchor="start" dominant-baseline="alphabetic"></text><path fill="none" stroke="#56a956" paint-order="fill stroke markers" d=" M 416 176 L 416 208" stroke-linecap="round" stroke-miterlimit="10" stroke-width="3"/><text fill="#ffffff" stroke="none" font-family="sans-serif" font-size="12px" font-style="normal" font-weight="normal" text-decoration="normal" x="422" y="198" text-anchor="start" dominant-baseline="alphabetic"></text><path fill="none" stroke="#56a956" paint-order="fill stroke markers" d=" M 320 176 L 320 208" stroke-linecap="round" stroke-miterlimit="10" stroke-width="3"/><text fill="#ffffff" stroke="none" font-family="sans-serif" font-size="12px" font-style="normal" font-weight="normal" text-decoration="normal" x="326" y="198" text-anchor="start" dominant-baseline="alphabetic"></text><g><text fill="#c0c0c0" stroke="none" font-family="sans-serif" font-size="19px" font-style="normal" font-weight="normal" text-decoration="normal" x="-50" y="-138" text-anchor="start" dominant-baseline="alphabetic">3 states</text></g><path fill="#ffffff" stroke="none" paint-order="stroke fill markers" d=" M 259 144 A 3 3 0 1 1 258.99999999995777 143.99998407846124 Z"/><path fill="#ffffff" stroke="none" paint-order="stroke fill markers" d=" M 259 208 A 3 3 0 1 1 258.99999999995777 207.99998407846124 Z"/><path fill="#ffffff" stroke="none" paint-order="stroke fill markers" d=" M 291 208 A 3 3 0 1 1 290.99999999995777 207.99998407846124 Z"/><path fill="#ffffff" stroke="none" paint-order="stroke fill markers" d=" M 291 144 A 3 3 0 1 1 290.99999999995777 143.99998407846124 Z"/><path fill="#ffffff" stroke="none" paint-order="stroke fill markers" d=" M 291 272 A 3 3 0 1 1 290.99999999995777 271.99998407846124 Z"/><path fill="#ffffff" stroke="none" paint-order="stroke fill markers" d=" M 323 272 A 3 3 0 1 1 322.99999999995777 271.99998407846124 Z"/><path fill="#ffffff" stroke="none" paint-order="stroke fill markers" d=" M 323 208 A 3 3 0 1 1 322.99999999995777 207.99998407846124 Z"/><path fill="#ffffff" stroke="none" paint-order="stroke fill markers" d=" M 323 336 A 3 3 0 1 1 322.99999999995777 335.99998407846124 Z"/><path fill="#ffffff" stroke="none" paint-order="stroke fill markers" d=" M 355 336 A 3 3 0 1 1 354.99999999995777 335.99998407846124 Z"/><path fill="#ffffff" stroke="none" paint-order="stroke fill markers" d=" M 355 272 A 3 3 0 1 1 354.99999999995777 271.99998407846124 Z"/><path fill="#ffffff" stroke="none" paint-order="stroke fill markers" d=" M 355 144 A 3 3 0 1 1 354.99999999995777 143.99998407846124 Z"/><path fill="#ffffff" stroke="none" paint-order="stroke fill markers" d=" M 387 144 A 3 3 0 1 1 386.99999999995777 143.99998407846124 Z"/><path fill="#ffffff" stroke="none" paint-order="stroke fill markers" d=" M 483 144 A 3 3 0 1 1 482.99999999995777 143.99998407846124 Z"/><path fill="#ffffff" stroke="none" paint-order="stroke fill markers" d=" M 483 336 A 3 3 0 1 1 482.99999999995777 335.99998407846124 Z"/><path fill="#ffffff" stroke="none" paint-order="stroke fill markers" d=" M 419 336 A 3 3 0 1 1 418.99999999995777 335.99998407846124 Z"/><path fill="#ffffff" stroke="none" paint-order="stroke fill markers" d=" M 451 336 A 3 3 0 1 1 450.99999999995777 335.99998407846124 Z"/><path fill="#ffffff" stroke="none" paint-order="stroke fill markers" d=" M 99 -16 A 3 3 0 1 1 98.99999999995775 -16.00001592153876 Z"/><path fill="#ffffff" stroke="none" paint-order="stroke fill markers" d=" M 371 -16 A 3 3 0 1 1 370.99999999995777 -16.00001592153876 Z"/><path fill="#ffffff" stroke="none" paint-order="stroke fill markers" d=" M 675 -16 A 3 3 0 1 1 674.9999999999577 -16.00001592153876 Z"/><path fill="#ffffff" stroke="none" paint-order="stroke fill markers" d=" M 419 208 A 3 3 0 1 1 418.99999999995777 207.99998407846124 Z"/></g></g></svg>