<svg version="1.1" xmlns="http://www.w3.org/2000/svg" xmlns:xlink="http://www.w3.org/1999/xlink" width="844" height="293"><defs><linearGradient id="lvCurlhqrBlQ" x1="0px" x2="32px" y1="0px" y2="0px" gradientUnits="userSpaceOnUse"><stop offset="0" stop-color="#807f7f"/><stop offset="1" stop-color="#807f7f"/></linearGradient><linearGradient id="kexCxCatQhHL" x1="0px" x2="32px" y1="0px" y2="0px" gradientUnits="userSpaceOnUse"><stop offset="0" stop-color="#807f7f"/><stop offset="1" stop-color="#807f7f"/></linearGradient><linearGradient id="BPuAGGHGJekh" x1="0px" x2="32px" y1="0px" y2="0px" gradientUnits="userSpaceOnUse"><stop offset="0" stop-color="#807f7f"/><stop offset="1" stop-color="#807f7f"/></linearGradient><linearGradient id="zVKoTdwtqgGt" x1="0px" x2="32px" y1="0px" y2="0px" gradientUnits="userSpaceOnUse"><stop offset="0" stop-color="#807f7f"/><stop offset="1" stop-color="#807f7f"/></linearGradient></defs><g><rect fill="#000000" stroke="none" x="0" y="0" width="844" height="293"/><g transform="scale(1,1) translate(-26,19)"><path fill="none" stroke="#807f7f" paint-order="fill stroke markers" d=" M 560 128 L 596 128" stroke-linecap="round" stroke-miterlimit="10" stroke-width="3" stroke-dasharray=""/><path fill="none" stroke="#807f7f" paint-order="fill stroke markers" d=" M 596 116 L 596 140" stroke-linecap="round" stroke-miterlimit="10" stroke-width="3" stroke-dasharray=""/><path fill="none" stroke="#807f7f" paint-order="fill stroke markers" d=" M 640 128 L 604 128" stroke-linecap="round" stroke-miterlimit="10" stroke-width="3" stroke-dasharray=""/><path fill="none" stroke="#807f7f" paint-order="fill stroke markers" d=" M 604 116 L 604 140" stroke-linecap="round" stroke-miterlimit="10" stroke-width="3" stroke-dasharray=""/><text fill="#ffffff" stroke="none" font-family="sans-serif" font-size="12px" font-style="normal" font-weight="normal" text-decoration="normal" x="583" y="114" text-anchor="start" dominant-baseline="alphabetic">100nF</text><path fill="none" stroke="#807f7f" paint-order="fill stroke markers" d=" M 640 128 L 640 152" stroke-linecap="round" stroke-miterlimit="10" stroke-width="3" stroke-dasharray=""/><path fill="none" stroke="#807f7f" paint-order="fill stroke markers" d=" M 640 184 L 640 208" stroke-linecap="round" stroke-miterlimit="10" stroke-width="3" stroke-dasharray=""/><g transform="matrix(0,1,-1,0,640,152)"><path fill="none" stroke="url(#lvCurlhqrBlQ)" paint-order="fill stroke markers" d=" M 0 0 L 2 6 L 6 -6 L 10 6 L 14 -6 L 18 6 L 22 -6 L 26 6 L 30 -6 L 32 0" stroke-linecap="round" stroke-miterlimit="10" stroke-width="3" stroke-dasharray=""/></g><text fill="#ffffff" stroke="none" font-family="sans-serif" font-size="12px" font-style="normal" font-weight="normal" text-decoration="normal" x="650" y="174" text-anchor="start" dominant-baseline="alphabetic">10k</text><path fill="none" stroke="#807f7f" paint-order="fill stroke markers" d=" M 640 208 L 640 224" stroke-linecap="round" stroke-miterlimit="10" stroke-width="3" stroke-dasharray=""/><path fill="none" stroke="#807f7f" paint-order="fill stroke markers" d=" M 650 224 L 630 224" stroke-linecap="round" stroke-miterlimit="10" stroke-width="3" stroke-dasharray=""/><path fill="none" stroke="#807f7f" paint-order="fill stroke markers" d=" M 646 229 L 634 229" stroke-linecap="round" stroke-miterlimit="10" stroke-width="3" stroke-dasharray=""/><path fill="none" stroke="#807f7f" paint-order="fill stroke markers" d=" M 642 234 L 638 234" stroke-linecap="round" stroke-miterlimit="10" stroke-width="3" stroke-dasharray=""/><path fill="none" stroke="#01fd01" paint-order="fill stroke markers" d=" M 432 128 L 432 97" stroke-linecap="round" stroke-miterlimit="10" stroke-width="3" stroke-dasharray=""/><g><text fill="#ffffff" stroke="none" font-family="sans-serif" font-size="12px" font-style="normal" font-weight="normal" text-decoration="normal" x="418" y="85" text-anchor="start" dominant-baseline="central">+10V</text></g><rect fill="none" stroke="#808080" x="460" y="87" width="68" height="68" stroke-linecap="round" stroke-miterlimit="10" stroke-dasharray="16,6"/><path fill="none" stroke="#01fd01" paint-order="fill stroke markers" d=" M 432 128 L 480 128" stroke-linecap="round" stroke-miterlimit="10" stroke-width="3"/><path fill="none" stroke="#807f7f" paint-order="fill stroke markers" d=" M 512 128 L 560 128" stroke-linecap="round" stroke-miterlimit="10" stroke-width="3"/><path fill="none" stroke="#ffffff" paint-order="fill stroke markers" d=" M 480 128 L 512 112" stroke-linecap="round" stroke-miterlimit="10" stroke-width="3"/><g><text fill="#c0c0c0" stroke="none" font-family="sans-serif" font-size="12px" font-style="normal" font-weight="normal" text-decoration="normal" x="462" y="170" text-anchor="start" dominant-baseline="alphabetic">Press switch</text></g><path fill="none" stroke="#807f7f" paint-order="fill stroke markers" d=" M 800 192 L 800 224" stroke-linecap="round" stroke-miterlimit="10" stroke-width="3"/><path fill="none" stroke="#807f7f" paint-order="fill stroke markers" d=" M 810 224 L 790 224" stroke-linecap="round" stroke-miterlimit="10" stroke-width="3"/><path fill="none" stroke="#807f7f" paint-order="fill stroke markers" d=" M 806 229 L 794 229" stroke-linecap="round" stroke-miterlimit="10" stroke-width="3"/><path fill="none" stroke="#807f7f" paint-order="fill stroke markers" d=" M 802 234 L 798 234" stroke-linecap="round" stroke-miterlimit="10" stroke-width="3"/><path fill="none" stroke="#807f7f" paint-order="fill stroke markers" d=" M 800 128 L 800 144" stroke-linecap="round" stroke-miterlimit="10" stroke-width="3"/><path fill="none" stroke="#807f7f" paint-order="fill stroke markers" d=" M 800 176 L 800 192" stroke-linecap="round" stroke-miterlimit="10" stroke-width="3"/><g transform="matrix(0,1,-1,0,800,144)"><path fill="none" stroke="url(#kexCxCatQhHL)" paint-order="fill stroke markers" d=" M 0 0 L 2 6 L 6 -6 L 10 6 L 14 -6 L 18 6 L 22 -6 L 26 6 L 30 -6 L 32 0" stroke-linecap="round" stroke-miterlimit="10" stroke-width="3"/></g><text fill="#ffffff" stroke="none" font-family="sans-serif" font-size="12px" font-style="normal" font-weight="normal" text-decoration="normal" x="810" y="166" text-anchor="start" dominant-baseline="alphabetic">1k</text><path fill="none" stroke="#807f7f" paint-order="fill stroke markers" d=" M 752 128 L 764 128" stroke-linecap="round" stroke-miterlimit="10" stroke-width="3"/><path fill="none" stroke="#807f7f" paint-order="fill stroke markers" d=" M 788 128 L 800 128" stroke-linecap="round" stroke-miterlimit="10" stroke-width="3"/><path fill="none" stroke="#808080" paint-order="fill stroke markers" d=" M 787.76 128 A 11.76 11.76 0 1 1 787.7599941200004 127.98824000196" stroke-linecap="round" stroke-miterlimit="10" stroke-width="3"/><path fill="#000000" stroke="none" paint-order="stroke fill markers" d=" M 784 128 A 8 8 0 1 1 783.9999999998873 127.99995754256331 Z"/><path fill="none" stroke="#807f7f" paint-order="fill stroke markers" d=" M 560 208 L 560 224" stroke-linecap="round" stroke-miterlimit="10" stroke-width="3"/><path fill="none" stroke="#807f7f" paint-order="fill stroke markers" d=" M 570 224 L 550 224" stroke-linecap="round" stroke-miterlimit="10" stroke-width="3"/><path fill="none" stroke="#807f7f" paint-order="fill stroke markers" d=" M 566 229 L 554 229" stroke-linecap="round" stroke-miterlimit="10" stroke-width="3"/><path fill="none" stroke="#807f7f" paint-order="fill stroke markers" d=" M 562 234 L 558 234" stroke-linecap="round" stroke-miterlimit="10" stroke-width="3"/><path fill="none" stroke="#807f7f" paint-order="fill stroke markers" d=" M 560 128 L 560 152" stroke-linecap="round" stroke-miterlimit="10" stroke-width="3"/><path fill="none" stroke="#807f7f" paint-order="fill stroke markers" d=" M 560 184 L 560 208" stroke-linecap="round" stroke-miterlimit="10" stroke-width="3"/><g transform="matrix(0,1,-1,0,560,152)"><path fill="none" stroke="url(#BPuAGGHGJekh)" paint-order="fill stroke markers" d=" M 0 0 L 2 6 L 6 -6 L 10 6 L 14 -6 L 18 6 L 22 -6 L 26 6 L 30 -6 L 32 0" stroke-linecap="round" stroke-miterlimit="10" stroke-width="3"/></g><text fill="#ffffff" stroke="none" font-family="sans-serif" font-size="12px" font-style="normal" font-weight="normal" text-decoration="normal" x="570" y="174" text-anchor="start" dominant-baseline="alphabetic">10k</text><g><text fill="#c0c0c0" stroke="none" font-family="sans-serif" font-size="30px" font-style="normal" font-weight="normal" text-decoration="normal" x="564" y="32" text-anchor="start" dominant-baseline="alphabetic">TRIGGER</text></g><path fill="none" stroke="#807f7f" paint-order="fill stroke markers" d=" M 224 128 L 236 128" stroke-linecap="round" stroke-miterlimit="10" stroke-width="3"/><path fill="none" stroke="#807f7f" paint-order="fill stroke markers" d=" M 260 128 L 272 128" stroke-linecap="round" stroke-miterlimit="10" stroke-width="3"/><path fill="none" stroke="#808080" paint-order="fill stroke markers" d=" M 259.76 128 A 11.76 11.76 0 1 1 259.7599941200005 127.98824000196" stroke-linecap="round" stroke-miterlimit="10" stroke-width="3"/><path fill="#000000" stroke="none" paint-order="stroke fill markers" d=" M 256 128 A 8 8 0 1 1 255.99999999988734 127.99995754256331 Z"/><path fill="none" stroke="#807f7f" paint-order="fill stroke markers" d=" M 272 128 L 272 144" stroke-linecap="round" stroke-miterlimit="10" stroke-width="3"/><path fill="none" stroke="#807f7f" paint-order="fill stroke markers" d=" M 272 176 L 272 192" stroke-linecap="round" stroke-miterlimit="10" stroke-width="3"/><g transform="matrix(0,1,-1,0,272,144)"><path fill="none" stroke="url(#zVKoTdwtqgGt)" paint-order="fill stroke markers" d=" M 0 0 L 2 6 L 6 -6 L 10 6 L 14 -6 L 18 6 L 22 -6 L 26 6 L 30 -6 L 32 0" stroke-linecap="round" stroke-miterlimit="10" stroke-width="3"/></g><text fill="#ffffff" stroke="none" font-family="sans-serif" font-size="12px" font-style="normal" font-weight="normal" text-decoration="normal" x="282" y="166" text-anchor="start" dominant-baseline="alphabetic">1k</text><path fill="none" stroke="#807f7f" paint-order="fill stroke markers" d=" M 272 192 L 272 224" stroke-linecap="round" stroke-miterlimit="10" stroke-width="3"/><path fill="none" stroke="#807f7f" paint-order="fill stroke markers" d=" M 282 224 L 262 224" stroke-linecap="round" stroke-miterlimit="10" stroke-width="3"/><path fill="none" stroke="#807f7f" paint-order="fill stroke markers" d=" M 278 229 L 266 229" stroke-linecap="round" stroke-miterlimit="10" stroke-width="3"/><path fill="none" stroke="#807f7f" paint-order="fill stroke markers" d=" M 274 234 L 270 234" stroke-linecap="round" stroke-miterlimit="10" stroke-width="3"/><g><text fill="#c0c0c0" stroke="none" font-family="sans-serif" font-size="12px" font-style="normal" font-weight="normal" text-decoration="normal" x="126" y="172" text-anchor="start" dominant-baseline="alphabetic">Press switch</text></g><path fill="none" stroke="#01fd01" paint-order="fill stroke markers" d=" M 96 128 L 144 128" stroke-linecap="round" stroke-miterlimit="10" stroke-width="3"/><path fill="none" stroke="#807f7f" paint-order="fill stroke markers" d=" M 176 128 L 224 128" stroke-linecap="round" stroke-miterlimit="10" stroke-width="3"/><path fill="none" stroke="#ffffff" paint-order="fill stroke markers" d=" M 144 128 L 176 112" stroke-linecap="round" stroke-miterlimit="10" stroke-width="3"/><rect fill="none" stroke="#808080" x="124" y="87" width="68" height="68" stroke-linecap="round" stroke-miterlimit="10" stroke-dasharray="16,6"/><path fill="none" stroke="#01fd01" paint-order="fill stroke markers" d=" M 96 128 L 96 97" stroke-linecap="round" stroke-miterlimit="10" stroke-width="3"/><g><text fill="#ffffff" stroke="none" font-family="sans-serif" font-size="12px" font-style="normal" font-weight="normal" text-decoration="normal" x="82" y="85" text-anchor="start" dominant-baseline="central">+10V</text></g><g><text fill="#c0c0c0" stroke="none" font-family="sans-serif" font-size="30px" font-style="normal" font-weight="normal" text-decoration="normal" x="134" y="31" text-anchor="start" dominant-baseline="alphabetic">GATE</text></g><path fill="none" stroke="#807f7f" paint-order="fill stroke markers" d=" M 640 128 L 680 128" stroke-linecap="round" stroke-miterlimit="10" stroke-width="3"/><path fill="none" stroke="#807f7f" paint-order="fill stroke markers" d=" M 709 128 L 752 128" stroke-linecap="round" stroke-miterlimit="10" stroke-width="3"/><path fill="none" stroke="#c0c0c0" paint-order="fill stroke markers" d=" M 680 112 L 680 144 L 707 128 Z" stroke-linecap="round" stroke-miterlimit="10" stroke-width="3"/><path fill="none" stroke="#c0c0c0" paint-order="fill stroke markers" d=" M 684 125 L 693 125 L 693 131 L 696 131 L 687 131 L 687 125 Z" stroke-linecap="round" stroke-miterlimit="10" stroke-width="2"/><path fill="#ffffff" stroke="none" paint-order="stroke fill markers" d=" M 563 128 A 3 3 0 1 1 562.9999999999577 127.99998407846124 Z"/><path fill="#ffffff" stroke="none" paint-order="stroke fill markers" d=" M 643 128 A 3 3 0 1 1 642.9999999999577 127.99998407846124 Z"/></g></g></svg>