<svg version="1.1" xmlns="http://www.w3.org/2000/svg" xmlns:xlink="http://www.w3.org/1999/xlink" width="764" height="292"><defs><linearGradient id="ACvxFDqrawcQ" x1="0px" x2="32px" y1="0px" y2="0px" gradientUnits="userSpaceOnUse"><stop offset="0" stop-color="#807f7f"/><stop offset="1" stop-color="#807f7f"/></linearGradient><linearGradient id="maLXIZUfINfV" x1="0px" x2="32px" y1="0px" y2="0px" gradientUnits="userSpaceOnUse"><stop offset="0" stop-color="#807f7f"/><stop offset="1" stop-color="#807f7f"/></linearGradient><clipPath id="zfJpONQLFMzF"><path fill="none" stroke="none" d=" M 0 0 L 288 0 L 288 176 L 0 176 L 0 0 Z"/></clipPath></defs><g><rect fill="#000000" stroke="none" x="0" y="0" width="764" height="292"/><g transform="scale(1,1) translate(-266,-366)"><path fill="none" stroke="#807f7f" paint-order="fill stroke markers" d=" M 544 576 L 544 552" stroke-linecap="round" stroke-miterlimit="10" stroke-width="3" stroke-dasharray=""/><path fill="none" stroke="#807f7f" paint-order="fill stroke markers" d=" M 544 520 L 544 496" stroke-linecap="round" stroke-miterlimit="10" stroke-width="3" stroke-dasharray=""/><g transform="matrix(0,-1,1,0,544,552)"><path fill="none" stroke="url(#ACvxFDqrawcQ)" paint-order="fill stroke markers" d=" M 0 0 L 2 6 L 6 -6 L 10 6 L 14 -6 L 18 6 L 22 -6 L 26 6 L 30 -6 L 32 0" stroke-linecap="round" stroke-miterlimit="10" stroke-width="3" stroke-dasharray=""/></g><text fill="#ffffff" stroke="none" font-family="sans-serif" font-size="12px" font-style="normal" font-weight="normal" text-decoration="normal" x="554" y="542" text-anchor="start" dominant-baseline="alphabetic">100k</text><path fill="none" stroke="#807f7f" paint-order="fill stroke markers" d=" M 464 560 L 464 592" stroke-linecap="round" stroke-miterlimit="10" stroke-width="3" stroke-dasharray=""/><path fill="none" stroke="#807f7f" paint-order="fill stroke markers" d=" M 474 592 L 454 592" stroke-linecap="round" stroke-miterlimit="10" stroke-width="3" stroke-dasharray=""/><path fill="none" stroke="#807f7f" paint-order="fill stroke markers" d=" M 470 597 L 458 597" stroke-linecap="round" stroke-miterlimit="10" stroke-width="3" stroke-dasharray=""/><path fill="none" stroke="#807f7f" paint-order="fill stroke markers" d=" M 466 602 L 462 602" stroke-linecap="round" stroke-miterlimit="10" stroke-width="3" stroke-dasharray=""/><path fill="none" stroke="#807f7f" paint-order="fill stroke markers" d=" M 384 480 L 420 480" stroke-linecap="round" stroke-miterlimit="10" stroke-width="3" stroke-dasharray=""/><path fill="none" stroke="#807f7f" paint-order="fill stroke markers" d=" M 420 468 L 420 492" stroke-linecap="round" stroke-miterlimit="10" stroke-width="3" stroke-dasharray=""/><path fill="none" stroke="#807f7f" paint-order="fill stroke markers" d=" M 464 480 L 428 480" stroke-linecap="round" stroke-miterlimit="10" stroke-width="3" stroke-dasharray=""/><path fill="none" stroke="#807f7f" paint-order="fill stroke markers" d=" M 428 468 L 428 492" stroke-linecap="round" stroke-miterlimit="10" stroke-width="3" stroke-dasharray=""/><text fill="#ffffff" stroke="none" font-family="sans-serif" font-size="12px" font-style="normal" font-weight="normal" text-decoration="normal" x="411" y="466" text-anchor="start" dominant-baseline="alphabetic">10nF</text><path fill="none" stroke="#807f7f" paint-order="fill stroke markers" d=" M 464 560 L 464 536" stroke-linecap="round" stroke-miterlimit="10" stroke-width="3" stroke-dasharray=""/><path fill="none" stroke="#807f7f" paint-order="fill stroke markers" d=" M 464 504 L 464 480" stroke-linecap="round" stroke-miterlimit="10" stroke-width="3" stroke-dasharray=""/><g transform="matrix(0,-1,1,0,464,536)"><path fill="none" stroke="url(#maLXIZUfINfV)" paint-order="fill stroke markers" d=" M 0 0 L 2 6 L 6 -6 L 10 6 L 14 -6 L 18 6 L 22 -6 L 26 6 L 30 -6 L 32 0" stroke-linecap="round" stroke-miterlimit="10" stroke-width="3" stroke-dasharray=""/></g><text fill="#ffffff" stroke="none" font-family="sans-serif" font-size="12px" font-style="normal" font-weight="normal" text-decoration="normal" x="474" y="526" text-anchor="start" dominant-baseline="alphabetic">10k</text><path fill="none" stroke="#01fd01" paint-order="fill stroke markers" d=" M 544 464 L 531 474" stroke-linecap="round" stroke-miterlimit="10" stroke-width="3" stroke-dasharray=""/><path fill="none" stroke="#807f7f" paint-order="fill stroke markers" d=" M 544 496 L 531 486" stroke-linecap="round" stroke-miterlimit="10" stroke-width="3" stroke-dasharray=""/><path fill="#c0c0c0" stroke="none" paint-order="stroke fill markers" d=" M 544 496 L 540 488 L 535 494 Z"/><path fill="none" stroke="#807f7f" paint-order="fill stroke markers" d=" M 464 480 L 528 480" stroke-linecap="round" stroke-miterlimit="10" stroke-width="3" stroke-dasharray=""/><path fill="#807f7f" stroke="none" paint-order="stroke fill markers" d=" M 528 464 L 531 464 L 531 496 L 528 496 Z"/><path fill="none" stroke="#807f7f" paint-order="fill stroke markers" d=" M 544 576 L 544 592" stroke-linecap="round" stroke-miterlimit="10" stroke-width="3" stroke-dasharray=""/><path fill="none" stroke="#807f7f" paint-order="fill stroke markers" d=" M 554 592 L 534 592" stroke-linecap="round" stroke-miterlimit="10" stroke-width="3" stroke-dasharray=""/><path fill="none" stroke="#807f7f" paint-order="fill stroke markers" d=" M 550 597 L 538 597" stroke-linecap="round" stroke-miterlimit="10" stroke-width="3" stroke-dasharray=""/><path fill="none" stroke="#807f7f" paint-order="fill stroke markers" d=" M 546 602 L 542 602" stroke-linecap="round" stroke-miterlimit="10" stroke-width="3" stroke-dasharray=""/><path fill="none" stroke="#807f7f" paint-order="fill stroke markers" d=" M 544 496 L 608 496" stroke-linecap="round" stroke-miterlimit="10" stroke-width="3" stroke-dasharray=""/><text fill="#ffffff" stroke="none" font-family="sans-serif" font-size="12px" font-style="normal" font-weight="normal" text-decoration="normal" x="576" y="490" text-anchor="start" dominant-baseline="alphabetic"></text><path fill="none" stroke="#01fd01" paint-order="fill stroke markers" d=" M 544 464 L 544 433" stroke-linecap="round" stroke-miterlimit="10" stroke-width="3" stroke-dasharray=""/><g><text fill="#ffffff" stroke="none" font-family="sans-serif" font-size="12px" font-style="normal" font-weight="normal" text-decoration="normal" x="530" y="421" text-anchor="start" dominant-baseline="central">+12V</text></g><path fill="none" stroke="#807f7f" paint-order="fill stroke markers" d=" M 384 480 L 353 480" stroke-linecap="round" stroke-miterlimit="10" stroke-width="3" stroke-dasharray=""/><path fill="none" stroke="#808080" paint-order="fill stroke markers" d=" M 352.66 480 A 16.66 16.66 0 1 1 352.6599916700007 479.98334000277663" stroke-linecap="round" stroke-miterlimit="10" stroke-width="3" stroke-dasharray=""/><path fill="none" stroke="#808080" paint-order="fill stroke markers" d=" M 328 472 L 328 480" stroke-linecap="round" stroke-miterlimit="10" stroke-width="3" stroke-dasharray=""/><path fill="none" stroke="#808080" paint-order="fill stroke markers" d=" M 328 472 L 336 472" stroke-linecap="round" stroke-miterlimit="10" stroke-width="3" stroke-dasharray=""/><path fill="none" stroke="#808080" paint-order="fill stroke markers" d=" M 336 472 L 336 488" stroke-linecap="round" stroke-miterlimit="10" stroke-width="3" stroke-dasharray=""/><path fill="none" stroke="#808080" paint-order="fill stroke markers" d=" M 344 488 L 336 488" stroke-linecap="round" stroke-miterlimit="10" stroke-width="3" stroke-dasharray=""/><path fill="none" stroke="#808080" paint-order="fill stroke markers" d=" M 344 480 L 344 488" stroke-linecap="round" stroke-miterlimit="10" stroke-width="3" stroke-dasharray=""/><text fill="#ffffff" stroke="none" font-family="sans-serif" font-size="12px" font-style="normal" font-weight="normal" text-decoration="normal" x="322" y="461" text-anchor="start" dominant-baseline="alphabetic">40Hz</text><g transform="scale(1,1) translate(266,366)"><g transform="translate(424,224)"><path fill="none" stroke="#404040" paint-order="fill stroke markers" d=" M 4.9 0 A 4.9 4.9 0 1 1 4.899997550000204 -0.004899999183336211" stroke-linecap="round" stroke-miterlimit="10" stroke-width="3" stroke-dasharray=""/><path fill="none" stroke="#404040" paint-order="fill stroke markers" d=" M -8 0 L -5 0" stroke-linecap="round" stroke-miterlimit="10" stroke-width="3" stroke-dasharray=""/><path fill="none" stroke="#404040" paint-order="fill stroke markers" d=" M 8 0 L 5 0" stroke-linecap="round" stroke-miterlimit="10" stroke-width="3" stroke-dasharray=""/><path fill="none" stroke="#404040" paint-order="fill stroke markers" d=" M 0 -8 L 0 -5" stroke-linecap="round" stroke-miterlimit="10" stroke-width="3" stroke-dasharray=""/><path fill="none" stroke="#404040" paint-order="fill stroke markers" d=" M 0 8 L 0 5" stroke-linecap="round" stroke-miterlimit="10" stroke-width="3" stroke-dasharray=""/><path fill="none" stroke="#404040" paint-order="fill stroke markers" d=" M -6 -6 L -4 -4" stroke-linecap="round" stroke-miterlimit="10" stroke-width="3" stroke-dasharray=""/><path fill="none" stroke="#404040" paint-order="fill stroke markers" d=" M 6 -6 L 4 -4" stroke-linecap="round" stroke-miterlimit="10" stroke-width="3" stroke-dasharray=""/><path fill="none" stroke="#404040" paint-order="fill stroke markers" d=" M -6 6 L -4 4" stroke-linecap="round" stroke-miterlimit="10" stroke-width="3" stroke-dasharray=""/><path fill="none" stroke="#404040" paint-order="fill stroke markers" d=" M 6 6 L 4 4" stroke-linecap="round" stroke-miterlimit="10" stroke-width="3" stroke-dasharray=""/></g><g transform="translate(406,66)" clip-path="url(#zfJpONQLFMzF)"><g><path fill="none" stroke="#A0A0A0" paint-order="fill stroke markers" d=" M 0 166 L 287 166" stroke-linecap="round" stroke-miterlimit="10" stroke-dasharray=""/><path fill="none" stroke="#404040" paint-order="fill stroke markers" d=" M 0 134 L 287 134" stroke-linecap="round" stroke-miterlimit="10" stroke-dasharray=""/><path fill="none" stroke="#404040" paint-order="fill stroke markers" d=" M 0 102 L 287 102" stroke-linecap="round" stroke-miterlimit="10" stroke-dasharray=""/><path fill="none" stroke="#404040" paint-order="fill stroke markers" d=" M 0 72 L 287 72" stroke-linecap="round" stroke-miterlimit="10" stroke-dasharray=""/><path fill="none" stroke="#404040" paint-order="fill stroke markers" d=" M 0 40 L 287 40" stroke-linecap="round" stroke-miterlimit="10" stroke-dasharray=""/><path fill="none" stroke="#404040" paint-order="fill stroke markers" d=" M 0 8 L 287 8" stroke-linecap="round" stroke-miterlimit="10" stroke-dasharray=""/><path fill="none" stroke="#A0A0A0" paint-order="fill stroke markers" d=" M 268 0 L 268 175" stroke-linecap="round" stroke-miterlimit="10" stroke-dasharray=""/><path fill="none" stroke="#404040" paint-order="fill stroke markers" d=" M 243 0 L 243 175" stroke-linecap="round" stroke-miterlimit="10" stroke-dasharray=""/><path fill="none" stroke="#404040" paint-order="fill stroke markers" d=" M 218 0 L 218 175" stroke-linecap="round" stroke-miterlimit="10" stroke-dasharray=""/><path fill="none" stroke="#404040" paint-order="fill stroke markers" d=" M 193 0 L 193 175" stroke-linecap="round" stroke-miterlimit="10" stroke-dasharray=""/><path fill="none" stroke="#404040" paint-order="fill stroke markers" d=" M 168 0 L 168 175" stroke-linecap="round" stroke-miterlimit="10" stroke-dasharray=""/><path fill="none" stroke="#404040" paint-order="fill stroke markers" d=" M 143 0 L 143 175" stroke-linecap="round" stroke-miterlimit="10" stroke-dasharray=""/><path fill="none" stroke="#404040" paint-order="fill stroke markers" d=" M 118 0 L 118 175" stroke-linecap="round" stroke-miterlimit="10" stroke-dasharray=""/><path fill="none" stroke="#404040" paint-order="fill stroke markers" d=" M 93 0 L 93 175" stroke-linecap="round" stroke-miterlimit="10" stroke-dasharray=""/><path fill="none" stroke="#404040" paint-order="fill stroke markers" d=" M 68 0 L 68 175" stroke-linecap="round" stroke-miterlimit="10" stroke-dasharray=""/><path fill="none" stroke="#404040" paint-order="fill stroke markers" d=" M 43 0 L 43 175" stroke-linecap="round" stroke-miterlimit="10" stroke-dasharray=""/><path fill="none" stroke="#A0A0A0" paint-order="fill stroke markers" d=" M 18 0 L 18 175" stroke-linecap="round" stroke-miterlimit="10" stroke-dasharray=""/><path fill="none" stroke="#00ff00" paint-order="fill stroke markers" d=" M 0 166 L 81 166" stroke-linecap="round" stroke-miterlimit="10" stroke-dasharray=""/><path fill="none" stroke="#00ff00" paint-order="fill stroke markers" d=" M 81 166 L 81 8" stroke-linecap="round" stroke-miterlimit="10" stroke-dasharray=""/><path fill="none" stroke="#00ff00" paint-order="fill stroke markers" d=" M 82 8 L 237 8" stroke-linecap="round" stroke-miterlimit="10" stroke-dasharray=""/><path fill="none" stroke="#00ff00" paint-order="fill stroke markers" d=" M 237 166 L 237 8" stroke-linecap="round" stroke-miterlimit="10" stroke-dasharray=""/><path fill="none" stroke="#00ff00" paint-order="fill stroke markers" d=" M 238 166 L 287 166" stroke-linecap="round" stroke-miterlimit="10" stroke-dasharray=""/><path fill="none" stroke="#FF0000" paint-order="fill stroke markers" d=" M 0 166 L 81 166" stroke-linecap="round" stroke-miterlimit="10" stroke-dasharray=""/><path fill="none" stroke="#FF0000" paint-order="fill stroke markers" d=" M 81 166 L 81 29" stroke-linecap="round" stroke-miterlimit="10" stroke-dasharray=""/><path fill="none" stroke="#FF0000" paint-order="fill stroke markers" d=" M 82 132 L 82 74" stroke-linecap="round" stroke-miterlimit="10" stroke-dasharray=""/><path fill="none" stroke="#FF0000" paint-order="fill stroke markers" d=" M 83 158 L 83 132" stroke-linecap="round" stroke-miterlimit="10" stroke-dasharray=""/><path fill="none" stroke="#FF0000" paint-order="fill stroke markers" d=" M 84 166 L 84 158" stroke-linecap="round" stroke-miterlimit="10" stroke-dasharray=""/><path fill="none" stroke="#FF0000" paint-order="fill stroke markers" d=" M 85 166 L 287 166" stroke-linecap="round" stroke-miterlimit="10" stroke-dasharray=""/><text fill="#ffffff" stroke="none" font-family="sans-serif" font-size="12px" font-style="normal" font-weight="normal" text-decoration="normal" x="0" y="10" text-anchor="start" dominant-baseline="alphabetic">Max=5 V</text></g></g></g><path fill="#ffffff" stroke="none" paint-order="stroke fill markers" d=" M 547 496 A 3 3 0 1 1 546.9999999999577 495.99998407846124 Z"/><path fill="#ffffff" stroke="none" paint-order="stroke fill markers" d=" M 467 480 A 3 3 0 1 1 466.99999999995777 479.99998407846124 Z"/><path fill="#ffffff" stroke="none" paint-order="stroke fill markers" d=" M 611 496 A 3 3 0 1 1 610.9999999999577 495.99998407846124 Z"/></g></g></svg>