<svg version="1.1" xmlns="http://www.w3.org/2000/svg" xmlns:xlink="http://www.w3.org/1999/xlink" width="570" height="348"><defs><linearGradient id="PWpnkyeUlJuB" x1="0px" x2="32px" y1="0px" y2="0px" gradientUnits="userSpaceOnUse"><stop offset="0" stop-color="#01fd01"/><stop offset="1" stop-color="#807f7f"/></linearGradient><linearGradient id="ZcQZFmMKUNuh" x1="0px" x2="32px" y1="0px" y2="0px" gradientUnits="userSpaceOnUse"><stop offset="0" stop-color="#01fd01"/><stop offset="1" stop-color="#01fd01"/></linearGradient></defs><g><rect fill="#000000" stroke="none" x="0" y="0" width="570" height="348"/><g transform="scale(1,1) translate(-922,170)"><rect fill="none" stroke="#808080" x="1029" y="13" width="68" height="68" stroke-linecap="round" stroke-miterlimit="10" stroke-dasharray="16,6"/><g><text fill="#c0c0c0" stroke="none" font-family="sans-serif" font-size="12px" font-style="normal" font-weight="normal" text-decoration="normal" x="1025" y="-13" text-anchor="start" dominant-baseline="alphabetic">Toggle Switch</text></g><g><text fill="#c0c0c0" stroke="none" font-family="sans-serif" font-size="12px" font-style="normal" font-weight="normal" text-decoration="normal" x="1030" y="3" text-anchor="start" dominant-baseline="alphabetic">ON-OFF-ON</text></g><path fill="none" stroke="#807f7f" paint-order="fill stroke markers" d=" M 1024 48 L 1040 48" stroke-linecap="round" stroke-miterlimit="10" stroke-width="3"/><path fill="none" stroke="#807f7f" paint-order="fill stroke markers" d=" M 1072 32 L 1088 32" stroke-linecap="round" stroke-miterlimit="10" stroke-width="3"/><path fill="none" stroke="#807f7f" paint-order="fill stroke markers" d=" M 1072 48 L 1088 48" stroke-linecap="round" stroke-miterlimit="10" stroke-width="3"/><path fill="none" stroke="#01fd01" paint-order="fill stroke markers" d=" M 1072 64 L 1088 64" stroke-linecap="round" stroke-miterlimit="10" stroke-width="3"/><path fill="none" stroke="#ffffff" paint-order="fill stroke markers" d=" M 1040 48 L 1072 32" stroke-linecap="round" stroke-miterlimit="10" stroke-width="3"/><g><text fill="#c0c0c0" stroke="none" font-family="sans-serif" font-size="24px" font-style="normal" font-weight="normal" text-decoration="normal" x="1241" y="-120" text-anchor="start" dominant-baseline="alphabetic">Arduino</text></g><rect fill="none" stroke="#808080" x="1165" y="-109" width="257" height="237" stroke-linecap="round" stroke-miterlimit="10" stroke-dasharray="16,6"/><path fill="none" stroke="#807f7f" paint-order="fill stroke markers" d=" M 1088 32 L 1248 32" stroke-linecap="round" stroke-miterlimit="10" stroke-width="3"/><text fill="#ffffff" stroke="none" font-family="sans-serif" font-size="12px" font-style="normal" font-weight="normal" text-decoration="normal" x="1168" y="26" text-anchor="start" dominant-baseline="alphabetic"></text><path fill="none" stroke="#01fd01" paint-order="fill stroke markers" d=" M 1248 -32 L 1248 -16" stroke-linecap="round" stroke-miterlimit="10" stroke-width="3"/><path fill="none" stroke="#807f7f" paint-order="fill stroke markers" d=" M 1248 16 L 1248 32" stroke-linecap="round" stroke-miterlimit="10" stroke-width="3"/><g transform="matrix(0,1,-1,0,1248,-16)"><path fill="none" stroke="url(#PWpnkyeUlJuB)" paint-order="fill stroke markers" d=" M 0 0 L 2 6 L 6 -6 L 10 6 L 14 -6 L 18 6 L 22 -6 L 26 6 L 30 -6 L 32 0" stroke-linecap="round" stroke-miterlimit="10" stroke-width="3"/></g><text fill="#ffffff" stroke="none" font-family="sans-serif" font-size="12px" font-style="normal" font-weight="normal" text-decoration="normal" x="1258" y="6" text-anchor="start" dominant-baseline="alphabetic">1M</text><path fill="none" stroke="#01fd01" paint-order="fill stroke markers" d=" M 1248 -32 L 1248 -63" stroke-linecap="round" stroke-miterlimit="10" stroke-width="3"/><g><text fill="#ffffff" stroke="none" font-family="sans-serif" font-size="12px" font-style="normal" font-weight="normal" text-decoration="normal" x="1238" y="-75" text-anchor="start" dominant-baseline="central">+5V</text></g><g><g><text fill="#c0c0c0" stroke="none" font-family="sans-serif" font-size="20px" font-style="normal" font-weight="bold" text-decoration="normal" x="1296" y="32" text-anchor="middle" dominant-baseline="central">L</text></g><path fill="none" stroke="#807f7f" paint-order="fill stroke markers" d=" M 1248 32 L 1284 32" stroke-linecap="round" stroke-miterlimit="10" stroke-width="3"/></g><g><g><text fill="#c0c0c0" stroke="none" font-family="sans-serif" font-size="20px" font-style="normal" font-weight="bold" text-decoration="normal" x="1296" y="64" text-anchor="middle" dominant-baseline="central">H</text></g><path fill="none" stroke="#01fd01" paint-order="fill stroke markers" d=" M 1200 64 L 1284 64" stroke-linecap="round" stroke-miterlimit="10" stroke-width="3"/></g><path fill="none" stroke="#01fd01" paint-order="fill stroke markers" d=" M 1200 -32 L 1200 -24" stroke-linecap="round" stroke-miterlimit="10" stroke-width="3"/><path fill="none" stroke="#01fd01" paint-order="fill stroke markers" d=" M 1200 8 L 1200 16" stroke-linecap="round" stroke-miterlimit="10" stroke-width="3"/><g transform="matrix(0,1,-1,0,1200,-24)"><path fill="none" stroke="url(#ZcQZFmMKUNuh)" paint-order="fill stroke markers" d=" M 0 0 L 2 6 L 6 -6 L 10 6 L 14 -6 L 18 6 L 22 -6 L 26 6 L 30 -6 L 32 0" stroke-linecap="round" stroke-miterlimit="10" stroke-width="3"/></g><text fill="#ffffff" stroke="none" font-family="sans-serif" font-size="12px" font-style="normal" font-weight="normal" text-decoration="normal" x="1210" y="-2" text-anchor="start" dominant-baseline="alphabetic">1M</text><path fill="none" stroke="#01fd01" paint-order="fill stroke markers" d=" M 1088 64 L 1200 64" stroke-linecap="round" stroke-miterlimit="10" stroke-width="3"/><text fill="#ffffff" stroke="none" font-family="sans-serif" font-size="12px" font-style="normal" font-weight="normal" text-decoration="normal" x="1144" y="58" text-anchor="start" dominant-baseline="alphabetic"></text><g><text fill="#c0c0c0" stroke="none" font-family="sans-serif" font-size="12px" font-style="normal" font-weight="normal" text-decoration="normal" x="1319" y="36" text-anchor="start" dominant-baseline="alphabetic">Digital Read</text></g><g><text fill="#c0c0c0" stroke="none" font-family="sans-serif" font-size="12px" font-style="normal" font-weight="normal" text-decoration="normal" x="1318" y="54" text-anchor="start" dominant-baseline="alphabetic">INPUT_PULLUP</text></g><path fill="none" stroke="#01fd01" paint-order="fill stroke markers" d=" M 1248 -32 L 1200 -32" stroke-linecap="round" stroke-miterlimit="10" stroke-width="3"/><text fill="#ffffff" stroke="none" font-family="sans-serif" font-size="12px" font-style="normal" font-weight="normal" text-decoration="normal" x="1224" y="-38" text-anchor="start" dominant-baseline="alphabetic"></text><path fill="none" stroke="#01fd01" paint-order="fill stroke markers" d=" M 1200 16 L 1200 64" stroke-linecap="round" stroke-miterlimit="10" stroke-width="3"/><text fill="#ffffff" stroke="none" font-family="sans-serif" font-size="12px" font-style="normal" font-weight="normal" text-decoration="normal" x="1206" y="46" text-anchor="start" dominant-baseline="alphabetic"></text><path fill="none" stroke="#807f7f" paint-order="fill stroke markers" d=" M 1024 48 L 992 48" stroke-linecap="round" stroke-miterlimit="10" stroke-width="3"/><text fill="#ffffff" stroke="none" font-family="sans-serif" font-size="12px" font-style="normal" font-weight="normal" text-decoration="normal" x="1008" y="42" text-anchor="start" dominant-baseline="alphabetic"></text><path fill="none" stroke="#807f7f" paint-order="fill stroke markers" d=" M 992 48 L 992 80" stroke-linecap="round" stroke-miterlimit="10" stroke-width="3"/><path fill="none" stroke="#807f7f" paint-order="fill stroke markers" d=" M 1002 80 L 982 80" stroke-linecap="round" stroke-miterlimit="10" stroke-width="3"/><path fill="none" stroke="#807f7f" paint-order="fill stroke markers" d=" M 998 85 L 986 85" stroke-linecap="round" stroke-miterlimit="10" stroke-width="3"/><path fill="none" stroke="#807f7f" paint-order="fill stroke markers" d=" M 994 90 L 990 90" stroke-linecap="round" stroke-miterlimit="10" stroke-width="3"/><path fill="#ffffff" stroke="none" paint-order="stroke fill markers" d=" M 1091 48 A 3 3 0 1 1 1090.9999999999577 47.99998407846124 Z"/><path fill="#ffffff" stroke="none" paint-order="stroke fill markers" d=" M 1251 32 A 3 3 0 1 1 1250.9999999999577 31.99998407846124 Z"/><path fill="#ffffff" stroke="none" paint-order="stroke fill markers" d=" M 1251 -32 A 3 3 0 1 1 1250.9999999999577 -32.00001592153876 Z"/><path fill="#ffffff" stroke="none" paint-order="stroke fill markers" d=" M 1203 64 A 3 3 0 1 1 1202.9999999999577 63.99998407846124 Z"/></g></g></svg>