<svg version="1.1" xmlns="http://www.w3.org/2000/svg" xmlns:xlink="http://www.w3.org/1999/xlink" width="764" height="276"><defs><linearGradient id="BWmXTxPmxLnH" x1="0px" x2="32px" y1="0px" y2="0px" gradientUnits="userSpaceOnUse"><stop offset="0" stop-color="#ff0000"/><stop offset="1" stop-color="#807f7f"/></linearGradient><linearGradient id="MHHkmytlDnHM" x1="0px" x2="32px" y1="0px" y2="0px" gradientUnits="userSpaceOnUse"><stop offset="0" stop-color="#807f7f"/><stop offset="1" stop-color="#01fd01"/></linearGradient><clipPath id="uqTmDTPgQzrh"><path fill="none" stroke="none" d=" M 0 0 L 272 0 L 272 144 L 0 144 L 0 0 Z"/></clipPath></defs><g><rect fill="#000000" stroke="none" x="0" y="0" width="764" height="276"/><g transform="scale(1,1) translate(406,-238)"><g><text fill="#c0c0c0" stroke="none" font-family="sans-serif" font-size="12px" font-style="normal" font-weight="normal" text-decoration="normal" x="-135" y="327" text-anchor="start" dominant-baseline="alphabetic">R2</text></g><g><text fill="#c0c0c0" stroke="none" font-family="sans-serif" font-size="12px" font-style="normal" font-weight="normal" text-decoration="normal" x="-247" y="375" text-anchor="start" dominant-baseline="alphabetic">R1</text></g><path fill="none" stroke="#807f7f" paint-order="fill stroke markers" d=" M -192 432 L -192 464" stroke-linecap="round" stroke-miterlimit="10" stroke-width="3" stroke-dasharray=""/><path fill="none" stroke="#807f7f" paint-order="fill stroke markers" d=" M -182 464 L -202 464" stroke-linecap="round" stroke-miterlimit="10" stroke-width="3" stroke-dasharray=""/><path fill="none" stroke="#807f7f" paint-order="fill stroke markers" d=" M -186 469 L -198 469" stroke-linecap="round" stroke-miterlimit="10" stroke-width="3" stroke-dasharray=""/><path fill="none" stroke="#807f7f" paint-order="fill stroke markers" d=" M -190 474 L -194 474" stroke-linecap="round" stroke-miterlimit="10" stroke-width="3" stroke-dasharray=""/><path fill="none" stroke="#ff0000" paint-order="fill stroke markers" d=" M -64 352 L -112 352" stroke-linecap="round" stroke-miterlimit="10" stroke-width="3" stroke-dasharray=""/><path fill="none" stroke="#807f7f" paint-order="fill stroke markers" d=" M -144 352 L -192 352" stroke-linecap="round" stroke-miterlimit="10" stroke-width="3" stroke-dasharray=""/><g transform="matrix(-1,0,0,-1,-112,352)"><path fill="none" stroke="url(#BWmXTxPmxLnH)" paint-order="fill stroke markers" d=" M 0 0 L 2 6 L 6 -6 L 10 6 L 14 -6 L 18 6 L 22 -6 L 26 6 L 30 -6 L 32 0" stroke-linecap="round" stroke-miterlimit="10" stroke-width="3" stroke-dasharray=""/></g><text fill="#ffffff" stroke="none" font-family="sans-serif" font-size="12px" font-style="normal" font-weight="normal" text-decoration="normal" x="-137" y="342" text-anchor="start" dominant-baseline="alphabetic">10k</text><path fill="none" stroke="#807f7f" paint-order="fill stroke markers" d=" M -192 400 L -224 400" stroke-linecap="round" stroke-miterlimit="10" stroke-width="3" stroke-dasharray=""/><path fill="none" stroke="#01fd01" paint-order="fill stroke markers" d=" M -256 400 L -288 400" stroke-linecap="round" stroke-miterlimit="10" stroke-width="3" stroke-dasharray=""/><g transform="matrix(-1,0,0,-1,-224,400)"><path fill="none" stroke="url(#MHHkmytlDnHM)" paint-order="fill stroke markers" d=" M 0 0 L 2 6 L 6 -6 L 10 6 L 14 -6 L 18 6 L 22 -6 L 26 6 L 30 -6 L 32 0" stroke-linecap="round" stroke-miterlimit="10" stroke-width="3" stroke-dasharray=""/></g><text fill="#ffffff" stroke="none" font-family="sans-serif" font-size="12px" font-style="normal" font-weight="normal" text-decoration="normal" x="-249" y="390" text-anchor="start" dominant-baseline="alphabetic">10k</text><path fill="none" stroke="#807f7f" paint-order="fill stroke markers" d=" M -192 400 L -154 400" stroke-linecap="round" stroke-miterlimit="10" stroke-width="3" stroke-dasharray=""/><path fill="none" stroke="#807f7f" paint-order="fill stroke markers" d=" M -192 432 L -154 432" stroke-linecap="round" stroke-miterlimit="10" stroke-width="3" stroke-dasharray=""/><path fill="none" stroke="#ff0000" paint-order="fill stroke markers" d=" M -102 416 L -64 416" stroke-linecap="round" stroke-miterlimit="10" stroke-width="3" stroke-dasharray=""/><path fill="none" stroke="#c0c0c0" paint-order="fill stroke markers" d=" M -154 384 L -154 448 L -102 416 Z" stroke-linecap="round" stroke-miterlimit="10" stroke-width="3" stroke-dasharray=""/><g><text fill="#c0c0c0" stroke="none" font-family="sans-serif" font-size="14px" font-style="normal" font-weight="normal" text-decoration="normal" x="-144" y="398" text-anchor="middle" dominant-baseline="central">-</text></g><g><text fill="#c0c0c0" stroke="none" font-family="sans-serif" font-size="14px" font-style="normal" font-weight="normal" text-decoration="normal" x="-144" y="432" text-anchor="middle" dominant-baseline="central">+</text></g><path fill="none" stroke="#807f7f" paint-order="fill stroke markers" d=" M -192 400 L -192 352" stroke-linecap="round" stroke-miterlimit="10" stroke-width="3" stroke-dasharray=""/><text fill="#ffffff" stroke="none" font-family="sans-serif" font-size="12px" font-style="normal" font-weight="normal" text-decoration="normal" x="-186" y="382" text-anchor="start" dominant-baseline="alphabetic"></text><path fill="none" stroke="#ff0000" paint-order="fill stroke markers" d=" M -64 416 L -64 352" stroke-linecap="round" stroke-miterlimit="10" stroke-width="3" stroke-dasharray=""/><text fill="#ffffff" stroke="none" font-family="sans-serif" font-size="12px" font-style="normal" font-weight="normal" text-decoration="normal" x="-58" y="390" text-anchor="start" dominant-baseline="alphabetic"></text><path fill="none" stroke="#ff0000" paint-order="fill stroke markers" d=" M -64 416 L -16 416" stroke-linecap="round" stroke-miterlimit="10" stroke-width="3" stroke-dasharray=""/><text fill="#ffffff" stroke="none" font-family="sans-serif" font-size="12px" font-style="normal" font-weight="normal" text-decoration="normal" x="-40" y="410" text-anchor="start" dominant-baseline="alphabetic"></text><path fill="none" stroke="#807f7f" paint-order="fill stroke markers" d=" M -192 288 L -132 288" stroke-linecap="round" stroke-miterlimit="10" stroke-width="3" stroke-dasharray=""/><path fill="none" stroke="#807f7f" paint-order="fill stroke markers" d=" M -132 276 L -132 300" stroke-linecap="round" stroke-miterlimit="10" stroke-width="3" stroke-dasharray=""/><path fill="none" stroke="#ff0000" paint-order="fill stroke markers" d=" M -64 288 L -124 288" stroke-linecap="round" stroke-miterlimit="10" stroke-width="3" stroke-dasharray=""/><path fill="none" stroke="#ff0000" paint-order="fill stroke markers" d=" M -124 276 L -124 300" stroke-linecap="round" stroke-miterlimit="10" stroke-width="3" stroke-dasharray=""/><text fill="#ffffff" stroke="none" font-family="sans-serif" font-size="12px" font-style="normal" font-weight="normal" text-decoration="normal" x="-145" y="274" text-anchor="start" dominant-baseline="alphabetic">100nF</text><path fill="none" stroke="#807f7f" paint-order="fill stroke markers" d=" M -192 352 L -192 288" stroke-linecap="round" stroke-miterlimit="10" stroke-width="3" stroke-dasharray=""/><text fill="#ffffff" stroke="none" font-family="sans-serif" font-size="12px" font-style="normal" font-weight="normal" text-decoration="normal" x="-186" y="326" text-anchor="start" dominant-baseline="alphabetic"></text><path fill="none" stroke="#ff0000" paint-order="fill stroke markers" d=" M -64 352 L -64 288" stroke-linecap="round" stroke-miterlimit="10" stroke-width="3" stroke-dasharray=""/><text fill="#ffffff" stroke="none" font-family="sans-serif" font-size="12px" font-style="normal" font-weight="normal" text-decoration="normal" x="-58" y="326" text-anchor="start" dominant-baseline="alphabetic"></text><path fill="none" stroke="#01fd01" paint-order="fill stroke markers" d=" M -288 400 L -319 400" stroke-linecap="round" stroke-miterlimit="10" stroke-width="3" stroke-dasharray=""/><path fill="none" stroke="#808080" paint-order="fill stroke markers" d=" M -319.34 400 A 16.66 16.66 0 1 1 -319.3400083299993 399.98334000277663" stroke-linecap="round" stroke-miterlimit="10" stroke-width="3" stroke-dasharray=""/><path fill="none" stroke="#808080" paint-order="fill stroke markers" d=" M -344 392 L -344 400" stroke-linecap="round" stroke-miterlimit="10" stroke-width="3" stroke-dasharray=""/><path fill="none" stroke="#808080" paint-order="fill stroke markers" d=" M -344 392 L -336 392" stroke-linecap="round" stroke-miterlimit="10" stroke-width="3" stroke-dasharray=""/><path fill="none" stroke="#808080" paint-order="fill stroke markers" d=" M -336 392 L -336 408" stroke-linecap="round" stroke-miterlimit="10" stroke-width="3" stroke-dasharray=""/><path fill="none" stroke="#808080" paint-order="fill stroke markers" d=" M -328 408 L -336 408" stroke-linecap="round" stroke-miterlimit="10" stroke-width="3" stroke-dasharray=""/><path fill="none" stroke="#808080" paint-order="fill stroke markers" d=" M -328 400 L -328 408" stroke-linecap="round" stroke-miterlimit="10" stroke-width="3" stroke-dasharray=""/><text fill="#ffffff" stroke="none" font-family="sans-serif" font-size="12px" font-style="normal" font-weight="normal" text-decoration="normal" x="-350" y="381" text-anchor="start" dominant-baseline="alphabetic">40Hz</text><g transform="scale(1,1) translate(-406,238)"><g transform="translate(440,176)"><path fill="none" stroke="#404040" paint-order="fill stroke markers" d=" M 4.9 0 A 4.9 4.9 0 1 1 4.899997550000204 -0.004899999183336211" stroke-linecap="round" stroke-miterlimit="10" stroke-width="3" stroke-dasharray=""/><path fill="none" stroke="#404040" paint-order="fill stroke markers" d=" M -8 0 L -5 0" stroke-linecap="round" stroke-miterlimit="10" stroke-width="3" stroke-dasharray=""/><path fill="none" stroke="#404040" paint-order="fill stroke markers" d=" M 8 0 L 5 0" stroke-linecap="round" stroke-miterlimit="10" stroke-width="3" stroke-dasharray=""/><path fill="none" stroke="#404040" paint-order="fill stroke markers" d=" M 0 -8 L 0 -5" stroke-linecap="round" stroke-miterlimit="10" stroke-width="3" stroke-dasharray=""/><path fill="none" stroke="#404040" paint-order="fill stroke markers" d=" M 0 8 L 0 5" stroke-linecap="round" stroke-miterlimit="10" stroke-width="3" stroke-dasharray=""/><path fill="none" stroke="#404040" paint-order="fill stroke markers" d=" M -6 -6 L -4 -4" stroke-linecap="round" stroke-miterlimit="10" stroke-width="3" stroke-dasharray=""/><path fill="none" stroke="#404040" paint-order="fill stroke markers" d=" M 6 -6 L 4 -4" stroke-linecap="round" stroke-miterlimit="10" stroke-width="3" stroke-dasharray=""/><path fill="none" stroke="#404040" paint-order="fill stroke markers" d=" M -6 6 L -4 4" stroke-linecap="round" stroke-miterlimit="10" stroke-width="3" stroke-dasharray=""/><path fill="none" stroke="#404040" paint-order="fill stroke markers" d=" M 6 6 L 4 4" stroke-linecap="round" stroke-miterlimit="10" stroke-width="3" stroke-dasharray=""/></g><g transform="translate(422,50)" clip-path="url(#uqTmDTPgQzrh)"><g><path fill="none" stroke="#404040" paint-order="fill stroke markers" d=" M 0 135 L 271 135" stroke-linecap="round" stroke-miterlimit="10" stroke-dasharray=""/><path fill="none" stroke="#404040" paint-order="fill stroke markers" d=" M 0 103 L 271 103" stroke-linecap="round" stroke-miterlimit="10" stroke-dasharray=""/><path fill="none" stroke="#A0A0A0" paint-order="fill stroke markers" d=" M 0 71 L 271 71" stroke-linecap="round" stroke-miterlimit="10" stroke-dasharray=""/><path fill="none" stroke="#404040" paint-order="fill stroke markers" d=" M 0 39 L 271 39" stroke-linecap="round" stroke-miterlimit="10" stroke-dasharray=""/><path fill="none" stroke="#404040" paint-order="fill stroke markers" d=" M 0 7 L 271 7" stroke-linecap="round" stroke-miterlimit="10" stroke-dasharray=""/><path fill="none" stroke="#404040" paint-order="fill stroke markers" d=" M 247 0 L 247 143" stroke-linecap="round" stroke-miterlimit="10" stroke-dasharray=""/><path fill="none" stroke="#404040" paint-order="fill stroke markers" d=" M 222 0 L 222 143" stroke-linecap="round" stroke-miterlimit="10" stroke-dasharray=""/><path fill="none" stroke="#404040" paint-order="fill stroke markers" d=" M 197 0 L 197 143" stroke-linecap="round" stroke-miterlimit="10" stroke-dasharray=""/><path fill="none" stroke="#404040" paint-order="fill stroke markers" d=" M 172 0 L 172 143" stroke-linecap="round" stroke-miterlimit="10" stroke-dasharray=""/><path fill="none" stroke="#404040" paint-order="fill stroke markers" d=" M 147 0 L 147 143" stroke-linecap="round" stroke-miterlimit="10" stroke-dasharray=""/><path fill="none" stroke="#404040" paint-order="fill stroke markers" d=" M 122 0 L 122 143" stroke-linecap="round" stroke-miterlimit="10" stroke-dasharray=""/><path fill="none" stroke="#404040" paint-order="fill stroke markers" d=" M 97 0 L 97 143" stroke-linecap="round" stroke-miterlimit="10" stroke-dasharray=""/><path fill="none" stroke="#404040" paint-order="fill stroke markers" d=" M 72 0 L 72 143" stroke-linecap="round" stroke-miterlimit="10" stroke-dasharray=""/><path fill="none" stroke="#A0A0A0" paint-order="fill stroke markers" d=" M 47 0 L 47 143" stroke-linecap="round" stroke-miterlimit="10" stroke-dasharray=""/><path fill="none" stroke="#404040" paint-order="fill stroke markers" d=" M 22 0 L 22 143" stroke-linecap="round" stroke-miterlimit="10" stroke-dasharray=""/><path fill="none" stroke="#00ff00" paint-order="fill stroke markers" d=" M 0 7 L 16 7" stroke-linecap="round" stroke-miterlimit="10" stroke-dasharray=""/><path fill="none" stroke="#00ff00" paint-order="fill stroke markers" d=" M 16 135 L 16 7" stroke-linecap="round" stroke-miterlimit="10" stroke-dasharray=""/><path fill="none" stroke="#00ff00" paint-order="fill stroke markers" d=" M 17 135 L 173 135" stroke-linecap="round" stroke-miterlimit="10" stroke-dasharray=""/><path fill="none" stroke="#00ff00" paint-order="fill stroke markers" d=" M 173 135 L 173 7" stroke-linecap="round" stroke-miterlimit="10" stroke-dasharray=""/><path fill="none" stroke="#00ff00" paint-order="fill stroke markers" d=" M 174 7 L 271 7" stroke-linecap="round" stroke-miterlimit="10" stroke-dasharray=""/><path fill="none" stroke="#FF0000" paint-order="fill stroke markers" d=" M 0 135 L 16 135" stroke-linecap="round" stroke-miterlimit="10" stroke-dasharray=""/><path fill="none" stroke="#FF0000" paint-order="fill stroke markers" d=" M 16 135 L 16 133" stroke-linecap="round" stroke-miterlimit="10" stroke-dasharray=""/><path fill="none" stroke="#FF0000" paint-order="fill stroke markers" d=" M 17 133 L 17 123" stroke-linecap="round" stroke-miterlimit="10" stroke-dasharray=""/><path fill="none" stroke="#FF0000" paint-order="fill stroke markers" d=" M 18 123 L 18 114" stroke-linecap="round" stroke-miterlimit="10" stroke-dasharray=""/><path fill="none" stroke="#FF0000" paint-order="fill stroke markers" d=" M 19 114 L 19 106" stroke-linecap="round" stroke-miterlimit="10" stroke-dasharray=""/><path fill="none" stroke="#FF0000" paint-order="fill stroke markers" d=" M 20 106 L 20 98" stroke-linecap="round" stroke-miterlimit="10" stroke-dasharray=""/><path fill="none" stroke="#FF0000" paint-order="fill stroke markers" d=" M 21 98 L 21 91" stroke-linecap="round" stroke-miterlimit="10" stroke-dasharray=""/><path fill="none" stroke="#FF0000" paint-order="fill stroke markers" d=" M 22 91 L 22 84" stroke-linecap="round" stroke-miterlimit="10" stroke-dasharray=""/><path fill="none" stroke="#FF0000" paint-order="fill stroke markers" d=" M 23 84 L 23 78" stroke-linecap="round" stroke-miterlimit="10" stroke-dasharray=""/><path fill="none" stroke="#FF0000" paint-order="fill stroke markers" d=" M 24 78 L 24 73" stroke-linecap="round" stroke-miterlimit="10" stroke-dasharray=""/><path fill="none" stroke="#FF0000" paint-order="fill stroke markers" d=" M 25 73 L 25 69" stroke-linecap="round" stroke-miterlimit="10" stroke-dasharray=""/><path fill="none" stroke="#FF0000" paint-order="fill stroke markers" d=" M 26 69 L 26 64" stroke-linecap="round" stroke-miterlimit="10" stroke-dasharray=""/><path fill="none" stroke="#FF0000" paint-order="fill stroke markers" d=" M 27 64 L 27 60" stroke-linecap="round" stroke-miterlimit="10" stroke-dasharray=""/><path fill="none" stroke="#FF0000" paint-order="fill stroke markers" d=" M 28 60 L 28 56" stroke-linecap="round" stroke-miterlimit="10" stroke-dasharray=""/><path fill="none" stroke="#FF0000" paint-order="fill stroke markers" d=" M 29 56 L 29 52" stroke-linecap="round" stroke-miterlimit="10" stroke-dasharray=""/><path fill="none" stroke="#FF0000" paint-order="fill stroke markers" d=" M 30 52 L 30 48" stroke-linecap="round" stroke-miterlimit="10" stroke-dasharray=""/><path fill="none" stroke="#FF0000" paint-order="fill stroke markers" d=" M 31 48 L 31 45" stroke-linecap="round" stroke-miterlimit="10" stroke-dasharray=""/><path fill="none" stroke="#FF0000" paint-order="fill stroke markers" d=" M 32 45 L 32 42" stroke-linecap="round" stroke-miterlimit="10" stroke-dasharray=""/><path fill="none" stroke="#FF0000" paint-order="fill stroke markers" d=" M 33 42 L 33 40" stroke-linecap="round" stroke-miterlimit="10" stroke-dasharray=""/><path fill="none" stroke="#FF0000" paint-order="fill stroke markers" d=" M 34 40 L 34 37" stroke-linecap="round" stroke-miterlimit="10" stroke-dasharray=""/><path fill="none" stroke="#FF0000" paint-order="fill stroke markers" d=" M 35 37 L 35 35" stroke-linecap="round" stroke-miterlimit="10" stroke-dasharray=""/><path fill="none" stroke="#FF0000" paint-order="fill stroke markers" d=" M 36 35 L 36 33" stroke-linecap="round" stroke-miterlimit="10" stroke-dasharray=""/><path fill="none" stroke="#FF0000" paint-order="fill stroke markers" d=" M 37 33 L 37 31" stroke-linecap="round" stroke-miterlimit="10" stroke-dasharray=""/><path fill="none" stroke="#FF0000" paint-order="fill stroke markers" d=" M 38 31 L 38 29" stroke-linecap="round" stroke-miterlimit="10" stroke-dasharray=""/><path fill="none" stroke="#FF0000" paint-order="fill stroke markers" d=" M 39 29 L 39 27" stroke-linecap="round" stroke-miterlimit="10" stroke-dasharray=""/><path fill="none" stroke="#FF0000" paint-order="fill stroke markers" d=" M 40 27 L 40 26" stroke-linecap="round" stroke-miterlimit="10" stroke-dasharray=""/><path fill="none" stroke="#FF0000" paint-order="fill stroke markers" d=" M 41 26 L 41 24" stroke-linecap="round" stroke-miterlimit="10" stroke-dasharray=""/><path fill="none" stroke="#FF0000" paint-order="fill stroke markers" d=" M 42 24 L 42 23" stroke-linecap="round" stroke-miterlimit="10" stroke-dasharray=""/><path fill="none" stroke="#FF0000" paint-order="fill stroke markers" d=" M 43 23 L 43 22" stroke-linecap="round" stroke-miterlimit="10" stroke-dasharray=""/><path fill="none" stroke="#FF0000" paint-order="fill stroke markers" d=" M 44 22 L 44 20" stroke-linecap="round" stroke-miterlimit="10" stroke-dasharray=""/><path fill="none" stroke="#FF0000" paint-order="fill stroke markers" d=" M 45 20 L 45 19" stroke-linecap="round" stroke-miterlimit="10" stroke-dasharray=""/><path fill="none" stroke="#FF0000" paint-order="fill stroke markers" d=" M 46 19 L 46 18" stroke-linecap="round" stroke-miterlimit="10" stroke-dasharray=""/><path fill="none" stroke="#FF0000" paint-order="fill stroke markers" d=" M 47 18 L 48 18" stroke-linecap="round" stroke-miterlimit="10" stroke-dasharray=""/><path fill="none" stroke="#FF0000" paint-order="fill stroke markers" d=" M 48 18 L 48 17" stroke-linecap="round" stroke-miterlimit="10" stroke-dasharray=""/><path fill="none" stroke="#FF0000" paint-order="fill stroke markers" d=" M 49 17 L 49 16" stroke-linecap="round" stroke-miterlimit="10" stroke-dasharray=""/><path fill="none" stroke="#FF0000" paint-order="fill stroke markers" d=" M 50 16 L 50 15" stroke-linecap="round" stroke-miterlimit="10" stroke-dasharray=""/><path fill="none" stroke="#FF0000" paint-order="fill stroke markers" d=" M 51 15 L 52 15" stroke-linecap="round" stroke-miterlimit="10" stroke-dasharray=""/><path fill="none" stroke="#FF0000" paint-order="fill stroke markers" d=" M 52 15 L 52 14" stroke-linecap="round" stroke-miterlimit="10" stroke-dasharray=""/><path fill="none" stroke="#FF0000" paint-order="fill stroke markers" d=" M 53 14 L 54 14" stroke-linecap="round" stroke-miterlimit="10" stroke-dasharray=""/><path fill="none" stroke="#FF0000" paint-order="fill stroke markers" d=" M 54 14 L 54 13" stroke-linecap="round" stroke-miterlimit="10" stroke-dasharray=""/><path fill="none" stroke="#FF0000" paint-order="fill stroke markers" d=" M 55 13 L 56 13" stroke-linecap="round" stroke-miterlimit="10" stroke-dasharray=""/><path fill="none" stroke="#FF0000" paint-order="fill stroke markers" d=" M 56 13 L 56 12" stroke-linecap="round" stroke-miterlimit="10" stroke-dasharray=""/><path fill="none" stroke="#FF0000" paint-order="fill stroke markers" d=" M 57 12 L 58 12" stroke-linecap="round" stroke-miterlimit="10" stroke-dasharray=""/><path fill="none" stroke="#FF0000" paint-order="fill stroke markers" d=" M 58 12 L 58 11" stroke-linecap="round" stroke-miterlimit="10" stroke-dasharray=""/><path fill="none" stroke="#FF0000" paint-order="fill stroke markers" d=" M 59 11 L 61 11" stroke-linecap="round" stroke-miterlimit="10" stroke-dasharray=""/><path fill="none" stroke="#FF0000" paint-order="fill stroke markers" d=" M 61 11 L 61 10" stroke-linecap="round" stroke-miterlimit="10" stroke-dasharray=""/><path fill="none" stroke="#FF0000" paint-order="fill stroke markers" d=" M 62 10 L 65 10" stroke-linecap="round" stroke-miterlimit="10" stroke-dasharray=""/><path fill="none" stroke="#FF0000" paint-order="fill stroke markers" d=" M 65 10 L 65 9" stroke-linecap="round" stroke-miterlimit="10" stroke-dasharray=""/><path fill="none" stroke="#FF0000" paint-order="fill stroke markers" d=" M 66 9 L 72 9" stroke-linecap="round" stroke-miterlimit="10" stroke-dasharray=""/><path fill="none" stroke="#FF0000" paint-order="fill stroke markers" d=" M 72 9 L 72 8" stroke-linecap="round" stroke-miterlimit="10" stroke-dasharray=""/><path fill="none" stroke="#FF0000" paint-order="fill stroke markers" d=" M 73 8 L 85 8" stroke-linecap="round" stroke-miterlimit="10" stroke-dasharray=""/><path fill="none" stroke="#FF0000" paint-order="fill stroke markers" d=" M 85 8 L 85 7" stroke-linecap="round" stroke-miterlimit="10" stroke-dasharray=""/><path fill="none" stroke="#FF0000" paint-order="fill stroke markers" d=" M 86 7 L 173 7" stroke-linecap="round" stroke-miterlimit="10" stroke-dasharray=""/><path fill="none" stroke="#FF0000" paint-order="fill stroke markers" d=" M 173 17 L 173 7" stroke-linecap="round" stroke-miterlimit="10" stroke-dasharray=""/><path fill="none" stroke="#FF0000" paint-order="fill stroke markers" d=" M 174 26 L 174 17" stroke-linecap="round" stroke-miterlimit="10" stroke-dasharray=""/><path fill="none" stroke="#FF0000" paint-order="fill stroke markers" d=" M 175 34 L 175 26" stroke-linecap="round" stroke-miterlimit="10" stroke-dasharray=""/><path fill="none" stroke="#FF0000" paint-order="fill stroke markers" d=" M 176 42 L 176 34" stroke-linecap="round" stroke-miterlimit="10" stroke-dasharray=""/><path fill="none" stroke="#FF0000" paint-order="fill stroke markers" d=" M 177 49 L 177 42" stroke-linecap="round" stroke-miterlimit="10" stroke-dasharray=""/><path fill="none" stroke="#FF0000" paint-order="fill stroke markers" d=" M 178 56 L 178 49" stroke-linecap="round" stroke-miterlimit="10" stroke-dasharray=""/><path fill="none" stroke="#FF0000" paint-order="fill stroke markers" d=" M 179 62 L 179 56" stroke-linecap="round" stroke-miterlimit="10" stroke-dasharray=""/><path fill="none" stroke="#FF0000" paint-order="fill stroke markers" d=" M 180 68 L 180 62" stroke-linecap="round" stroke-miterlimit="10" stroke-dasharray=""/><path fill="none" stroke="#FF0000" paint-order="fill stroke markers" d=" M 181 72 L 181 68" stroke-linecap="round" stroke-miterlimit="10" stroke-dasharray=""/><path fill="none" stroke="#FF0000" paint-order="fill stroke markers" d=" M 182 77 L 182 72" stroke-linecap="round" stroke-miterlimit="10" stroke-dasharray=""/><path fill="none" stroke="#FF0000" paint-order="fill stroke markers" d=" M 183 81 L 183 77" stroke-linecap="round" stroke-miterlimit="10" stroke-dasharray=""/><path fill="none" stroke="#FF0000" paint-order="fill stroke markers" d=" M 184 85 L 184 81" stroke-linecap="round" stroke-miterlimit="10" stroke-dasharray=""/><path fill="none" stroke="#FF0000" paint-order="fill stroke markers" d=" M 185 89 L 185 85" stroke-linecap="round" stroke-miterlimit="10" stroke-dasharray=""/><path fill="none" stroke="#FF0000" paint-order="fill stroke markers" d=" M 186 93 L 186 89" stroke-linecap="round" stroke-miterlimit="10" stroke-dasharray=""/><path fill="none" stroke="#FF0000" paint-order="fill stroke markers" d=" M 187 96 L 187 93" stroke-linecap="round" stroke-miterlimit="10" stroke-dasharray=""/><path fill="none" stroke="#FF0000" paint-order="fill stroke markers" d=" M 188 99 L 188 96" stroke-linecap="round" stroke-miterlimit="10" stroke-dasharray=""/><path fill="none" stroke="#FF0000" paint-order="fill stroke markers" d=" M 189 102 L 189 99" stroke-linecap="round" stroke-miterlimit="10" stroke-dasharray=""/><path fill="none" stroke="#FF0000" paint-order="fill stroke markers" d=" M 190 104 L 190 102" stroke-linecap="round" stroke-miterlimit="10" stroke-dasharray=""/><path fill="none" stroke="#FF0000" paint-order="fill stroke markers" d=" M 191 107 L 191 104" stroke-linecap="round" stroke-miterlimit="10" stroke-dasharray=""/><path fill="none" stroke="#FF0000" paint-order="fill stroke markers" d=" M 192 109 L 192 107" stroke-linecap="round" stroke-miterlimit="10" stroke-dasharray=""/><path fill="none" stroke="#FF0000" paint-order="fill stroke markers" d=" M 193 111 L 193 109" stroke-linecap="round" stroke-miterlimit="10" stroke-dasharray=""/><path fill="none" stroke="#FF0000" paint-order="fill stroke markers" d=" M 194 113 L 194 111" stroke-linecap="round" stroke-miterlimit="10" stroke-dasharray=""/><path fill="none" stroke="#FF0000" paint-order="fill stroke markers" d=" M 195 114 L 195 113" stroke-linecap="round" stroke-miterlimit="10" stroke-dasharray=""/><path fill="none" stroke="#FF0000" paint-order="fill stroke markers" d=" M 196 116 L 196 114" stroke-linecap="round" stroke-miterlimit="10" stroke-dasharray=""/><path fill="none" stroke="#FF0000" paint-order="fill stroke markers" d=" M 197 118 L 197 116" stroke-linecap="round" stroke-miterlimit="10" stroke-dasharray=""/><path fill="none" stroke="#FF0000" paint-order="fill stroke markers" d=" M 198 119 L 198 118" stroke-linecap="round" stroke-miterlimit="10" stroke-dasharray=""/><path fill="none" stroke="#FF0000" paint-order="fill stroke markers" d=" M 199 120 L 199 119" stroke-linecap="round" stroke-miterlimit="10" stroke-dasharray=""/><path fill="none" stroke="#FF0000" paint-order="fill stroke markers" d=" M 200 121 L 200 120" stroke-linecap="round" stroke-miterlimit="10" stroke-dasharray=""/><path fill="none" stroke="#FF0000" paint-order="fill stroke markers" d=" M 201 122 L 201 121" stroke-linecap="round" stroke-miterlimit="10" stroke-dasharray=""/><path fill="none" stroke="#FF0000" paint-order="fill stroke markers" d=" M 202 123 L 202 122" stroke-linecap="round" stroke-miterlimit="10" stroke-dasharray=""/><path fill="none" stroke="#FF0000" paint-order="fill stroke markers" d=" M 203 124 L 203 123" stroke-linecap="round" stroke-miterlimit="10" stroke-dasharray=""/><path fill="none" stroke="#FF0000" paint-order="fill stroke markers" d=" M 204 125 L 204 124" stroke-linecap="round" stroke-miterlimit="10" stroke-dasharray=""/><path fill="none" stroke="#FF0000" paint-order="fill stroke markers" d=" M 205 126 L 205 125" stroke-linecap="round" stroke-miterlimit="10" stroke-dasharray=""/><path fill="none" stroke="#FF0000" paint-order="fill stroke markers" d=" M 206 127 L 206 126" stroke-linecap="round" stroke-miterlimit="10" stroke-dasharray=""/><path fill="none" stroke="#FF0000" paint-order="fill stroke markers" d=" M 207 127 L 208 127" stroke-linecap="round" stroke-miterlimit="10" stroke-dasharray=""/><path fill="none" stroke="#FF0000" paint-order="fill stroke markers" d=" M 208 128 L 208 127" stroke-linecap="round" stroke-miterlimit="10" stroke-dasharray=""/><path fill="none" stroke="#FF0000" paint-order="fill stroke markers" d=" M 209 128 L 210 128" stroke-linecap="round" stroke-miterlimit="10" stroke-dasharray=""/><path fill="none" stroke="#FF0000" paint-order="fill stroke markers" d=" M 210 129 L 210 128" stroke-linecap="round" stroke-miterlimit="10" stroke-dasharray=""/><path fill="none" stroke="#FF0000" paint-order="fill stroke markers" d=" M 211 129 L 212 129" stroke-linecap="round" stroke-miterlimit="10" stroke-dasharray=""/><path fill="none" stroke="#FF0000" paint-order="fill stroke markers" d=" M 212 130 L 212 129" stroke-linecap="round" stroke-miterlimit="10" stroke-dasharray=""/><path fill="none" stroke="#FF0000" paint-order="fill stroke markers" d=" M 213 130 L 214 130" stroke-linecap="round" stroke-miterlimit="10" stroke-dasharray=""/><path fill="none" stroke="#FF0000" paint-order="fill stroke markers" d=" M 214 131 L 214 130" stroke-linecap="round" stroke-miterlimit="10" stroke-dasharray=""/><path fill="none" stroke="#FF0000" paint-order="fill stroke markers" d=" M 215 131 L 217 131" stroke-linecap="round" stroke-miterlimit="10" stroke-dasharray=""/><path fill="none" stroke="#FF0000" paint-order="fill stroke markers" d=" M 217 132 L 217 131" stroke-linecap="round" stroke-miterlimit="10" stroke-dasharray=""/><path fill="none" stroke="#FF0000" paint-order="fill stroke markers" d=" M 218 132 L 222 132" stroke-linecap="round" stroke-miterlimit="10" stroke-dasharray=""/><path fill="none" stroke="#FF0000" paint-order="fill stroke markers" d=" M 222 133 L 222 132" stroke-linecap="round" stroke-miterlimit="10" stroke-dasharray=""/><path fill="none" stroke="#FF0000" paint-order="fill stroke markers" d=" M 223 133 L 228 133" stroke-linecap="round" stroke-miterlimit="10" stroke-dasharray=""/><path fill="none" stroke="#FF0000" paint-order="fill stroke markers" d=" M 228 134 L 228 133" stroke-linecap="round" stroke-miterlimit="10" stroke-dasharray=""/><path fill="none" stroke="#FF0000" paint-order="fill stroke markers" d=" M 229 134 L 241 134" stroke-linecap="round" stroke-miterlimit="10" stroke-dasharray=""/><path fill="none" stroke="#FF0000" paint-order="fill stroke markers" d=" M 241 135 L 241 134" stroke-linecap="round" stroke-miterlimit="10" stroke-dasharray=""/><path fill="none" stroke="#FF0000" paint-order="fill stroke markers" d=" M 242 135 L 271 135" stroke-linecap="round" stroke-miterlimit="10" stroke-dasharray=""/><text fill="#ffffff" stroke="none" font-family="sans-serif" font-size="12px" font-style="normal" font-weight="normal" text-decoration="normal" x="0" y="10" text-anchor="start" dominant-baseline="alphabetic">Max=10 V</text></g></g></g><path fill="#ffffff" stroke="none" paint-order="stroke fill markers" d=" M -61 352 A 3 3 0 1 1 -61.00000000004225 351.99998407846124 Z"/><path fill="#ffffff" stroke="none" paint-order="stroke fill markers" d=" M -189 352 A 3 3 0 1 1 -189.00000000004226 351.99998407846124 Z"/><path fill="#ffffff" stroke="none" paint-order="stroke fill markers" d=" M -189 400 A 3 3 0 1 1 -189.00000000004226 399.99998407846124 Z"/><path fill="#ffffff" stroke="none" paint-order="stroke fill markers" d=" M -61 416 A 3 3 0 1 1 -61.00000000004225 415.99998407846124 Z"/><path fill="#ffffff" stroke="none" paint-order="stroke fill markers" d=" M -13 416 A 3 3 0 1 1 -13.000000000042249 415.99998407846124 Z"/></g></g></svg>