<svg version="1.1" xmlns="http://www.w3.org/2000/svg" xmlns:xlink="http://www.w3.org/1999/xlink" width="668" height="244"><defs><linearGradient id="BoscgRZHbGxQ" x1="0px" x2="32px" y1="0px" y2="0px" gradientUnits="userSpaceOnUse"><stop offset="0" stop-color="#817e7e"/><stop offset="1" stop-color="#807f7f"/></linearGradient><clipPath id="MrDOAEQnCaSF"><path fill="none" stroke="none" d=" M 0 0 L 272 0 L 272 144 L 0 144 L 0 0 Z"/></clipPath></defs><g><rect fill="#000000" stroke="none" x="0" y="0" width="668" height="244"/><g transform="scale(1,1) translate(966,-494)"><path fill="none" stroke="#817e7e" paint-order="fill stroke markers" d=" M -768 576 L -704 576" stroke-linecap="round" stroke-miterlimit="10" stroke-width="3" stroke-dasharray=""/><text fill="#ffffff" stroke="none" font-family="sans-serif" font-size="12px" font-style="normal" font-weight="normal" text-decoration="normal" x="-736" y="570" text-anchor="start" dominant-baseline="alphabetic"></text><path fill="none" stroke="#807f7f" paint-order="fill stroke markers" d=" M -768 640 L -768 672" stroke-linecap="round" stroke-miterlimit="10" stroke-width="3" stroke-dasharray=""/><path fill="none" stroke="#807f7f" paint-order="fill stroke markers" d=" M -758 672 L -778 672" stroke-linecap="round" stroke-miterlimit="10" stroke-width="3" stroke-dasharray=""/><path fill="none" stroke="#807f7f" paint-order="fill stroke markers" d=" M -762 677 L -774 677" stroke-linecap="round" stroke-miterlimit="10" stroke-width="3" stroke-dasharray=""/><path fill="none" stroke="#807f7f" paint-order="fill stroke markers" d=" M -766 682 L -770 682" stroke-linecap="round" stroke-miterlimit="10" stroke-width="3" stroke-dasharray=""/><path fill="none" stroke="#ff0000" paint-order="fill stroke markers" d=" M -832 576 L -804 576" stroke-linecap="round" stroke-miterlimit="10" stroke-width="3" stroke-dasharray=""/><path fill="none" stroke="#ff0000" paint-order="fill stroke markers" d=" M -804 564 L -804 588" stroke-linecap="round" stroke-miterlimit="10" stroke-width="3" stroke-dasharray=""/><path fill="none" stroke="#817e7e" paint-order="fill stroke markers" d=" M -768 576 L -796 576" stroke-linecap="round" stroke-miterlimit="10" stroke-width="3" stroke-dasharray=""/><path fill="none" stroke="#817e7e" paint-order="fill stroke markers" d=" M -796 564 L -796 588" stroke-linecap="round" stroke-miterlimit="10" stroke-width="3" stroke-dasharray=""/><text fill="#ffffff" stroke="none" font-family="sans-serif" font-size="12px" font-style="normal" font-weight="normal" text-decoration="normal" x="-817" y="562" text-anchor="start" dominant-baseline="alphabetic">100nF</text><path fill="none" stroke="#817e7e" paint-order="fill stroke markers" d=" M -768 576 L -768 592" stroke-linecap="round" stroke-miterlimit="10" stroke-width="3" stroke-dasharray=""/><path fill="none" stroke="#807f7f" paint-order="fill stroke markers" d=" M -768 624 L -768 640" stroke-linecap="round" stroke-miterlimit="10" stroke-width="3" stroke-dasharray=""/><g transform="matrix(0,1,-1,0,-768,592)"><path fill="none" stroke="url(#BoscgRZHbGxQ)" paint-order="fill stroke markers" d=" M 0 0 L 2 6 L 6 -6 L 10 6 L 14 -6 L 18 6 L 22 -6 L 26 6 L 30 -6 L 32 0" stroke-linecap="round" stroke-miterlimit="10" stroke-width="3" stroke-dasharray=""/></g><text fill="#ffffff" stroke="none" font-family="sans-serif" font-size="12px" font-style="normal" font-weight="normal" text-decoration="normal" x="-758" y="614" text-anchor="start" dominant-baseline="alphabetic">10k</text><path fill="none" stroke="#ff0000" paint-order="fill stroke markers" d=" M -832 576 L -879 576" stroke-linecap="round" stroke-miterlimit="10" stroke-width="3" stroke-dasharray=""/><path fill="none" stroke="#808080" paint-order="fill stroke markers" d=" M -879.34 576 A 16.66 16.66 0 1 1 -879.3400083299994 575.9833400027767" stroke-linecap="round" stroke-miterlimit="10" stroke-width="3" stroke-dasharray=""/><path fill="none" stroke="#808080" paint-order="fill stroke markers" d=" M -904 568 L -904 576" stroke-linecap="round" stroke-miterlimit="10" stroke-width="3" stroke-dasharray=""/><path fill="none" stroke="#808080" paint-order="fill stroke markers" d=" M -904 568 L -896 568" stroke-linecap="round" stroke-miterlimit="10" stroke-width="3" stroke-dasharray=""/><path fill="none" stroke="#808080" paint-order="fill stroke markers" d=" M -896 568 L -896 584" stroke-linecap="round" stroke-miterlimit="10" stroke-width="3" stroke-dasharray=""/><path fill="none" stroke="#808080" paint-order="fill stroke markers" d=" M -888 584 L -896 584" stroke-linecap="round" stroke-miterlimit="10" stroke-width="3" stroke-dasharray=""/><path fill="none" stroke="#808080" paint-order="fill stroke markers" d=" M -888 576 L -888 584" stroke-linecap="round" stroke-miterlimit="10" stroke-width="3" stroke-dasharray=""/><text fill="#ffffff" stroke="none" font-family="sans-serif" font-size="12px" font-style="normal" font-weight="normal" text-decoration="normal" x="-910" y="557" text-anchor="start" dominant-baseline="alphabetic">40Hz</text><g transform="scale(1,1) translate(-966,494)"><g transform="translate(344,176)"><path fill="none" stroke="#404040" paint-order="fill stroke markers" d=" M 4.9 0 A 4.9 4.9 0 1 1 4.899997550000204 -0.004899999183336211" stroke-linecap="round" stroke-miterlimit="10" stroke-width="3" stroke-dasharray=""/><path fill="none" stroke="#404040" paint-order="fill stroke markers" d=" M -8 0 L -5 0" stroke-linecap="round" stroke-miterlimit="10" stroke-width="3" stroke-dasharray=""/><path fill="none" stroke="#404040" paint-order="fill stroke markers" d=" M 8 0 L 5 0" stroke-linecap="round" stroke-miterlimit="10" stroke-width="3" stroke-dasharray=""/><path fill="none" stroke="#404040" paint-order="fill stroke markers" d=" M 0 -8 L 0 -5" stroke-linecap="round" stroke-miterlimit="10" stroke-width="3" stroke-dasharray=""/><path fill="none" stroke="#404040" paint-order="fill stroke markers" d=" M 0 8 L 0 5" stroke-linecap="round" stroke-miterlimit="10" stroke-width="3" stroke-dasharray=""/><path fill="none" stroke="#404040" paint-order="fill stroke markers" d=" M -6 -6 L -4 -4" stroke-linecap="round" stroke-miterlimit="10" stroke-width="3" stroke-dasharray=""/><path fill="none" stroke="#404040" paint-order="fill stroke markers" d=" M 6 -6 L 4 -4" stroke-linecap="round" stroke-miterlimit="10" stroke-width="3" stroke-dasharray=""/><path fill="none" stroke="#404040" paint-order="fill stroke markers" d=" M -6 6 L -4 4" stroke-linecap="round" stroke-miterlimit="10" stroke-width="3" stroke-dasharray=""/><path fill="none" stroke="#404040" paint-order="fill stroke markers" d=" M 6 6 L 4 4" stroke-linecap="round" stroke-miterlimit="10" stroke-width="3" stroke-dasharray=""/></g><g transform="translate(326,50)" clip-path="url(#MrDOAEQnCaSF)"><g><path fill="none" stroke="#404040" paint-order="fill stroke markers" d=" M 0 135 L 271 135" stroke-linecap="round" stroke-miterlimit="10" stroke-dasharray=""/><path fill="none" stroke="#404040" paint-order="fill stroke markers" d=" M 0 103 L 271 103" stroke-linecap="round" stroke-miterlimit="10" stroke-dasharray=""/><path fill="none" stroke="#A0A0A0" paint-order="fill stroke markers" d=" M 0 71 L 271 71" stroke-linecap="round" stroke-miterlimit="10" stroke-dasharray=""/><path fill="none" stroke="#404040" paint-order="fill stroke markers" d=" M 0 39 L 271 39" stroke-linecap="round" stroke-miterlimit="10" stroke-dasharray=""/><path fill="none" stroke="#404040" paint-order="fill stroke markers" d=" M 0 7 L 271 7" stroke-linecap="round" stroke-miterlimit="10" stroke-dasharray=""/><path fill="none" stroke="#A0A0A0" paint-order="fill stroke markers" d=" M 257 0 L 257 143" stroke-linecap="round" stroke-miterlimit="10" stroke-dasharray=""/><path fill="none" stroke="#404040" paint-order="fill stroke markers" d=" M 232 0 L 232 143" stroke-linecap="round" stroke-miterlimit="10" stroke-dasharray=""/><path fill="none" stroke="#404040" paint-order="fill stroke markers" d=" M 207 0 L 207 143" stroke-linecap="round" stroke-miterlimit="10" stroke-dasharray=""/><path fill="none" stroke="#404040" paint-order="fill stroke markers" d=" M 182 0 L 182 143" stroke-linecap="round" stroke-miterlimit="10" stroke-dasharray=""/><path fill="none" stroke="#404040" paint-order="fill stroke markers" d=" M 157 0 L 157 143" stroke-linecap="round" stroke-miterlimit="10" stroke-dasharray=""/><path fill="none" stroke="#404040" paint-order="fill stroke markers" d=" M 132 0 L 132 143" stroke-linecap="round" stroke-miterlimit="10" stroke-dasharray=""/><path fill="none" stroke="#404040" paint-order="fill stroke markers" d=" M 107 0 L 107 143" stroke-linecap="round" stroke-miterlimit="10" stroke-dasharray=""/><path fill="none" stroke="#404040" paint-order="fill stroke markers" d=" M 82 0 L 82 143" stroke-linecap="round" stroke-miterlimit="10" stroke-dasharray=""/><path fill="none" stroke="#404040" paint-order="fill stroke markers" d=" M 57 0 L 57 143" stroke-linecap="round" stroke-miterlimit="10" stroke-dasharray=""/><path fill="none" stroke="#404040" paint-order="fill stroke markers" d=" M 32 0 L 32 143" stroke-linecap="round" stroke-miterlimit="10" stroke-dasharray=""/><path fill="none" stroke="#A0A0A0" paint-order="fill stroke markers" d=" M 7 0 L 7 143" stroke-linecap="round" stroke-miterlimit="10" stroke-dasharray=""/><path fill="none" stroke="#00ff00" paint-order="fill stroke markers" d=" M 0 103 L 8 103" stroke-linecap="round" stroke-miterlimit="10" stroke-dasharray=""/><path fill="none" stroke="#00ff00" paint-order="fill stroke markers" d=" M 8 103 L 8 39" stroke-linecap="round" stroke-miterlimit="10" stroke-dasharray=""/><path fill="none" stroke="#00ff00" paint-order="fill stroke markers" d=" M 9 39 L 164 39" stroke-linecap="round" stroke-miterlimit="10" stroke-dasharray=""/><path fill="none" stroke="#00ff00" paint-order="fill stroke markers" d=" M 164 103 L 164 39" stroke-linecap="round" stroke-miterlimit="10" stroke-dasharray=""/><path fill="none" stroke="#00ff00" paint-order="fill stroke markers" d=" M 165 103 L 271 103" stroke-linecap="round" stroke-miterlimit="10" stroke-dasharray=""/><path fill="none" stroke="#FF0000" paint-order="fill stroke markers" d=" M 0 71 L 8 71" stroke-linecap="round" stroke-miterlimit="10" stroke-dasharray=""/><path fill="none" stroke="#FF0000" paint-order="fill stroke markers" d=" M 8 71 L 8 7" stroke-linecap="round" stroke-miterlimit="10" stroke-dasharray=""/><path fill="none" stroke="#FF0000" paint-order="fill stroke markers" d=" M 9 16 L 9 12" stroke-linecap="round" stroke-miterlimit="10" stroke-dasharray=""/><path fill="none" stroke="#FF0000" paint-order="fill stroke markers" d=" M 10 21 L 10 16" stroke-linecap="round" stroke-miterlimit="10" stroke-dasharray=""/><path fill="none" stroke="#FF0000" paint-order="fill stroke markers" d=" M 11 25 L 11 21" stroke-linecap="round" stroke-miterlimit="10" stroke-dasharray=""/><path fill="none" stroke="#FF0000" paint-order="fill stroke markers" d=" M 12 28 L 12 25" stroke-linecap="round" stroke-miterlimit="10" stroke-dasharray=""/><path fill="none" stroke="#FF0000" paint-order="fill stroke markers" d=" M 13 31 L 13 28" stroke-linecap="round" stroke-miterlimit="10" stroke-dasharray=""/><path fill="none" stroke="#FF0000" paint-order="fill stroke markers" d=" M 14 35 L 14 31" stroke-linecap="round" stroke-miterlimit="10" stroke-dasharray=""/><path fill="none" stroke="#FF0000" paint-order="fill stroke markers" d=" M 15 37 L 15 35" stroke-linecap="round" stroke-miterlimit="10" stroke-dasharray=""/><path fill="none" stroke="#FF0000" paint-order="fill stroke markers" d=" M 16 40 L 16 37" stroke-linecap="round" stroke-miterlimit="10" stroke-dasharray=""/><path fill="none" stroke="#FF0000" paint-order="fill stroke markers" d=" M 17 42 L 17 40" stroke-linecap="round" stroke-miterlimit="10" stroke-dasharray=""/><path fill="none" stroke="#FF0000" paint-order="fill stroke markers" d=" M 18 45 L 18 42" stroke-linecap="round" stroke-miterlimit="10" stroke-dasharray=""/><path fill="none" stroke="#FF0000" paint-order="fill stroke markers" d=" M 19 47 L 19 45" stroke-linecap="round" stroke-miterlimit="10" stroke-dasharray=""/><path fill="none" stroke="#FF0000" paint-order="fill stroke markers" d=" M 20 49 L 20 47" stroke-linecap="round" stroke-miterlimit="10" stroke-dasharray=""/><path fill="none" stroke="#FF0000" paint-order="fill stroke markers" d=" M 21 50 L 21 49" stroke-linecap="round" stroke-miterlimit="10" stroke-dasharray=""/><path fill="none" stroke="#FF0000" paint-order="fill stroke markers" d=" M 22 52 L 22 50" stroke-linecap="round" stroke-miterlimit="10" stroke-dasharray=""/><path fill="none" stroke="#FF0000" paint-order="fill stroke markers" d=" M 23 54 L 23 52" stroke-linecap="round" stroke-miterlimit="10" stroke-dasharray=""/><path fill="none" stroke="#FF0000" paint-order="fill stroke markers" d=" M 24 55 L 24 54" stroke-linecap="round" stroke-miterlimit="10" stroke-dasharray=""/><path fill="none" stroke="#FF0000" paint-order="fill stroke markers" d=" M 25 56 L 25 55" stroke-linecap="round" stroke-miterlimit="10" stroke-dasharray=""/><path fill="none" stroke="#FF0000" paint-order="fill stroke markers" d=" M 26 57 L 26 56" stroke-linecap="round" stroke-miterlimit="10" stroke-dasharray=""/><path fill="none" stroke="#FF0000" paint-order="fill stroke markers" d=" M 27 58 L 27 57" stroke-linecap="round" stroke-miterlimit="10" stroke-dasharray=""/><path fill="none" stroke="#FF0000" paint-order="fill stroke markers" d=" M 28 59 L 28 58" stroke-linecap="round" stroke-miterlimit="10" stroke-dasharray=""/><path fill="none" stroke="#FF0000" paint-order="fill stroke markers" d=" M 29 60 L 29 59" stroke-linecap="round" stroke-miterlimit="10" stroke-dasharray=""/><path fill="none" stroke="#FF0000" paint-order="fill stroke markers" d=" M 30 61 L 30 60" stroke-linecap="round" stroke-miterlimit="10" stroke-dasharray=""/><path fill="none" stroke="#FF0000" paint-order="fill stroke markers" d=" M 31 62 L 31 61" stroke-linecap="round" stroke-miterlimit="10" stroke-dasharray=""/><path fill="none" stroke="#FF0000" paint-order="fill stroke markers" d=" M 32 63 L 32 62" stroke-linecap="round" stroke-miterlimit="10" stroke-dasharray=""/><path fill="none" stroke="#FF0000" paint-order="fill stroke markers" d=" M 33 63 L 34 63" stroke-linecap="round" stroke-miterlimit="10" stroke-dasharray=""/><path fill="none" stroke="#FF0000" paint-order="fill stroke markers" d=" M 34 64 L 34 63" stroke-linecap="round" stroke-miterlimit="10" stroke-dasharray=""/><path fill="none" stroke="#FF0000" paint-order="fill stroke markers" d=" M 35 65 L 35 64" stroke-linecap="round" stroke-miterlimit="10" stroke-dasharray=""/><path fill="none" stroke="#FF0000" paint-order="fill stroke markers" d=" M 36 65 L 37 65" stroke-linecap="round" stroke-miterlimit="10" stroke-dasharray=""/><path fill="none" stroke="#FF0000" paint-order="fill stroke markers" d=" M 37 66 L 37 65" stroke-linecap="round" stroke-miterlimit="10" stroke-dasharray=""/><path fill="none" stroke="#FF0000" paint-order="fill stroke markers" d=" M 38 66 L 40 66" stroke-linecap="round" stroke-miterlimit="10" stroke-dasharray=""/><path fill="none" stroke="#FF0000" paint-order="fill stroke markers" d=" M 40 67 L 40 66" stroke-linecap="round" stroke-miterlimit="10" stroke-dasharray=""/><path fill="none" stroke="#FF0000" paint-order="fill stroke markers" d=" M 41 67 L 42 67" stroke-linecap="round" stroke-miterlimit="10" stroke-dasharray=""/><path fill="none" stroke="#FF0000" paint-order="fill stroke markers" d=" M 42 68 L 42 67" stroke-linecap="round" stroke-miterlimit="10" stroke-dasharray=""/><path fill="none" stroke="#FF0000" paint-order="fill stroke markers" d=" M 43 68 L 46 68" stroke-linecap="round" stroke-miterlimit="10" stroke-dasharray=""/><path fill="none" stroke="#FF0000" paint-order="fill stroke markers" d=" M 46 69 L 46 68" stroke-linecap="round" stroke-miterlimit="10" stroke-dasharray=""/><path fill="none" stroke="#FF0000" paint-order="fill stroke markers" d=" M 47 69 L 51 69" stroke-linecap="round" stroke-miterlimit="10" stroke-dasharray=""/><path fill="none" stroke="#FF0000" paint-order="fill stroke markers" d=" M 51 70 L 51 69" stroke-linecap="round" stroke-miterlimit="10" stroke-dasharray=""/><path fill="none" stroke="#FF0000" paint-order="fill stroke markers" d=" M 52 70 L 60 70" stroke-linecap="round" stroke-miterlimit="10" stroke-dasharray=""/><path fill="none" stroke="#FF0000" paint-order="fill stroke markers" d=" M 60 71 L 60 70" stroke-linecap="round" stroke-miterlimit="10" stroke-dasharray=""/><path fill="none" stroke="#FF0000" paint-order="fill stroke markers" d=" M 61 71 L 164 71" stroke-linecap="round" stroke-miterlimit="10" stroke-dasharray=""/><path fill="none" stroke="#FF0000" paint-order="fill stroke markers" d=" M 164 135 L 164 71" stroke-linecap="round" stroke-miterlimit="10" stroke-dasharray=""/><path fill="none" stroke="#FF0000" paint-order="fill stroke markers" d=" M 165 131 L 165 127" stroke-linecap="round" stroke-miterlimit="10" stroke-dasharray=""/><path fill="none" stroke="#FF0000" paint-order="fill stroke markers" d=" M 166 127 L 166 122" stroke-linecap="round" stroke-miterlimit="10" stroke-dasharray=""/><path fill="none" stroke="#FF0000" paint-order="fill stroke markers" d=" M 167 122 L 167 118" stroke-linecap="round" stroke-miterlimit="10" stroke-dasharray=""/><path fill="none" stroke="#FF0000" paint-order="fill stroke markers" d=" M 168 118 L 168 115" stroke-linecap="round" stroke-miterlimit="10" stroke-dasharray=""/><path fill="none" stroke="#FF0000" paint-order="fill stroke markers" d=" M 169 115 L 169 111" stroke-linecap="round" stroke-miterlimit="10" stroke-dasharray=""/><path fill="none" stroke="#FF0000" paint-order="fill stroke markers" d=" M 170 111 L 170 108" stroke-linecap="round" stroke-miterlimit="10" stroke-dasharray=""/><path fill="none" stroke="#FF0000" paint-order="fill stroke markers" d=" M 171 108 L 171 105" stroke-linecap="round" stroke-miterlimit="10" stroke-dasharray=""/><path fill="none" stroke="#FF0000" paint-order="fill stroke markers" d=" M 172 105 L 172 103" stroke-linecap="round" stroke-miterlimit="10" stroke-dasharray=""/><path fill="none" stroke="#FF0000" paint-order="fill stroke markers" d=" M 173 103 L 173 100" stroke-linecap="round" stroke-miterlimit="10" stroke-dasharray=""/><path fill="none" stroke="#FF0000" paint-order="fill stroke markers" d=" M 174 100 L 174 98" stroke-linecap="round" stroke-miterlimit="10" stroke-dasharray=""/><path fill="none" stroke="#FF0000" paint-order="fill stroke markers" d=" M 175 98 L 175 96" stroke-linecap="round" stroke-miterlimit="10" stroke-dasharray=""/><path fill="none" stroke="#FF0000" paint-order="fill stroke markers" d=" M 176 96 L 176 94" stroke-linecap="round" stroke-miterlimit="10" stroke-dasharray=""/><path fill="none" stroke="#FF0000" paint-order="fill stroke markers" d=" M 177 94 L 177 92" stroke-linecap="round" stroke-miterlimit="10" stroke-dasharray=""/><path fill="none" stroke="#FF0000" paint-order="fill stroke markers" d=" M 178 92 L 178 90" stroke-linecap="round" stroke-miterlimit="10" stroke-dasharray=""/><path fill="none" stroke="#FF0000" paint-order="fill stroke markers" d=" M 179 90 L 179 89" stroke-linecap="round" stroke-miterlimit="10" stroke-dasharray=""/><path fill="none" stroke="#FF0000" paint-order="fill stroke markers" d=" M 180 89 L 180 87" stroke-linecap="round" stroke-miterlimit="10" stroke-dasharray=""/><path fill="none" stroke="#FF0000" paint-order="fill stroke markers" d=" M 181 87 L 181 86" stroke-linecap="round" stroke-miterlimit="10" stroke-dasharray=""/><path fill="none" stroke="#FF0000" paint-order="fill stroke markers" d=" M 182 86 L 182 85" stroke-linecap="round" stroke-miterlimit="10" stroke-dasharray=""/><path fill="none" stroke="#FF0000" paint-order="fill stroke markers" d=" M 183 85 L 183 84" stroke-linecap="round" stroke-miterlimit="10" stroke-dasharray=""/><path fill="none" stroke="#FF0000" paint-order="fill stroke markers" d=" M 184 84 L 184 83" stroke-linecap="round" stroke-miterlimit="10" stroke-dasharray=""/><path fill="none" stroke="#FF0000" paint-order="fill stroke markers" d=" M 185 83 L 185 82" stroke-linecap="round" stroke-miterlimit="10" stroke-dasharray=""/><path fill="none" stroke="#FF0000" paint-order="fill stroke markers" d=" M 186 82 L 186 81" stroke-linecap="round" stroke-miterlimit="10" stroke-dasharray=""/><path fill="none" stroke="#FF0000" paint-order="fill stroke markers" d=" M 187 81 L 187 80" stroke-linecap="round" stroke-miterlimit="10" stroke-dasharray=""/><path fill="none" stroke="#FF0000" paint-order="fill stroke markers" d=" M 188 80 L 188 79" stroke-linecap="round" stroke-miterlimit="10" stroke-dasharray=""/><path fill="none" stroke="#FF0000" paint-order="fill stroke markers" d=" M 189 79 L 190 79" stroke-linecap="round" stroke-miterlimit="10" stroke-dasharray=""/><path fill="none" stroke="#FF0000" paint-order="fill stroke markers" d=" M 190 79 L 190 78" stroke-linecap="round" stroke-miterlimit="10" stroke-dasharray=""/><path fill="none" stroke="#FF0000" paint-order="fill stroke markers" d=" M 191 78 L 192 78" stroke-linecap="round" stroke-miterlimit="10" stroke-dasharray=""/><path fill="none" stroke="#FF0000" paint-order="fill stroke markers" d=" M 192 78 L 192 77" stroke-linecap="round" stroke-miterlimit="10" stroke-dasharray=""/><path fill="none" stroke="#FF0000" paint-order="fill stroke markers" d=" M 193 77 L 193 76" stroke-linecap="round" stroke-miterlimit="10" stroke-dasharray=""/><path fill="none" stroke="#FF0000" paint-order="fill stroke markers" d=" M 194 76 L 196 76" stroke-linecap="round" stroke-miterlimit="10" stroke-dasharray=""/><path fill="none" stroke="#FF0000" paint-order="fill stroke markers" d=" M 196 76 L 196 75" stroke-linecap="round" stroke-miterlimit="10" stroke-dasharray=""/><path fill="none" stroke="#FF0000" paint-order="fill stroke markers" d=" M 197 75 L 199 75" stroke-linecap="round" stroke-miterlimit="10" stroke-dasharray=""/><path fill="none" stroke="#FF0000" paint-order="fill stroke markers" d=" M 199 75 L 199 74" stroke-linecap="round" stroke-miterlimit="10" stroke-dasharray=""/><path fill="none" stroke="#FF0000" paint-order="fill stroke markers" d=" M 200 74 L 202 74" stroke-linecap="round" stroke-miterlimit="10" stroke-dasharray=""/><path fill="none" stroke="#FF0000" paint-order="fill stroke markers" d=" M 202 74 L 202 73" stroke-linecap="round" stroke-miterlimit="10" stroke-dasharray=""/><path fill="none" stroke="#FF0000" paint-order="fill stroke markers" d=" M 203 73 L 207 73" stroke-linecap="round" stroke-miterlimit="10" stroke-dasharray=""/><path fill="none" stroke="#FF0000" paint-order="fill stroke markers" d=" M 207 73 L 207 72" stroke-linecap="round" stroke-miterlimit="10" stroke-dasharray=""/><path fill="none" stroke="#FF0000" paint-order="fill stroke markers" d=" M 208 72 L 216 72" stroke-linecap="round" stroke-miterlimit="10" stroke-dasharray=""/><path fill="none" stroke="#FF0000" paint-order="fill stroke markers" d=" M 216 72 L 216 71" stroke-linecap="round" stroke-miterlimit="10" stroke-dasharray=""/><path fill="none" stroke="#FF0000" paint-order="fill stroke markers" d=" M 217 71 L 271 71" stroke-linecap="round" stroke-miterlimit="10" stroke-dasharray=""/><text fill="#ffffff" stroke="none" font-family="sans-serif" font-size="12px" font-style="normal" font-weight="normal" text-decoration="normal" x="0" y="10" text-anchor="start" dominant-baseline="alphabetic">Max=19.95 V</text></g></g></g><g><text fill="#c0c0c0" stroke="none" font-family="sans-serif" font-size="20px" font-style="normal" font-weight="normal" text-decoration="normal" x="-805" y="546" text-anchor="start" dominant-baseline="alphabetic">R</text></g><g><text fill="#c0c0c0" stroke="none" font-family="sans-serif" font-size="20px" font-style="normal" font-weight="normal" text-decoration="normal" x="-753" y="637" text-anchor="start" dominant-baseline="alphabetic">C</text></g><path fill="#ffffff" stroke="none" paint-order="stroke fill markers" d=" M -765 576 A 3 3 0 1 1 -765.0000000000423 575.9999840784612 Z"/><path fill="#ffffff" stroke="none" paint-order="stroke fill markers" d=" M -701 576 A 3 3 0 1 1 -701.0000000000423 575.9999840784612 Z"/></g></g></svg>